<svg width="100" height="100" viewBox="0 0 100 100" fill="none" xmlns="http://www.w3.org/2000/svg">
<path d="M63.4836 22.4883H36.5379C35.9239 22.489 35.3352 22.7393 34.901 23.1841C34.4668 23.6289 34.2226 24.232 34.2218 24.861V86.2128L33.913 86.3093L27.3028 88.3831C26.9895 88.481 26.6512 88.4475 26.362 88.29C26.0728 88.1325 25.8564 87.8639 25.7603 87.5432L6.098 21.7464C6.00231 21.4254 6.03492 21.0787 6.18867 20.7824C6.34241 20.4861 6.60471 20.2644 6.91791 20.1661L56.8209 4.51536C56.9759 4.46648 57.1388 4.4494 57.3003 4.4651C57.4618 4.48079 57.6186 4.52895 57.7619 4.60682C57.9052 4.68469 58.0321 4.79075 58.1353 4.91891C58.2385 5.04708 58.3161 5.19483 58.3635 5.35373L63.3894 22.1719L63.4836 22.4883Z" fill="#F2F2F2"/>
<path d="M63.3062 1.90228C63.2054 1.56454 63.0406 1.25047 62.8213 0.97799C62.602 0.705513 62.3324 0.47998 62.028 0.314275C61.7236 0.14857 61.3903 0.045941 61.0471 0.0122558C60.704 -0.0214293 60.3577 0.0144897 60.0281 0.117957L1.85658 18.3629C1.19129 18.5722 0.63423 19.0434 0.30768 19.673C-0.018871 20.3026 -0.0882349 21.0392 0.114816 21.7212L20.8178 90.9949C20.9828 91.5453 21.3156 92.0272 21.7675 92.3697C22.2193 92.7122 22.7664 92.8973 23.3285 92.8978C23.5887 92.8979 23.8474 92.858 24.0959 92.7792L33.9131 89.7009L34.222 89.6028V89.2722L33.9131 89.3687L24.0048 92.4771C23.4176 92.6604 22.7833 92.5977 22.2411 92.3027C21.699 92.0076 21.2932 91.5043 21.1128 90.9031L0.411342 21.6279C0.321954 21.33 0.2908 21.017 0.319663 20.7068C0.348525 20.3965 0.436836 20.0952 0.579542 19.82C0.722249 19.5448 0.916549 19.3011 1.15131 19.1029C1.38607 18.9047 1.65668 18.756 1.94765 18.6651L60.1192 0.420092C60.3399 0.351092 60.5694 0.31591 60.8001 0.315689C61.2953 0.316829 61.7772 0.480384 62.1751 0.7824C62.573 1.08442 62.866 1.50902 63.0113 1.99403L69.0409 22.172L69.1366 22.4884H69.4578L63.3062 1.90228Z" fill="#3F3D56"/>
<path d="M18.9424 20.2178C18.6448 20.2176 18.3551 20.1197 18.1158 19.9384C17.8765 19.7572 17.7002 19.5021 17.6127 19.2107L15.6239 12.5556C15.5704 12.3769 15.5519 12.1891 15.5693 12.0029C15.5867 11.8168 15.6397 11.6361 15.7254 11.471C15.811 11.3058 15.9275 11.1596 16.0683 11.0407C16.2091 10.9217 16.3714 10.8323 16.5459 10.7776L43.7122 2.25719C44.0646 2.14702 44.4453 2.18459 44.7707 2.36167C45.0961 2.53874 45.3397 2.84084 45.4479 3.20166L47.4367 9.85684C47.5442 10.2179 47.5075 10.6078 47.3346 10.9412C47.1618 11.2745 46.8669 11.524 46.5148 11.6349L19.3484 20.1553C19.2168 20.1967 19.08 20.2178 18.9424 20.2178Z" fill="#343C46"/>
<path d="M29.3607 7.10971C31.0662 7.10971 32.4488 5.69328 32.4488 3.94602C32.4488 2.19877 31.0662 0.782336 29.3607 0.782336C27.6551 0.782336 26.2725 2.19877 26.2725 3.94602C26.2725 5.69328 27.6551 7.10971 29.3607 7.10971Z" fill="#343C46"/>
<path d="M29.3607 5.94937C30.4407 5.94937 31.3162 5.05244 31.3162 3.94602C31.3162 2.83961 30.4407 1.94268 29.3607 1.94268C28.2807 1.94268 27.4051 2.83961 27.4051 3.94602C27.4051 5.05244 28.2807 5.94937 29.3607 5.94937Z" fill="white"/>
<path d="M93.0512 94.7524H40.8614C40.5134 94.752 40.1798 94.6102 39.9338 94.3581C39.6877 94.106 39.5493 93.7643 39.5489 93.4078V29.3432C39.5493 28.9867 39.6877 28.6449 39.9338 28.3928C40.1798 28.1408 40.5134 27.999 40.8614 27.9986H93.0512C93.3992 27.999 93.7327 28.1408 93.9788 28.3929C94.2248 28.6449 94.3633 28.9867 94.3637 29.3432V93.4078C94.3633 93.7643 94.2248 94.106 93.9788 94.3581C93.7327 94.6102 93.3992 94.752 93.0512 94.7524Z" fill="#E6E6E6"/>
<path d="M69.0409 22.172L36.5379 22.1719C35.8421 22.1729 35.175 22.4565 34.6829 22.9606C34.1909 23.4647 33.914 24.1481 33.913 24.861L33.9131 89.3687L34.222 89.2722L34.2218 24.861C34.2226 24.232 34.4668 23.6289 34.901 23.1841C35.3352 22.7393 35.9239 22.489 36.5379 22.4883L69.1366 22.4884L69.0409 22.172ZM97.3746 22.1719H36.5379C35.8421 22.1729 35.175 22.4565 34.6829 22.9606C34.1909 23.4647 33.914 24.1481 33.913 24.861V97.3095C33.914 98.0223 34.1909 98.7058 34.6829 99.2099C35.175 99.7139 35.8421 99.9976 36.5379 99.9986H97.3746C98.0704 99.9976 98.7375 99.7139 99.2296 99.2099C99.7216 98.7058 99.9985 98.0223 99.9995 97.3095V24.861C99.9985 24.1481 99.7216 23.4647 99.2296 22.9606C98.7375 22.4565 98.0704 22.1729 97.3746 22.1719ZM99.6907 97.3095C99.6899 97.9385 99.4457 98.5416 99.0115 98.9864C98.5773 99.4312 97.9886 99.6815 97.3746 99.6822H36.5379C35.9239 99.6815 35.3352 99.4312 34.901 98.9864C34.4668 98.5416 34.2226 97.9385 34.2218 97.3095L34.2218 24.861C34.2226 24.232 34.4668 23.6289 34.901 23.1841C35.3352 22.7393 35.9239 22.489 36.5379 22.4883L97.3746 22.4883C97.9886 22.489 98.5773 22.7393 99.0115 23.1841C99.4457 23.6289 99.6899 24.232 99.6907 24.861V97.3095Z" fill="#3F3D56"/>
<path d="M81.1618 29.132H52.7508C52.3824 29.1316 52.0291 28.9814 51.7686 28.7146C51.5081 28.4477 51.3615 28.0858 51.3611 27.7083V20.7482C51.3615 20.3708 51.5081 20.0089 51.7686 19.742C52.0291 19.4751 52.3824 19.325 52.7508 19.3246H81.1618C81.5302 19.325 81.8835 19.4751 82.144 19.742C82.4045 20.0089 82.5511 20.3708 82.5515 20.7482V27.7083C82.5511 28.0858 82.4045 28.4477 82.144 28.7146C81.8835 28.9814 81.5302 29.1316 81.1618 29.132Z" fill="#343C46"/>
<path d="M66.9563 19.7991C68.6618 19.7991 70.0444 18.3827 70.0444 16.6354C70.0444 14.8882 68.6618 13.4718 66.9563 13.4718C65.2507 13.4718 63.8681 14.8882 63.8681 16.6354C63.8681 18.3827 65.2507 19.7991 66.9563 19.7991Z" fill="#343C46"/>
<path d="M66.9563 18.5624C67.9951 18.5624 68.8372 17.6997 68.8372 16.6354C68.8372 15.5712 67.9951 14.7085 66.9563 14.7085C65.9174 14.7085 65.0753 15.5712 65.0753 16.6354C65.0753 17.6997 65.9174 18.5624 66.9563 18.5624Z" fill="white"/>
</svg>
