<svg width="95" height="24" viewBox="0 0 95 24" fill="none" xmlns="http://www.w3.org/2000/svg">
<g clip-path="url(#clip0_4160_5984)">
<path d="M15.9658 1.91235C16.3198 2.33196 16.5748 2.8296 16.7112 3.36667C16.8597 3.89997 16.8822 4.46192 16.7767 5.00592L13.5983 23.5001H9.05191L12.1976 5.13201H7.71665L4.53824 23.5001H0L3.0801 5.55233C3.25638 4.68742 3.25638 3.79444 3.0801 2.92953C2.8922 2.07504 2.55348 1.26304 2.08071 0.533691H13.1314C13.6743 0.534257 14.2107 0.654669 14.7042 0.88676C15.198 1.12119 15.6304 1.47271 15.9658 1.91235Z" fill="white"/>
<path d="M22.8469 5.10679L22.0277 9.70511H28.065L27.2459 14.3034H21.2413L20.4221 18.9018H29.4822L28.663 23.5001H19.5128C18.9633 23.5043 18.4199 23.3807 17.9236 23.1386C17.4317 22.9009 16.9958 22.5567 16.6457 22.1298C16.2945 21.7019 16.0399 21.1995 15.9003 20.6587C15.7522 20.111 15.7298 19.5355 15.8347 18.9774L18.1448 5.52711C18.321 4.65653 18.321 3.75808 18.1448 2.8875C17.955 2.02841 17.6165 1.21126 17.1454 0.474854H32.6524L31.8333 5.08157L22.8469 5.10679Z" fill="white"/>
<path d="M46.2508 1.87874C46.5997 2.31702 46.8589 2.82312 47.0126 3.36668C47.1745 3.8972 47.2027 4.4612 47.0945 5.00593L43.8915 23.5001H34.7331C34.196 23.5035 33.6647 23.3858 33.1767 23.1554C32.6877 22.9243 32.2542 22.5857 31.907 22.1635C31.5527 21.7275 31.2905 21.2208 31.1369 20.6755C30.976 20.1302 30.9506 19.5522 31.0632 18.9942L33.3979 5.45147C33.5457 4.59616 33.529 3.71942 33.3487 2.87069C33.1791 2.02231 32.8478 1.21668 32.3739 0.500084H43.3918C43.9394 0.490166 44.4819 0.609292 44.9775 0.848304C45.4731 1.08732 45.9087 1.43984 46.2508 1.87874ZM42.5153 5.13202H38.0016L35.6424 18.927H40.1561L42.5153 5.13202Z" fill="white"/>
<path d="M53.1646 5.10665L52.8534 6.78794L59.0136 14.3537C59.4234 14.8756 59.722 15.4798 59.8901 16.1275C60.0549 16.7693 60.0856 17.4397 59.9802 18.0946L59.7017 19.7759C59.6016 20.3159 59.4163 20.8356 59.1528 21.3142C58.9032 21.771 58.5726 22.1758 58.178 22.508C57.7762 22.8442 57.322 23.1085 56.8346 23.2898C56.3373 23.4824 55.8096 23.5793 55.2781 23.5756H45.448L46.2262 18.9773H55.2781L55.5648 17.296L49.4292 9.73019C48.9563 9.16051 48.6296 8.47852 48.479 7.74627C48.3219 7.00575 48.3501 6.23648 48.5609 5.51015C48.7005 4.6542 48.6838 3.77909 48.5117 2.92939C48.3312 2.07266 47.998 1.25755 47.5287 0.525146H63.003L62.1838 5.13187L53.1646 5.10665Z" fill="white"/>
<path d="M79.837 0.5L78.1986 9.95724L71.8828 15.8417L70.5393 23.5084H66.0338L67.3773 15.8417L63.519 7.31762L63.8303 5.49342C63.9699 4.63747 63.9532 3.76234 63.7811 2.91264C63.6006 2.05591 63.2673 1.2408 62.7981 0.508402H69.245L68.1801 6.67872L70.0806 11.9832L74.07 7.63707L75.3151 0.508402L79.837 0.5Z" fill="white"/>
<path d="M85.1616 5.10665L84.8503 6.78794L91.0187 14.3537C91.426 14.876 91.7219 15.4803 91.887 16.1275C92.0519 16.7693 92.0826 17.4397 91.9771 18.0946L91.6986 19.7759C91.6011 20.3154 91.4185 20.8351 91.158 21.3143C90.9036 21.7701 90.5705 22.1746 90.1749 22.508C89.7749 22.8424 89.3237 23.1065 88.8397 23.2898C88.342 23.4809 87.8146 23.5777 87.2832 23.5756H77.4531L78.2313 18.9773H87.2914L87.57 17.296L81.4343 9.73019C80.9614 9.16051 80.6347 8.47852 80.4841 7.74627C80.327 7.00575 80.3552 6.23648 80.566 5.51016C80.7138 4.65484 80.6971 3.77812 80.5168 2.92939C80.3435 2.07035 80.0097 1.2539 79.5338 0.525146H95.0081L94.1889 5.13187L85.1616 5.10665Z" fill="white"/>
</g>
<defs>
<clipPath id="clip0_4160_5984">
<rect width="95" height="23" fill="white" transform="translate(0 0.5)"/>
</clipPath>
</defs>
</svg>
