<svg width="36" height="36" viewBox="0 0 36 36" fill="none" xmlns="http://www.w3.org/2000/svg">
<g id="Group 1">
<path id="Vector" d="M13.7232 9.52612L13.7082 9.52359C13.5722 9.50064 13.4509 9.42469 13.3708 9.3124C13.2908 9.20012 13.2585 9.06066 13.2811 8.92462L13.2812 8.92393C13.8048 5.84689 15.3483 3.03542 17.6633 0.941846L17.6705 0.935332L17.6707 0.935534C17.7634 0.860257 17.8793 0.819174 17.9988 0.819174C18.1183 0.819174 18.2341 0.860257 18.3269 0.935534L18.3345 0.941645L18.3343 0.941838C20.6486 3.03452 22.192 5.84467 22.7163 8.92048L22.7165 8.92143C22.7277 8.98951 22.7254 9.05914 22.7098 9.12634L22.5337 9.08526L22.7098 9.12634C22.6941 9.19353 22.6653 9.25698 22.6251 9.31307C22.5849 9.36915 22.5341 9.41677 22.4755 9.45321C22.4169 9.48964 22.3517 9.51417 22.2836 9.5254C22.2155 9.53664 22.1459 9.53435 22.0787 9.51868C22.0115 9.503 21.948 9.47424 21.892 9.43405C21.8359 9.39385 21.7883 9.343 21.7518 9.2844C21.7156 9.22616 21.6912 9.1614 21.6798 9.09378C21.2036 6.42274 19.9177 3.96423 17.9986 2.05034C16.0756 3.9632 14.7861 6.42229 14.3073 9.09496L13.7232 9.52612ZM13.7232 9.52612H13.7383M13.7232 9.52612H13.7383M13.7383 9.52612H13.7924H13.7383Z" fill="#8CC63F" stroke="#8CC63F" stroke-width="0.361652"/>
<path id="Vector_2" d="M17.9962 35.1808C18.121 35.1832 18.2425 35.1406 18.3386 35.0609L18.3387 35.0611L18.3445 35.0559C20.6588 32.9632 22.2022 30.153 22.7265 27.0772L22.7267 27.0763C22.7494 26.9388 22.7165 26.7979 22.6353 26.6846C22.5542 26.5714 22.4313 26.495 22.2938 26.4723L22.2644 26.6507L22.2938 26.4723C22.1563 26.4496 22.0154 26.4825 21.9022 26.5637C21.7893 26.6446 21.713 26.7669 21.69 26.9038C21.2111 29.5762 19.9216 32.0349 17.9988 33.9475C16.0759 32.0348 14.7864 29.576 14.3075 26.9035C14.2843 26.768 14.2085 26.647 14.0965 26.5672C13.9842 26.4871 13.8447 26.4548 13.7087 26.4774L13.7087 26.4774L13.7082 26.4775C13.5722 26.5005 13.4509 26.5764 13.3708 26.6887C13.2908 26.801 13.2585 26.9404 13.2811 27.0765L13.2811 27.0765L13.2812 27.0772C13.8056 30.153 15.349 32.9632 17.6633 35.0559L17.6632 35.056L17.6692 35.061C17.7612 35.1372 17.8767 35.1795 17.9962 35.1808ZM17.9962 35.1808C17.9957 35.1808 17.9953 35.1807 17.9949 35.1807L17.9988 35L17.9973 35.1808C17.9969 35.1808 17.9966 35.1808 17.9962 35.1808Z" fill="#8CC63F" stroke="#8CC63F" stroke-width="0.361652"/>
<path id="Vector_3" d="M27.0077 22.7252L27.0077 22.7251C26.8698 22.7368 26.7328 22.6932 26.6269 22.604C26.5211 22.5147 26.455 22.387 26.4433 22.2491C26.4316 22.1111 26.4751 21.9741 26.5644 21.8683L26.7024 21.9846L26.5644 21.8683C26.6517 21.7648 26.7757 21.6993 26.9101 21.6855C29.5796 21.2066 32.0359 19.9188 33.9474 17.9987C32.0346 16.0757 29.5754 14.7862 26.9027 14.3073L26.9346 14.1293M27.0077 22.7252L26.5671 14.0965M27.0077 22.7252L27.0148 22.7243L27.0692 22.7175L27.0693 22.7177L27.0772 22.7163C30.153 22.192 32.9631 20.6486 35.0558 18.3343L35.056 18.3345L35.0621 18.3269C35.1374 18.2341 35.1785 18.1183 35.1785 17.9988C35.1785 17.8793 35.1374 17.7634 35.0621 17.6707L35.0623 17.6705L35.0558 17.6633C32.9631 15.349 30.153 13.8056 27.0772 13.2812L27.0772 13.2812L27.0765 13.2811C26.9404 13.2585 26.801 13.2908 26.6887 13.3708C26.5764 13.4509 26.5004 13.5722 26.4775 13.7082L26.4775 13.7082L26.4774 13.7087C26.4548 13.8447 26.4871 13.9842 26.5671 14.0965M27.0077 22.7252L26.5671 14.0965M26.9346 14.1293L26.9045 14.3076C26.7685 14.2847 26.6472 14.2087 26.5671 14.0965M26.9346 14.1293C29.7025 14.6252 32.2445 15.9789 34.2009 17.9988L26.7144 13.9915C26.7666 14.0648 26.8458 14.1144 26.9346 14.1293Z" fill="#8CC63F" stroke="#8CC63F" stroke-width="0.361652"/>
<path id="Vector_4" d="M8.92038 22.7231L8.93551 22.7257H8.95086H8.95763L8.98995 22.7284C9.05826 22.7343 9.12705 22.7266 9.19239 22.7058C9.25773 22.685 9.31833 22.6516 9.37074 22.6074C9.42315 22.5632 9.46634 22.5091 9.49785 22.4482C9.52936 22.3873 9.54856 22.3208 9.55437 22.2525C9.56018 22.1842 9.55247 22.1154 9.53169 22.05C9.51091 21.9847 9.47747 21.9241 9.43327 21.8717C9.38907 21.8193 9.33498 21.7761 9.27409 21.7446C9.21595 21.7145 9.15269 21.6956 9.08763 21.6889C6.41779 21.2091 3.96145 19.9202 2.05034 17.9989C3.96423 16.0798 6.42274 14.794 9.09378 14.3177C9.23076 14.2948 9.35311 14.2185 9.43404 14.1056L9.28707 14.0003L9.43404 14.1056C9.51523 13.9923 9.54809 13.8515 9.5254 13.714C9.50272 13.5765 9.42634 13.4536 9.31307 13.3724C9.1998 13.2913 9.05892 13.2584 8.92143 13.2811L8.92048 13.2812C5.84467 13.8056 3.03452 15.3489 0.941838 17.6633L0.941645 17.6631L0.935534 17.6706C0.860257 17.7634 0.819174 17.8793 0.819174 17.9988C0.819174 18.1183 0.860257 18.2341 0.935534 18.3269L0.935338 18.3271L0.941742 18.3342C3.01165 20.627 5.78527 22.1647 8.82444 22.7064V22.7144L8.91369 22.722C8.91592 22.7223 8.91815 22.7227 8.92038 22.7231Z" fill="#8CC63F" stroke="#8CC63F" stroke-width="0.361652"/>
<path id="Vector_5" d="M25.4868 8.10811H25.4793H25.4385H25.4283L25.4182 8.10697C25.3496 8.09924 25.2833 8.07795 25.223 8.04434L25.311 7.8864L25.223 8.04434C25.1627 8.01073 25.1097 7.96547 25.067 7.91119C25.0244 7.85691 24.9929 7.79469 24.9745 7.72816C24.9563 7.66205 24.9512 7.59298 24.9597 7.52491C25.1445 5.90201 24.457 4.08858 24.1044 3.29917C21.9357 4.05331 21.162 4.91158 21.089 4.99259C21.084 4.99816 21.0823 5.00005 21.0837 4.998L21.0782 5.00621L21.078 5.00604C20.9942 5.11794 20.8695 5.19197 20.7311 5.21188C20.5928 5.23178 20.4522 5.19591 20.3403 5.11216C20.2284 5.02842 20.1544 4.90365 20.1345 4.76531C20.1146 4.62698 20.1504 4.4864 20.2342 4.37451L20.2367 4.37111L20.2368 4.37115C20.2965 4.29511 21.252 3.09044 24.208 2.16476C24.3235 2.12854 24.448 2.13367 24.5601 2.17928L24.4921 2.34654L24.5601 2.17928C24.6723 2.22491 24.765 2.30819 24.8224 2.41481L24.8229 2.4157C24.8547 2.47554 25.2135 3.15822 25.5282 4.13545C25.842 5.11022 26.1171 6.39334 25.9683 7.64914L25.4868 8.10811ZM25.4868 8.10811L25.4943 8.10748M25.4868 8.10811L25.4943 8.10748M25.4943 8.10748C25.6141 8.09749 25.7267 8.04639 25.8131 7.96286C25.8994 7.87937 25.9542 7.76862 25.9683 7.64935L25.4943 8.10748Z" fill="#8CC63F" stroke="#8CC63F" stroke-width="0.361652"/>
<path id="Vector_6" d="M10.5197 8.10827L10.5197 8.10811C10.3917 8.10903 10.2679 8.06282 10.1718 7.97828C10.0758 7.89374 10.0142 7.7768 9.99882 7.64976L9.99877 7.64935C9.84989 6.39349 10.125 5.11027 10.4389 4.13545C10.7536 3.15822 11.1123 2.47554 11.1441 2.4157L11.1446 2.41481L11.1446 2.41481C11.202 2.30819 11.2948 2.22491 11.4069 2.17928L10.5197 8.10827ZM10.5197 8.10827L10.5274 8.10788M10.5197 8.10827L10.5274 8.10788M10.5274 8.10788L10.5954 8.10448L10.5954 8.10485L10.6068 8.10355C10.6749 8.09579 10.7408 8.07466 10.8008 8.04139C10.8607 8.00811 10.9134 7.96333 10.956 7.90962L10.8143 7.79729M10.5274 8.10788L11.9061 3.29891M10.8143 7.79729C10.8421 7.76222 10.8627 7.72202 10.875 7.67898C10.8872 7.63593 10.8908 7.5909 10.8856 7.54646C10.668 5.74094 11.4874 3.75522 11.8104 3.07517L10.5864 7.92388C10.6308 7.91882 10.6738 7.90503 10.713 7.8833C10.7521 7.86158 10.7865 7.83235 10.8143 7.79729ZM10.8143 7.79729L10.956 7.90962C10.9986 7.85591 11.0302 7.79433 11.0489 7.72839C11.0676 7.66246 11.0732 7.59348 11.0652 7.52541L11.0651 7.52482C10.8677 5.88696 11.5538 4.07895 11.9061 3.29891M11.9061 3.29891C13.0334 3.69078 13.7882 4.11164 14.2624 4.43763C14.5102 4.60798 14.6814 4.75244 14.7891 4.85339C14.843 4.90394 14.8806 4.94322 14.9038 4.96902C14.9068 4.97242 14.9096 4.97553 14.912 4.97835L14.9346 5.00777C14.9763 5.06211 15.0283 5.1077 15.0876 5.14195C15.1469 5.17619 15.2124 5.19842 15.2803 5.20736C15.3482 5.2163 15.4172 5.21178 15.4833 5.19406C15.5495 5.17633 15.6115 5.14575 15.6659 5.10406C15.7202 5.06236 15.7658 5.01038 15.8 4.95106L15.6434 4.86064L15.8 4.95106C15.8343 4.89175 15.8565 4.82627 15.8655 4.75836C15.8744 4.69046 15.8699 4.62146 15.8522 4.5553C15.8344 4.48914 15.8038 4.42713 15.7622 4.37279L15.753 4.3609L15.7452 4.35359C15.7447 4.35299 15.7415 4.34949 15.7334 4.34041C15.7229 4.32867 15.708 4.3121 15.6889 4.29152C15.6507 4.25029 15.5961 4.1937 15.5229 4.12466C15.3766 3.98658 15.1572 3.79974 14.8469 3.58627C14.2262 3.15925 13.244 2.6271 11.759 2.16473C11.7589 2.16471 11.7589 2.16469 11.7588 2.16468L11.705 2.33733L11.9061 3.29891ZM10.5184 7.92728C10.4348 7.92789 10.354 7.89772 10.2913 7.84253C10.2286 7.78734 10.1884 7.711 10.1783 7.62807C9.88932 5.19011 11.246 2.60934 11.3038 2.50054L10.5184 7.92728Z" fill="#8CC63F" stroke="#8CC63F" stroke-width="0.361652"/>
<path id="Vector_7" d="M24.2345 33.8505L24.2209 33.8462C22.7444 33.3769 21.7666 32.8413 21.1482 32.4127C20.8391 32.1984 20.6203 32.0112 20.4744 31.8729C20.4014 31.8038 20.3469 31.7472 20.3087 31.706C20.2896 31.6854 20.2748 31.6689 20.2643 31.6571C20.2563 31.6481 20.253 31.6446 20.2525 31.644L20.2447 31.6367L20.2356 31.6248C20.1939 31.5705 20.1633 31.5084 20.1456 31.4423C20.1279 31.3761 20.1234 31.3071 20.1323 31.2392C20.1412 31.1713 20.1635 31.1058 20.1977 31.0465C20.232 30.9872 20.2775 30.9352 20.3319 30.8935C20.3862 30.8518 20.4482 30.8213 20.5144 30.8035C20.5806 30.7858 20.6496 30.7813 20.7175 30.7902C20.7854 30.7992 20.8508 30.8214 20.9102 30.8556M24.2345 33.8505L20.9102 30.8556M24.2345 33.8505L24.2486 33.8526C24.2967 33.8599 24.3456 33.8605 24.3938 33.8542C24.4809 33.8499 24.5657 33.8239 24.6402 33.7783L24.5458 33.624L24.6402 33.7783C24.7179 33.7308 24.7817 33.6637 24.8254 33.5838L24.8254 33.5838L24.8264 33.5819C24.8582 33.5221 25.217 32.8394 25.5317 31.8622C25.8456 30.8873 26.1207 29.6041 25.9718 28.3482L25.9717 28.348C25.9552 28.2102 25.8846 28.0846 25.7755 27.9989C25.6664 27.9131 25.5276 27.8742 25.3898 27.8908C25.252 27.9073 25.1265 27.9779 25.0407 28.087L25.0407 28.087C24.955 28.1962 24.9161 28.3349 24.9326 28.4727L24.9326 28.4728C25.1304 30.1136 24.4561 31.9252 24.0941 32.6996C22.9654 32.3075 22.2098 31.887 21.7352 31.5612C21.4875 31.391 21.3164 31.2467 21.2088 31.1457C21.1549 31.0951 21.1174 31.0559 21.0944 31.0301C21.0934 31.0288 21.0923 31.0277 21.0913 31.0265M24.2345 33.8505L21.0913 31.0265M20.9102 30.8556C20.9695 30.8899 21.0215 30.9355 21.0632 30.9898L21.0913 31.0265M20.9102 30.8556L21.0913 31.0265" fill="#8CC63F" stroke="#8CC63F" stroke-width="0.361652"/>
<path id="Vector_8" d="M11.1612 33.5819L11.1611 33.5819L11.1622 33.5839C11.2072 33.6661 11.2735 33.7346 11.3542 33.7823C11.4333 33.829 11.5234 33.854 11.6153 33.8547C11.6734 33.8573 11.7315 33.8502 11.7872 33.8336L11.7872 33.8336L11.7897 33.8328C14.7457 32.9071 15.7012 31.7025 15.7609 31.6264L15.7609 31.6265L15.7632 31.6235C15.847 31.5122 15.8832 31.372 15.8638 31.234C15.8443 31.096 15.7708 30.9713 15.6595 30.8875C15.5481 30.8036 15.408 30.7674 15.27 30.7868C15.132 30.8063 15.0073 30.8798 14.9234 30.9911L14.9232 30.9909L14.9174 30.9996C14.9188 30.9975 14.9171 30.9994 14.9121 31.005C14.839 31.086 14.0654 31.9443 11.8966 32.6985C11.5439 31.9109 10.8575 30.1142 11.0549 28.4727L11.055 28.4727C11.0631 28.4044 11.0578 28.3353 11.0393 28.2691C11.0207 28.2029 10.9893 28.1411 10.9469 28.087C10.9044 28.033 10.8517 27.9879 10.7918 27.9542C10.7319 27.9205 10.666 27.899 10.5977 27.8908C10.5295 27.8826 10.4603 27.8879 10.3942 27.9065C10.328 27.925 10.2661 27.9564 10.2121 27.9989C10.1581 28.0413 10.1129 28.094 10.0792 28.1539C10.0456 28.2138 10.024 28.2798 10.0158 28.348L10.0158 28.3482C9.86692 29.6041 10.142 30.8873 10.4559 31.8621C10.7706 32.8394 11.1294 33.5221 11.1612 33.5819Z" fill="#8CC63F" stroke="#8CC63F" stroke-width="0.361652"/>
<path id="Vector_9" d="M28.348 25.9988L28.348 25.9989L28.3531 25.9994C28.5944 26.0214 28.8367 26.0296 29.0789 26.0239C30.2097 26.0236 31.3107 25.7383 32.1374 25.448C32.9339 25.1683 33.4917 24.8779 33.5879 24.8196C33.6921 24.762 33.7734 24.6705 33.8183 24.5601C33.8639 24.448 33.8691 24.3235 33.8328 24.208C32.9071 21.252 31.7025 20.2965 31.6264 20.2368L31.6265 20.2367L31.6208 20.2325C31.5067 20.1498 31.3644 20.1159 31.2252 20.1381C31.086 20.1603 30.9614 20.2369 30.8787 20.3511C30.796 20.4652 30.762 20.6075 30.7842 20.7467C30.8061 20.8836 30.8806 21.0064 30.9916 21.0891L30.9986 21.095C31.0049 21.1003 31.0146 21.1088 31.0275 21.1205C31.0534 21.144 31.0922 21.1811 31.142 21.2336C31.2415 21.3386 31.3848 21.5058 31.5545 21.7503C31.8794 22.2186 32.302 22.9719 32.6987 24.118C31.9112 24.4707 30.1144 25.1572 28.4727 24.9597L28.4727 24.9597C28.3349 24.9432 28.1962 24.9821 28.087 25.0678L28.087 25.0678C27.9779 25.1535 27.9073 25.2791 27.8908 25.4169C27.8742 25.5547 27.9131 25.6934 27.9989 25.8026C28.0846 25.9117 28.2102 25.9823 28.348 25.9988Z" fill="#8CC63F" stroke="#8CC63F" stroke-width="0.361652"/>
<path id="Vector_10" d="M32.9225 11.7968C32.2424 11.4737 30.2567 10.6543 28.4512 10.8719L28.3696 10.1952C30.8075 9.90623 33.3883 11.2629 33.4971 11.3207C33.5667 11.3582 33.6211 11.4188 33.6509 11.492C33.6807 11.5652 33.684 11.6465 33.6603 11.7219M32.9225 11.7968L32.751 11.7393C32.7337 11.7911 32.7162 11.8421 32.6988 11.8924M32.9225 11.7968L32.8449 11.9601C32.8013 11.9394 32.7525 11.9167 32.6988 11.8924M32.9225 11.7968C32.0996 14.2517 31.1204 15.0644 31.1 15.0644C31.0283 15.119 30.9813 15.1998 30.9692 15.289C30.9571 15.3783 30.9809 15.4687 31.0354 15.5404L31.5148 15.6186C31.5176 15.6156 31.5245 15.6094 31.5351 15.5999C31.7024 15.4503 32.8002 14.4687 33.6603 11.7219M32.6988 11.8924C31.9187 11.5401 30.1107 10.854 28.4728 11.0514L28.4722 11.0515L28.4722 11.0515C28.4042 11.0595 28.3352 11.0539 28.2693 11.0352C28.2033 11.0165 28.1417 10.9849 28.088 10.9423C28.0343 10.8997 27.9895 10.847 27.9563 10.7871C27.923 10.7271 27.9019 10.6612 27.8941 10.5931L28.0738 10.5727L27.8942 10.5939C27.878 10.4573 27.9166 10.3197 28.0015 10.2114C28.0864 10.1031 28.2107 10.0327 28.3473 10.0158L28.3483 10.0157L28.3483 10.0157C29.6042 9.8668 30.8874 10.1419 31.8622 10.4558C32.8394 10.7705 33.5221 11.1292 33.582 11.161L33.5828 11.1615C33.6895 11.2189 33.7727 11.3117 33.8184 11.4238C33.864 11.536 33.8691 11.6605 33.8329 11.776M32.6988 11.8924C32.3069 13.0198 31.8868 13.7746 31.5612 14.2488C31.3911 14.4966 31.2468 14.6677 31.1458 14.7753C31.0952 14.8291 31.0559 14.8666 31.0301 14.8896C31.0284 14.8912 31.0267 14.8926 31.0251 14.894L30.9903 14.9206C30.8806 15.0042 30.8086 15.128 30.79 15.2647C30.7715 15.4012 30.8078 15.5395 30.891 15.6493C30.9395 15.7138 31.0023 15.7662 31.0744 15.8022L31.1553 15.6405L31.0744 15.8022C31.1454 15.8377 31.2235 15.8565 31.3028 15.8572C31.414 15.8618 31.5237 15.8308 31.616 15.7685L31.633 15.757L31.6441 15.7451C31.6447 15.7446 31.6482 15.7414 31.6572 15.7333C31.6689 15.7228 31.6855 15.708 31.7061 15.6889C31.7473 15.6507 31.8039 15.5962 31.8729 15.5232C32.0109 15.3772 32.1977 15.1584 32.4112 14.8492C32.8383 14.2307 33.3705 13.2527 33.8329 11.776M33.8329 11.776L33.6603 11.7219M33.8329 11.776C33.8329 11.776 33.8329 11.7761 33.8329 11.7761L33.6603 11.7219" fill="#8CC63F" stroke="#8CC63F" stroke-width="0.361652"/>
<path id="Vector_11" d="M6.92355 26.0239L6.92094 26.0239C4.69954 26.0239 2.58014 24.9219 2.42334 24.8404C2.42097 24.8392 2.41905 24.8382 2.41758 24.8374L2.41492 24.836L2.41493 24.836C2.30831 24.7786 2.22503 24.6859 2.1794 24.5737C2.13379 24.4616 2.12866 24.337 2.16489 24.2215L6.92355 26.0239ZM6.92355 26.0239C7.16672 26.0204 7.40948 26.0029 7.65064 25.9715C7.78808 25.9548 7.9133 25.8842 7.99885 25.7754C8.0846 25.6662 8.12348 25.5275 8.10694 25.3897C8.09041 25.2519 8.01981 25.1263 7.91068 25.0406C7.80156 24.9549 7.66284 24.916 7.52504 24.9325L7.52494 24.9325C5.88344 25.1304 4.07094 24.4554 3.29716 24.0935C3.6802 22.9667 4.1006 22.2114 4.42858 21.7368C4.59982 21.4891 4.74589 21.3178 4.84835 21.21C4.89966 21.156 4.93962 21.1184 4.96589 21.0953C4.96597 21.0952 4.96604 21.0952 4.96611 21.0951L5.00789 21.063C5.06223 21.0213 5.10782 20.9694 5.14207 20.91C5.17631 20.8507 5.19854 20.7852 5.20748 20.7173C5.21643 20.6494 5.2119 20.5804 5.19418 20.5143C5.17645 20.4481 5.14587 20.3861 5.10418 20.3318C5.06248 20.2774 5.0105 20.2318 4.95118 20.1976C4.89187 20.1633 4.82639 20.1411 4.75849 20.1322C4.69058 20.1232 4.62158 20.1278 4.55542 20.1455C4.48927 20.1632 4.42725 20.1938 4.37291 20.2355L4.36102 20.2446M6.92355 26.0239L4.36102 20.2446M4.36102 20.2446L4.35372 20.2524M4.36102 20.2446L4.35372 20.2524M4.35372 20.2524C4.35311 20.2529 4.34961 20.2561 4.34055 20.2642C4.32883 20.2747 4.31227 20.2895 4.29171 20.3086C4.25049 20.3468 4.19393 20.4013 4.1249 20.4743C3.98685 20.6203 3.80003 20.8392 3.58656 21.1484C3.15954 21.7669 2.62734 22.7448 2.16493 24.2214L4.35372 20.2524Z" fill="#8CC63F" stroke="#8CC63F" stroke-width="0.361652"/>
<path id="Vector_12" d="M4.3713 15.7472L4.37133 15.7472C4.29529 15.6874 3.09066 14.732 2.16499 11.7761L4.3713 15.7472ZM4.3713 15.7472L4.37454 15.7497M4.3713 15.7472L4.37454 15.7497M4.37454 15.7497C4.46594 15.8182 4.57734 15.8548 4.69158 15.8538M4.37454 15.7497L2.41588 11.161M2.41588 11.161L2.41589 11.161C2.47556 11.1293 3.15826 10.7697 4.13556 10.4546C5.11043 10.1402 6.39377 9.86507 7.64978 10.0157L7.64979 10.0157C7.78759 10.0323 7.91317 10.1029 7.99892 10.212L7.85755 10.3231L7.99892 10.212C8.08466 10.3211 8.12354 10.4598 8.10701 10.5976C8.09047 10.7354 8.01987 10.861 7.91074 10.9468C7.80162 11.0325 7.66289 11.0714 7.5251 11.0548L7.52447 11.0548C5.9022 10.8543 4.08894 11.5406 3.29936 11.8932C4.0535 14.0619 4.91177 14.8355 4.99278 14.9086C4.99834 14.9136 5.00024 14.9153 4.99818 14.9139L5.00894 14.9211L5.00866 14.9215C5.11756 15.0059 5.18858 15.13 5.20615 15.2667C5.22372 15.4034 5.18642 15.5414 5.10241 15.6506L5.10237 15.6507C5.05384 15.7137 4.99153 15.7648 4.92021 15.8C4.84908 15.8351 4.77088 15.8535 4.69158 15.8538M2.41588 11.161L2.41499 11.1615M2.41588 11.161L2.41499 11.1615M4.69158 15.8538C4.69135 15.8538 4.69112 15.8538 4.6909 15.8538L4.69046 15.673L4.69226 15.8538C4.69203 15.8538 4.6918 15.8538 4.69158 15.8538ZM2.41499 11.1615C2.30837 11.2189 2.22509 11.3117 2.17946 11.4239C2.13385 11.536 2.12872 11.6605 2.16495 11.776L2.41499 11.1615ZM7.62825 10.1953L7.62825 10.1952L7.62825 10.1953Z" fill="#8CC63F" stroke="#8CC63F" stroke-width="0.361652"/>
<path id="Vector_13" d="M17.9989 22.1817H17.999C19.1081 22.1808 20.1714 21.7398 20.9556 20.9556C21.7398 20.1714 22.1808 19.108 22.1818 17.999V17.9988C22.1818 17.1715 21.9364 16.3628 21.4768 15.6749C21.0172 14.9871 20.3639 14.4509 19.5996 14.1343C18.8353 13.8178 17.9942 13.7349 17.1828 13.8963C16.3714 14.0577 15.6261 14.4561 15.0411 15.0411C14.4562 15.6261 14.0578 16.3714 13.8964 17.1828C13.735 17.9942 13.8178 18.8352 14.1344 19.5995C14.451 20.3639 14.9871 21.0171 15.675 21.4768C16.3629 21.9364 17.1716 22.1817 17.9989 22.1817ZM16.2537 15.387C16.7703 15.0419 17.3776 14.8576 17.9988 14.8576C18.8317 14.8585 19.6301 15.1898 20.219 15.7787C20.808 16.3676 21.1392 17.1661 21.1401 17.999C21.14 18.6202 20.9558 19.2275 20.6107 19.744C20.2655 20.2605 19.7749 20.6632 19.201 20.9009C18.627 21.1386 17.9954 21.2009 17.3861 21.0797C16.7767 20.9584 16.217 20.6593 15.7777 20.22C15.3384 19.7807 15.0393 19.221 14.9181 18.6116C14.7969 18.0023 14.8591 17.3707 15.0968 16.7967C15.3346 16.2228 15.7372 15.7322 16.2537 15.387Z" fill="#8CC63F" stroke="#8CC63F" stroke-width="0.361652"/>
<path id="Vector_14" d="M14.1934 17.9843C9.40986 16.7603 6.46053 12.4686 6.84608 7.32905L7.0264 7.34258L6.84598 7.33046C6.85436 7.20563 6.90739 7.08799 6.99538 6.99905C7.08332 6.91015 7.20031 6.85586 7.32498 6.84609M14.1934 17.9843L15.3059 9.83833C16.5322 11.0738 17.3996 12.6193 17.8153 14.3096M14.1934 17.9843V17.9961L14.3527 18.0152C14.4905 18.0317 14.6292 17.9928 14.7384 17.9071C14.8475 17.8214 14.9181 17.6958 14.9346 17.558C14.9512 17.4202 14.9123 17.2815 14.8265 17.1723L14.6844 17.284L14.1934 17.9843ZM7.32498 6.84609C7.32504 6.84609 7.3251 6.84608 7.32516 6.84608L7.33922 7.02635L7.32479 6.84611C7.32486 6.8461 7.32492 6.8461 7.32498 6.84609ZM7.32498 6.84609C10.4755 6.59396 13.3575 7.63071 15.4339 9.71058L15.4343 9.71095C16.6836 10.9696 17.5673 12.5443 17.9909 14.2664M17.9909 14.2664C17.9908 14.2661 17.9907 14.2657 17.9906 14.2653L17.8153 14.3096M17.9909 14.2664C18.0243 14.4001 18.0035 14.5416 17.9329 14.6599C17.8621 14.7786 17.747 14.8642 17.6131 14.8981C17.4791 14.9319 17.3372 14.9111 17.2185 14.8403C17.0998 14.7695 17.0142 14.6545 16.9803 14.5205L16.98 14.5193C16.6029 12.9799 15.8145 11.5721 14.6991 10.4461L17.8153 14.3096M17.9909 14.2664L17.8153 14.3096" fill="#8CC63F" stroke="#8CC63F" stroke-width="0.361652"/>
<path id="Vector_15" d="M21.2903 18.4272C21.2687 18.5147 21.2827 18.6072 21.3293 18.6843C21.3758 18.7614 21.4511 18.817 21.5385 18.8387C23.1104 19.225 24.5478 20.0313 25.697 21.1712L28.9714 28.6551C29.2026 25.5507 28.2165 22.7319 26.1764 20.6918C24.9409 19.4632 23.3939 18.5945 21.7017 18.179M21.2903 18.4272C21.312 18.3398 21.3675 18.2645 21.4447 18.218C21.5218 18.1715 21.6142 18.1574 21.7017 18.179M21.2903 18.4272L21.2903 18.4272L21.2903 18.4272ZM21.7017 18.179L21.745 18.0035C21.745 18.0034 21.745 18.0034 21.7449 18.0034M21.7017 18.179L21.7448 18.0034C21.7449 18.0034 21.7449 18.0034 21.7449 18.0034M21.7449 18.0034C23.469 18.4267 25.0451 19.3118 26.3039 20.5636L26.3043 20.5639C28.385 22.6446 29.3865 25.5166 29.1517 28.6685L29.1517 28.6691C29.1419 28.7939 29.0876 28.9109 28.9987 28.9989C28.9103 29.0863 28.7936 29.1393 28.6697 29.1482M21.7449 18.0034L28.6697 29.1482M28.6697 29.1482C28.3679 29.1758 28.0705 29.1861 27.7779 29.1861C23.0207 29.1861 19.147 26.288 18.0105 21.7524L18.1859 21.7084L18.0109 21.7539C17.9936 21.6875 17.9897 21.6184 17.9992 21.5505C18.0088 21.4827 18.0316 21.4173 18.0665 21.3583C18.1013 21.2993 18.1474 21.2477 18.2023 21.2065C18.257 21.1654 18.3194 21.1355 18.3858 21.1185L28.6697 29.1482ZM28.1414 28.1378C23.692 28.2916 20.0675 25.6603 19.021 21.4982C19.0046 21.4315 18.9751 21.3687 18.9343 21.3135C18.8934 21.2581 18.8419 21.2114 18.7828 21.176C18.7237 21.1406 18.6582 21.1173 18.59 21.1075C18.5219 21.0976 18.4525 21.1013 18.3859 21.1184L28.1414 28.1378Z" fill="#8CC63F" stroke="#8CC63F" stroke-width="0.361652"/>
<path id="Vector_16" d="M21.4073 17.2088C21.4435 17.1821 21.4846 17.1628 21.5282 17.1521C23.0989 16.7689 24.5354 15.9648 25.6833 14.8263M21.4073 17.2088L18.4306 14.7005C18.4739 14.7118 18.5191 14.7144 18.5634 14.7081C18.6077 14.7019 18.6503 14.687 18.6889 14.6643C18.7274 14.6415 18.7611 14.6114 18.7879 14.5756C18.8148 14.5398 18.8344 14.4991 18.8455 14.4557C19.9233 10.1545 23.7112 7.45808 28.3015 7.68589M21.4073 17.2088C21.3711 17.2355 21.3406 17.2691 21.3176 17.3077L21.4073 17.2088ZM25.6833 14.8263C26.5984 13.888 27.3048 12.7667 27.756 11.5361C28.2072 10.3055 28.3931 8.9934 28.3015 7.68589M25.6833 14.8263L25.556 14.698C25.5556 14.6983 25.5552 14.6987 25.5549 14.699M25.6833 14.8263L25.5538 14.7001C25.5542 14.6997 25.5545 14.6994 25.5549 14.699M28.3015 7.68589L28.1211 7.69854C28.1248 7.75225 28.1281 7.80597 28.1309 7.85969C28.1847 7.86155 28.2385 7.86382 28.2925 7.8665L28.3015 7.68589ZM25.5549 14.699C24.4305 15.8138 23.0236 16.6011 21.4854 16.9764L21.4851 16.9765C21.4182 16.9929 21.3553 17.0224 21.2999 17.0634C21.2445 17.1043 21.1977 17.1558 21.1624 17.2149C21.127 17.274 21.1037 17.3395 21.0939 17.4076C21.084 17.4758 21.0877 17.5452 21.1049 17.6119L21.1049 17.612C21.1344 17.7266 21.2021 17.8278 21.2968 17.8988C21.3907 17.9692 21.5055 18.0058 21.6228 18.0028C21.6238 18.0027 21.6248 18.0027 21.6258 18.0027L21.62 17.8219L25.5549 14.699ZM28.6686 6.84593C23.514 6.45899 19.2062 9.42752 18.0103 14.2456L28.6686 6.84593Z" fill="#8CC63F" stroke="#8CC63F" stroke-width="0.361652"/>
<path id="Vector_17" d="M6.84611 28.669L6.84608 28.6686C6.45914 23.5105 9.43117 19.2062 14.2456 18.0069C14.3119 17.9901 14.3808 17.9864 14.4486 17.9962C14.5167 18.0061 14.5822 18.0294 14.6413 18.0648C14.7004 18.1001 14.7519 18.1469 14.7928 18.2022C14.8337 18.2576 14.8632 18.3205 14.8797 18.3873C14.8797 18.3874 14.8797 18.3874 14.8797 18.3875L14.7041 18.4306C14.7257 18.5181 14.7116 18.6105 14.6651 18.6877C14.6186 18.7648 14.5433 18.8203 14.4559 18.842L6.84611 28.669ZM6.84611 28.669C6.85569 28.7929 6.90924 28.9093 6.99712 28.9972C7.08415 29.0842 7.19916 29.1376 7.32173 29.1479L6.84611 28.669ZM7.85987 28.138C7.70611 23.6917 10.3376 20.0639 14.4997 19.0175L17.9906 21.7459C17.9906 21.7458 17.9907 21.7457 17.9907 21.7456C18.0074 21.6794 18.0109 21.6105 18.001 21.5429C17.9911 21.4752 17.9679 21.4101 17.9329 21.3513C17.8978 21.2926 17.8515 21.2413 17.7967 21.2004L17.6887 21.3455L17.7967 21.2004C17.7418 21.1596 17.6794 21.1299 17.6131 21.1132C17.5467 21.0964 17.4777 21.0929 17.41 21.1028C17.3423 21.1127 17.2773 21.1358 17.2185 21.1709C17.1597 21.206 17.1085 21.2523 17.0676 21.3071C17.0267 21.362 16.9971 21.4244 16.9803 21.4907L16.98 21.492C16.6029 23.0303 15.8145 24.4372 14.6991 25.5618C13.7806 26.4605 12.6818 27.154 11.4753 27.5964C10.3188 28.0204 9.08869 28.2045 7.85987 28.138Z" fill="#8CC63F" stroke="#8CC63F" stroke-width="0.361652"/>
</g>
</svg>
