<svg width="704" height="220" viewBox="0 0 704 220" fill="none" xmlns="http://www.w3.org/2000/svg">
<g clip-path="url(#clip0_5684_29793)">
<rect x="27.5" y="0.244629" width="677" height="202" fill="white" stroke="#CBD0D6"/>
<path d="M17.4134 215.745H16.2486L18.8658 208.472H20.1335L22.7507 215.745H21.5859L19.5298 209.793H19.473L17.4134 215.745ZM17.6087 212.897H21.3871V213.82H17.6087V212.897ZM23.7157 217.79V210.29H24.7527V211.174H24.8414C24.903 211.061 24.9918 210.929 25.1078 210.78C25.2238 210.631 25.3848 210.501 25.5907 210.39C25.7967 210.276 26.069 210.219 26.4075 210.219C26.8478 210.219 27.2408 210.33 27.5865 210.553C27.9321 210.775 28.2032 211.096 28.3997 211.515C28.5985 211.934 28.698 212.439 28.698 213.028C28.698 213.617 28.5997 214.123 28.4032 214.544C28.2067 214.963 27.9368 215.287 27.5936 215.514C27.2503 215.739 26.8585 215.851 26.4181 215.851C26.0867 215.851 25.8156 215.796 25.6049 215.684C25.3966 215.573 25.2333 215.443 25.1149 215.294C24.9965 215.144 24.9054 215.012 24.8414 214.896H24.7775V217.79H23.7157ZM24.7562 213.017C24.7562 213.401 24.8118 213.737 24.9231 214.026C25.0344 214.315 25.1954 214.541 25.4061 214.704C25.6168 214.865 25.8748 214.946 26.1802 214.946C26.4975 214.946 26.7626 214.862 26.9757 214.693C27.1887 214.523 27.3497 214.292 27.4586 214.001C27.5699 213.71 27.6255 213.382 27.6255 213.017C27.6255 212.658 27.5711 212.334 27.4622 212.048C27.3556 211.761 27.1947 211.535 26.9792 211.37C26.7662 211.204 26.4998 211.121 26.1802 211.121C25.8725 211.121 25.612 211.2 25.399 211.359C25.1883 211.518 25.0285 211.739 24.9196 212.023C24.8107 212.307 24.7562 212.639 24.7562 213.017ZM29.8876 215.745V210.29H30.9139V211.157H30.9707C31.0701 210.863 31.2453 210.632 31.4963 210.464C31.7496 210.294 32.036 210.208 32.3556 210.208C32.4219 210.208 32.5001 210.211 32.59 210.216C32.6824 210.22 32.7546 210.226 32.8066 210.233V211.249C32.764 211.237 32.6883 211.224 32.5794 211.21C32.4705 211.193 32.3616 211.185 32.2527 211.185C32.0017 211.185 31.778 211.238 31.5815 211.345C31.3874 211.449 31.2335 211.595 31.1199 211.782C31.0062 211.966 30.9494 212.177 30.9494 212.414V215.745H29.8876ZM36.3578 215.745V214.949L38.8187 212.399C39.0815 212.122 39.2981 211.88 39.4686 211.671C39.6414 211.461 39.7704 211.261 39.8556 211.071C39.9409 210.882 39.9835 210.681 39.9835 210.468C39.9835 210.226 39.9267 210.018 39.813 209.843C39.6994 209.665 39.5443 209.529 39.3478 209.434C39.1513 209.337 38.93 209.289 38.6838 209.289C38.4234 209.289 38.1961 209.342 38.002 209.448C37.8078 209.555 37.6587 209.705 37.5545 209.899C37.4503 210.094 37.3983 210.321 37.3983 210.581H36.3507C36.3507 210.139 36.4525 209.751 36.6561 209.42C36.8597 209.089 37.139 208.832 37.4941 208.649C37.8493 208.465 38.2529 208.372 38.7051 208.372C39.162 208.372 39.5645 208.464 39.9125 208.646C40.2628 208.826 40.5363 209.072 40.7328 209.385C40.9293 209.695 41.0275 210.045 41.0275 210.436C41.0275 210.706 40.9766 210.97 40.8748 211.228C40.7754 211.486 40.6014 211.773 40.3528 212.091C40.1042 212.405 39.7586 212.788 39.3159 213.238L37.8706 214.75V214.804H41.1447V215.745H36.3578ZM42.7356 215.745L45.9103 209.466V209.413H42.2385V208.472H47.0467V209.445L43.8826 215.745H42.7356Z" fill="#91979F"/>
<path d="M12.4375 185.324V184.436L15.5803 179.472H16.2798V180.779H15.8359L13.5881 184.337V184.394H17.8956V185.324H12.4375ZM15.8857 186.745V185.054L15.8928 184.649V179.472H16.9332V186.745H15.8857ZM20.1239 184.894L20.1168 183.598H20.3015L22.4748 181.29H23.7461L21.2674 183.918H21.1005L20.1239 184.894ZM19.1474 186.745V179.472H20.2092V186.745H19.1474ZM22.592 186.745L20.6388 184.152L21.3704 183.41L23.8952 186.745H22.592Z" fill="#91979F"/>
<path d="M15.3148 146.844C14.9905 146.839 14.6709 146.78 14.356 146.667C14.0435 146.553 13.7594 146.363 13.5037 146.098C13.248 145.833 13.0433 145.477 12.8894 145.029C12.7379 144.582 12.6621 144.023 12.6621 143.353C12.6621 142.719 12.7248 142.155 12.8503 141.663C12.9782 141.171 13.1616 140.755 13.4007 140.417C13.6399 140.076 13.9287 139.816 14.2672 139.639C14.6058 139.461 14.9857 139.372 15.4071 139.372C15.8404 139.372 16.2251 139.458 16.5613 139.628C16.8974 139.799 17.1697 140.034 17.378 140.335C17.5887 140.635 17.7225 140.978 17.7793 141.361H16.6962C16.6228 141.058 16.4772 140.811 16.2594 140.619C16.0416 140.427 15.7575 140.331 15.4071 140.331C14.8745 140.331 14.459 140.563 14.1607 141.027C13.8648 141.491 13.7156 142.136 13.7132 142.963H13.7665C13.892 142.757 14.0459 142.582 14.2282 142.437C14.4128 142.29 14.6188 142.178 14.8461 142.1C15.0757 142.019 15.3172 141.979 15.5705 141.979C15.9919 141.979 16.373 142.082 16.714 142.288C17.0572 142.492 17.3307 142.773 17.5343 143.133C17.7379 143.493 17.8397 143.905 17.8397 144.369C17.8397 144.833 17.7343 145.253 17.5236 145.63C17.3153 146.006 17.0217 146.304 16.6429 146.524C16.2641 146.742 15.8214 146.849 15.3148 146.844ZM15.3113 145.921C15.5906 145.921 15.8404 145.852 16.0605 145.715C16.2807 145.577 16.4547 145.393 16.5826 145.161C16.7104 144.929 16.7743 144.67 16.7743 144.383C16.7743 144.104 16.7116 143.849 16.5861 143.62C16.463 143.39 16.2926 143.208 16.0748 143.073C15.8593 142.938 15.6131 142.87 15.3361 142.87C15.1254 142.87 14.9301 142.911 14.7502 142.991C14.5726 143.072 14.4164 143.183 14.2814 143.325C14.1465 143.467 14.04 143.63 13.9618 143.815C13.8861 143.997 13.8482 144.19 13.8482 144.394C13.8482 144.666 13.9109 144.918 14.0364 145.15C14.1642 145.382 14.3382 145.569 14.5584 145.711C14.781 145.851 15.0319 145.921 15.3113 145.921ZM20.1239 144.894L20.1168 143.598H20.3015L22.4748 141.29H23.7461L21.2674 143.918H21.1005L20.1239 144.894ZM19.1474 146.745V139.472H20.2092V146.745H19.1474ZM22.592 146.745L20.6388 144.152L21.3704 143.41L23.8952 146.745H22.592Z" fill="#91979F"/>
<path d="M15.2722 106.844C14.7632 106.844 14.3134 106.756 13.9228 106.581C13.5345 106.406 13.2303 106.165 13.0101 105.857C12.79 105.549 12.681 105.199 12.6834 104.806C12.681 104.498 12.7438 104.215 12.8716 103.957C13.0018 103.697 13.1782 103.48 13.4007 103.307C13.6233 103.132 13.8719 103.021 14.1465 102.973V102.931C13.7843 102.843 13.4943 102.649 13.2765 102.348C13.0587 102.048 12.9509 101.702 12.9533 101.311C12.9509 100.94 13.0492 100.608 13.248 100.317C13.4493 100.024 13.7251 99.7927 14.0755 99.6246C14.4258 99.4565 14.8248 99.3725 15.2722 99.3725C15.7149 99.3725 16.1103 99.4577 16.4583 99.6282C16.8087 99.7962 17.0845 100.027 17.2857 100.321C17.4869 100.612 17.5887 100.942 17.5911 101.311C17.5887 101.702 17.4775 102.048 17.2573 102.348C17.0371 102.649 16.7507 102.843 16.3979 102.931V102.973C16.6702 103.021 16.9152 103.132 17.133 103.307C17.3532 103.48 17.5283 103.697 17.6586 103.957C17.7911 104.215 17.8586 104.498 17.861 104.806C17.8586 105.199 17.7473 105.549 17.5272 105.857C17.307 106.165 17.0016 106.406 16.611 106.581C16.2227 106.756 15.7765 106.844 15.2722 106.844ZM15.2722 105.946C15.5729 105.946 15.8333 105.896 16.0534 105.796C16.2736 105.695 16.4441 105.554 16.5648 105.374C16.6855 105.192 16.7471 104.979 16.7495 104.735C16.7471 104.481 16.6808 104.258 16.5506 104.064C16.4228 103.869 16.2488 103.717 16.0286 103.605C15.8084 103.494 15.5563 103.439 15.2722 103.439C14.9857 103.439 14.7312 103.494 14.5087 103.605C14.2862 103.717 14.111 103.869 13.9831 104.064C13.8553 104.258 13.7926 104.481 13.7949 104.735C13.7926 104.979 13.8506 105.192 13.9689 105.374C14.0897 105.554 14.2613 105.695 14.4838 105.796C14.7064 105.896 14.9692 105.946 15.2722 105.946ZM15.2722 102.561C15.5137 102.561 15.7279 102.513 15.915 102.416C16.102 102.319 16.2488 102.184 16.3553 102.011C16.4642 101.838 16.5198 101.636 16.5222 101.404C16.5198 101.176 16.4654 100.978 16.3588 100.807C16.2547 100.637 16.1091 100.505 15.9221 100.413C15.735 100.318 15.5184 100.271 15.2722 100.271C15.0212 100.271 14.8011 100.318 14.6117 100.413C14.4247 100.505 14.2791 100.637 14.1749 100.807C14.0707 100.978 14.0198 101.176 14.0222 101.404C14.0198 101.636 14.0719 101.838 14.1784 102.011C14.285 102.184 14.4318 102.319 14.6188 102.416C14.8082 102.513 15.026 102.561 15.2722 102.561ZM20.1239 104.894L20.1168 103.598H20.3015L22.4748 101.29H23.7461L21.2674 103.918H21.1005L20.1239 104.894ZM19.1474 106.745V99.4719H20.2092V106.745H19.1474ZM22.592 106.745L20.6388 104.152L21.3704 103.41L23.8952 106.745H22.592Z" fill="#91979F"/>
<path d="M11.033 59.4719V66.7446H9.93217V60.5728H9.88956L8.1495 61.7091V60.658L9.96413 59.4719H11.033ZM13.0004 66.7446V65.9492L15.4613 63.3995C15.7241 63.1225 15.9407 62.8798 16.1112 62.6715C16.284 62.4608 16.413 62.2607 16.4982 62.0713C16.5835 61.8819 16.6261 61.6807 16.6261 61.4676C16.6261 61.2262 16.5692 61.0178 16.4556 60.8426C16.342 60.6651 16.1869 60.529 15.9904 60.4343C15.7939 60.3372 15.5726 60.2887 15.3263 60.2887C15.0659 60.2887 14.8387 60.3419 14.6445 60.4485C14.4504 60.555 14.3013 60.7053 14.1971 60.8995C14.0929 61.0936 14.0408 61.3209 14.0408 61.5813H12.9933C12.9933 61.1386 13.0951 60.7515 13.2987 60.4201C13.5022 60.0886 13.7816 59.8317 14.1367 59.6495C14.4918 59.4648 14.8955 59.3725 15.3477 59.3725C15.8046 59.3725 16.207 59.4636 16.555 59.6459C16.9054 59.8258 17.1789 60.072 17.3754 60.3845C17.5719 60.6947 17.6701 61.0451 17.6701 61.4357C17.6701 61.7056 17.6192 61.9695 17.5174 62.2276C17.418 62.4856 17.244 62.7733 16.9954 63.0905C16.7468 63.4054 16.4012 63.7877 15.9585 64.2375L14.5131 65.7503V65.8036H17.7873V66.7446H13.0004ZM20.1239 64.8945L20.1168 63.5983H20.3015L22.4748 61.2901H23.7461L21.2674 63.9179H21.1005L20.1239 64.8945ZM19.1474 66.7446V59.4719H20.2092V66.7446H19.1474ZM22.592 66.7446L20.6388 64.1523L21.3704 63.4101L23.8952 66.7446H22.592Z" fill="#91979F"/>
<path d="M10.8084 19.4719V26.7446H9.70756V20.5728H9.66495L7.92489 21.7091V20.658L9.73952 19.4719H10.8084ZM15.3148 26.8441C14.9905 26.8393 14.6709 26.7801 14.356 26.6665C14.0435 26.5529 13.7594 26.3635 13.5037 26.0983C13.248 25.8332 13.0433 25.4769 12.8894 25.0294C12.7379 24.582 12.6621 24.0233 12.6621 23.3533C12.6621 22.7188 12.7248 22.1554 12.8503 21.663C12.9782 21.1705 13.1616 20.755 13.4007 20.4165C13.6399 20.0756 13.9287 19.8164 14.2672 19.6388C14.6058 19.4612 14.9857 19.3725 15.4071 19.3725C15.8404 19.3725 16.2251 19.4577 16.5613 19.6282C16.8974 19.7986 17.1697 20.0342 17.378 20.3348C17.5887 20.6355 17.7225 20.9776 17.7793 21.3611H16.6962C16.6228 21.0581 16.4772 20.8107 16.2594 20.6189C16.0416 20.4272 15.7575 20.3313 15.4071 20.3313C14.8745 20.3313 14.459 20.5633 14.1607 21.0273C13.8648 21.4913 13.7156 22.1364 13.7132 22.9627H13.7665C13.892 22.7567 14.0459 22.5815 14.2282 22.4371C14.4128 22.2903 14.6188 22.1779 14.8461 22.0997C15.0757 22.0193 15.3172 21.979 15.5705 21.979C15.9919 21.979 16.373 22.082 16.714 22.288C17.0572 22.4916 17.3307 22.7733 17.5343 23.1331C17.7379 23.493 17.8397 23.9049 17.8397 24.3689C17.8397 24.8329 17.7343 25.2532 17.5236 25.6296C17.3153 26.006 17.0217 26.3043 16.6429 26.5245C16.2641 26.7423 15.8214 26.8488 15.3148 26.8441ZM15.3113 25.9208C15.5906 25.9208 15.8404 25.8521 16.0605 25.7148C16.2807 25.5775 16.4547 25.3928 16.5826 25.1608C16.7104 24.9288 16.7743 24.6696 16.7743 24.3831C16.7743 24.1038 16.7116 23.8493 16.5861 23.6196C16.463 23.39 16.2926 23.2077 16.0748 23.0728C15.8593 22.9378 15.6131 22.8703 15.3361 22.8703C15.1254 22.8703 14.9301 22.9106 14.7502 22.9911C14.5726 23.0716 14.4164 23.1828 14.2814 23.3249C14.1465 23.4669 14.04 23.6303 13.9618 23.8149C13.8861 23.9972 13.8482 24.1902 13.8482 24.3938C13.8482 24.666 13.9109 24.9182 14.0364 25.1502C14.1642 25.3822 14.3382 25.5692 14.5584 25.7112C14.781 25.8509 15.0319 25.9208 15.3113 25.9208ZM20.1239 24.8945L20.1168 23.5983H20.3015L22.4748 21.2901H23.7461L21.2674 23.9179H21.1005L20.1239 24.8945ZM19.1474 26.7446V19.4719H20.2092V26.7446H19.1474ZM22.592 26.7446L20.6388 24.1523L21.3704 23.4101L23.8952 26.7446H22.592Z" fill="#91979F"/>
<path d="M88.799 208.472H90.1307L92.446 214.125H92.5312L94.8466 208.472H96.1783V215.745H95.1342V210.482H95.0668L92.9219 215.734H92.0554L89.9105 210.478H89.843V215.745H88.799V208.472ZM99.2757 215.865C98.9301 215.865 98.6176 215.801 98.3382 215.674C98.0589 215.543 97.8375 215.355 97.6742 215.109C97.5132 214.863 97.4327 214.561 97.4327 214.203C97.4327 213.896 97.4919 213.642 97.6103 213.443C97.7286 213.245 97.8884 213.087 98.0897 212.971C98.2909 212.855 98.5158 212.768 98.7644 212.708C99.013 212.649 99.2663 212.604 99.5243 212.573C99.851 212.536 100.116 212.505 100.32 212.481C100.523 212.455 100.671 212.414 100.764 212.357C100.856 212.3 100.902 212.208 100.902 212.08V212.055C100.902 211.745 100.815 211.505 100.639 211.334C100.467 211.164 100.209 211.078 99.8652 211.078C99.5078 211.078 99.226 211.158 99.0201 211.316C98.8165 211.473 98.6756 211.647 98.5975 211.838L97.5996 211.611C97.718 211.28 97.8908 211.012 98.1181 210.809C98.3477 210.603 98.6117 210.453 98.91 210.361C99.2083 210.266 99.522 210.219 99.851 210.219C100.069 210.219 100.3 210.245 100.544 210.297C100.79 210.347 101.019 210.439 101.232 210.574C101.448 210.709 101.624 210.902 101.762 211.153C101.899 211.402 101.968 211.725 101.968 212.122V215.745H100.931V214.999H100.888C100.819 215.136 100.716 215.271 100.579 215.404C100.442 215.536 100.265 215.646 100.05 215.734C99.8345 215.822 99.5764 215.865 99.2757 215.865ZM99.5066 215.013C99.8001 215.013 100.051 214.955 100.259 214.839C100.47 214.723 100.63 214.572 100.739 214.385C100.85 214.195 100.906 213.993 100.906 213.777V213.074C100.868 213.112 100.794 213.148 100.686 213.181C100.579 213.211 100.457 213.239 100.32 213.262C100.182 213.284 100.049 213.304 99.9185 213.323C99.7883 213.339 99.6794 213.354 99.5918 213.365C99.3858 213.391 99.1976 213.435 99.0272 213.497C98.8591 213.558 98.7241 213.647 98.6223 213.763C98.5229 213.877 98.4732 214.028 98.4732 214.218C98.4732 214.48 98.5703 214.679 98.7644 214.814C98.9585 214.947 99.2059 215.013 99.5066 215.013ZM103.858 217.79C103.699 217.79 103.555 217.777 103.424 217.751C103.294 217.727 103.197 217.701 103.133 217.673L103.389 216.803C103.583 216.855 103.756 216.877 103.907 216.87C104.059 216.863 104.193 216.806 104.309 216.7C104.427 216.593 104.531 216.419 104.621 216.178L104.752 215.816L102.757 210.29H103.893L105.275 214.523H105.331L106.713 210.29H107.853L105.605 216.473C105.501 216.757 105.368 216.997 105.207 217.193C105.046 217.392 104.854 217.542 104.632 217.641C104.409 217.74 104.151 217.79 103.858 217.79ZM111.483 215.745V214.949L113.944 212.399C114.206 212.122 114.423 211.88 114.594 211.671C114.766 211.461 114.895 211.261 114.981 211.071C115.066 210.882 115.108 210.681 115.108 210.468C115.108 210.226 115.052 210.018 114.938 209.843C114.824 209.665 114.669 209.529 114.473 209.434C114.276 209.337 114.055 209.289 113.809 209.289C113.548 209.289 113.321 209.342 113.127 209.448C112.933 209.555 112.784 209.705 112.68 209.899C112.575 210.094 112.523 210.321 112.523 210.581H111.476C111.476 210.139 111.577 209.751 111.781 209.42C111.985 209.089 112.264 208.832 112.619 208.649C112.974 208.465 113.378 208.372 113.83 208.372C114.287 208.372 114.689 208.464 115.037 208.646C115.388 208.826 115.661 209.072 115.858 209.385C116.054 209.695 116.153 210.045 116.153 210.436C116.153 210.706 116.102 210.97 116 211.228C115.9 211.486 115.726 211.773 115.478 212.091C115.229 212.405 114.884 212.788 114.441 213.238L112.996 214.75V214.804H116.27V215.745H111.483Z" fill="#91979F"/>
<path d="M157.799 208.472H159.131L161.446 214.125H161.531L163.847 208.472H165.178V215.745H164.134V210.482H164.067L161.922 215.734H161.055L158.911 210.478H158.843V215.745H157.799V208.472ZM168.276 215.865C167.93 215.865 167.618 215.801 167.338 215.674C167.059 215.543 166.838 215.355 166.674 215.109C166.513 214.863 166.433 214.561 166.433 214.203C166.433 213.896 166.492 213.642 166.61 213.443C166.729 213.245 166.888 213.087 167.09 212.971C167.291 212.855 167.516 212.768 167.764 212.708C168.013 212.649 168.266 212.604 168.524 212.573C168.851 212.536 169.116 212.505 169.32 212.481C169.523 212.455 169.671 212.414 169.764 212.357C169.856 212.3 169.902 212.208 169.902 212.08V212.055C169.902 211.745 169.815 211.505 169.639 211.334C169.467 211.164 169.209 211.078 168.865 211.078C168.508 211.078 168.226 211.158 168.02 211.316C167.816 211.473 167.676 211.647 167.597 211.838L166.6 211.611C166.718 211.28 166.891 211.012 167.118 210.809C167.348 210.603 167.612 210.453 167.91 210.361C168.208 210.266 168.522 210.219 168.851 210.219C169.069 210.219 169.3 210.245 169.544 210.297C169.79 210.347 170.019 210.439 170.232 210.574C170.448 210.709 170.624 210.902 170.762 211.153C170.899 211.402 170.968 211.725 170.968 212.122V215.745H169.931V214.999H169.888C169.819 215.136 169.716 215.271 169.579 215.404C169.442 215.536 169.265 215.646 169.05 215.734C168.834 215.822 168.576 215.865 168.276 215.865ZM168.507 215.013C168.8 215.013 169.051 214.955 169.259 214.839C169.47 214.723 169.63 214.572 169.739 214.385C169.85 214.195 169.906 213.993 169.906 213.777V213.074C169.868 213.112 169.794 213.148 169.686 213.181C169.579 213.211 169.457 213.239 169.32 213.262C169.182 213.284 169.049 213.304 168.919 213.323C168.788 213.339 168.679 213.354 168.592 213.365C168.386 213.391 168.198 213.435 168.027 213.497C167.859 213.558 167.724 213.647 167.622 213.763C167.523 213.877 167.473 214.028 167.473 214.218C167.473 214.48 167.57 214.679 167.764 214.814C167.959 214.947 168.206 215.013 168.507 215.013ZM172.858 217.79C172.699 217.79 172.555 217.777 172.424 217.751C172.294 217.727 172.197 217.701 172.133 217.673L172.389 216.803C172.583 216.855 172.756 216.877 172.907 216.87C173.059 216.863 173.193 216.806 173.309 216.7C173.427 216.593 173.531 216.419 173.621 216.178L173.752 215.816L171.757 210.29H172.893L174.275 214.523H174.331L175.713 210.29H176.853L174.605 216.473C174.501 216.757 174.368 216.997 174.207 217.193C174.046 217.392 173.854 217.542 173.632 217.641C173.409 217.74 173.151 217.79 172.858 217.79ZM180.728 215.745L183.903 209.466V209.413H180.231V208.472H185.039V209.445L181.875 215.745H180.728Z" fill="#91979F"/>
<path d="M226.799 208.472H228.131L230.446 214.125H230.531L232.847 208.472H234.178V215.745H233.134V210.482H233.067L230.922 215.734H230.055L227.911 210.478H227.843V215.745H226.799V208.472ZM237.276 215.865C236.93 215.865 236.618 215.801 236.338 215.674C236.059 215.543 235.838 215.355 235.674 215.109C235.513 214.863 235.433 214.561 235.433 214.203C235.433 213.896 235.492 213.642 235.61 213.443C235.729 213.245 235.888 213.087 236.09 212.971C236.291 212.855 236.516 212.768 236.764 212.708C237.013 212.649 237.266 212.604 237.524 212.573C237.851 212.536 238.116 212.505 238.32 212.481C238.523 212.455 238.671 212.414 238.764 212.357C238.856 212.3 238.902 212.208 238.902 212.08V212.055C238.902 211.745 238.815 211.505 238.639 211.334C238.467 211.164 238.209 211.078 237.865 211.078C237.508 211.078 237.226 211.158 237.02 211.316C236.816 211.473 236.676 211.647 236.597 211.838L235.6 211.611C235.718 211.28 235.891 211.012 236.118 210.809C236.348 210.603 236.612 210.453 236.91 210.361C237.208 210.266 237.522 210.219 237.851 210.219C238.069 210.219 238.3 210.245 238.544 210.297C238.79 210.347 239.019 210.439 239.232 210.574C239.448 210.709 239.624 210.902 239.762 211.153C239.899 211.402 239.968 211.725 239.968 212.122V215.745H238.931V214.999H238.888C238.819 215.136 238.716 215.271 238.579 215.404C238.442 215.536 238.265 215.646 238.05 215.734C237.834 215.822 237.576 215.865 237.276 215.865ZM237.507 215.013C237.8 215.013 238.051 214.955 238.259 214.839C238.47 214.723 238.63 214.572 238.739 214.385C238.85 214.195 238.906 213.993 238.906 213.777V213.074C238.868 213.112 238.794 213.148 238.686 213.181C238.579 213.211 238.457 213.239 238.32 213.262C238.182 213.284 238.049 213.304 237.919 213.323C237.788 213.339 237.679 213.354 237.592 213.365C237.386 213.391 237.198 213.435 237.027 213.497C236.859 213.558 236.724 213.647 236.622 213.763C236.523 213.877 236.473 214.028 236.473 214.218C236.473 214.48 236.57 214.679 236.764 214.814C236.959 214.947 237.206 215.013 237.507 215.013ZM241.858 217.79C241.699 217.79 241.555 217.777 241.424 217.751C241.294 217.727 241.197 217.701 241.133 217.673L241.389 216.803C241.583 216.855 241.756 216.877 241.907 216.87C242.059 216.863 242.193 216.806 242.309 216.7C242.427 216.593 242.531 216.419 242.621 216.178L242.752 215.816L240.757 210.29H241.893L243.275 214.523H243.331L244.713 210.29H245.853L243.605 216.473C243.501 216.757 243.368 216.997 243.207 217.193C243.046 217.392 242.854 217.542 242.632 217.641C242.409 217.74 242.151 217.79 241.858 217.79ZM252.242 208.472V215.745H251.141V209.573H251.099L249.358 210.709V209.658L251.173 208.472H252.242ZM254.209 215.745V214.949L256.67 212.399C256.933 212.122 257.15 211.88 257.32 211.671C257.493 211.461 257.622 211.261 257.707 211.071C257.792 210.882 257.835 210.681 257.835 210.468C257.835 210.226 257.778 210.018 257.665 209.843C257.551 209.665 257.396 209.529 257.199 209.434C257.003 209.337 256.782 209.289 256.535 209.289C256.275 209.289 256.048 209.342 255.854 209.448C255.659 209.555 255.51 209.705 255.406 209.899C255.302 210.094 255.25 210.321 255.25 210.581H254.202C254.202 210.139 254.304 209.751 254.508 209.42C254.711 209.089 254.991 208.832 255.346 208.649C255.701 208.465 256.104 208.372 256.557 208.372C257.014 208.372 257.416 208.464 257.764 208.646C258.114 208.826 258.388 209.072 258.584 209.385C258.781 209.695 258.879 210.045 258.879 210.436C258.879 210.706 258.828 210.97 258.726 211.228C258.627 211.486 258.453 211.773 258.204 212.091C257.956 212.405 257.61 212.788 257.167 213.238L255.722 214.75V214.804H258.996V215.745H254.209Z" fill="#91979F"/>
<path d="M28 182.745H57.4629C58.4318 182.745 59.2613 182.05 59.4317 181.096L76.8932 83.3928C77.0636 82.439 77.8931 81.7446 78.862 81.7446H112.354C113.188 81.7446 113.934 81.2273 114.227 80.4465L135.365 24.0427C135.658 23.2619 136.404 22.7446 137.238 22.7446H171.811C172.465 22.7446 173.079 23.0648 173.452 23.6019L196.627 56.8874C197.001 57.4245 197.614 57.7446 198.268 57.7446H232.589C233.321 57.7446 233.994 58.1445 234.345 58.7872L246.294 80.7021C246.645 81.3447 247.318 81.7446 248.05 81.7446H278" stroke="#006837" stroke-linecap="round" stroke-linejoin="round"/>
</g>
<defs>
<clipPath id="clip0_5684_29793">
<rect width="704" height="219" fill="white" transform="translate(0 0.744629)"/>
</clipPath>
</defs>
</svg>
