<svg width="140" height="101" viewBox="0 0 140 101" fill="none" xmlns="http://www.w3.org/2000/svg">
<path d="M7.63428 87.1328C7.63428 79.6144 13.481 73.5195 20.6933 73.5195H119.307C126.519 73.5195 132.366 79.6144 132.366 87.1328C132.366 94.6512 126.519 100.746 119.307 100.746H20.6933C13.481 100.746 7.63428 94.6512 7.63428 87.1328Z" fill="#EDEDED"/>
<path d="M0.555664 64.6132C0.555664 55.3382 7.76842 47.8193 16.6658 47.8193H123.334C132.232 47.8193 139.445 55.3382 139.445 64.6132C139.445 73.8883 132.232 81.4071 123.334 81.4071H16.6658C7.76841 81.4071 0.555664 73.8883 0.555664 64.6132Z" fill="#EDEDED"/>
<path d="M125.401 69.19C124.984 69.19 124.646 68.8376 124.646 68.4029V62.0654C124.646 61.6307 124.984 61.2783 125.401 61.2783C125.818 61.2783 126.156 61.6307 126.156 62.0654V68.4029C126.156 68.8376 125.818 69.19 125.401 69.19ZM122.364 66.0183C121.947 66.0183 121.609 65.6659 121.609 65.2312C121.609 64.7965 121.947 64.4442 122.364 64.4442H128.443C128.86 64.4442 129.198 64.7965 129.198 65.2312C129.198 65.6659 128.86 66.0183 128.443 66.0183H122.364Z" fill="white"/>
<path fill-rule="evenodd" clip-rule="evenodd" d="M15.6158 69.5314C16.4921 69.5314 17.2024 68.7909 17.2024 67.8775C17.2024 66.9641 16.4921 66.2236 15.6158 66.2236C14.7396 66.2236 14.0292 66.9641 14.0292 67.8775C14.0292 68.7909 14.7396 69.5314 15.6158 69.5314ZM15.6158 71.3126C17.4357 71.3126 18.9111 69.7747 18.9111 67.8775C18.9111 65.9803 17.4357 64.4424 15.6158 64.4424C13.7959 64.4424 12.3206 65.9803 12.3206 67.8775C12.3206 69.7747 13.7959 71.3126 15.6158 71.3126Z" fill="white"/>
<path d="M113.127 90.0861C113.127 91.1401 112.307 91.9945 111.296 91.9945C110.285 91.9945 109.465 91.1401 109.465 90.0861C109.465 89.0322 110.285 88.1777 111.296 88.1777C112.307 88.1777 113.127 89.0322 113.127 90.0861Z" fill="#9E9E9E"/>
<path d="M0.555664 19.3203C0.555664 12.2938 6.01987 6.59766 12.7603 6.59766H126.508C133.248 6.59766 138.712 12.2938 138.712 19.3203C138.712 26.3468 133.248 32.043 126.508 32.043H12.7603C6.01987 32.043 0.555664 26.3468 0.555664 19.3203Z" fill="#EDEDED"/>
<path d="M47.261 18.1867C47.5222 15.0642 45.1612 12.3789 42.1544 12.3789H28.4535C25.1617 12.3789 22.7232 15.5672 23.4563 18.9125L36.9881 80.6576C37.2961 82.0632 38.6141 82.9642 39.9735 82.6985C41.1093 82.4765 41.9642 81.493 42.0646 80.293L47.261 18.1867Z" fill="white"/>
<path fill-rule="evenodd" clip-rule="evenodd" d="M40.4427 82.5579C40.293 82.6193 40.1361 82.6667 39.9735 82.6985C39.8103 82.7304 39.6476 82.7455 39.4873 82.7449C39.3992 82.7445 39.3118 82.7395 39.2253 82.7299C39.1484 82.7214 39.0722 82.7092 38.9969 82.6936C38.9123 82.676 38.8289 82.6541 38.747 82.628C38.589 82.5776 38.4366 82.5116 38.2917 82.4314C38.4257 81.9741 38.8557 81.6653 39.3287 81.7178C39.4791 81.7345 39.6351 81.7291 39.7935 81.6981C39.9262 81.6722 40.0521 81.6297 40.1695 81.5732C40.6015 81.3653 41.104 81.5142 41.3716 81.9028C41.2588 82.0273 41.1346 82.1406 41.0006 82.241C40.9618 82.27 40.9222 82.2979 40.8818 82.3248C40.7852 82.3889 40.684 82.4466 40.5788 82.4973C40.5342 82.5188 40.4888 82.539 40.4427 82.5579ZM41.4422 81.8215C41.045 81.5821 40.8535 81.0754 41.0096 80.6069C41.052 80.4794 41.0802 80.3447 41.0919 80.2045L41.2569 78.2329C41.3037 77.6729 41.7772 77.2585 42.3144 77.3074L42.0646 80.293C42.0458 80.5177 42.0005 80.7348 41.9319 80.9407C41.878 81.1024 41.8098 81.2572 41.7286 81.4035C41.646 81.5523 41.55 81.6923 41.4422 81.8215ZM42.6808 72.9275C42.1436 72.8787 41.7461 72.3851 41.793 71.8251L42.1229 67.8819C42.1698 67.3219 42.6432 66.9075 43.1804 66.9563L42.6808 72.9275ZM43.5469 62.5765C43.0097 62.5276 42.6122 62.0341 42.6591 61.4741L42.989 57.5308C43.0358 56.9708 43.5093 56.5564 44.0465 56.6053L43.5469 62.5765ZM44.413 52.2254C43.8758 52.1766 43.4783 51.683 43.5251 51.123L43.8551 47.1798C43.9019 46.6198 44.3754 46.2054 44.9126 46.2543L44.413 52.2254ZM45.279 41.8744C44.7418 41.8255 44.3443 41.332 44.3912 40.772L44.7211 36.8287C44.768 36.2687 45.2415 35.8544 45.7787 35.9032L45.279 41.8744ZM46.1451 31.5233C45.6079 31.4745 45.2104 30.9809 45.2573 30.4209L45.5872 26.4777C45.6341 25.9177 46.1075 25.5033 46.6447 25.5522L46.1451 31.5233ZM47.0112 21.1723C46.474 21.1235 46.0765 20.6299 46.1233 20.0699L46.2883 18.0983C46.3277 17.6276 46.2937 17.1715 46.1976 16.7405C46.0827 16.2251 46.3656 15.7102 46.8372 15.5454C46.9036 15.7001 46.9632 15.8586 47.0154 16.0205C47.0671 16.1806 47.1116 16.3439 47.1486 16.5101C47.2678 17.0444 47.3094 17.6081 47.261 18.1867L47.0112 21.1723ZM44.6418 13.0485C44.4434 13.524 43.9267 13.773 43.4441 13.6089C43.0405 13.4716 42.6077 13.3967 42.1544 13.3967H39.5447C39.0055 13.3967 38.5684 12.941 38.5684 12.3789H42.1544C42.7116 12.3789 43.2467 12.4711 43.7469 12.6413C43.9025 12.6942 44.0548 12.7546 44.2033 12.8222C44.3534 12.8905 44.4997 12.9661 44.6418 13.0485ZM32.0396 12.3789C32.0396 12.941 31.6024 13.3967 31.0632 13.3967H28.4535C27.9587 13.3967 27.4909 13.485 27.0602 13.6445C26.582 13.8216 26.0594 13.5868 25.849 13.117C25.989 13.0307 26.1333 12.9511 26.2817 12.8787C26.4284 12.8071 26.5791 12.7425 26.7333 12.6854C27.268 12.4874 27.8462 12.3789 28.4535 12.3789H32.0396ZM23.5665 16.1013C24.0527 16.2105 24.3887 16.6893 24.3295 17.2147C24.2763 17.688 24.2979 18.183 24.4082 18.6858L24.8377 20.646C24.9578 21.194 24.629 21.7397 24.1033 21.8649L23.4563 18.9125C23.3211 18.2954 23.2937 17.6836 23.3598 17.0961C23.3789 16.9266 23.4057 16.7591 23.44 16.5941C23.4747 16.4271 23.517 16.2627 23.5665 16.1013ZM25.0646 26.251C25.5903 26.1258 26.1138 26.4685 26.2339 27.0165L27.093 30.9368C27.2131 31.4849 26.8843 32.0306 26.3586 32.1558L25.0646 26.251ZM27.3199 36.5418C27.8455 36.4166 28.3691 36.7594 28.4892 37.3074L29.3483 41.2277C29.4684 41.7757 29.1396 42.3214 28.6139 42.4466L27.3199 36.5418ZM29.5751 46.8327C30.1008 46.7075 30.6244 47.0502 30.7445 47.5982L31.6036 51.5186C31.7237 52.0666 31.3949 52.6123 30.8692 52.7375L29.5751 46.8327ZM31.8304 57.1235C32.3561 56.9983 32.8797 57.3411 32.9997 57.8891L33.8589 61.8094C33.979 62.3574 33.6502 62.9031 33.1245 63.0283L31.8304 57.1235ZM34.0857 67.4144C34.6114 67.2892 35.1349 67.6319 35.255 68.1799L36.1142 72.1003C36.2343 72.6483 35.9055 73.194 35.3798 73.3192L34.0857 67.4144ZM36.341 77.7052C36.8667 77.58 37.3902 77.9228 37.5103 78.4708L37.9399 80.431C37.9758 80.5948 38.0332 80.7461 38.1078 80.8832C38.3426 81.3145 38.2422 81.8487 37.8934 82.1591C37.7651 82.0525 37.6462 81.9331 37.5389 81.8021C37.4338 81.6739 37.3398 81.5345 37.2586 81.3854C37.1376 81.1631 37.0454 80.9191 36.9881 80.6576L36.341 77.7052Z" fill="#91979F"/>
<path d="M94.5051 18.1867C94.2439 15.0642 96.6049 12.3789 99.6117 12.3789H113.313C116.604 12.3789 119.043 15.5672 118.31 18.9125L104.778 80.6576C104.47 82.0632 103.152 82.9642 101.793 82.6985C100.657 82.4765 99.802 81.493 99.7015 80.293L94.5051 18.1867Z" fill="white"/>
<path fill-rule="evenodd" clip-rule="evenodd" d="M101.323 82.5579C101.473 82.6193 101.63 82.6667 101.793 82.6985C101.956 82.7304 102.118 82.7455 102.279 82.7449C102.367 82.7445 102.454 82.7395 102.541 82.7299C102.618 82.7214 102.694 82.7092 102.769 82.6936C102.854 82.676 102.937 82.6541 103.019 82.628C103.177 82.5776 103.33 82.5116 103.474 82.4314C103.34 81.9741 102.91 81.6653 102.437 81.7178C102.287 81.7345 102.131 81.7291 101.973 81.6981C101.84 81.6722 101.714 81.6297 101.597 81.5732C101.165 81.3653 100.662 81.5142 100.395 81.9028C100.507 82.0273 100.631 82.1406 100.766 82.241C100.804 82.27 100.844 82.2979 100.884 82.3248C100.981 82.3889 101.082 82.4466 101.187 82.4973C101.232 82.5188 101.277 82.539 101.323 82.5579ZM100.324 81.8215C100.721 81.5821 100.913 81.0754 100.757 80.6069C100.714 80.4794 100.686 80.3447 100.674 80.2045L100.509 78.2329C100.462 77.6729 99.9889 77.2585 99.4517 77.3074L99.7015 80.293C99.7203 80.5177 99.7656 80.7348 99.8342 80.9407C99.8881 81.1024 99.9563 81.2572 100.037 81.4035C100.12 81.5523 100.216 81.6923 100.324 81.8215ZM99.0853 72.9275C99.6225 72.8787 100.02 72.3851 99.9731 71.8251L99.6432 67.8819C99.5963 67.3219 99.1229 66.9075 98.5857 66.9563L99.0853 72.9275ZM98.2192 62.5765C98.7564 62.5276 99.1539 62.0341 99.1071 61.4741L98.7771 57.5308C98.7303 56.9708 98.2568 56.5564 97.7196 56.6053L98.2192 62.5765ZM97.3531 52.2254C97.8903 52.1766 98.2878 51.683 98.241 51.123L97.911 47.1798C97.8642 46.6198 97.3907 46.2054 96.8535 46.2543L97.3531 52.2254ZM96.4871 41.8744C97.0243 41.8255 97.4218 41.332 97.3749 40.772L97.045 36.8287C96.9981 36.2687 96.5247 35.8544 95.9875 35.9032L96.4871 41.8744ZM95.621 31.5233C96.1582 31.4745 96.5557 30.9809 96.5088 30.4209L96.1789 26.4777C96.1321 25.9177 95.6586 25.5033 95.1214 25.5522L95.621 31.5233ZM94.7549 21.1723C95.2921 21.1235 95.6896 20.6299 95.6428 20.0699L95.4778 18.0983C95.4384 17.6276 95.4724 17.1715 95.5685 16.7405C95.6834 16.2251 95.4005 15.7102 94.9289 15.5454C94.8625 15.7001 94.803 15.8586 94.7507 16.0205C94.6991 16.1806 94.6545 16.3439 94.6175 16.5101C94.4984 17.0444 94.4567 17.6081 94.5051 18.1867L94.7549 21.1723ZM97.1243 13.0485C97.3227 13.524 97.8394 13.773 98.322 13.6089C98.7256 13.4716 99.1585 13.3967 99.6117 13.3967H102.221C102.761 13.3967 103.198 12.941 103.198 12.3789H99.6117C99.0545 12.3789 98.5194 12.4711 98.0192 12.6413C97.8636 12.6942 97.7113 12.7546 97.5629 12.8222C97.4127 12.8905 97.2664 12.9661 97.1243 13.0485ZM109.727 12.3789C109.727 12.941 110.164 13.3967 110.703 13.3967H113.313C113.807 13.3967 114.275 13.485 114.706 13.6445C115.184 13.8216 115.707 13.5868 115.917 13.117C115.777 13.0307 115.633 12.9511 115.484 12.8787C115.338 12.8071 115.187 12.7425 115.033 12.6854C114.498 12.4874 113.92 12.3789 113.313 12.3789H109.727ZM118.2 16.1013C117.713 16.2105 117.377 16.6893 117.437 17.2147C117.49 17.688 117.468 18.183 117.358 18.6858L116.928 20.646C116.808 21.194 117.137 21.7397 117.663 21.8649L118.31 18.9125C118.445 18.2954 118.472 17.6836 118.406 17.0961C118.387 16.9266 118.36 16.7591 118.326 16.5941C118.291 16.4271 118.249 16.2627 118.2 16.1013ZM116.702 26.251C116.176 26.1258 115.652 26.4685 115.532 27.0165L114.673 30.9368C114.553 31.4849 114.882 32.0306 115.407 32.1558L116.702 26.251ZM114.446 36.5418C113.921 36.4166 113.397 36.7594 113.277 37.3074L112.418 41.2277C112.298 41.7757 112.626 42.3214 113.152 42.4466L114.446 36.5418ZM112.191 46.8327C111.665 46.7075 111.142 47.0502 111.022 47.5982L110.162 51.5186C110.042 52.0666 110.371 52.6123 110.897 52.7375L112.191 46.8327ZM109.936 57.1235C109.41 56.9983 108.886 57.3411 108.766 57.8891L107.907 61.8094C107.787 62.3574 108.116 62.9031 108.642 63.0283L109.936 57.1235ZM107.68 67.4144C107.155 67.2892 106.631 67.6319 106.511 68.1799L105.652 72.1003C105.532 72.6483 105.861 73.194 106.386 73.3192L107.68 67.4144ZM105.425 77.7052C104.899 77.58 104.376 77.9228 104.256 78.4708L103.826 80.431C103.79 80.5948 103.733 80.7461 103.658 80.8832C103.424 81.3145 103.524 81.8487 103.873 82.1591C104.001 82.0525 104.12 81.9331 104.227 81.8021C104.332 81.6739 104.426 81.5345 104.507 81.3854C104.628 81.1631 104.721 80.9191 104.778 80.6576L105.425 77.7052Z" fill="#91979F"/>
<path d="M37.9451 6.08863C37.9451 3.13749 40.24 0.745117 43.071 0.745117H98.6905C101.521 0.745117 103.816 3.13749 103.816 6.08863V81.6612C103.816 84.6123 101.521 87.0047 98.6905 87.0047H43.071C40.24 87.0047 37.9451 84.6123 37.9451 81.6612V6.08863Z" fill="white"/>
<path fill-rule="evenodd" clip-rule="evenodd" d="M43.071 87.0047C42.545 87.0047 42.0374 86.9221 41.5597 86.7686C41.4033 86.7184 41.2501 86.6606 41.1005 86.5956C40.9494 86.53 40.8018 86.4569 40.6584 86.377C40.8493 85.898 41.362 85.6401 41.8472 85.796C42.2328 85.9198 42.6435 85.9869 43.071 85.9869H45.1899C45.7291 85.9869 46.1662 86.4426 46.1662 87.0047H43.071ZM57.2901 87.0047C57.2901 86.4426 56.853 85.9869 56.3137 85.9869H52.0761C51.5368 85.9869 51.0997 86.4426 51.0997 87.0047H57.2901ZM68.414 87.0047C68.414 86.4426 67.9769 85.9869 67.4376 85.9869H63.2C62.6607 85.9869 62.2236 86.4426 62.2236 87.0047H68.414ZM79.5379 87.0047C79.5379 86.4426 79.1008 85.9869 78.5615 85.9869H74.3239C73.7846 85.9869 73.3475 86.4426 73.3475 87.0047H79.5379ZM90.6618 87.0047C90.6618 86.4426 90.2247 85.9869 89.6854 85.9869H85.4478C84.9085 85.9869 84.4714 86.4426 84.4714 87.0047H90.6618ZM101.103 86.377C100.912 85.898 100.399 85.6401 99.9144 85.796C99.5287 85.9198 99.118 85.9869 98.6905 85.9869H96.5717C96.0324 85.9869 95.5953 86.4426 95.5953 87.0047H98.6905C99.2165 87.0047 99.7241 86.9221 100.202 86.7686C100.358 86.7184 100.511 86.6606 100.661 86.5956C100.812 86.53 100.96 86.4569 101.103 86.377ZM103.816 78.587C103.277 78.587 102.84 79.0427 102.84 79.6048V81.6612C102.84 82.1068 102.776 82.535 102.657 82.937C102.507 83.4427 102.755 83.9772 103.214 84.1762C103.291 84.0267 103.361 83.8729 103.424 83.7153C103.486 83.5594 103.542 83.3997 103.59 83.2367C103.737 82.7387 103.816 82.2096 103.816 81.6612V78.587ZM103.816 67.7909C103.277 67.7909 102.84 68.2466 102.84 68.8087V72.9215C102.84 73.4836 103.277 73.9393 103.816 73.9393V67.7909ZM103.816 56.9948C103.277 56.9948 102.84 57.4505 102.84 58.0126V62.1254C102.84 62.6875 103.277 63.1432 103.816 63.1432V56.9948ZM103.816 46.1987C103.277 46.1987 102.84 46.6544 102.84 47.2166V51.3293C102.84 51.8915 103.277 52.3472 103.816 52.3472V46.1987ZM103.816 35.4027C103.277 35.4027 102.84 35.8584 102.84 36.4205V40.5333C102.84 41.0954 103.277 41.5511 103.816 41.5511V35.4027ZM103.816 24.6066C103.277 24.6066 102.84 25.0623 102.84 25.6244V29.7372C102.84 30.2993 103.277 30.755 103.816 30.755V24.6066ZM103.816 13.8105C103.277 13.8105 102.84 14.2662 102.84 14.8283V18.9411C102.84 19.5032 103.277 19.9589 103.816 19.9589V13.8105ZM103.214 3.5736C102.755 3.77259 102.507 4.30709 102.657 4.81283C102.776 5.21486 102.84 5.64298 102.84 6.08863V8.14503C102.84 8.70715 103.277 9.16284 103.816 9.16284V6.08863C103.816 5.54025 103.737 5.01116 103.59 4.51313C103.542 4.35013 103.486 4.19046 103.424 4.03453C103.361 3.87692 103.291 3.72314 103.214 3.5736ZM95.5953 0.745117C95.5953 1.30724 96.0324 1.76293 96.5717 1.76293H98.6905C99.118 1.76293 99.5287 1.82999 99.9144 1.95386C100.399 2.10968 100.912 1.85177 101.103 1.37281C100.96 1.29289 100.812 1.21987 100.661 1.15419C100.511 1.08921 100.358 1.03139 100.202 0.981173C99.7241 0.827724 99.2165 0.745117 98.6905 0.745117H95.5953ZM84.4714 0.745117C84.4714 1.30724 84.9085 1.76293 85.4478 1.76293H89.6854C90.2247 1.76293 90.6618 1.30724 90.6618 0.745117H84.4714ZM73.3475 0.745117C73.3475 1.30724 73.7846 1.76293 74.3239 1.76293H78.5615C79.1008 1.76293 79.5379 1.30724 79.5379 0.745117H73.3475ZM62.2236 0.745117C62.2236 1.30724 62.6607 1.76293 63.2 1.76293H67.4376C67.9769 1.76293 68.414 1.30724 68.414 0.745117H62.2236ZM51.0997 0.745117C51.0997 1.30724 51.5368 1.76293 52.0761 1.76293H56.3138C56.853 1.76293 57.2901 1.30724 57.2901 0.745117H51.0997ZM46.1662 0.745117C46.1662 1.30724 45.7291 1.76293 45.1899 1.76293H43.071C42.6435 1.76293 42.2328 1.82999 41.8472 1.95386C41.362 2.10968 40.8493 1.85177 40.6584 1.37281C40.8018 1.29289 40.9494 1.21987 41.1005 1.15419C41.2501 1.08921 41.4033 1.0314 41.5597 0.981174C42.0374 0.827724 42.545 0.745117 43.071 0.745117H46.1662ZM37.9451 9.16283C38.4843 9.16283 38.9214 8.70714 38.9214 8.14502V6.08863C38.9214 5.64298 38.9858 5.21486 39.1046 4.81283C39.2541 4.3071 39.0067 3.77259 38.5472 3.5736C38.4705 3.72314 38.4005 3.87692 38.3375 4.03453C38.2751 4.19046 38.2197 4.35013 38.1715 4.51313C38.0243 5.01116 37.9451 5.54025 37.9451 6.08863V9.16283ZM37.9451 19.9589C38.4843 19.9589 38.9214 19.5032 38.9214 18.9411V14.8283C38.9214 14.2662 38.4843 13.8105 37.9451 13.8105V19.9589ZM37.9451 30.755C38.4843 30.755 38.9214 30.2993 38.9214 29.7372V25.6244C38.9214 25.0623 38.4843 24.6066 37.9451 24.6066V30.755ZM37.9451 41.5511C38.4843 41.5511 38.9214 41.0954 38.9214 40.5333V36.4205C38.9214 35.8584 38.4843 35.4027 37.9451 35.4027V41.5511ZM37.9451 52.3472C38.4843 52.3472 38.9214 51.8915 38.9214 51.3293V47.2166C38.9214 46.6544 38.4843 46.1987 37.9451 46.1987V52.3472ZM37.9451 63.1432C38.4843 63.1432 38.9214 62.6875 38.9214 62.1254V58.0126C38.9214 57.4505 38.4843 56.9948 37.9451 56.9948V63.1432ZM37.9451 73.9393C38.4843 73.9393 38.9214 73.4836 38.9214 72.9215V68.8087C38.9214 68.2466 38.4843 67.7909 37.9451 67.7909V73.9393ZM38.5472 84.1762C39.0067 83.9772 39.2541 83.4427 39.1046 82.937C38.9858 82.535 38.9214 82.1068 38.9214 81.6612V79.6048C38.9214 79.0427 38.4843 78.587 37.9451 78.587V81.6612C37.9451 82.2096 38.0243 82.7387 38.1715 83.2367C38.2197 83.3997 38.2751 83.5594 38.3375 83.7153C38.4005 83.8729 38.4705 84.0267 38.5472 84.1762Z" fill="#91979F"/>
<path d="M87.2894 43.9379C87.2894 53.4375 79.9019 61.1385 70.7891 61.1385C61.6762 61.1385 54.2888 53.4375 54.2888 43.9379C54.2888 34.4383 61.6762 26.7373 70.7891 26.7373C79.9019 26.7373 87.2894 34.4383 87.2894 43.9379Z" fill="#EDEDED"/>
<path d="M70.7837 52.2033C69.9124 52.2033 69.2061 51.467 69.2061 50.5588V37.3173C69.2061 36.4091 69.9124 35.6729 70.7837 35.6729C71.6549 35.6729 72.3612 36.4091 72.3612 37.3173V50.5588C72.3612 51.467 71.6549 52.2033 70.7837 52.2033ZM64.4384 45.5764C63.5671 45.5764 62.8608 44.8402 62.8608 43.932C62.8608 43.0237 63.5671 42.2875 64.4384 42.2875H77.1407C78.012 42.2875 78.7182 43.0237 78.7182 43.932C78.7182 44.8402 78.012 45.5764 77.1407 45.5764H64.4384Z" fill="#9D9D9B"/>
</svg>
