<svg width="1159" height="459" viewBox="0 0 1159 459" fill="none" xmlns="http://www.w3.org/2000/svg">
<path d="M262.71 145.35C271.65 118.92 272.01 90.3701 263.74 63.7201C256.49 40.3601 242.93 19.5101 224.62 3.38007C220.03 -0.659928 213.2 -0.659933 208.62 3.39007C195.81 14.7001 185.28 28.3801 177.63 43.7001C168.44 62.0901 163.66 82.3501 163.66 102.88C163.66 123.41 168.44 143.67 177.63 162.06C185.28 177.38 195.81 191.06 208.63 202.37C213.21 206.41 220.03 206.42 224.62 202.39C242.07 187.05 255.23 167.39 262.71 145.34V145.35Z" fill="#88BD40"/>
<path d="M72.04 154.83L184.01 248.78C200.6 262.7 202.77 287.44 188.84 304.03C174.92 320.62 150.18 322.79 133.59 308.86L21.62 214.91C5.03003 200.99 2.86004 176.25 16.79 159.66C30.71 143.07 55.45 140.9 72.04 154.83Z" fill="white"/>
<path d="M27.2 406.94C36.12 398.02 50.59 398.02 59.51 406.94C68.43 415.86 68.43 430.33 59.51 439.25C50.59 448.17 36.12 448.17 27.2 439.25C18.28 430.33 18.28 415.86 27.2 406.94Z" fill="#88BD40"/>
<path d="M57.2454 287.976C45.6447 278.241 28.3508 279.753 18.6185 291.351C8.88609 302.95 10.4007 320.244 22.0014 329.978L82.6032 380.829C94.2039 390.563 111.498 389.051 121.23 377.453C130.963 365.854 129.448 348.561 117.847 338.827L57.2454 287.976Z" fill="#88BD40"/>
<path d="M361.32 154.77L249.35 248.76C232.76 262.69 230.59 287.44 244.51 304.04C258.43 320.64 283.17 322.8 299.76 308.87L411.73 214.88C428.32 200.95 430.49 176.2 416.57 159.6C402.65 143 377.91 140.84 361.32 154.77V154.77Z" fill="white"/>
<path d="M406.16 407C397.24 398.07 382.77 398.07 373.85 407C364.93 415.93 364.93 430.4 373.85 439.33C382.77 448.26 397.24 448.26 406.16 439.33C415.08 430.4 415.08 415.93 406.16 407V407Z" fill="#88BD40"/>
<path d="M376.11 287.98L315.5 338.86C303.9 348.6 302.39 365.9 312.12 377.51C321.85 389.11 339.15 390.63 350.75 380.89L411.36 330.01C422.96 320.27 424.47 302.97 414.74 291.36C405.01 279.76 387.71 278.24 376.11 287.98Z" fill="#88BD40"/>
<path d="M637.06 180.29V166.44C637.06 111.13 668.51 83.47 731.4 83.47C813.86 83.47 883.87 163.34 898.89 180.33L891.89 211.5C862.67 191.58 795.35 117.16 733.12 117.16C711.51 117.16 696.14 121.16 687.02 129.16C677.89 137.16 673.31 149.85 673.29 167.23V180.29H711.61V211.46H672.86V456.54H636.21V211.46H597.47V180.29H637.05H637.06Z" fill="white"/>
<path d="M866.57 456.53V304.93H819.37V376.52C819.37 413.29 798.74 431.68 757.47 431.68C716.2 431.68 695.57 413.29 695.56 376.52V327.67C695.56 291.45 716.2 273.34 757.47 273.34H784V211.44H670.32V180.27H941.51V211.44H902.76V456.52H866.55L866.57 456.53ZM784.03 375.68V304.93H757.5C746.82 304.93 739.73 306.82 736.23 310.61C732.73 314.4 730.97 320.37 730.97 328.52V375.68C730.97 383.83 732.73 389.87 736.23 393.79C739.74 397.71 746.83 399.68 757.5 399.68C768.17 399.68 775.26 397.78 778.77 393.99C782.28 390.19 784.03 384.09 784.03 375.68ZM819.37 273.35H866.54V211.45H819.37V273.35Z" fill="white"/>
<path d="M1022.8 237.97C1022.8 226.75 1021.54 217.91 1019.02 211.45H891.83V180.28H1093.92V211.45H1056.14C1058.09 217.33 1059.07 226.17 1059.09 237.97V291.87C1059.09 330.62 1038.31 350 996.77 349.99C984.17 349.99 973.08 348.31 963.5 344.95V392.11C963.5 414.28 978.38 425.37 1008.15 425.37C1026.29 425.22 1044.32 422.38 1061.63 416.96V450.63C1044.51 455.97 1024.5 458.64 1001.62 458.63C978.73 458.63 960.53 452.85 947.03 441.31C933.55 429.8 926.82 413.66 926.82 392.89V266.96H963.45V312.86C973 315.82 982.93 317.39 992.93 317.49C1012.87 317.49 1022.83 308.79 1022.82 291.38V237.96L1022.8 237.97Z" fill="white"/>
<path d="M1083.02 211.45H1044.28V180.28H1158.4V211.45H1119.66V456.53H1083.03V211.45H1083.02Z" fill="white"/>
</svg>
