<?xml version="1.0" encoding="UTF-8"?><svg xmlns="http://www.w3.org/2000/svg" viewBox="0 0 1800 755"><defs><style>.c{fill:#fff;}.d{fill:#88bd40;}</style></defs><g id="a"><g><path class="d" d="M579.71,293.35c8.94-26.43,9.3-54.98,1.03-81.63-7.25-23.36-20.81-44.21-39.12-60.34-4.59-4.04-11.42-4.04-16,.01-12.81,11.31-23.34,24.99-30.99,40.31-9.19,18.39-13.97,38.65-13.97,59.18s4.78,40.79,13.97,59.18c7.65,15.32,18.18,29,31,40.31,4.58,4.04,11.4,4.05,15.99,.02,17.45-15.34,30.61-35,38.09-57.05Z"/><path class="c" d="M389.04,302.83l111.97,93.95c16.59,13.92,18.76,38.66,4.83,55.25h0c-13.92,16.59-38.66,18.76-55.25,4.83l-111.97-93.95c-16.59-13.92-18.76-38.66-4.83-55.25h0c13.92-16.59,38.66-18.76,55.25-4.83Z"/><path class="d" d="M344.2,554.94h0c8.92-8.92,23.39-8.92,32.31,0h0c8.92,8.92,8.92,23.39,0,32.31h0c-8.92,8.92-23.39,8.92-32.31,0h0c-8.92-8.92-8.92-23.39,0-32.31Z"/><rect class="d" x="359.51" y="415.43" width="54.83" height="133.95" rx="27.42" ry="27.42" transform="translate(-231.33 468.72) rotate(-50)"/><path class="c" d="M678.32,302.77l-111.97,93.99c-16.59,13.93-18.76,38.68-4.84,55.28h0c13.92,16.6,38.66,18.76,55.25,4.83l111.97-93.99c16.59-13.93,18.76-38.68,4.84-55.28h0c-13.92-16.6-38.66-18.76-55.25-4.83Z"/><path class="d" d="M723.16,555h0c-8.92-8.93-23.39-8.93-32.31,0h0c-8.92,8.93-8.92,23.4,0,32.33h0c8.92,8.93,23.39,8.93,32.31,0h0c8.92-8.93,8.92-23.4,0-32.33Z"/><path class="d" d="M693.11,435.98l-60.61,50.88c-11.6,9.74-13.11,27.04-3.38,38.65h0c9.73,11.6,27.03,13.12,38.63,3.38l60.61-50.88c11.6-9.74,13.11-27.04,3.38-38.65h0c-9.73-11.6-27.03-13.12-38.63-3.38Z"/><path class="c" d="M954.06,328.29v-13.85c0-55.31,31.45-82.97,94.34-82.97,82.46,0,152.47,79.87,167.49,96.86l-7,31.17c-29.22-19.92-96.54-94.34-158.77-94.34-21.61,0-36.98,4-46.1,12-9.13,8-13.71,20.69-13.73,38.07v13.06h38.32v31.17h-38.75v245.08h-36.65v-245.08h-38.74v-31.17h39.58Z"/><path class="c" d="M1183.57,604.53v-151.6h-47.2v71.59c0,36.77-20.63,55.16-61.9,55.16s-61.9-18.39-61.91-55.16v-48.85c0-36.22,20.64-54.33,61.91-54.33h26.53v-61.9h-113.68v-31.17h271.19v31.17h-38.75v245.08h-36.21Zm-82.54-80.85v-70.75h-26.53c-10.68,0-17.77,1.89-21.27,5.68-3.5,3.79-5.26,9.76-5.26,17.91v47.16c0,8.15,1.76,14.19,5.26,18.11,3.51,3.92,10.6,5.89,21.27,5.89,10.67,0,17.76-1.9,21.27-5.69,3.51-3.8,5.26-9.9,5.26-18.31Zm35.34-102.33h47.17v-61.9h-47.17v61.9Z"/><path class="c" d="M1339.8,385.97c0-11.22-1.26-20.06-3.78-26.52h-127.19v-31.17h202.09v31.17h-37.78c1.95,5.88,2.93,14.72,2.95,26.52v53.9c0,38.75-20.78,58.13-62.32,58.12-12.6,0-23.69-1.68-33.27-5.04v47.16c0,22.17,14.88,33.26,44.65,33.26,18.14-.15,36.17-2.99,53.48-8.41v33.67c-17.12,5.34-37.13,8.01-60.01,8-22.89,0-41.09-5.78-54.59-17.32-13.48-11.51-20.21-27.65-20.21-48.42v-125.93h36.63v45.9c9.55,2.96,19.48,4.53,29.48,4.63,19.94,0,29.9-8.7,29.89-26.11v-53.42Z"/><path class="c" d="M1400.02,359.45h-38.74v-31.17h114.12v31.17h-38.74v245.08h-36.63v-245.08Z"/></g></g><g id="b"/></svg>