<svg width="48" height="48" viewBox="0 0 48 48" fill="none" xmlns="http://www.w3.org/2000/svg">
  <circle cx="24" cy="24" r="23.25" fill="white" stroke="#8CC63F" stroke-width="1.5"/>
  <circle cx="24" cy="24" r="15.75" fill="white" stroke="#8CC63F" stroke-width="1.5"/>
  <g clip-path="url(#clip0_5997_36082)">
    <path d="M30.6778 19.6844L29.1717 18.2202C28.8384 17.899 28.3881 17.7187 27.9188 17.7188H20.7427C20.2744 17.7188 19.8219 17.9002 19.4897 18.2202L17.9836 19.6844H14.25V27.5502H16.275C16.8319 27.5502 17.2812 27.1134 17.2843 26.575H17.5723L20.2491 28.9252C21.2268 29.6974 22.5841 29.7158 23.5903 29.0421C23.9858 29.3744 24.413 29.5312 24.8907 29.5312C25.4666 29.5312 26.0077 29.3036 26.4348 28.793C27.1341 29.0606 27.9599 28.8729 28.4598 28.2762L29.2888 27.2826C29.466 27.0703 29.5767 26.8273 29.6337 26.575H31.4657C31.4688 27.1134 31.9213 27.5502 32.475 27.5502H34.5V19.6844H30.6778ZM15.7688 26.5658C15.4903 26.5658 15.2625 26.3443 15.2625 26.0736C15.2625 25.8029 15.4903 25.5814 15.7688 25.5814C16.0472 25.5814 16.275 25.8029 16.275 26.0736C16.275 26.3474 16.0472 26.5658 15.7688 26.5658ZM28.1086 26.3536L27.2828 27.3441C27.1942 27.4487 27.036 27.4671 26.9252 27.381L26.169 26.7842L25.2198 27.907C25.03 28.1316 24.7452 28.0547 24.6503 27.9809L23.4859 27.0119L22.9923 27.6025C22.5525 28.1285 21.752 28.2085 21.2426 27.8055L18.1639 25.0985H17.2875V21.1579H18.6132L20.5655 19.263C20.6288 19.2384 20.6825 19.2168 20.7458 19.1922H22.5398L21.3154 20.2843C20.3851 21.1118 20.3313 22.5083 21.1761 23.4004C21.6444 23.8988 23.1125 24.6678 24.3877 23.5358L24.6471 23.3051L28.0706 26.006C28.1782 26.0921 28.194 26.249 28.1086 26.3536ZM31.4625 25.0985H29.273C29.2002 25.0124 29.1179 24.9324 29.0293 24.8616L25.7798 22.2961L26.1754 21.9454C26.381 21.7608 26.3968 21.4501 26.207 21.2502L25.8621 20.8903C25.6723 20.6903 25.3527 20.678 25.147 20.8595L23.4005 22.4161C23.0999 22.6837 22.5873 22.7052 22.3057 22.4161C22.0114 22.1115 22.0368 21.6439 22.3437 21.3732L24.4193 19.5245C24.6534 19.3153 24.9572 19.2015 25.2736 19.2015L27.9219 19.1953C27.9884 19.1953 28.0516 19.2199 28.0959 19.2661L30.0482 21.161H31.4625V25.0985ZM32.9813 26.5658C32.7028 26.5658 32.475 26.3443 32.475 26.0736C32.475 25.8029 32.7028 25.5814 32.9813 25.5814C33.2597 25.5814 33.4875 25.8029 33.4875 26.0736C33.4875 26.3474 33.2597 26.5658 32.9813 26.5658Z" fill="#8CC63F"/>
  </g>
  <defs>
    <clipPath id="clip0_5997_36082">
      <rect width="20.25" height="15.75" fill="white" transform="translate(14.25 15.75)"/>
    </clipPath>
  </defs>
</svg>
