<svg width="85" height="41" viewBox="0 0 85 41" fill="none" xmlns="http://www.w3.org/2000/svg">
<path d="M14.913 12.1089L14.9 12.1067C14.7621 12.0834 14.6391 12.0064 14.5579 11.8926C14.4767 11.7787 14.444 11.6373 14.4669 11.4993L14.467 11.4987C15.0379 8.14385 16.7207 5.07852 19.2448 2.7959L19.251 2.79026L19.2512 2.79044C19.3453 2.71411 19.4627 2.67245 19.5839 2.67245C19.7051 2.67245 19.8225 2.71411 19.9166 2.79044L19.9231 2.79572L19.923 2.79589C22.4463 5.07754 24.1291 8.14144 24.7007 11.495L24.7009 11.4958C24.7123 11.5649 24.7099 11.6355 24.694 11.7037C24.6781 11.7719 24.649 11.8363 24.6082 11.8932C24.5674 11.9501 24.5158 11.9984 24.4563 12.0354C24.3969 12.0724 24.3307 12.0973 24.2616 12.1087C24.1925 12.1201 24.1219 12.1177 24.0537 12.1018L24.0892 11.9495L24.0537 12.1018C23.9855 12.0859 23.9211 12.0567 23.8642 12.016C23.8073 11.9752 23.759 11.9236 23.722 11.8641C23.6852 11.805 23.6604 11.7392 23.6489 11.6705C23.1244 8.72842 21.704 6.02152 19.5838 3.91898C17.4593 6.02032 16.0349 8.72776 15.5075 11.6715L14.913 12.1089ZM14.913 12.1089H14.9261M14.913 12.1089H14.9261M14.9261 12.1089L14.9848 12.1089L14.9261 12.1089Z" fill="#8CC63F" stroke="#8CC63F" stroke-width="0.312819"/>
<path d="M19.5816 40.1563C19.7082 40.1588 19.8316 40.1157 19.9291 40.0348L19.9292 40.0349L19.9341 40.0304C22.4575 37.7488 24.1402 34.6849 24.7119 31.3313L24.712 31.3305C24.735 31.191 24.7017 31.048 24.6193 30.9331C24.5369 30.8182 24.4123 30.7407 24.2728 30.7176C24.1332 30.6946 23.9903 30.728 23.8754 30.8104L23.9665 30.9375L23.8754 30.8104C23.7607 30.8925 23.6834 31.0167 23.6601 31.1557C23.1326 34.0992 21.7082 36.8063 19.5839 38.9075C17.4595 36.8063 16.0351 34.099 15.5076 31.1555C15.4842 31.0179 15.4073 30.8953 15.2936 30.8142C15.1798 30.733 15.0384 30.7003 14.9004 30.7233L14.9004 30.7233L14.9 30.7233C14.7621 30.7466 14.6391 30.8236 14.5579 30.9375C14.4767 31.0513 14.444 31.1927 14.4669 31.3307L14.4669 31.3307L14.4671 31.3313C15.0387 34.6849 16.7215 37.7488 19.2448 40.0304L19.2447 40.0305L19.2499 40.0348C19.3432 40.1122 19.4603 40.1551 19.5816 40.1563ZM19.5816 40.1563C19.5812 40.1563 19.5809 40.1563 19.5805 40.1563L19.5839 39.9999L19.5826 40.1563C19.5823 40.1563 19.5819 40.1563 19.5816 40.1563Z" fill="#8CC63F" stroke="#8CC63F" stroke-width="0.312819"/>
<path d="M29.3532 17.1827L29.3256 17.3366C32.2694 17.864 34.9769 19.2884 37.0783 21.413C34.978 23.5346 32.273 24.9572 29.3321 25.4845C29.1952 25.4982 29.0689 25.5647 28.98 25.67C28.8895 25.7774 28.8453 25.9163 28.8572 26.0562C28.8691 26.1961 28.9361 26.3256 29.0434 26.4161L29.1443 26.2965L29.0434 26.4161C29.1508 26.5066 29.2897 26.5508 29.4296 26.5389L29.4297 26.5391L29.4358 26.5383L29.4953 26.5308L29.4953 26.531L29.5022 26.5298C32.8557 25.9582 35.9196 24.2754 38.2012 21.7521L38.2014 21.7522L38.2067 21.7457C38.283 21.6516 38.3247 21.5342 38.3247 21.413C38.3247 21.2918 38.283 21.1744 38.2067 21.0803L38.2069 21.0801L38.2012 21.0739C35.9196 18.5506 32.8557 16.8678 29.5022 16.2962L29.5022 16.2962L29.5015 16.2961C29.3636 16.2731 29.2222 16.3058 29.1083 16.387C28.9944 16.4682 28.9174 16.5912 28.8941 16.7291L28.8941 16.7291L28.8941 16.7295C28.8712 16.8675 28.9039 17.0089 28.9851 17.1227C29.0662 17.2366 29.1893 17.3136 29.3272 17.3369L29.3532 17.1827ZM29.3532 17.1827C29.2561 17.1663 29.1696 17.1121 29.1124 17.0319C29.0553 16.9518 29.0322 16.8523 29.0484 16.7552M29.3532 17.1827C32.3793 17.7248 35.1583 19.2047 37.2972 21.413C35.1578 23.6199 32.3788 25.0985 29.3532 25.6396L29.0484 16.7552M29.0484 16.7552C29.0648 16.6581 29.119 16.5715 29.1991 16.5144C29.2792 16.4572 29.3788 16.4342 29.4759 16.4503M29.0484 16.7552L29.4759 16.4503M29.4759 16.4503C32.7948 17.0161 35.8271 18.6815 38.0852 21.1788C38.139 21.245 38.1683 21.3277 38.1683 21.413C38.1683 21.4983 38.139 21.581 38.0852 21.6472C35.8271 24.1445 32.7948 25.8099 29.4759 26.3756L29.4164 26.3831L29.4759 16.4503Z" fill="#8CC63F" stroke="#8CC63F" stroke-width="0.312819"/>
<path d="M9.66605 26.5372L9.67913 26.5395H9.69241H9.70154L9.73864 26.5426C9.80792 26.5485 9.87769 26.5407 9.94395 26.5196C10.0102 26.4986 10.0717 26.4647 10.1248 26.4198C10.178 26.375 10.2218 26.3201 10.2537 26.2584C10.2857 26.1966 10.3052 26.1292 10.3111 26.0599C10.317 25.9906 10.3091 25.9209 10.2881 25.8546C10.267 25.7883 10.2331 25.7269 10.1883 25.6737C10.1434 25.6206 10.0886 25.5768 10.0268 25.5448C9.96739 25.5141 9.90271 25.4949 9.83618 25.4882C6.89493 24.9599 4.18992 23.536 2.09012 21.4131C4.19266 19.2929 6.89956 17.8725 9.84162 17.348C9.98071 17.3247 10.1049 17.2473 10.1871 17.1327C10.2695 17.0177 10.3028 16.8748 10.2798 16.7353L10.1255 16.7607L10.2798 16.7353C10.2568 16.5958 10.1793 16.4711 10.0643 16.3887C9.94942 16.3063 9.80647 16.273 9.66695 16.296L9.66613 16.2962C6.31258 16.8678 3.24868 18.5506 0.967033 21.0739L0.966866 21.0737L0.96158 21.0803C0.885249 21.1744 0.84359 21.2918 0.84359 21.413C0.84359 21.5342 0.885249 21.6516 0.96158 21.7457L0.961411 21.7459L0.96695 21.752C3.23149 24.2604 6.26855 25.9399 9.59548 26.525V26.5305L9.65702 26.5357C9.66003 26.5362 9.66304 26.5367 9.66605 26.5372Z" fill="#8CC63F" stroke="#8CC63F" stroke-width="0.312819"/>
<path d="M27.7628 10.5587V10.5593L27.7758 10.5582C27.8972 10.548 28.0114 10.4962 28.099 10.4115C28.1866 10.3269 28.2422 10.2145 28.2564 10.0936C28.4182 8.72902 28.1193 7.33264 27.7769 6.26947C27.4339 5.20422 27.0429 4.46023 27.0088 4.39604L27.0084 4.39527C26.9501 4.28716 26.8561 4.20271 26.7423 4.15644L26.6834 4.30132L26.7423 4.15644C26.6286 4.11019 26.5024 4.10499 26.3853 4.14173C23.1616 5.15123 22.124 6.46337 22.0638 6.54L22.0638 6.53998L22.0616 6.54291C21.9766 6.65647 21.9402 6.79915 21.9604 6.93955C21.9806 7.07995 22.0557 7.20658 22.1693 7.29158C22.2828 7.37657 22.4255 7.41298 22.5659 7.39278C22.7063 7.37258 22.8329 7.29744 22.9179 7.18387L22.9181 7.18401L22.9229 7.17691C22.922 7.17826 22.9234 7.17667 22.9272 7.17229C22.9964 7.09416 23.8501 6.1302 26.2818 5.29117C26.6631 6.13658 27.4419 8.15754 27.2358 9.96735C27.2271 10.0364 27.2322 10.1065 27.2508 10.1736C27.2694 10.2411 27.3013 10.3042 27.3445 10.3592C27.3878 10.4142 27.4415 10.4601 27.5027 10.4942C27.5638 10.5283 27.6311 10.5499 27.7007 10.5577L27.7094 10.5587H27.7182H27.7628Z" fill="#8CC63F" stroke="#8CC63F" stroke-width="0.312819"/>
<path d="M11.4072 10.5589L11.4072 10.5587C11.2774 10.5596 11.1519 10.5128 11.0545 10.4271C10.9571 10.3413 10.8946 10.2228 10.8791 10.0939L10.879 10.0936C10.7172 8.72902 11.0161 7.33264 11.3585 6.26947C11.7015 5.20422 12.0926 4.46023 12.1267 4.39604L12.1271 4.39527L12.1271 4.39527C12.1853 4.28716 12.2793 4.20271 12.3931 4.15644C12.5068 4.1102 12.633 4.10499 12.7501 4.1417M11.4072 10.5589L12.7034 4.29099M11.4072 10.5589L11.4139 10.5585M11.4072 10.5589L11.4139 10.5585M12.7501 4.1417C12.7501 4.14172 12.7502 4.14174 12.7503 4.14176L12.7034 4.29099M12.7501 4.1417C12.75 4.14169 12.75 4.14167 12.7499 4.14165L12.7034 4.29099M12.7501 4.1417C14.3699 4.64605 15.44 5.22607 16.1149 5.69043C16.4524 5.92257 16.6906 6.12549 16.849 6.27504C16.9283 6.34982 16.9873 6.41103 17.0286 6.45553C17.0492 6.47774 17.0653 6.49564 17.0767 6.50841C17.0873 6.52022 17.0906 6.52378 17.0905 6.52384C17.0905 6.52385 17.0904 6.52379 17.0903 6.52367L17.0983 6.53114L17.1062 6.54142C17.1485 6.59653 17.1795 6.65942 17.1974 6.72651C17.2154 6.7936 17.22 6.86358 17.2109 6.93244C17.2019 7.00131 17.1793 7.06771 17.1446 7.12786L17.0091 7.04965M12.7034 4.29099C15.7248 5.23167 16.7987 6.43221 16.9618 6.6146C16.9721 6.6261 16.9788 6.63355 16.9821 6.63664C17.0119 6.67545 17.0337 6.71974 17.0464 6.76699C17.059 6.81424 17.0623 6.86352 17.0559 6.91202C17.0495 6.96052 17.0336 7.00729 17.0091 7.04965M17.0091 7.04965L17.1446 7.12786C17.1099 7.18801 17.0636 7.24073 17.0085 7.28301C16.9534 7.32529 16.8905 7.35631 16.8234 7.37428C16.7563 7.39226 16.6864 7.39684 16.6175 7.38778C16.5486 7.37871 16.4822 7.35617 16.4221 7.32144L16.5003 7.18598M17.0091 7.04965C16.9847 7.09201 16.9521 7.12914 16.9133 7.15892C16.8745 7.1887 16.8302 7.21054 16.783 7.2232C16.7357 7.23586 16.6864 7.23909 16.6379 7.23271C16.5894 7.22632 16.5427 7.21044 16.5003 7.18598M16.5003 7.18598C16.4579 7.16152 16.4208 7.12896 16.391 7.09015C16.391 7.07156 15.5026 5.99725 12.8187 5.09766M16.5003 7.18598L16.4221 7.32144C16.3619 7.28671 16.3092 7.24047 16.2669 7.18536L16.2415 7.15219M16.2415 7.15219C16.249 7.16083 16.2542 7.1672 16.2574 7.17127C16.2589 7.17317 16.2596 7.17404 16.2596 7.17404C16.2596 7.17403 16.2593 7.17368 16.2589 7.17301C16.2585 7.17244 16.256 7.16887 16.2531 7.16344C16.2517 7.16087 16.2486 7.15514 16.2456 7.14738L16.2454 7.147C16.2436 7.14259 16.2346 7.12019 16.2346 7.09015V7.14324L16.2415 7.15219ZM16.2415 7.15219C16.2384 7.14869 16.235 7.14481 16.2312 7.14056C16.205 7.11138 16.163 7.06758 16.1033 7.0116C15.984 6.89977 15.7952 6.74054 15.5227 6.55317C14.9961 6.19113 14.1566 5.72398 12.9012 5.29094M12.9012 5.29094C12.9221 5.24528 12.9417 5.20315 12.9599 5.16476L12.8187 5.09766M12.9012 5.29094C12.8576 5.2759 12.8136 5.26091 12.769 5.24596L12.8187 5.09766M12.9012 5.29094C12.5203 6.12594 11.7427 8.14066 11.9628 9.96725L11.9629 9.96775C11.971 10.0368 11.9654 10.1067 11.9464 10.1736C11.9274 10.2404 11.8954 10.3029 11.8522 10.3573L11.7296 10.2602M12.8187 5.09766C12.4655 5.84112 11.5696 8.01205 11.8075 9.98596C11.8132 10.0345 11.8093 10.0838 11.7959 10.1308C11.7826 10.1779 11.76 10.2218 11.7296 10.2602M11.7296 10.2602L11.8522 10.3573C11.809 10.4118 11.7555 10.4572 11.6948 10.491C11.634 10.5247 11.5672 10.5461 11.4981 10.554L11.4882 10.5551L11.4882 10.5548L11.4139 10.5585M11.7296 10.2602L11.4139 10.5585" fill="#8CC63F" stroke="#8CC63F" stroke-width="0.312819"/>
<path d="M26.399 38.6991L26.4108 38.7028L26.423 38.7046C26.4723 38.7121 26.5224 38.7126 26.5719 38.706C26.6608 38.7019 26.7473 38.6754 26.8233 38.6289C26.9021 38.5807 26.9669 38.5127 27.0112 38.4317L27.0112 38.4317L27.012 38.4301C27.0461 38.3659 27.4372 37.6219 27.7802 36.5566C28.1226 35.4935 28.4214 34.0971 28.2597 32.7325L28.2597 32.7323C28.2429 32.5925 28.1713 32.4651 28.0606 32.3782C27.9499 32.2912 27.8092 32.2517 27.6694 32.2685C27.5296 32.2853 27.4022 32.3569 27.3152 32.4676C27.2283 32.5783 27.1888 32.719 27.2056 32.8588L27.2056 32.8589C27.4261 34.6882 26.6623 36.7063 26.2694 37.536C25.0127 37.1027 24.1726 36.6361 23.6457 36.2743C23.3731 36.0872 23.1844 35.9281 23.0652 35.8162C23.0055 35.7601 22.9637 35.7163 22.9376 35.6871C22.9361 35.6853 22.9346 35.6836 22.9331 35.682L22.9015 35.6407C22.8592 35.5856 22.8065 35.5394 22.7463 35.5047C22.6862 35.4699 22.6198 35.4474 22.5509 35.4383C22.4821 35.4293 22.4121 35.4339 22.345 35.4518C22.2779 35.4698 22.215 35.5008 22.1599 35.5431L22.2551 35.6672L22.1599 35.5431C22.1048 35.5854 22.0586 35.6381 22.0238 35.6983C21.9891 35.7584 21.9666 35.8248 21.9575 35.8937C21.9484 35.9625 21.953 36.0325 21.971 36.0996C21.989 36.1667 22.02 36.2296 22.0623 36.2847L22.0701 36.295L22.0781 36.3024C22.078 36.3023 22.0779 36.3023 22.0779 36.3023C22.0779 36.3023 22.0812 36.3059 22.0917 36.3177C22.1031 36.3304 22.1191 36.3483 22.1397 36.3705C22.1809 36.415 22.2399 36.4762 22.3189 36.5511C22.477 36.7008 22.7146 36.9042 23.0507 37.1372C23.7232 37.6034 24.7885 38.1872 26.399 38.6991Z" fill="#8CC63F" stroke="#8CC63F" stroke-width="0.312819"/>
<path d="M12.1452 38.4301L12.1452 38.4301C12.1111 38.3659 11.7201 37.6219 11.377 36.5566C11.0347 35.4935 10.7358 34.0971 10.8976 32.7325L10.8976 32.7323C10.9059 32.6631 10.9278 32.5962 10.9619 32.5354C10.9961 32.4747 11.0419 32.4212 11.0967 32.3782C11.1515 32.3351 11.2143 32.3032 11.2814 32.2844C11.3485 32.2656 11.4187 32.2602 11.4879 32.2685C11.5571 32.2768 11.624 32.2987 11.6847 32.3328C11.7455 32.367 11.7989 32.4128 11.842 32.4676M12.1452 38.4301L11.842 32.4676M12.1452 38.4301L12.1461 38.4318M12.1452 38.4301L12.1461 38.4318M11.842 32.4676C11.8851 32.5224 11.9169 32.5852 11.9357 32.6523C11.9546 32.7194 11.96 32.7896 11.9517 32.8588M11.842 32.4676L11.9517 32.8588M12.1461 38.4318C12.1917 38.5151 12.259 38.5846 12.3408 38.6329C12.4213 38.6805 12.5129 38.7058 12.6064 38.7064C12.6655 38.7091 12.7247 38.7019 12.7814 38.685L12.7815 38.6851L12.7836 38.6844C16.0072 37.6749 17.0448 36.3627 17.105 36.2861L17.1051 36.2861L17.107 36.2836C17.1921 36.1706 17.2288 36.0284 17.2091 35.8883C17.1894 35.7483 17.1148 35.6218 17.0018 35.5367C16.8888 35.4516 16.7466 35.4149 16.6066 35.4346C16.4665 35.4543 16.34 35.5289 16.2549 35.6419L16.2547 35.6417L16.2497 35.6492C16.2506 35.6478 16.2492 35.6494 16.2453 35.6538C16.1761 35.732 15.3225 36.6959 12.8907 37.535C12.5094 36.6912 11.7314 34.6894 11.9517 32.8588L11.9517 32.8588M12.1461 38.4318L11.9517 32.8588M11.0529 32.7509C11.0588 32.7021 11.0742 32.6549 11.0983 32.6121C11.1224 32.5692 11.1547 32.5315 11.1933 32.5011C11.232 32.4708 11.2762 32.4483 11.3236 32.435C11.3709 32.4218 11.4204 32.418 11.4692 32.4238C11.5181 32.4297 11.5652 32.4451 11.6081 32.4692C11.651 32.4933 11.6886 32.5256 11.719 32.5642C11.7494 32.6029 11.7719 32.6472 11.7851 32.6945L11.0529 32.7509Z" fill="#8CC63F" stroke="#8CC63F" stroke-width="0.312819"/>
<path d="M30.9039 30.1184L30.9039 30.1183C30.7642 30.1016 30.6368 30.03 30.5498 29.9193C30.4628 29.8086 30.4234 29.6678 30.4401 29.5281C30.4569 29.3883 30.5285 29.2609 30.6392 29.1739C30.7499 29.0869 30.8906 29.0475 31.0304 29.0643L31.0305 29.0643C32.8611 29.2845 34.8631 28.5065 35.7068 28.1252C35.2684 26.849 34.7994 26.0112 34.4385 25.491C34.2518 25.222 34.0938 25.0376 33.9836 24.9213C33.9285 24.8631 33.8852 24.8219 33.8563 24.7955C33.8418 24.7823 33.8308 24.7728 33.8236 24.7666L33.8152 24.7596L33.8147 24.7592C33.7015 24.6753 33.6255 24.5502 33.6032 24.4108C33.5807 24.2695 33.6152 24.1249 33.6992 24.009C33.7831 23.8931 33.9097 23.8153 34.0511 23.7927C34.1924 23.7702 34.337 23.8047 34.4529 23.8886L34.4578 23.8922L34.4577 23.8923C34.5344 23.9525 35.8465 24.9901 36.856 28.2137L30.9039 30.1184ZM30.9039 30.1184L30.9083 30.1188M30.9039 30.1184L30.9083 30.1188M30.9083 30.1188C31.1707 30.1428 31.4342 30.1517 31.6976 30.1455M30.9083 30.1188L31.6976 30.1455M31.6976 30.1455C32.9276 30.1452 34.1266 29.8348 35.0282 29.5182C35.9025 29.2111 36.5112 28.893 36.6071 28.8343C36.713 28.7759 36.7957 28.6829 36.8413 28.5708C36.8876 28.4571 36.8928 28.3309 36.856 28.2138L31.6976 30.1455Z" fill="#8CC63F" stroke="#8CC63F" stroke-width="0.312819"/>
<path d="M35.9002 14.6326C35.1567 14.2795 32.9858 13.3836 31.0119 13.6215M35.9002 14.6326L35.7519 14.5829C35.7369 14.6275 35.7219 14.6716 35.7069 14.7152M35.9002 14.6326C35.0006 17.3165 33.93 18.205 33.9077 18.205L34.1305 19.0305M35.9002 14.6326L35.8331 14.7739C35.7947 14.7557 35.7526 14.736 35.7069 14.7152M31.0119 13.6215L36.7069 14.5508L36.8561 14.5977C36.8929 14.4805 36.8877 14.3542 36.8414 14.2405C36.7951 14.1268 36.7107 14.0327 36.6026 13.9745L36.6018 13.9741C36.5376 13.94 35.7936 13.5489 34.7284 13.2059C33.6652 12.8635 32.2688 12.5647 30.9043 12.7264L30.9043 12.7264L30.9034 12.7265C30.7649 12.7437 30.6388 12.815 30.5527 12.9249C30.4667 13.0346 30.4276 13.1739 30.4439 13.3124C30.4518 13.3814 30.4732 13.4481 30.5069 13.5087C30.5406 13.5695 30.586 13.623 30.6405 13.6662C30.695 13.7093 30.7574 13.7413 30.8243 13.7603C30.8911 13.7793 30.9611 13.7849 31.0301 13.7768L31.0301 13.7768L31.0306 13.7768C32.8572 13.5566 34.8719 14.3342 35.7069 14.7152M31.0119 13.6215C30.9633 13.6272 30.9141 13.6232 30.867 13.6099C30.82 13.5965 30.776 13.574 30.7377 13.5436C30.6993 13.5132 30.6674 13.4755 30.6436 13.4328C30.6199 13.39 30.6048 13.343 30.5993 13.2944L31.0119 13.6215ZM35.7069 14.7152C35.2739 15.9707 34.8076 16.8101 34.446 17.3367C34.2589 17.6093 34.0998 17.798 33.9879 17.9172C33.9319 17.9769 33.888 18.0187 33.8588 18.0448C33.8564 18.0469 33.8541 18.0489 33.852 18.0508L33.8129 18.0806C33.7016 18.1654 33.6286 18.2909 33.6098 18.4296C33.591 18.568 33.6278 18.7083 33.7123 18.8197C33.7614 18.8851 33.8251 18.9382 33.8983 18.9748C33.9704 19.0108 34.0499 19.0299 34.1305 19.0305M34.1305 19.0305C34.1318 19.0305 34.1331 19.0305 34.1345 19.0305V18.8741L34.1266 19.0303C34.1279 19.0304 34.1292 19.0304 34.1305 19.0305Z" fill="#8CC63F" stroke="#8CC63F" stroke-width="0.312819"/>
<path d="M7.47562 30.1454L7.47336 30.1454C5.05521 30.1454 2.74566 28.9447 2.57515 28.8561C2.57261 28.8547 2.57054 28.8537 2.56895 28.8528L2.56665 28.8517L2.56666 28.8516C2.45855 28.7934 2.3741 28.6994 2.32783 28.5856C2.28156 28.4719 2.27637 28.3456 2.31315 28.2284M7.47562 30.1454L2.46238 28.2753M7.47562 30.1454C7.73995 30.1415 8.00384 30.1225 8.26598 30.0884C8.40545 30.0715 8.53253 29.9999 8.61934 29.8894C8.70632 29.7787 8.74576 29.638 8.72899 29.4982C8.71221 29.3585 8.6406 29.2311 8.5299 29.1441C8.41921 29.0571 8.27849 29.0177 8.13871 29.0344L8.13863 29.0345C6.30867 29.255 4.28978 28.4906 3.46068 28.0979M7.47562 30.1454L3.26904 28.1786M2.31315 28.2284L2.46238 28.2753M2.31315 28.2284C2.31314 28.2285 2.31313 28.2285 2.31312 28.2285L2.46238 28.2753M2.31315 28.2284C2.81753 26.6178 3.3976 25.5524 3.86196 24.8798C4.0941 24.5436 4.29701 24.306 4.44653 24.1479C4.5213 24.0688 4.58249 24.0098 4.62697 23.9686C4.64917 23.948 4.66706 23.932 4.67982 23.9206C4.69161 23.91 4.69518 23.9067 4.69523 23.9068C4.69524 23.9068 4.69518 23.9069 4.69507 23.907L4.70252 23.899L4.71281 23.8911C4.76791 23.8488 4.83081 23.8178 4.8979 23.7998C4.96499 23.7819 5.03496 23.7773 5.10383 23.7863C5.17269 23.7954 5.23909 23.818 5.29924 23.8527C5.3594 23.8874 5.41212 23.9337 5.4544 23.9888C5.49668 24.0439 5.52769 24.1068 5.54567 24.1739C5.56365 24.2409 5.56823 24.3109 5.55916 24.3798C5.5501 24.4486 5.52755 24.515 5.49282 24.5752C5.45809 24.6353 5.41186 24.6881 5.35675 24.7304L5.31463 24.7627H5.31408M2.46238 28.2753C3.40278 25.2723 4.6029 24.1992 4.78583 24.0356C4.79742 24.0252 4.80492 24.0185 4.80802 24.0152C4.84683 23.9854 4.89113 23.9636 4.93838 23.9509C4.98563 23.9383 5.03491 23.935 5.08341 23.9414C5.13191 23.9478 5.17867 23.9637 5.22104 23.9881C5.2634 24.0126 5.30053 24.0452 5.33031 24.084C5.36009 24.1228 5.38193 24.1671 5.39459 24.2143C5.40725 24.2616 5.41048 24.3109 5.40409 24.3594C5.39771 24.4079 5.38183 24.4546 5.35737 24.497C5.33291 24.5394 5.30035 24.5765 5.26154 24.6063C5.23923 24.6063 4.14634 25.4984 3.26904 28.1786M5.31408 24.7627C5.32626 24.7521 5.33486 24.7452 5.33986 24.7414C5.34161 24.7401 5.34242 24.7395 5.34242 24.7395C5.34242 24.7395 5.34193 24.7398 5.34102 24.7404C5.34025 24.7409 5.33633 24.7434 5.33042 24.7464C5.32754 24.7479 5.32164 24.7508 5.3137 24.7536L5.31361 24.7537C5.30859 24.7555 5.28852 24.7627 5.26154 24.7627H5.31408ZM5.31408 24.7627C5.31237 24.7642 5.31058 24.7657 5.30872 24.7673C5.27895 24.7935 5.23438 24.8355 5.17754 24.8953C5.064 25.0147 4.90297 25.2037 4.71458 25.4763C4.35033 26.0034 3.88376 26.8432 3.46068 28.0979M3.46068 28.0979C3.4167 28.0771 3.37607 28.0573 3.33899 28.0387L3.26904 28.1786M3.46068 28.0979C3.4463 28.1405 3.43197 28.1837 3.41769 28.2273L3.26904 28.1786" fill="#8CC63F" stroke="#8CC63F" stroke-width="0.312819"/>
<path d="M5.03575 19.0267C5.1162 19.0264 5.19553 19.0078 5.26768 18.9721C5.34 18.9364 5.40319 18.8846 5.45239 18.8207L5.45243 18.8207C5.53761 18.7099 5.57544 18.5699 5.55762 18.4313C5.5398 18.2928 5.4678 18.1669 5.35737 18.0813L5.35761 18.081L5.3483 18.0747C5.34965 18.0756 5.34805 18.0742 5.34368 18.0704C5.26555 18.0012 4.30159 17.1475 3.46256 14.7158C4.30812 14.3345 6.32892 13.5568 8.13817 13.7804L8.13871 13.7804C8.27849 13.7972 8.4192 13.7578 8.5299 13.6708C8.6406 13.5838 8.71221 13.4564 8.72899 13.3166C8.74576 13.1769 8.70632 13.0361 8.61934 12.9254C8.53237 12.8147 8.40498 12.7431 8.2652 12.7264L8.26519 12.7264C6.90049 12.5627 5.504 12.8616 4.44079 13.2044C3.37548 13.5479 2.63147 13.9399 2.56743 13.974L2.56743 13.974L2.56666 13.9744C2.45855 14.0326 2.3741 14.1267 2.32783 14.2404C2.28158 14.3541 2.27638 14.4804 2.31312 14.5975C3.32262 17.8211 4.63475 18.8587 4.71139 18.9189L4.71136 18.919L4.71417 18.9211C4.80687 18.9906 4.91987 19.0277 5.03575 19.0267ZM5.03575 19.0267C5.03555 19.0267 5.03535 19.0267 5.03516 19.0267L5.03478 18.8703L5.03633 19.0267C5.03614 19.0267 5.03594 19.0267 5.03575 19.0267Z" fill="#8CC63F" stroke="#8CC63F" stroke-width="0.312819"/>
<path d="M19.5843 25.9449L19.5844 25.9449C20.786 25.9439 21.938 25.4661 22.7876 24.6165C23.6372 23.7669 24.115 22.6148 24.116 21.4133V21.4132C24.116 20.5169 23.8502 19.6407 23.3523 18.8955C22.8543 18.1502 22.1466 17.5694 21.3185 17.2264C20.4904 16.8834 19.5793 16.7937 18.7002 16.9685C17.8211 17.1434 17.0137 17.575 16.3799 18.2087C15.7461 18.8425 15.3145 19.65 15.1397 20.5291C14.9648 21.4081 15.0545 22.3193 15.3975 23.1474C15.7405 23.9754 16.3214 24.6832 17.0666 25.1811C17.8118 25.6791 18.688 25.9449 19.5843 25.9449ZM17.6535 18.5234C18.225 18.1416 18.8969 17.9377 19.5842 17.9377C20.5057 17.9387 21.3891 18.3052 22.0407 18.9567C22.6923 19.6083 23.0588 20.4918 23.0597 21.4133C23.0597 22.1006 22.8559 22.7725 22.474 23.344C22.0921 23.9155 21.5493 24.361 20.9143 24.624C20.2792 24.8871 19.5804 24.9559 18.9063 24.8218C18.2321 24.6877 17.6128 24.3567 17.1268 23.8707C16.6407 23.3846 16.3097 22.7653 16.1756 22.0912C16.0415 21.417 16.1104 20.7182 16.3734 20.0832C16.6365 19.4481 17.0819 18.9053 17.6535 18.5234Z" fill="#8CC63F" stroke="#8CC63F" stroke-width="0.312819"/>
<path d="M7.5881 9.763L7.43204 9.75252C7.44053 9.62595 7.49431 9.50666 7.58353 9.41647C7.67271 9.32631 7.79135 9.27126 7.91777 9.26136M7.5881 9.763L18.6621 17.562C18.2411 15.8437 17.3609 14.2723 16.1157 13.0157M7.5881 9.763L7.43212 9.7513C7.01117 15.3628 10.2376 20.043 15.4649 21.3652L7.93009 9.41729M7.5881 9.763C7.59408 9.67391 7.63193 9.58995 7.69472 9.52647C7.75752 9.46299 7.84107 9.42423 7.93009 9.41729M7.91777 9.26136C7.91782 9.26136 7.91788 9.26136 7.91793 9.26135L7.93009 9.41729M7.91777 9.26136C7.91772 9.26137 7.91766 9.26137 7.91761 9.26138L7.93009 9.41729M7.91777 9.26136C11.3508 8.98661 14.4895 10.1162 16.7505 12.381L16.7508 12.3813C18.1114 13.7521 19.0738 15.467 19.5351 17.3425M19.5351 17.3425C19.535 17.3422 19.5349 17.3418 19.5349 17.3415L19.3833 17.3798L19.5351 17.3425ZM19.5351 17.3425C19.5691 17.4781 19.548 17.6216 19.4763 17.7416C19.4045 17.862 19.2879 17.9488 19.152 17.9831C19.0162 18.0175 18.8722 17.9964 18.7519 17.9246C18.6316 17.8528 18.5447 17.7361 18.5104 17.6003L18.5101 17.5992C18.096 15.9089 17.2303 14.363 16.0055 13.1267M16.0055 13.1267C16.0058 13.127 16.0061 13.1273 16.0064 13.1276L16.1157 13.0157M16.0055 13.1267C14.9959 12.1417 13.7893 11.3814 12.465 10.8958C11.1839 10.4261 9.82071 10.2237 8.45938 10.3005L16.1157 13.0157M16.0055 13.1267C16.0052 13.1264 16.0049 13.1261 16.0046 13.1258L16.1157 13.0157" fill="#8CC63F" stroke="#8CC63F" stroke-width="0.312819"/>
<path d="M27.9999 24.8812C26.7435 23.6349 25.1721 22.7535 23.4536 22.3311M27.9999 24.8812L27.8879 24.9904C27.8882 24.9907 27.8885 24.991 27.8888 24.9914M27.9999 24.8812L27.8897 24.9922C27.8894 24.9919 27.8891 24.9916 27.8888 24.9914M27.9999 24.8812C29.0005 25.9068 29.7725 27.1328 30.2652 28.4783C30.758 29.8238 30.9602 31.2583 30.8585 32.6876L20.6612 25.2487C21.8133 29.8307 25.8116 32.7224 30.7114 32.5375C30.7891 31.1763 30.5875 29.8132 30.1184 28.532C29.6334 27.2077 28.8736 26.001 27.8888 24.9914M23.4536 22.3311L23.632 21.6099L23.6695 21.4581C23.6694 21.4581 23.6694 21.4581 23.6694 21.4581C23.5336 21.4246 23.39 21.4464 23.2702 21.5186C23.1504 21.5909 23.0641 21.7078 23.0304 21.8436L23.0304 21.8439C22.9969 21.9797 23.0186 22.1233 23.0909 22.2431C23.1632 22.363 23.2801 22.4492 23.4159 22.4829L23.4163 22.483C25.1068 22.8985 26.6527 23.7655 27.8888 24.9914M23.4536 22.3311C23.358 22.3074 23.2757 22.2467 23.2248 22.1623C23.174 22.078 23.1586 21.9769 23.1822 21.8813L23.4536 22.3311ZM28.524 24.3571C30.7544 26.5875 31.8325 29.6691 31.5797 33.0631C31.5728 33.1521 31.534 33.2356 31.4705 33.2984C31.407 33.3612 31.3231 33.3991 31.234 33.4051L28.524 24.3571ZM30.2749 33.6024C30.594 33.6024 30.918 33.5911 31.2465 33.561L20.5095 25.2864C20.4977 25.2387 20.4767 25.1937 20.4475 25.1542C20.4182 25.1147 20.3815 25.0813 20.3393 25.0561C20.2971 25.0308 20.2504 25.0142 20.2017 25.0072C20.1531 25.0001 20.1035 25.0028 20.0559 25.015L20.0172 24.8635C20.0171 24.8635 20.0171 24.8635 20.017 24.8635C19.9497 24.8808 19.8865 24.9111 19.831 24.9528C19.7754 24.9946 19.7286 25.0469 19.6933 25.1067C19.6579 25.1666 19.6348 25.2328 19.6251 25.3017C19.6154 25.3705 19.6194 25.4406 19.6369 25.5078L19.7883 25.4685L19.6366 25.5066C20.8742 30.4458 25.0919 33.6024 30.2749 33.6024Z" fill="#8CC63F" stroke="#8CC63F" stroke-width="0.312819"/>
<path d="M23.0197 20.98L23.0197 20.9799C23.0023 20.9123 22.9985 20.8419 23.0085 20.7728C23.0185 20.7037 23.0421 20.6372 23.078 20.5773C23.1138 20.5174 23.1612 20.4652 23.2174 20.4237L23.3103 20.5495L23.2174 20.4237C23.2736 20.3822 23.3374 20.3522 23.4052 20.3356L23.4055 20.3355C25.0945 19.9234 26.6394 19.0588 27.874 17.8347C28.8587 16.8248 29.6187 15.6181 30.1043 14.2939C30.574 13.0129 30.7766 11.6498 30.7002 10.2885C25.8148 10.1038 21.8095 12.9956 20.6613 17.5776L20.6611 17.5784C20.6438 17.6457 20.6135 17.709 20.5717 17.7646C20.53 17.8202 20.4777 17.867 20.4178 17.9023C20.358 17.9376 20.2917 17.9608 20.2229 17.9705C20.1541 17.9801 20.0841 17.9761 20.0169 17.9587C20.0168 17.9587 20.0168 17.9587 20.0167 17.9587L23.0197 20.98ZM23.0197 20.98C23.0496 21.0962 23.1183 21.1988 23.2143 21.2708C23.3096 21.3423 23.4262 21.3794 23.5453 21.3762M23.0197 20.98L23.5453 21.3762M23.5453 21.3762C23.5461 21.3762 23.547 21.3762 23.5478 21.3761L23.5429 21.2198L23.5453 21.3762Z" fill="#8CC63F" stroke="#8CC63F" stroke-width="0.312819"/>
<path d="M7.43215 33.0752L7.43212 33.0749C7.01049 27.4543 10.248 22.7679 15.4905 21.462C15.5578 21.4448 15.6278 21.4411 15.6966 21.4511C15.7657 21.4611 15.8321 21.4847 15.892 21.5206C15.952 21.5564 16.0042 21.6038 16.0457 21.66L16.0457 21.66C16.0872 21.7162 16.1171 21.78 16.1337 21.8478M7.43215 33.0752L15.7105 22.3349L15.7482 22.4867C15.7482 22.4867 15.7483 22.4867 15.7484 22.4867C15.8841 22.4529 16.0009 22.3667 16.0732 22.247C16.1454 22.1272 16.1672 21.9836 16.1337 21.8478M7.43215 33.0752C7.44186 33.2008 7.49617 33.3189 7.58527 33.408C7.67365 33.4964 7.7905 33.5505 7.91499 33.5609L7.43215 33.0752ZM16.1337 21.8478L15.9819 21.8851L16.1337 21.8477C16.1337 21.8477 16.1337 21.8478 16.1337 21.8478ZM8.4594 32.537C8.41309 32.5343 8.36678 32.5313 8.32048 32.528L8.30926 32.684L8.46548 32.6763C8.46318 32.6298 8.46115 32.5833 8.4594 32.537ZM16.0055 29.7106C16.0052 29.7109 16.0049 29.7112 16.0046 29.7115L16.1157 29.8216L16.0063 29.7099C16.006 29.7101 16.0058 29.7104 16.0055 29.7106Z" fill="#8CC63F" stroke="#8CC63F" stroke-width="0.312819"/>
<path d="M62.3155 3.01831C63.1338 3.56384 63.7476 4.05823 64.1567 4.50147L65.6399 6.18921C66.4923 7.48485 66.9185 8.62706 66.9185 9.61583L66.8162 9.92269L66.5605 10.3318L65.4353 10.8433L64.7193 10.7921L64.5147 10.383C64.5147 8.23495 63.3043 6.39378 60.8835 4.85948C58.4627 3.32517 55.4964 2.55802 51.9845 2.55802C49.5637 2.55802 47.876 3.5127 46.9213 5.42206C46.6827 6.03578 46.5633 6.63246 46.5633 7.21208C46.5633 9.08735 47.3305 10.4171 48.8648 11.2013L50.5014 11.1501L51.1662 11.3036L51.3708 11.5593L51.4731 11.7639V11.9684L51.422 12.173L50.9105 13.0424L50.3991 13.5539L49.9388 13.7585L47.9442 13.7073L48.4556 14.4745L48.9159 15.1905L49.1716 15.9065L49.2739 16.6225V37.4379C49.2398 37.5743 49.1035 37.6596 48.8648 37.6937L48.5579 37.6425L48.3022 37.5402L47.9442 37.2334L47.535 36.7219L46.819 35.5968L46.6656 35.4433L46.5633 35.1365V13.7073H45.0802L44.671 13.5539C44.5687 13.4516 44.5176 13.247 44.5176 12.9402C44.5176 12.6333 44.5517 12.3946 44.6199 12.2242L44.9267 11.6616L45.4382 11.3036L45.8985 11.2013L46.819 11.1501C45.4893 9.82041 44.8244 8.01333 44.8244 5.72892C44.8244 4.53557 45.2677 3.4445 46.1542 2.45573C46.9384 1.56924 47.9442 0.904375 49.1716 0.461131C49.9899 0.154269 50.9276 0.000838398 51.9845 0.000838398C55.701 -0.0332569 59.1446 0.972567 62.3155 3.01831Z" fill="#343C46"/>
<path d="M58.8186 26.9535C58.8186 28.3855 58.4606 29.4084 57.7446 30.0221C57.1991 30.8745 56.3808 31.3007 55.2897 31.3007C54.0963 31.3007 52.9882 30.687 51.9654 29.4595C51.6244 28.9481 51.2834 28.2662 50.9425 27.4138C50.7379 26.6296 50.6356 25.7942 50.6356 24.9078C50.6356 23.203 51.1641 21.805 52.2211 20.714C53.3121 19.5888 54.5907 19.0262 56.0568 19.0262V13.7073H50.9425L50.6356 13.5539L50.5333 12.9402L50.5845 12.2753L50.8913 11.7127L51.3005 11.3547L51.9142 11.2013L66.797 11.1501C67.0357 11.1501 67.2232 11.2183 67.3596 11.3547L67.6153 11.815L67.513 12.3776C67.513 12.5822 67.4278 12.8208 67.2573 13.0936L66.7459 13.5539L66.2856 13.7585L64.2398 13.7073L64.8024 14.3722L65.2627 15.0882L65.4161 15.8042L65.5696 16.6225V37.4379C65.5355 37.5743 65.4161 37.6596 65.2115 37.6937L64.9047 37.6425L64.5467 37.4891L64.3421 37.3868L64.1887 37.1311L63.9841 36.9265L63.8307 36.6196L63.1147 35.6479L62.9101 34.983V21.9926L62.5521 21.8903L62.0918 21.7369L61.6315 21.6346L61.0689 21.4811L58.8186 21.2254V26.9535ZM55.6988 29.1527C55.9375 28.8117 56.0568 28.3173 56.0568 27.6695V21.2254C55.2726 21.2254 54.5737 21.6687 53.96 22.5552C53.619 22.9984 53.3462 23.578 53.1417 24.294L52.9371 26.2375L53.0905 27.5161L53.4485 28.6924C53.7213 29.2379 54.1475 29.5789 54.7271 29.7153C55.1363 29.6812 55.4602 29.4936 55.6988 29.1527ZM58.8186 18.9751L61.1201 19.0262L62.1941 19.1797C62.4668 19.1797 62.7055 19.2308 62.9101 19.3331V13.7073H57.4889C58.3754 14.5938 58.8186 15.5655 58.8186 16.6225V18.9751Z" fill="#343C46"/>
<path d="M68.1995 16.9294C68.3017 16.7589 68.4552 16.6566 68.6597 16.6225L69.3246 16.7248L69.9895 17.1851L70.2963 17.5942L70.5009 18.0034L70.7055 18.6682V19.7934L70.7566 20.714L71.0635 21.4811L71.4726 22.0437L72.0352 22.2483C72.7512 22.2483 73.3138 21.805 73.723 20.9186L74.2344 19.4865L74.3878 17.7477C74.3878 15.9747 73.8764 14.7131 72.8535 13.963C72.5467 13.7585 72.1375 13.5709 71.6261 13.4005L67.0743 13.3493L66.6651 13.1959L66.5629 12.5822L66.6651 11.9173L66.972 11.3036L67.1766 11.099L67.688 10.8433L67.9437 10.7921L76.8427 10.741C77.1496 10.741 77.3712 10.8092 77.5076 10.9456C77.6781 11.0819 77.7803 11.2524 77.8144 11.457L77.7633 11.7639C77.7292 11.9002 77.6951 12.0025 77.661 12.0707L77.5076 12.4287L77.2519 12.7356L76.8939 13.247C76.7916 13.3493 76.6381 13.4005 76.4336 13.4005L73.9787 13.3493C74.9334 13.8607 75.6835 14.5597 76.229 15.4462C76.604 16.0599 76.8939 16.8612 77.0984 17.8499C77.1325 18.0204 77.1496 18.3102 77.1496 18.7194C77.1496 19.9809 76.9791 21.072 76.6381 21.9926C76.2972 22.9132 75.7687 23.6633 75.0527 24.2429C74.7117 24.4475 74.2514 24.5839 73.6718 24.652C72.3421 24.652 71.3533 24.0213 70.7055 22.7597V29.1527C70.7055 31.0961 71.0464 32.6645 71.7284 33.8579C72.0693 34.5057 72.4444 35.0342 72.8535 35.4433C73.2286 35.7161 73.6548 35.8866 74.1321 35.9548L74.6947 35.7502C74.9334 35.682 75.155 35.4945 75.3596 35.1876L75.6664 34.5739L75.7176 34.3182C75.8198 34.3523 76.0074 34.4716 76.2801 34.6762C76.4165 34.8467 76.5529 35.1194 76.6893 35.4945L76.7404 35.7502L76.8427 36.0059V37.1311L76.2801 37.3868L75.7176 37.5402H75.1038C73.1604 37.5402 71.5238 36.5514 70.194 34.5739L69.1712 33.0396L68.5063 31.403L68.0972 29.7153L67.9437 27.9252V17.6965C68.0119 17.3215 68.0972 17.0657 68.1995 16.9294Z" fill="#343C46"/>
<path d="M77.5659 13.3493L77.2591 13.1959L77.1568 12.5822L77.2591 11.9173L77.5659 11.3547L77.9751 10.9967L78.5888 10.7921L83.4986 10.741C83.7713 10.741 83.9759 10.8092 84.1123 10.9456C84.2828 11.0819 84.3851 11.2524 84.4192 11.457C84.4192 11.9684 84.2657 12.3776 83.9589 12.6844L83.4986 13.247C83.3963 13.3493 83.2599 13.4005 83.0894 13.4005L80.7368 13.3493C81.521 14.1335 81.9813 15.0711 82.1177 16.1622V36.4151C82.2541 37.1993 82.1177 37.5914 81.7085 37.5914C81.4699 37.5914 81.2483 37.5061 81.0437 37.3357L80.3277 36.4662L79.6117 35.5456L79.4071 34.8296V13.3493H77.5659Z" fill="#343C46"/>
</svg>
