<svg width="100" height="100" viewBox="0 0 100 100" fill="none" xmlns="http://www.w3.org/2000/svg">
<path d="M16.713 87.1582H83.2872C84.3685 87.158 85.4312 86.8773 86.3715 86.3435C87.3119 85.8097 88.0976 85.0411 88.652 84.1128C89.2064 83.1844 89.5105 82.1281 89.5345 81.0471C89.5586 79.9661 89.3017 78.8974 88.7892 77.9453L55.504 16.1289C53.1427 11.7461 46.8575 11.7461 44.4962 16.1289L11.211 77.9453C10.6984 78.8974 10.4416 79.9661 10.4657 81.0471C10.4897 82.1281 10.7938 83.1844 11.3482 84.1128C11.9026 85.0411 12.6883 85.8097 13.6287 86.3435C14.569 86.8773 15.6317 87.158 16.713 87.1582V87.1582Z" stroke="#FF4538" stroke-width="6.25" stroke-linecap="round" stroke-linejoin="round"/>
<path d="M48.8789 38.1622L50 61.9903L51.1192 38.1719C51.1261 38.0197 51.1019 37.8676 51.048 37.725C50.9942 37.5824 50.9118 37.4523 50.8059 37.3426C50.7001 37.2329 50.573 37.146 50.4324 37.0871C50.2918 37.0282 50.1407 36.9986 49.9883 37.0001V37.0001C49.8386 37.0015 49.6906 37.033 49.5532 37.0926C49.4158 37.1521 49.2918 37.2386 49.1883 37.347C49.0849 37.4553 49.0043 37.5832 48.9511 37.7233C48.898 37.8633 48.8734 38.0125 48.8789 38.1622V38.1622Z" stroke="#FF4538" stroke-width="6.25" stroke-linecap="round" stroke-linejoin="round"/>
<path d="M50 77.5879C49.2274 77.5879 48.4722 77.3588 47.8298 76.9296C47.1874 76.5003 46.6868 75.8903 46.3911 75.1765C46.0954 74.4627 46.0181 73.6773 46.1688 72.9196C46.3195 72.1618 46.6916 71.4658 47.2379 70.9195C47.7842 70.3732 48.4802 70.0012 49.2379 69.8505C49.9957 69.6997 50.7811 69.7771 51.4949 70.0727C52.2086 70.3684 52.8187 70.8691 53.2479 71.5114C53.6772 72.1538 53.9063 72.9091 53.9063 73.6816C53.9063 74.7176 53.4947 75.7112 52.7621 76.4438C52.0296 77.1763 51.036 77.5879 50 77.5879Z" fill="#FF4538"/>
</svg>
