<svg width="75" height="85" viewBox="0 0 75 85" fill="none" xmlns="http://www.w3.org/2000/svg">
<path d="M25 0C22.3478 0 19.8043 1.05357 17.9289 2.92893C16.0536 4.8043 15 7.34784 15 10V36.035C16.6344 35.5723 18.3083 35.2627 20 35.11V10C20 8.67392 20.5268 7.40215 21.4645 6.46447C22.4021 5.52678 23.6739 5 25 5H45V22.5C45 24.4891 45.7902 26.3968 47.1967 27.8033C48.6032 29.2098 50.5109 30 52.5 30H70V70C70 71.3261 69.4732 72.5979 68.5355 73.5355C67.5979 74.4732 66.3261 75 65 75H47C46.0898 76.781 44.9883 78.4576 43.715 80H65C67.6522 80 70.1957 78.9464 72.0711 77.0711C73.9464 75.1957 75 72.6522 75 70V27.07C74.9983 25.0815 74.2069 23.1752 72.8 21.77L53.23 2.195C51.824 0.789908 49.9177 0.000424407 47.93 0H25ZM68.965 25H52.5C51.837 25 51.2011 24.7366 50.7322 24.2678C50.2634 23.7989 50 23.163 50 22.5V6.035L68.965 25ZM45 62.5C45 68.4674 42.6295 74.1903 38.4099 78.4099C34.1903 82.6295 28.4674 85 22.5 85C16.5326 85 10.8097 82.6295 6.5901 78.4099C2.37053 74.1903 0 68.4674 0 62.5C0 56.5326 2.37053 50.8097 6.5901 46.5901C10.8097 42.3705 16.5326 40 22.5 40C28.4674 40 34.1903 42.3705 38.4099 46.5901C42.6295 50.8097 45 56.5326 45 62.5ZM22.5 50C21.837 50 21.2011 50.2634 20.7322 50.7322C20.2634 51.2011 20 51.837 20 52.5V62.5C20 63.163 20.2634 63.7989 20.7322 64.2678C21.2011 64.7366 21.837 65 22.5 65C23.163 65 23.7989 64.7366 24.2678 64.2678C24.7366 63.7989 25 63.163 25 62.5V52.5C25 51.837 24.7366 51.2011 24.2678 50.7322C23.7989 50.2634 23.163 50 22.5 50ZM22.5 75.625C23.3288 75.625 24.1237 75.2958 24.7097 74.7097C25.2958 74.1237 25.625 73.3288 25.625 72.5C25.625 71.6712 25.2958 70.8763 24.7097 70.2903C24.1237 69.7042 23.3288 69.375 22.5 69.375C21.6712 69.375 20.8763 69.7042 20.2903 70.2903C19.7042 70.8763 19.375 71.6712 19.375 72.5C19.375 73.3288 19.7042 74.1237 20.2903 74.7097C20.8763 75.2958 21.6712 75.625 22.5 75.625Z" fill="#FBC02D"/>
</svg>
