<svg width="100" height="100" viewBox="0 0 100 100" fill="none" xmlns="http://www.w3.org/2000/svg">
<path d="M34.375 28.125C36.1009 28.125 37.5 26.7259 37.5 25C37.5 23.2741 36.1009 21.875 34.375 21.875C32.6491 21.875 31.25 23.2741 31.25 25C31.25 26.7259 32.6491 28.125 34.375 28.125Z" fill="#FF6A60"/>
<path d="M34.375 53.125C36.1009 53.125 37.5 51.7259 37.5 50C37.5 48.2741 36.1009 46.875 34.375 46.875C32.6491 46.875 31.25 48.2741 31.25 50C31.25 51.7259 32.6491 53.125 34.375 53.125Z" fill="#FF6A60"/>
<path d="M34.375 78.125C36.1009 78.125 37.5 76.7259 37.5 75C37.5 73.2741 36.1009 71.875 34.375 71.875C32.6491 71.875 31.25 73.2741 31.25 75C31.25 76.7259 32.6491 78.125 34.375 78.125Z" fill="#FF6A60"/>
<path d="M75 9.375H25C23.3424 9.375 21.7527 10.0335 20.5806 11.2056C19.4085 12.3777 18.75 13.9674 18.75 15.625V84.375C18.75 86.0326 19.4085 87.6223 20.5806 88.7944C21.7527 89.9665 23.3424 90.625 25 90.625H56.25V84.375H25V65.625H81.25V15.625C81.25 13.9674 80.5915 12.3777 79.4194 11.2056C78.2473 10.0335 76.6576 9.375 75 9.375ZM75 59.375H25V40.625H75V59.375ZM75 34.375H25V15.625H75V34.375Z" fill="#FF6A60"/>
<path d="M90.625 76.2969L86.2063 71.875L78.125 79.9594L70.0437 71.875L65.625 76.2969L73.7063 84.375L65.625 92.4563L70.0437 96.875L78.125 88.7937L86.2063 96.875L90.625 92.4563L82.5437 84.375L90.625 76.2969Z" fill="#FF6A60"/>
</svg>
