<svg width="32" height="32" viewBox="0 0 32 32" fill="none" xmlns="http://www.w3.org/2000/svg">
<rect width="32" height="32" rx="16" fill="#140D4F"/>
<path d="M16.9857 8.60023C16.9857 7.71252 18.0563 7.26492 18.6881 7.88845L25.7024 14.8102C25.8928 14.9981 26 15.2545 26 15.522V23.608C26 24.4957 24.9295 24.9433 24.2976 24.3198L17.2833 17.398C17.0929 17.2101 16.9857 16.9538 16.9857 16.6862V8.60023Z" fill="#6FEDB7"/>
<path d="M11.3993 8.39174C11.3993 7.50403 12.4698 7.05642 13.1017 7.67995L20.116 14.6017C20.3064 14.7896 20.4136 15.046 20.4136 15.3135V23.3995C20.4136 24.2872 19.343 24.7348 18.7112 24.1113L11.6969 17.1895C11.5065 17.0016 11.3993 16.7453 11.3993 16.4777V8.39174Z" fill="#2DD881"/>
<path d="M6 10.0114C6 8.82985 6 8.23909 6.23074 7.96129C6.43997 7.70939 6.75928 7.57588 7.08554 7.60389C7.44535 7.63478 7.86584 8.04973 8.70681 8.87961L14.5411 14.637C14.7138 14.8074 14.8002 14.8927 14.8624 14.9922C14.9199 15.0842 14.962 15.1849 14.9871 15.2905C15.0143 15.4046 15.0143 15.526 15.0143 15.7687V22.1969C15.0143 23.3784 15.0143 23.9692 14.7835 24.247C14.5743 24.4989 14.255 24.6324 13.9287 24.6044C13.5689 24.5735 13.1484 24.1585 12.3075 23.3286L6.47319 17.5713C6.30044 17.4008 6.21407 17.3156 6.15189 17.2161C6.09441 17.1241 6.05229 17.0233 6.02717 16.9178C6 16.8036 6 16.6823 6 16.4396V10.0114Z" fill="#4EA699"/>
</svg>
