<svg width="32" height="32" viewBox="0 0 32 32" fill="none" xmlns="http://www.w3.org/2000/svg">
<path d="M16 32C7.16344 32 0 24.8366 0 16C0 7.16344 7.16344 0 16 0C24.8366 0 32 7.16344 32 16C32 24.8366 24.8366 32 16 32Z" fill="#FFAA5C"/>
<path fill-rule="evenodd" clip-rule="evenodd" d="M6 14.717C6.004 14.756 6.01 14.794 6.01 14.833C6.015 16.053 6.02 17.274 6.022 18.495L6.026 21.002C6.026 21.082 6.033 21.162 6.038 21.262C6.082 21.242 6.114 21.229 6.144 21.212L10.798 18.617C10.881 18.571 10.888 18.53 10.848 18.448C10.055 16.82 10.052 15.188 10.833 13.556C10.87 13.478 10.863 13.439 10.783 13.395L6.127 10.782C6.088 10.76 6.043 10.749 6 10.733V14.717ZM15.7 5C15.622 5.047 15.545 5.097 15.465 5.142L6.416 10.227C6.382 10.246 6.35 10.267 6.303 10.295C6.345 10.322 6.373 10.342 6.404 10.359L11.022 12.938C11.143 13.005 11.142 13.004 11.222 12.89C12.246 11.455 13.65 10.635 15.434 10.427C15.4871 10.4204 15.5405 10.417 15.594 10.417C15.688 10.417 15.724 10.381 15.724 10.282C15.725 9.269 15.731 8.255 15.734 7.242L15.737 5.143C15.737 5.095 15.726 5.048 15.72 5H15.7ZM16.32 27C16.354 26.975 16.385 26.947 16.42 26.927L25.537 21.802C25.58 21.778 25.621 21.752 25.68 21.718C25.64 21.691 25.614 21.67 25.584 21.653C24.054 20.798 22.524 19.944 20.994 19.087C20.902 19.035 20.859 19.055 20.802 19.134C19.846 20.46 18.54 21.244 16.901 21.511C16.734 21.538 16.563 21.551 16.394 21.559C16.298 21.563 16.26 21.589 16.26 21.689C16.261 22.586 16.257 23.483 16.254 24.379L16.249 26.925C16.249 26.95 16.256 26.975 16.26 27H16.32ZM26 20.45C25.995 20.42 25.985 20.389 25.984 20.358L25.98 19.095L25.973 16.268L25.96 11.809L25.955 10.848C25.955 10.82 25.951 10.792 25.948 10.747C25.904 10.768 25.872 10.781 25.842 10.798C24.32 11.648 22.799 12.498 21.275 13.346C21.186 13.395 21.174 13.433 21.218 13.526C22.018 15.167 22.014 16.81 21.218 18.453C21.153 18.585 21.151 18.584 21.281 18.657C22.809 19.517 24.337 20.375 25.866 21.232C25.905 21.254 25.956 21.256 26 21.267V20.451V20.45ZM12.527 19.52C12.364 18.947 12.311 18.37 12.347 17.784C12.389 17.066 12.567 16.384 12.941 15.758C13.371 15.036 13.993 14.513 14.751 14.133C14.951 14.032 14.973 14.083 14.854 13.833C14.585 13.27 14.114 12.92 13.534 12.696C13.1301 12.5487 12.7056 12.4657 12.276 12.45C12.2154 12.4525 12.1581 12.4783 12.116 12.522C11.3954 13.2732 10.9276 14.2309 10.778 15.261C10.395 17.868 12.094 20.315 14.732 20.963C17.659 21.683 20.628 19.881 21.236 17.019C21.804 14.34 20.088 11.749 17.528 11.065C15.605 10.552 13.899 10.961 12.406 12.235L12.237 12.379L12.258 12.411C12.405 12.393 12.551 12.371 12.698 12.357C13.611 12.271 14.509 12.331 15.38 12.63C16.449 12.9839 17.3448 13.7286 17.888 14.715C17.968 14.857 17.974 14.858 18.128 14.805C18.3254 14.7357 18.5034 14.6202 18.647 14.468C18.9316 14.1729 19.1465 13.8179 19.276 13.429C19.393 13.089 19.479 12.739 19.579 12.394C19.587 12.367 19.593 12.339 19.617 12.31C19.631 12.39 19.647 12.468 19.659 12.548C19.671 12.628 19.681 12.708 19.689 12.788C19.784 13.682 19.733 14.562 19.424 15.415C19.04 16.479 18.317 17.245 17.261 17.711C17.123 17.772 17.123 17.773 17.197 17.899C17.588 18.563 18.201 18.897 18.958 19.011C19.31 19.064 19.662 19.043 20.021 19.017C19.988 19.03 19.956 19.045 19.923 19.057C18.193 19.652 16.293 19.385 14.862 17.871C14.5022 17.4857 14.1875 17.0606 13.924 16.604C13.856 16.486 13.851 16.485 13.741 16.565C13.272 16.907 12.993 17.375 12.801 17.9C12.622 18.383 12.551 18.885 12.534 19.396C12.533 19.437 12.53 19.478 12.527 19.519V19.52ZM6.259 21.732L15.722 26.981C15.727 26.926 15.734 26.892 15.734 26.859C15.734 25.129 15.734 23.399 15.736 21.669C15.736 21.592 15.713 21.564 15.63 21.557C13.79 21.405 12.331 20.599 11.26 19.134C11.167 19.005 11.168 19.004 11.03 19.081L6.387 21.656C6.351 21.676 6.315 21.699 6.259 21.732ZM16.261 5.036C16.258 5.092 16.255 5.126 16.255 5.16C16.255 6.867 16.255 8.574 16.253 10.28C16.253 10.36 16.265 10.4 16.363 10.407C18.241 10.543 19.726 11.356 20.814 12.85C20.9 12.968 20.898 12.969 21.024 12.899L25.545 10.389C25.598 10.359 25.647 10.323 25.698 10.289C25.646 10.253 25.598 10.212 25.542 10.181L16.432 5.125C16.381 5.097 16.329 5.072 16.262 5.036H16.261Z" fill="white"/>
</svg>
