<svg width="32" height="32" viewBox="0 0 32 32" fill="none" xmlns="http://www.w3.org/2000/svg">
<path d="M16 32C24.8366 32 32 24.8366 32 16C32 7.16344 24.8366 0 16 0C7.16344 0 0 7.16344 0 16C0 24.8366 7.16344 32 16 32Z" fill="#1591CA"/>
<path d="M16.5721 15.272C16.5721 15.272 17.8991 12.322 15.2971 9.47202C15.2971 9.47202 13.8171 7.57202 10.7571 7.72202L11.3681 7.48202C11.4701 7.44202 11.5771 7.41402 11.6851 7.40002L12.2871 7.32202L16.5211 6.67202C16.5211 6.67202 18.0181 6.37802 19.1531 6.70202C19.4761 6.79502 19.7701 6.97002 20.0031 7.20802C20.6291 7.84202 21.8861 9.51902 21.0631 12.172C21.0631 12.172 20.2461 15.122 17.1851 15.822C17.1851 15.822 16.4191 16.022 16.5721 15.272V15.272ZM16.3831 16.916C16.3831 16.916 18.2961 19.539 22.1251 18.8C22.1251 18.8 24.5471 18.521 25.9761 15.863L25.8741 16.502C25.8571 16.608 25.8271 16.712 25.7841 16.811L25.5461 17.358L23.9581 21.258C23.9581 21.258 23.4531 22.669 22.5901 23.461C22.3423 23.6867 22.0406 23.8447 21.7141 23.92C20.8391 24.123 18.7261 24.328 16.8161 22.282C16.8161 22.282 14.6431 20.09 15.5891 17.152C15.5891 17.15 15.8031 16.405 16.3831 16.916V16.916ZM14.9981 15.969C14.9981 15.969 11.7281 16.313 10.5031 19.944C10.5031 19.944 9.55907 22.148 11.2171 24.674L10.7001 24.274C10.6141 24.2076 10.5369 24.1307 10.4701 24.045L10.1001 23.573L7.41607 20.3C7.41607 20.3 6.40907 19.173 6.13207 18.05C6.05207 17.728 6.06007 17.39 6.15407 17.072C6.40307 16.225 7.26007 14.322 10.0171 13.7C10.0171 13.7 13.0341 12.923 15.1791 15.176C15.1811 15.176 15.7391 15.726 14.9991 15.969H14.9981Z" fill="white"/>
<path opacity="0.5" d="M17.106 16.1588C17.106 16.1588 20.366 15.7348 21.496 12.0738C21.496 12.0738 22.383 9.84679 20.659 7.36279L21.187 7.74979C21.274 7.81479 21.354 7.88979 21.423 7.97279L21.804 8.43479L24.574 11.6408C24.574 11.6408 25.608 12.7408 25.916 13.8588C26.003 14.1788 26.003 14.5148 25.916 14.8348C25.689 15.6878 24.882 17.6128 22.141 18.3028C22.141 18.3028 19.145 19.1528 16.943 16.9568C16.945 16.9568 16.373 16.4208 17.106 16.1588ZM15.468 16.7628C15.468 16.7628 14.067 19.6788 16.595 22.5918C16.595 22.5918 18.024 24.5268 21.09 24.4518L20.472 24.6768C20.369 24.714 20.2619 24.7385 20.153 24.7498L19.55 24.8138L15.3 25.3598C15.3 25.3598 13.797 25.6168 12.67 25.2648C12.3504 25.1639 12.0621 24.9824 11.833 24.7378C11.223 24.0878 10.01 22.3818 10.901 19.7508C10.901 19.7508 11.791 16.8208 14.87 16.1968C14.87 16.1998 15.643 16.0168 15.468 16.7628V16.7628ZM15.577 15.2258C15.577 15.2258 13.625 12.6298 9.808 13.4258C9.808 13.4258 7.39 13.7378 6 16.4158L6.092 15.7748C6.10772 15.6683 6.13661 15.5642 6.178 15.4648L6.408 14.9148L7.938 10.9908C7.938 10.9908 8.423 9.57279 9.274 8.76879C9.51947 8.54004 9.81982 8.3785 10.146 8.29979C11.018 8.08279 13.128 7.84979 15.066 9.86879C15.066 9.86879 17.271 12.0298 16.368 14.9808C16.368 14.9788 16.164 15.7288 15.577 15.2258V15.2258Z" fill="white"/>
</svg>
