<svg width="12" height="12" viewBox="0 0 12 12" fill="none" xmlns="http://www.w3.org/2000/svg">
<path fill-rule="evenodd" clip-rule="evenodd" d="M6.60004 0.6C6.60004 0.268629 6.33141 0 6.00004 0C5.66867 0 5.40004 0.268629 5.40004 0.6V5.40004H0.6C0.268629 5.40004 0 5.66867 0 6.00004C0 6.33141 0.268629 6.60004 0.6 6.60004H5.40004V11.4C5.40004 11.7314 5.66867 12 6.00004 12C6.33141 12 6.60004 11.7314 6.60004 11.4V6.60004H11.4C11.7314 6.60004 12 6.33141 12 6.00004C12 5.66867 11.7314 5.40004 11.4 5.40004H6.60004V0.6Z" fill="#1DB954"/>
</svg>
