<svg width="77" height="93" viewBox="0 0 77 93" fill="none" xmlns="http://www.w3.org/2000/svg">
<g opacity="0.3">
<path opacity="0.3" d="M53.7127 18.9361C51.6099 18.9351 49.5935 18.0993 48.1066 16.6124C46.6197 15.1255 45.7839 13.1091 45.7829 11.0063V0H10.3488C8.98945 -9.38577e-08 7.64344 0.267789 6.38763 0.788102C5.13181 1.30841 3.99072 2.07104 3.0297 3.03242C2.06868 3.99379 1.30654 5.13509 0.786694 6.3911C0.266848 7.64711 -0.000504428 8.99326 7.14484e-07 10.3526V72.7334C-0.000504428 74.0927 0.266848 75.4388 0.786694 76.6948C1.30654 77.9509 2.06868 79.0921 3.0297 80.0535C3.99072 81.0149 5.13181 81.7775 6.38763 82.2978C7.64344 82.8182 8.98945 83.086 10.3488 83.086H52.882C54.2413 83.086 55.5873 82.8182 56.8432 82.2978C58.099 81.7775 59.24 81.0149 60.201 80.0535C61.162 79.0921 61.9242 77.9509 62.4441 76.6948C62.9639 75.4388 63.2313 74.0927 63.2308 72.7334V18.94L53.7127 18.9361Z" fill="#00C650"/>
</g>
<path d="M63.2308 18.9361H53.7127C51.6099 18.9351 49.5935 18.0993 48.1066 16.6124C46.6197 15.1255 45.7839 13.1091 45.7829 11.0063V0L63.2308 18.9361Z" fill="#00C650"/>
<path d="M70.7376 65.6073H22.6512C19.2402 65.6073 16.475 68.3725 16.475 71.7835V86.1202C16.475 89.5312 19.2402 92.2963 22.6512 92.2963H70.7376C74.1486 92.2963 76.9137 89.5312 76.9137 86.1202V71.7835C76.9137 68.3725 74.1486 65.6073 70.7376 65.6073Z" fill="#00C650"/>
<path d="M32.3883 82.0554V84.8551H29.4926V82.0554H32.3883Z" fill="white"/>
<path d="M40.9835 73.291V81.19C40.9835 82.4027 40.654 83.3347 39.9951 83.9859C39.6273 84.325 39.195 84.5866 38.7239 84.7551C38.2529 84.9236 37.7526 84.9955 37.2532 84.9665C36.7061 84.9958 36.1587 84.9165 35.6425 84.733C35.1263 84.5495 34.6516 84.2655 34.2458 83.8974C33.5049 83.1821 33.1332 82.1566 33.1306 80.8209H35.8956C35.8956 81.9015 36.3071 82.4399 37.1224 82.4399C37.8338 82.4399 38.1876 82.0246 38.1876 81.1977V73.2987L40.9835 73.291Z" fill="white"/>
<path d="M45.6214 80.7978V84.855H42.8256V73.291H47.3558C48.7274 73.291 49.7734 73.6307 50.4939 74.3101C50.8585 74.6674 51.1432 75.0978 51.3295 75.573C51.5157 76.0483 51.5993 76.5576 51.5745 77.0675C51.585 77.7394 51.4193 78.4024 51.0938 78.9903C50.7589 79.5636 50.2609 80.0241 49.6632 80.3132C48.9432 80.655 48.1525 80.821 47.3558 80.7978H45.6214ZM48.7287 77.0675C48.7287 76.042 48.1672 75.5292 47.0443 75.5292H45.6214V78.5404H47.0443C48.1672 78.5506 48.7287 78.0597 48.7287 77.0675Z" fill="white"/>
<path d="M61.9463 74.2218C62.8774 74.922 63.5039 75.9532 63.6961 77.1022H60.735C60.5345 76.6998 60.2185 76.3664 59.8273 76.1447C59.3869 75.883 58.882 75.7498 58.3698 75.7601C57.9722 75.7439 57.5758 75.8154 57.209 75.9696C56.8421 76.1238 56.5137 76.3569 56.247 76.6523C55.683 77.325 55.3957 78.1869 55.4433 79.0635C55.4433 80.1634 55.724 81.0082 56.2855 81.5979C56.6012 81.904 56.9774 82.1408 57.39 82.2932C57.8026 82.4455 58.2424 82.5099 58.6813 82.4823C59.3088 82.4937 59.923 82.3007 60.4311 81.9324C60.95 81.545 61.3249 80.9955 61.4964 80.3711H57.9621V78.3598H63.8345V81.1248C63.6102 81.8132 63.255 82.4517 62.7885 83.0053C62.2833 83.602 61.6548 84.0822 60.9464 84.4129C60.1455 84.7829 59.2712 84.967 58.3891 84.9513C57.316 84.9794 56.2547 84.7234 55.3125 84.209C54.4506 83.7243 53.7489 82.9986 53.2935 82.1209C52.8042 81.1705 52.5596 80.113 52.582 79.0443C52.5628 77.9821 52.8073 76.9316 53.2935 75.987C53.7481 75.1112 54.4467 74.386 55.3048 73.8988C56.2332 73.3885 57.2799 73.1324 58.339 73.1566C59.6265 73.1004 60.8959 73.4753 61.9463 74.2218Z" fill="white"/>
<path d="M40.1105 56.3047H23.1242C21.4613 56.3026 19.867 55.6411 18.6912 54.4653C17.5154 53.2894 16.8539 51.6952 16.8518 50.0323V33.046C16.8539 31.3831 17.5154 29.7889 18.6912 28.613C19.867 27.4372 21.4613 26.7757 23.1242 26.7737H40.1105C41.773 26.7757 43.3668 27.4373 44.5421 28.6133C45.7173 29.7892 46.378 31.3834 46.379 33.046V50.0323C46.378 51.6949 45.7173 53.2891 44.5421 54.4651C43.3668 55.641 41.773 56.3026 40.1105 56.3047ZM23.1242 29.5464C22.1963 29.5474 21.3067 29.9165 20.6507 30.5725C19.9946 31.2286 19.6256 32.1182 19.6245 33.046V50.0323C19.6256 50.9602 19.9946 51.8497 20.6507 52.5058C21.3067 53.1619 22.1963 53.5309 23.1242 53.5319H40.1105C41.038 53.5309 41.9271 53.1617 42.5826 52.5056C43.2381 51.8494 43.6063 50.9598 43.6063 50.0323V33.046C43.6063 32.1185 43.2381 31.229 42.5826 30.5728C41.9271 29.9166 41.038 29.5474 40.1105 29.5464H23.1242Z" fill="#00C650"/>
<path d="M44.9945 46.8019V50.0322C44.9935 51.3272 44.4786 52.5689 43.5629 53.4846C42.6472 54.4003 41.4055 54.9153 40.1105 54.9163H23.1241C21.8288 54.9163 20.5866 54.4017 19.6706 53.4857C18.7547 52.5698 18.2401 51.3276 18.2401 50.0322V44.6098C20.959 44.0253 25.1008 43.8407 30.1271 45.8481L33.2422 42.8793L35.3649 48.2632C35.3649 48.2632 35.934 46.2827 37.7723 46.5634C39.6105 46.8442 42.5871 47.8402 43.86 46.9903C44.203 46.7924 44.606 46.7255 44.9945 46.8019Z" fill="#00C650"/>
<path d="M39.0453 36.5148C40.0881 36.5148 40.9336 35.6694 40.9336 34.6266C40.9336 33.5837 40.0881 32.7383 39.0453 32.7383C38.0024 32.7383 37.1571 33.5837 37.1571 34.6266C37.1571 35.6694 38.0024 36.5148 39.0453 36.5148Z" fill="#00C650"/>
</svg>
