<svg width="120" height="62" viewBox="0 0 120 62" fill="none" xmlns="http://www.w3.org/2000/svg">
<path d="M23.5117 16.1386C23.7204 16.1394 23.9226 16.0662 24.0826 15.9321C24.2424 15.7981 24.3497 15.6119 24.3854 15.4063C25.2312 10.6858 27.5121 6.34342 30.9137 2.9693C34.3087 6.34549 36.5833 10.6873 37.4245 15.4053C37.4437 15.5201 37.4852 15.63 37.5467 15.7289C37.6085 15.8283 37.6893 15.9146 37.7844 15.9828C37.8796 16.051 37.9872 16.0997 38.1012 16.1263C38.2152 16.1529 38.3334 16.1568 38.4489 16.1378C38.5644 16.1187 38.675 16.0771 38.7744 16.0153C38.8739 15.9535 38.9601 15.8727 39.0283 15.7775L38.7967 15.6115L39.0284 15.7775C39.0966 15.6823 39.1453 15.5747 39.1719 15.4607C39.1985 15.3467 39.2024 15.2285 39.1834 15.113L39.1831 15.1115C38.2617 9.70615 35.5493 4.76764 31.4821 1.08998L31.4765 1.08486L31.4705 1.08004C31.3132 0.952367 31.1167 0.882686 30.914 0.882686C30.7113 0.882686 30.5148 0.952366 30.3575 1.08004L30.3515 1.08486L30.3458 1.08999C26.2775 4.76922 23.565 9.71005 22.6449 15.1176L22.6447 15.1187C22.6064 15.3494 22.6611 15.5859 22.7969 15.7764L23.0276 15.6119L22.7969 15.7764C22.9327 15.9668 23.1385 16.0957 23.3691 16.1346L23.3926 16.1386H23.4165H23.5117ZM23.5117 16.1386C23.5114 16.1386 23.5112 16.1386 23.511 16.1386L23.5123 15.8535V16.1386H23.5117Z" fill="#3D8F5F" stroke="#3D8F5F" stroke-width="0.570076"/>
<path d="M30.3459 61.0737L30.3457 61.0739L30.3552 61.0818C30.5112 61.2111 30.707 61.2828 30.9097 61.2849C31.1215 61.2891 31.3278 61.2169 31.4909 61.0817L31.491 61.0819L31.5001 61.0737C35.5673 57.3961 38.2796 52.4575 39.2011 47.0522L39.2013 47.0507C39.2398 46.8174 39.184 46.5784 39.0463 46.3862C38.9086 46.194 38.7001 46.0644 38.4668 46.0259C38.2336 45.9874 37.9945 46.0432 37.8024 46.1809C37.6108 46.3183 37.4814 46.5259 37.4425 46.7583C36.5964 51.4786 34.3155 55.8207 30.914 59.1946C27.5123 55.8206 25.2314 51.4783 24.3855 46.7578C24.3462 46.5278 24.2175 46.3226 24.0275 46.1871C23.8371 46.0513 23.6005 45.9966 23.3698 46.035L23.3698 46.035L23.3691 46.0351C23.1385 46.074 22.9327 46.2028 22.7969 46.3933C22.6611 46.5837 22.6064 46.8203 22.6447 47.051L22.6447 47.051L22.6449 47.0522C23.5663 52.4575 26.2787 57.3961 30.3459 61.0737Z" fill="#3D8F5F" stroke="#3D8F5F" stroke-width="0.570076"/>
<path d="M46.7648 39.3658L46.7648 39.366L46.776 39.3646L46.8718 39.3526L46.8718 39.3529L46.8843 39.3508C52.2897 38.4293 57.2282 35.717 60.9059 31.6498L60.911 31.6441L60.9158 31.6382C61.0435 31.4808 61.1132 31.2843 61.1132 31.0817C61.1132 30.879 61.0435 30.6825 60.9158 30.5251L60.911 30.5192L60.9059 30.5135C57.2282 26.4463 52.2897 23.734 46.8843 22.8126L46.8843 22.8126L46.8831 22.8124C46.6524 22.774 46.4159 22.8287 46.2254 22.9645C46.035 23.1003 45.9062 23.3061 45.8672 23.5368L45.8672 23.5368L45.8671 23.5375C45.8288 23.7682 45.8835 24.0047 46.0193 24.1952C46.1548 24.3852 46.3599 24.5139 46.59 24.5531C51.3104 25.3991 55.6527 27.68 59.0267 31.0816C55.6544 34.4785 51.3161 36.7565 46.6004 37.6024C46.3719 37.6255 46.1612 37.7366 46.0128 37.9125C45.8614 38.092 45.7875 38.3244 45.8074 38.5584C45.8273 38.7924 45.9394 39.0089 46.1189 39.1604C46.2985 39.3118 46.5308 39.3857 46.7648 39.3658Z" fill="#3D8F5F" stroke="#3D8F5F" stroke-width="0.570076"/>
<path d="M14.9437 39.3627L14.9675 39.3668H14.9917H15.005L15.0633 39.3717C15.1792 39.3816 15.2959 39.3685 15.4067 39.3333C15.5175 39.298 15.6203 39.2413 15.7092 39.1663C15.7981 39.0914 15.8714 38.9996 15.9248 38.8963C15.9783 38.793 16.0108 38.6802 16.0207 38.5644C16.0305 38.4485 16.0175 38.3318 15.9822 38.221L15.7106 38.3074L15.9822 38.221C15.947 38.1102 15.8902 38.0074 15.8153 37.9185C15.7403 37.8296 15.6486 37.7563 15.5453 37.7029L15.4143 37.956L15.5453 37.7029C15.4463 37.6516 15.3386 37.6196 15.2278 37.6083C10.5114 36.7609 6.1731 34.4809 2.80157 31.0819C6.17776 27.6869 10.5195 25.4123 15.2376 24.5712C15.47 24.5323 15.6777 24.4029 15.815 24.2112C15.9528 24.0191 16.0085 23.7801 15.97 23.5468C15.9315 23.3135 15.802 23.105 15.6098 22.9673L15.4441 23.1985L15.6098 22.9673C15.4176 22.8296 15.1786 22.7738 14.9453 22.8123L14.9438 22.8126C9.53843 23.734 4.59991 26.4463 0.922254 30.5135L0.917131 30.5192L0.912318 30.5251C0.784642 30.6825 0.714962 30.879 0.714962 31.0817C0.714962 31.2843 0.784642 31.4808 0.912317 31.6382L0.91706 31.644L0.922104 31.6496C4.56594 35.6858 9.4507 38.3906 14.8024 39.3381V39.3496L14.9305 39.3604C14.9349 39.3612 14.9393 39.3619 14.9437 39.3627Z" fill="#3D8F5F" stroke="#3D8F5F" stroke-width="0.570076"/>
<path d="M44.078 13.6432H44.0899L44.1017 13.6422C44.3048 13.6253 44.4958 13.5386 44.6423 13.3969C44.7888 13.2553 44.8818 13.0675 44.9056 12.8652C45.1668 10.6619 44.6842 8.40897 44.1324 6.69557C43.5795 4.97839 42.9491 3.77892 42.8937 3.67461L42.8937 3.67461L42.8929 3.6732C42.7956 3.49237 42.6382 3.35111 42.448 3.27372C42.2578 3.19636 42.0466 3.18766 41.8507 3.24911C36.6553 4.87608 34.9795 6.99209 34.8785 7.12068L34.8784 7.12063L34.8744 7.12598C34.7323 7.31584 34.6714 7.55437 34.7052 7.78911C34.739 8.02384 34.8646 8.23554 35.0545 8.37764C35.2443 8.51975 35.4829 8.58061 35.7176 8.54684C35.9523 8.51307 36.164 8.38744 36.3061 8.19758L36.3108 8.19136L36.3151 8.18489C36.3132 8.18775 36.3159 8.18478 36.3234 8.17637C36.4438 8.04163 37.8118 6.51104 41.6763 5.17244C42.2936 6.54789 43.525 9.76972 43.1967 12.654C43.1822 12.7695 43.1908 12.8867 43.2218 12.9989C43.253 13.1118 43.3063 13.2173 43.3786 13.3094C43.4509 13.4014 43.5408 13.4782 43.6431 13.5352C43.7454 13.5922 43.858 13.6283 43.9743 13.6414L43.9902 13.6432H44.0062H44.078Z" fill="#3D8F5F" stroke="#3D8F5F" stroke-width="0.570076"/>
<path d="M17.7521 13.6432L17.7521 13.6435L17.7643 13.6429L17.884 13.6369L17.893 13.6364L17.902 13.6354C18.0175 13.6222 18.1293 13.5864 18.2309 13.53C18.3325 13.4735 18.422 13.3976 18.4943 13.3065L18.2727 13.1308L18.4943 13.3065C18.5665 13.2154 18.62 13.1109 18.6518 12.9991C18.6835 12.8873 18.6929 12.7703 18.6794 12.6548L18.6793 12.6539C18.3284 9.74294 19.5577 6.53086 20.1745 5.17202C22.1767 5.86536 23.5165 6.61164 24.3575 7.18985C24.7949 7.49053 25.0974 7.74579 25.2882 7.92462C25.3837 8.01415 25.4506 8.08396 25.4921 8.13015C25.4978 8.13656 25.503 8.14241 25.5076 8.14771L25.548 8.2003C25.6187 8.29246 25.7069 8.3698 25.8075 8.42788C25.9081 8.48597 26.0191 8.52368 26.1343 8.53884C26.2495 8.55401 26.3665 8.54634 26.4787 8.51627C26.5909 8.48621 26.6961 8.43433 26.7883 8.36362C26.8805 8.2929 26.9578 8.20472 27.0159 8.10411C27.074 8.00351 27.1117 7.89244 27.1268 7.77727C27.142 7.66208 27.1343 7.54505 27.1043 7.43284C27.0742 7.32063 27.0223 7.21543 26.9516 7.12326L26.9372 7.10452L26.9241 7.09222C26.9242 7.09213 26.9189 7.08643 26.9026 7.0682C26.8841 7.0476 26.8582 7.01861 26.8248 6.98263C26.7579 6.91053 26.6623 6.81148 26.5342 6.69054C26.2779 6.44869 25.8931 6.12098 25.3485 5.7463C24.2592 4.99685 22.5337 4.0618 19.9234 3.24906C19.7275 3.18767 19.5164 3.19638 19.3263 3.27372C19.136 3.35111 18.9787 3.49237 18.8813 3.6732L18.8813 3.6732L18.8806 3.67461C18.8252 3.77892 18.1948 4.97839 17.6418 6.69557C17.0901 8.40897 16.6075 10.6619 16.8687 12.8652L16.8687 12.8658C16.8948 13.0813 16.9992 13.2796 17.1622 13.423C17.3251 13.5664 17.5351 13.6448 17.7521 13.6432Z" fill="#3D8F5F" stroke="#3D8F5F" stroke-width="0.570076"/>
<path d="M44.6286 49.3316C44.6095 49.1729 44.5282 49.0283 44.4025 48.9296C44.2768 48.8308 44.1171 48.786 43.9584 48.8051C43.7997 48.8241 43.6551 48.9054 43.5563 49.0311C43.4576 49.1568 43.4128 49.3165 43.4318 49.4752L44.6286 49.3316ZM44.6286 49.3316C45.1372 53.6219 42.7497 58.1634 42.648 58.3549L44.6286 49.3316ZM41.8949 58.9445L41.8735 58.9377C39.2782 58.1129 37.5604 57.1717 36.4751 56.4194C35.9325 56.0432 35.5488 55.7149 35.2932 55.4727C35.1653 55.3517 35.0699 55.2526 35.0032 55.1805C34.9698 55.1445 34.9439 55.1156 34.9255 55.095C34.9092 55.0768 34.904 55.0711 34.904 55.071L34.8909 55.0587L34.8765 55.04C34.8058 54.9478 34.7539 54.8426 34.7239 54.7304L34.9992 54.6566L34.7239 54.7304C34.6938 54.6182 34.6861 54.5012 34.7013 54.386C34.7165 54.2708 34.7542 54.1597 34.8122 54.0591C34.8703 53.9585 34.9477 53.8704 35.0398 53.7996L41.8949 58.9445ZM41.8949 58.9445L41.9171 58.9479M41.8949 58.9445L41.9171 58.9479M41.9171 58.9479C41.9992 58.9603 42.0825 58.9611 42.1648 58.9503C42.313 58.9433 42.4572 58.899 42.5839 58.8215C42.7157 58.7409 42.824 58.6272 42.8981 58.4916L42.8981 58.4916L42.8997 58.4886C42.9551 58.3843 43.5855 57.1849 44.1385 55.4677C44.6902 53.7543 45.1728 51.5013 44.9116 49.2981L44.9116 49.2977C44.8835 49.0639 44.7638 48.8509 44.5786 48.7054C44.3935 48.56 44.1582 48.494 43.9244 48.5221C43.6907 48.5501 43.4776 48.6699 43.3322 48.855C43.1867 49.0401 43.1208 49.2754 43.1488 49.5092L43.1488 49.5093M41.9171 58.9479L43.1488 49.5093M43.1488 49.5093C43.5003 52.4251 42.2925 55.6431 41.6576 56.9926C39.6531 56.299 38.312 55.5534 37.4705 54.9756C37.0331 54.6752 36.7307 54.4202 36.5401 54.2413C36.4446 54.1517 36.378 54.0819 36.3368 54.0356C36.3346 54.0331 36.3325 54.0308 36.3304 54.0284L43.1488 49.5093Z" fill="#3D8F5F" stroke="#3D8F5F" stroke-width="0.570076"/>
<path d="M18.9105 58.4886L18.9105 58.4886L18.9122 58.4917C18.9884 58.6311 19.1009 58.7474 19.2377 58.8282C19.3722 58.9077 19.5253 58.9501 19.6813 58.9511C19.78 58.9556 19.8788 58.9435 19.9735 58.9153L19.9735 58.9154L19.9774 58.9141C25.1728 57.2872 26.8486 55.1712 26.9496 55.0426L26.9497 55.0426L26.9532 55.0379C27.0955 54.849 27.1569 54.6113 27.1239 54.3771C27.0909 54.1429 26.9662 53.9314 26.7773 53.7891C26.5884 53.6468 26.3507 53.5854 26.1165 53.6184C25.8823 53.6514 25.6707 53.7761 25.5285 53.965L25.5235 53.9715L25.519 53.9784C25.5209 53.9755 25.5182 53.9785 25.5107 53.9869C25.3903 54.1216 24.0223 55.6522 20.1576 56.9908C19.5402 55.6184 18.3104 52.4266 18.6614 49.5093L18.6614 49.5092C18.6753 49.3935 18.6662 49.2761 18.6348 49.1639C18.6033 49.0516 18.55 48.9467 18.478 48.855C18.406 48.7633 18.3166 48.6868 18.215 48.6296C18.1134 48.5725 18.0015 48.536 17.8858 48.5221C17.77 48.5082 17.6527 48.5172 17.5404 48.5487C17.4282 48.5801 17.3232 48.6334 17.2316 48.7054C17.1399 48.7774 17.0633 48.8668 17.0062 48.9684C16.9491 49.0701 16.9125 49.1819 16.8986 49.2977L16.8986 49.2977L16.8986 49.2981C16.6374 51.5013 17.12 53.7543 17.6717 55.4677C18.2247 57.1849 18.8551 58.3843 18.9105 58.4886Z" fill="#3D8F5F" stroke="#3D8F5F" stroke-width="0.570076"/>
<path d="M49.3077 43.6472C49.149 43.6282 48.9892 43.673 48.8636 43.7717L48.6875 43.5476C48.5023 43.6931 48.3826 43.9061 48.3545 44.1398C48.3265 44.3736 48.3924 44.6089 48.5379 44.794C48.6833 44.9792 48.8964 45.0989 49.1301 45.127L49.1301 45.1271L49.1382 45.1278C49.5616 45.1665 49.987 45.1809 50.4121 45.1709C52.3969 45.1703 54.3307 44.6695 55.7837 44.1593C57.1881 43.666 58.1688 43.1546 58.3308 43.056C58.5077 42.9583 58.6458 42.8029 58.722 42.6156C58.7993 42.4254 58.808 42.2142 58.7466 42.0183C58.7466 42.0182 58.7466 42.0182 58.7465 42.0181L58.4746 42.1035M49.3077 43.6472L53.799 36.4939L53.8121 36.5049C53.8235 36.5146 53.8409 36.5297 53.8639 36.5506C53.91 36.5925 53.9789 36.6583 54.0671 36.7514C54.2433 36.9374 54.4965 37.2329 54.7961 37.6646C55.3726 38.4953 56.1218 39.8323 56.8236 41.8678M49.3077 43.6472C52.491 44.0302 55.9615 42.5881 57.1761 42.0197M49.3077 43.6472L56.8236 41.8678M58.4746 42.1035C56.8684 36.9743 54.7914 35.3428 54.6995 35.2706L54.6989 35.2702C54.5664 35.1742 54.4012 35.1347 54.2396 35.1606C54.078 35.1864 53.9333 35.2753 53.8373 35.4078C53.7413 35.5403 53.7018 35.7056 53.7277 35.8671C53.7535 36.0287 53.8424 36.1734 53.9749 36.2695M58.4746 42.1035C58.5163 42.2362 58.5104 42.3793 58.458 42.5082C58.4055 42.637 58.3099 42.7436 58.1874 42.8095L58.4746 42.1035ZM53.9749 36.2695L53.7734 36.471C53.7798 36.4774 53.7852 36.4822 53.7861 36.483L53.7905 36.4868L53.7944 36.4901L53.7989 36.4939C53.8018 36.496 53.8047 36.4982 53.8077 36.5003L53.9749 36.2695ZM53.9749 36.2695C53.9752 36.2698 53.9766 36.2709 53.9789 36.2728C54.0722 36.3501 55.7465 37.7367 57.1761 42.0197M57.1761 42.0197L57.0553 41.7615C56.9853 41.7943 56.9079 41.8299 56.8236 41.8678M57.1761 42.0197L56.9058 42.11C56.8785 42.0282 56.8511 41.9475 56.8236 41.8678" fill="#3D8F5F" stroke="#3D8F5F" stroke-width="0.570076"/>
<path d="M53.8583 25.6438C53.8614 25.6411 53.8647 25.6382 53.8682 25.6351C53.9144 25.5939 53.9843 25.5272 54.0739 25.4318C54.2528 25.2412 54.5078 24.9388 54.8081 24.5014C55.3856 23.6604 56.1305 22.3206 56.8238 20.3183C55.465 19.7014 52.2529 18.4722 49.3419 18.823L49.341 18.8232L49.341 18.8232C49.2255 18.8367 49.1085 18.8273 48.9967 18.7955L49.073 18.5271L48.9967 18.7955C48.8849 18.7638 48.7804 18.7102 48.6893 18.638C48.5982 18.5658 48.5223 18.4763 48.4658 18.3747C48.4095 18.2732 48.3737 18.1617 48.3605 18.0464C48.3332 17.8148 48.3987 17.5817 48.5425 17.3982C48.6866 17.2144 48.8974 17.0952 49.1291 17.0664L49.1306 17.0663L49.1306 17.0663C51.3339 16.8051 53.5868 17.2877 55.3002 17.8394C57.0174 18.3924 58.2169 19.0228 58.3212 19.0782L58.3226 19.0789C58.5034 19.1763 58.6447 19.3336 58.7221 19.5239C58.7995 19.7141 58.8082 19.9254 58.7466 20.1213M53.8583 25.6438L58.7466 20.1213M53.8583 25.6438L53.7962 25.6912C53.6101 25.8331 53.4879 26.043 53.4565 26.2748C53.4251 26.5061 53.4865 26.7404 53.6273 26.9266C53.7096 27.0363 53.8163 27.1253 53.939 27.1867C54.0595 27.2469 54.1922 27.2788 54.3268 27.2799C54.5155 27.2879 54.7019 27.2352 54.8586 27.1294L54.8853 27.1113L54.9036 27.0918M53.8583 25.6438L54.9036 27.0918M58.7466 20.1213C57.9338 22.7168 56.9987 24.4348 56.2492 25.5203C55.8746 26.063 55.5469 26.4468 55.3051 26.7025C55.1842 26.8304 55.0851 26.9258 55.0131 26.9926C54.9771 27.0259 54.9481 27.0519 54.9276 27.0703C54.9094 27.0866 54.9037 27.0919 54.9036 27.0918M58.7466 20.1213L54.9036 27.0918" fill="#3D8F5F" stroke="#3D8F5F" stroke-width="0.570076"/>
<path d="M11.4194 45.1709V45.1708C7.51864 45.1708 3.79501 43.2349 3.51983 43.0918C3.5157 43.0897 3.51235 43.0879 3.50978 43.0866L3.50558 43.0844L3.5056 43.0844C3.32477 42.987 3.18351 42.8297 3.10612 42.6394L3.37015 42.532L3.10612 42.6394C3.02876 42.4493 3.02006 42.2381 3.08151 42.0422C3.89434 39.4466 4.82949 37.7285 5.57897 36.643C5.95364 36.1003 6.28132 35.7165 6.52313 35.4608C6.64404 35.3329 6.74306 35.2375 6.81512 35.1707C6.85109 35.1374 6.88006 35.1114 6.90064 35.093C6.91884 35.0767 6.92455 35.0714 6.92463 35.0715C6.92463 35.0715 6.92463 35.0715 6.92463 35.0715L6.93692 35.0584L6.95566 35.044C7.04783 34.9733 7.15302 34.9214 7.26523 34.8913L7.339 35.1667L7.26524 34.8913C7.37745 34.8613 7.49448 34.8536 7.60966 34.8688C7.72484 34.8839 7.8359 34.9216 7.93651 34.9797C8.03712 35.0378 8.1253 35.1152 8.19601 35.2073L11.4194 45.1709ZM11.4194 45.1709L11.4235 45.1708L11.4194 45.1709ZM12.4863 43.3163L12.4864 43.3163C12.7202 43.2883 12.9555 43.3542 13.1406 43.4997C13.3258 43.6451 13.4455 43.8582 13.4736 44.0919C13.5016 44.3257 13.4357 44.561 13.2902 44.7461C13.1451 44.9309 12.9326 45.0505 12.6994 45.0789C12.6989 45.0789 12.6985 45.079 12.698 45.079L12.664 44.796L12.4863 43.3163ZM12.4863 43.3163C9.56939 43.6679 6.34999 42.4591 5.00145 41.8244C5.67899 39.8231 6.4244 38.4827 7.00615 37.6409C7.30844 37.2035 7.56656 36.9007 7.74809 36.7097C7.83898 36.6141 7.91001 36.5472 7.95709 36.5058C7.9575 36.5055 7.95791 36.5051 7.95831 36.5047L12.4863 43.3163Z" fill="#3D8F5F" stroke="#3D8F5F" stroke-width="0.570076"/>
<path d="M6.95315 27.0934L6.9532 27.0933C6.82461 26.9923 4.70865 25.3165 3.08169 20.1213L6.95315 27.0934ZM6.95315 27.0934L6.95826 27.0972M6.95315 27.0934L6.95826 27.0972M6.95826 27.0972C7.11329 27.2135 7.30226 27.2756 7.49604 27.2739M6.95826 27.0972L3.36733 19.63M3.36733 19.63L3.10624 19.5238C3.18363 19.3336 3.32489 19.1762 3.50572 19.0789L3.50713 19.0781L3.50713 19.0781C3.61118 19.0228 4.81068 18.3909 6.52798 17.8371C8.24145 17.2846 10.4946 16.802 12.6981 17.0663L12.6981 17.0663C12.9319 17.0943 13.1449 17.2141 13.2903 17.3992C13.4358 17.5843 13.5018 17.8196 13.4737 18.0534C13.4457 18.2871 13.3259 18.5002 13.1408 18.6456C12.9556 18.7911 12.7203 18.857 12.4866 18.829L12.4856 18.8289C9.60228 18.4726 6.38069 19.7021 5.00496 20.3194C6.34354 24.1839 7.87412 25.5519 8.00888 25.6723C8.0173 25.6799 8.02027 25.6825 8.01741 25.6806L8.02588 25.6863L8.03393 25.6925C8.21864 25.8357 8.33909 26.0462 8.36889 26.278C8.39869 26.5098 8.33543 26.744 8.19294 26.9293L8.19287 26.9294C8.11057 27.0363 8.00489 27.1229 7.88391 27.1826L7.75774 26.927L7.88391 27.1826C7.76325 27.2422 7.63059 27.2734 7.49604 27.2739M3.36733 19.63L3.10624 19.5238M3.36733 19.63L3.10624 19.5238M7.49604 27.2739C7.49569 27.2739 7.49533 27.2739 7.49498 27.2739L7.4943 26.9889L7.49713 27.2739C7.49677 27.2739 7.4964 27.2739 7.49604 27.2739ZM3.10624 19.5238C3.02888 19.714 3.02018 19.9252 3.08163 20.1211L3.10624 19.5238Z" fill="#3D8F5F" stroke="#3D8F5F" stroke-width="0.570076"/>
<path d="M30.914 38.4095H30.9143C32.8572 38.4079 34.72 37.6353 36.0938 36.2615C37.4676 34.8877 38.2401 33.0249 38.2418 31.082V31.0818C38.2418 29.6325 37.812 28.2157 37.0068 27.0107C36.2017 25.8057 35.0572 24.8664 33.7183 24.3118C32.3793 23.7572 30.9059 23.6121 29.4845 23.8948C28.063 24.1776 26.7574 24.8755 25.7325 25.9003C24.7077 26.9251 24.0098 28.2308 23.7271 29.6522C23.4444 31.0736 23.5895 32.547 24.1441 33.886C24.6987 35.2249 25.6379 36.3694 26.843 37.1746C28.048 37.9798 29.4648 38.4095 30.914 38.4095ZM27.8246 26.458C28.739 25.847 29.8141 25.5209 30.9139 25.5208C32.3883 25.5224 33.8019 26.1088 34.8445 27.1513C35.8871 28.1939 36.4735 29.6076 36.475 31.0821C36.4749 32.1818 36.1488 33.2569 35.5378 34.1713C34.9268 35.0858 34.0583 35.7985 33.0421 36.2194C32.026 36.6403 30.9079 36.7504 29.8292 36.5359C28.7504 36.3213 27.7596 35.7917 26.9819 35.014C26.2042 34.2362 25.6745 33.2454 25.46 32.1667C25.2454 31.0879 25.3555 29.9698 25.7764 28.9537C26.1973 27.9376 26.9101 27.0691 27.8246 26.458Z" fill="#3D8F5F" stroke="#3D8F5F" stroke-width="0.570076"/>
<path d="M24.2506 31.0305C15.8348 28.8895 10.6431 21.347 11.3207 12.3089C11.3352 12.0977 11.4251 11.8986 11.574 11.7481C11.7232 11.5973 11.9216 11.5052 12.133 11.4886M24.2506 31.0305L26.1751 16.7212C28.3331 18.8953 29.8595 21.6151 30.591 24.5897M24.2506 31.0305V31.0476L24.5016 31.0777C24.7354 31.1057 24.9707 31.0398 25.1558 30.8943C25.341 30.7489 25.4607 30.5358 25.4888 30.3021C25.5168 30.0683 25.4509 29.833 25.3054 29.6479C25.1641 29.468 24.9589 29.3498 24.7329 29.3175C17.3919 27.4646 12.7561 21.0555 13.0396 13.226C15.2163 13.1073 17.3953 13.4329 19.4436 14.184C21.5708 14.9639 23.5089 16.1851 25.1307 17.7673C27.0977 19.7529 28.4882 22.2359 29.1533 24.9507L29.1538 24.9527C29.2112 25.1799 29.3565 25.375 29.5578 25.4951C29.7591 25.6152 29.9998 25.6504 30.227 25.593C30.4542 25.5356 30.6494 25.3903 30.7695 25.1891L30.5247 25.043M24.2506 31.0305L30.5247 25.043M12.133 11.4886C12.1331 11.4886 12.1333 11.4886 12.1334 11.4886L12.1555 11.7728L12.1328 11.4887C12.1329 11.4886 12.133 11.4886 12.133 11.4886ZM12.133 11.4886C17.6682 11.0456 22.7301 12.867 26.3768 16.5198L26.3774 16.5204C28.5718 18.7312 30.1239 21.4968 30.8678 24.5216M30.8678 24.5216C30.8677 24.521 30.8675 24.5204 30.8674 24.5199L30.591 24.5897M30.8678 24.5216C30.9246 24.7483 30.8892 24.9883 30.7695 25.1891L30.5247 25.043M30.8678 24.5216L30.591 24.5897M30.591 24.5897L30.5247 25.043" fill="#3D8F5F" stroke="#3D8F5F" stroke-width="0.570076"/>
<path d="M31.463 36.9809L31.2919 36.753C31.3848 36.6833 31.4905 36.6325 31.603 36.6037C31.6031 36.6036 31.6032 36.6036 31.6033 36.6036L31.674 36.8797C31.7506 36.8601 31.8304 36.8558 31.9087 36.8671C31.987 36.8784 32.0622 36.9052 32.1301 36.9458C32.198 36.9864 32.2572 37.0401 32.3042 37.1038L32.5334 36.9344C32.6027 37.0281 32.6527 37.1346 32.6806 37.2477C34.5285 44.5976 40.9355 49.2402 48.794 48.9561C48.9142 46.7797 48.5898 44.6008 47.8397 42.5523C47.0607 40.4251 45.8402 38.4868 44.2585 36.865C42.2732 34.8963 39.7902 33.5038 37.075 32.8364L37.0743 32.8362C36.8472 32.7798 36.6517 32.6356 36.5307 32.4352C36.4098 32.2348 36.3734 31.9946 36.4294 31.7673L36.4295 31.7669C36.4859 31.5397 36.6302 31.3442 36.8306 31.2233C37.031 31.1024 37.2711 31.066 37.4984 31.122M31.463 36.9809L37.4302 31.3988M31.463 36.9809C31.4001 37.0282 31.347 37.0875 31.307 37.1553C31.267 37.2231 31.2407 37.2982 31.2298 37.3762C31.2188 37.4541 31.2234 37.5335 31.2432 37.6097M31.463 36.9809L31.2919 36.753C31.1989 36.8228 31.1206 36.9103 31.0615 37.0104C31.0024 37.1106 30.9637 37.2214 30.9475 37.3365C30.9314 37.4512 30.938 37.5679 30.9669 37.6801M37.4984 31.122C37.4984 31.122 37.4984 31.122 37.4985 31.122L37.4302 31.3988M37.4984 31.122C37.4983 31.122 37.4982 31.122 37.4982 31.1219L37.4302 31.3988M37.4984 31.122C40.5264 31.8655 43.2947 33.42 45.5056 35.6185L45.5062 35.6191C49.1603 39.2732 50.9199 44.3174 50.5074 49.8554L50.5073 49.8564C50.4908 50.068 50.3987 50.2665 50.2479 50.4158C50.0979 50.5641 49.8999 50.6539 49.6895 50.6689M37.4302 31.3988C40.408 32.1299 43.1303 33.6586 45.3046 35.8206C48.8948 39.4108 50.63 44.3712 50.2232 49.8342C50.212 49.9775 50.1496 50.112 50.0474 50.2131C49.9452 50.3142 49.8101 50.3751 49.6667 50.3847M49.6895 50.6689C49.6906 50.6688 49.6917 50.6687 49.6928 50.6686L49.6667 50.3847M49.6895 50.6689C49.6883 50.669 49.687 50.6691 49.6858 50.6691L49.6667 50.3847M49.6895 50.6689C49.1595 50.7175 48.6371 50.7356 48.1229 50.7356C39.7661 50.7356 32.9633 45.6455 30.9669 37.6801M49.6667 50.3847C49.1461 50.4326 48.6315 50.4506 48.1229 50.4506C39.8895 50.4506 33.2058 45.4423 31.2432 37.6097M31.2432 37.6097L30.9673 37.6813C30.9672 37.6809 30.967 37.6805 30.9669 37.6801M31.2432 37.6097L30.9667 37.679C30.9668 37.6794 30.9668 37.6797 30.9669 37.6801" fill="#3D8F5F" stroke="#3D8F5F" stroke-width="0.570076"/>
<path d="M36.4122 30.393L36.4121 30.3928C36.3831 30.2797 36.3767 30.1619 36.3934 30.0463C36.4102 29.9307 36.4497 29.8196 36.5097 29.7193L36.7543 29.8657L36.5097 29.7193C36.5696 29.6191 36.6489 29.5318 36.7428 29.4624C36.8368 29.393 36.9436 29.3429 37.057 29.315L37.0574 29.3149C39.7703 28.653 42.2515 27.2644 44.2346 25.2983C45.8161 23.6761 47.0369 21.738 47.8168 19.6109C48.5678 17.5626 48.8938 15.3838 48.7758 13.2072C40.9404 12.9236 34.5222 17.5664 32.6804 24.9161L32.6801 24.9175C32.6512 25.0302 32.6005 25.136 32.5307 25.2289C32.4608 25.3219 32.3734 25.4002 32.2732 25.4593C32.1731 25.5184 32.0623 25.5571 31.9472 25.5733C31.8321 25.5895 31.715 25.5828 31.6026 25.5536L36.4122 30.393ZM36.4122 30.393C36.4622 30.5873 36.577 30.7588 36.7376 30.8793C36.8969 30.9988 37.0919 31.0609 37.2909 31.0556C37.3487 31.0554 37.4063 31.0495 37.4629 31.038L37.463 31.0382L37.4742 31.0355C40.4996 30.293 43.2657 28.7406 45.4756 26.5449L45.4759 26.5446M36.4122 30.393L45.4759 26.5446M45.4759 26.5446C49.1289 22.9038 50.9502 17.8417 50.5073 12.3007M45.4759 26.5446L31.6023 25.5536C31.3769 25.4952 31.1836 25.3502 31.0645 25.1501C30.9454 24.9499 30.9102 24.7108 30.9665 24.4848M30.9665 24.4848C30.9665 24.4848 30.9665 24.4848 30.9665 24.4847L31.2431 24.5536L30.9665 24.485C30.9665 24.4849 30.9665 24.4849 30.9665 24.4848ZM30.9665 24.4848C33.0667 16.0234 40.6315 10.809 49.6869 11.4883C49.8982 11.5028 50.0973 11.5927 50.2478 11.7417C50.3986 11.8908 50.4907 12.0892 50.5073 12.3007M50.5073 12.3007C50.5072 12.3006 50.5072 12.3005 50.5072 12.3004L50.2231 12.3232L50.5073 12.301C50.5073 12.3009 50.5073 12.3008 50.5073 12.3007Z" fill="#3D8F5F" stroke="#3D8F5F" stroke-width="0.570076"/>
<path d="M11.3208 49.8563L11.3208 49.8556C10.641 40.7939 15.8613 33.235 24.3162 31.1285C24.429 31.0996 24.5464 31.0934 24.6616 31.1101C24.7772 31.1268 24.8883 31.1663 24.9885 31.2263C25.0887 31.2863 25.1761 31.3655 25.2455 31.4595C25.3149 31.5534 25.365 31.6602 25.3928 31.7736M11.3208 49.8563L25.116 31.8416M11.3208 49.8563C11.3371 50.0664 11.4279 50.2638 11.577 50.4129C11.7247 50.5606 11.9199 50.6512 12.128 50.6686L11.3208 49.8563ZM25.3928 31.7736L25.116 31.8416M25.3928 31.7736C25.3928 31.7735 25.3928 31.7734 25.3928 31.7734L25.116 31.8416M25.3928 31.7736C25.4488 32.0008 25.4123 32.2409 25.2915 32.4412C25.1706 32.6415 24.9753 32.7857 24.7483 32.8422M25.116 31.8416C25.154 31.9955 25.1293 32.1582 25.0474 32.294C24.9655 32.4297 24.8331 32.5274 24.6792 32.5656M24.7483 32.8422C24.7484 32.8421 24.7486 32.8421 24.7487 32.8421L24.6792 32.5656M24.7483 32.8422C24.7482 32.8422 24.748 32.8422 24.7479 32.8423L24.6792 32.5656M24.7483 32.8422L24.6792 32.5656M13.0397 48.9559C12.9552 48.9512 12.8707 48.9458 12.7863 48.9397L12.7659 49.224L13.0505 49.2099C13.0463 49.1251 13.0427 49.0404 13.0397 48.9559ZM25.1306 44.4144C25.1301 44.4149 25.1296 44.4154 25.1291 44.4159L25.3314 44.6166L25.132 44.4129C25.1315 44.4134 25.131 44.4139 25.1306 44.4144Z" fill="#3D8F5F" stroke="#3D8F5F" stroke-width="0.570076"/>
<path d="M91.9165 4.539C92.8759 5.17864 93.5955 5.75831 94.0752 6.27802L95.8143 8.25691C96.8137 9.77606 97.3134 11.1153 97.3134 12.2747L97.1935 12.6345L96.8937 13.1142L95.5744 13.7139L94.7349 13.6539L94.495 13.1742C94.495 10.6556 93.0758 8.49678 90.2374 6.69779C87.399 4.8988 83.9209 3.9993 79.8032 3.9993C76.9648 3.9993 74.9859 5.11867 73.8666 7.35742C73.5867 8.07701 73.4468 8.77662 73.4468 9.45624C73.4468 11.655 74.3463 13.2141 76.1453 14.1336L78.0642 14.0736L78.8438 14.2536L79.0836 14.5534L79.2036 14.7932V15.0331L79.1436 15.273L78.544 16.2924L77.9443 16.8921L77.4046 17.1319L75.0659 17.072L75.6656 17.9715L76.2053 18.811L76.5051 19.6505L76.625 20.4901V44.8964C76.5851 45.0563 76.4251 45.1562 76.1453 45.1962L75.7855 45.1362L75.4857 45.0163L75.0659 44.6565L74.5862 44.0568L73.7466 42.7376L73.5667 42.5577L73.4468 42.1979V17.072H71.7078L71.2281 16.8921C71.1081 16.7721 71.0482 16.5323 71.0482 16.1725C71.0482 15.8127 71.0881 15.5328 71.1681 15.3329L71.5279 14.6733L72.1276 14.2536L72.6672 14.1336L73.7466 14.0736C72.1875 12.5145 71.408 10.3957 71.408 7.71721C71.408 6.318 71.9277 5.03872 72.9671 3.87937C73.8866 2.83995 75.0659 2.06039 76.5051 1.54068C77.4646 1.18088 78.5639 1.00098 79.8032 1.00098C84.1608 0.961006 88.1985 2.14034 91.9165 4.539Z" fill="#474F5C"/>
<path d="M87.8163 32.6033C87.8163 34.2823 87.3965 35.4816 86.557 36.2012C85.9173 37.2007 84.9579 37.7004 83.6786 37.7004C82.2794 37.7004 80.9801 36.9808 79.7808 35.5416C79.381 34.9419 78.9812 34.1424 78.5814 33.143C78.3416 32.2235 78.2216 31.244 78.2216 30.2046C78.2216 28.2057 78.8413 26.5666 80.0806 25.2874C81.3599 23.9681 82.859 23.3085 84.5781 23.3085V17.072H78.5814L78.2216 16.8921L78.1017 16.1725L78.1617 15.3929L78.5215 14.7333L79.0012 14.3135L79.7208 14.1336L97.171 14.0736C97.4508 14.0736 97.6707 14.1536 97.8306 14.3135L98.1305 14.8532L98.0105 15.5128C98.0105 15.7527 97.9106 16.0326 97.7107 16.3524L97.111 16.8921L96.5713 17.1319L94.1727 17.072L94.8323 17.8515L95.372 18.6911L95.5519 19.5306L95.7318 20.4901V44.8964C95.6918 45.0563 95.5519 45.1562 95.312 45.1962L94.9522 45.1362L94.5325 44.9563L94.2926 44.8364L94.1127 44.5366L93.8729 44.2967L93.693 43.9369L92.8534 42.7975L92.6136 42.018V26.7865L92.1938 26.6666L91.6541 26.4867L91.1144 26.3668L90.4548 26.1869L87.8163 25.887V32.6033ZM84.1583 35.1818C84.4381 34.782 84.5781 34.2024 84.5781 33.4428V25.887C83.6586 25.887 82.839 26.4067 82.1194 27.4461C81.7197 27.9659 81.3999 28.6455 81.16 29.485L80.9201 31.7637L81.1 33.2629L81.5198 34.6421C81.8396 35.2818 82.3393 35.6815 83.0189 35.8414C83.4987 35.8015 83.8785 35.5816 84.1583 35.1818ZM87.8163 23.2485L90.5147 23.3085L91.774 23.4884C92.0939 23.4884 92.3737 23.5483 92.6136 23.6683V17.072H86.2571C87.2965 18.1114 87.8163 19.2507 87.8163 20.4901V23.2485Z" fill="#474F5C"/>
<path d="M98.8154 20.8498C98.9353 20.65 99.1152 20.53 99.3551 20.4901L100.135 20.61L100.914 21.1497L101.274 21.6294L101.514 22.1091L101.754 22.8887V24.208L101.814 25.2874L102.174 26.1869L102.653 26.8465L103.313 27.0864C104.152 27.0864 104.812 26.5666 105.292 25.5272L105.891 23.8482L106.071 21.8093C106.071 19.7305 105.472 18.2513 104.272 17.3718C103.913 17.1319 103.433 16.9121 102.833 16.7122L97.4961 16.6522L97.0164 16.4723L96.8965 15.7527L97.0164 14.9731L97.3762 14.2536L97.6161 14.0137L98.2157 13.7139L98.5156 13.6539L108.95 13.5939C109.31 13.5939 109.569 13.6739 109.729 13.8338C109.929 13.9937 110.049 14.1936 110.089 14.4334L110.029 14.7932C109.989 14.9532 109.949 15.0731 109.909 15.153L109.729 15.5728L109.429 15.9326L109.01 16.5323C108.89 16.6522 108.71 16.7122 108.47 16.7122L105.592 16.6522C106.711 17.2519 107.59 18.0714 108.23 19.1108C108.67 19.8304 109.01 20.7699 109.25 21.9292C109.29 22.1291 109.31 22.4689 109.31 22.9487C109.31 24.4278 109.11 25.7071 108.71 26.7865C108.31 27.8659 107.69 28.7454 106.851 29.425C106.451 29.6649 105.911 29.8248 105.232 29.9048C103.673 29.9048 102.513 29.1652 101.754 27.686V35.1818C101.754 37.4605 102.154 39.2995 102.953 40.6987C103.353 41.4583 103.793 42.0779 104.272 42.5577C104.712 42.8775 105.212 43.0774 105.771 43.1573L106.431 42.9175C106.711 42.8375 106.971 42.6176 107.211 42.2578L107.57 41.5382L107.63 41.2384C107.75 41.2784 107.97 41.4183 108.29 41.6582C108.45 41.8581 108.61 42.1779 108.77 42.6176L108.83 42.9175L108.95 43.2173V44.5366L108.29 44.8364L107.63 45.0163H106.911C104.632 45.0163 102.713 43.8569 101.154 41.5382L99.9548 39.7393L99.1752 37.8203L98.6955 35.8414L98.5156 33.7426V21.7493C98.5955 21.3096 98.6955 21.0098 98.8154 20.8498Z" fill="#474F5C"/>
<path d="M109.798 16.6522L109.438 16.4723L109.318 15.7527L109.438 14.9731L109.798 14.3135L110.277 13.8937L110.997 13.6539L116.754 13.5939C117.074 13.5939 117.313 13.6739 117.473 13.8338C117.673 13.9937 117.793 14.1936 117.833 14.4334C117.833 15.0331 117.653 15.5128 117.293 15.8726L116.754 16.5323C116.634 16.6522 116.474 16.7122 116.274 16.7122L113.516 16.6522C114.435 17.5717 114.975 18.6711 115.135 19.9504V43.697C115.295 44.6165 115.135 45.0763 114.655 45.0763C114.375 45.0763 114.115 44.9763 113.875 44.7764L113.036 43.757L112.196 42.6776L111.956 41.8381V16.6522H109.798Z" fill="#474F5C"/>
<path d="M73.0499 48.8285H74.6286L76.296 52.8964H76.3669L78.0343 48.8285H79.613V54.8831H78.3713V50.9423H78.3211L76.7542 54.8535H75.9087L74.3418 50.9275H74.2916V54.8831H73.0499V48.8285ZM80.0631 48.8285H81.497L82.8776 51.436H82.9367L84.3173 48.8285H85.7511L83.5428 52.7427V54.8831H82.2715V52.7427L80.0631 48.8285ZM86.2006 54.8831V48.8285H88.5893C89.0465 48.8285 89.4368 48.9103 89.76 49.0738C90.0852 49.2355 90.3325 49.4651 90.502 49.7627C90.6735 50.0583 90.7592 50.4062 90.7592 50.8063C90.7592 51.2083 90.6725 51.5542 90.4991 51.8439C90.3256 52.1317 90.0744 52.3524 89.7452 52.5062C89.4181 52.6599 89.0219 52.7368 88.5568 52.7368H86.9574V51.7079H88.3498C88.5942 51.7079 88.7972 51.6744 88.9588 51.6074C89.1204 51.5404 89.2407 51.4399 89.3195 51.3059C89.4003 51.1719 89.4407 51.0053 89.4407 50.8063C89.4407 50.6052 89.4003 50.4357 89.3195 50.2978C89.2407 50.1598 89.1195 50.0554 88.9559 49.9844C88.7943 49.9115 88.5903 49.875 88.3439 49.875H87.4807V54.8831H86.2006ZM89.4703 52.1277L90.9751 54.8831H89.5619L88.0897 52.1277H89.4703ZM92.4577 54.8831H91.086L93.1761 48.8285H94.8258L96.9129 54.8831H95.5412L94.0246 50.212H93.9773L92.4577 54.8831ZM92.372 52.5032H95.6121V53.5024H92.372V52.5032ZM99.069 54.8831V48.8285H103.149V49.8839H100.349V51.3266H102.939V52.382H100.349V53.8276H103.161V54.8831H99.069ZM103.917 54.8831V48.8285H106.305C106.763 48.8285 107.153 48.9103 107.476 49.0738C107.801 49.2355 108.049 49.4651 108.218 49.7627C108.39 50.0583 108.475 50.4062 108.475 50.8063C108.475 51.2083 108.389 51.5542 108.215 51.8439C108.042 52.1317 107.79 52.3524 107.461 52.5062C107.134 52.6599 106.738 52.7368 106.273 52.7368H104.673V51.7079H106.066C106.31 51.7079 106.513 51.6744 106.675 51.6074C106.837 51.5404 106.957 51.4399 107.036 51.3059C107.116 51.1719 107.157 51.0053 107.157 50.8063C107.157 50.6052 107.116 50.4357 107.036 50.2978C106.957 50.1598 106.836 50.0554 106.672 49.9844C106.51 49.9115 106.306 49.875 106.06 49.875H105.197V54.8831H103.917ZM107.186 52.1277L108.691 54.8831H107.278L105.806 52.1277H107.186ZM109.13 54.8831V48.8285H111.519C111.978 48.8285 112.369 48.9162 112.693 49.0916C113.016 49.265 113.262 49.5065 113.432 49.8159C113.603 50.1233 113.689 50.4781 113.689 50.8802C113.689 51.2822 113.602 51.637 113.429 51.9445C113.255 52.2519 113.004 52.4914 112.675 52.6628C112.348 52.8343 111.952 52.92 111.486 52.92H109.964V51.8942H111.279C111.526 51.8942 111.729 51.8518 111.889 51.7671C112.05 51.6804 112.17 51.5611 112.249 51.4094C112.33 51.2556 112.37 51.0792 112.37 50.8802C112.37 50.6791 112.33 50.5037 112.249 50.3539C112.17 50.2022 112.05 50.0849 111.889 50.0021C111.727 49.9174 111.522 49.875 111.274 49.875H110.41V54.8831H109.13Z" fill="#474F5C"/>
</svg>
