<svg width="32" height="32" viewBox="0 0 32 32" fill="none" xmlns="http://www.w3.org/2000/svg">
<rect width="32" height="32" rx="16" fill="#5D737E"/>
<path d="M18.9938 8.52266C18.2336 7.70195 17.1719 7.25 16 7.25C14.8219 7.25 13.7567 7.69922 13 8.51484C12.2352 9.33945 11.8625 10.4602 11.95 11.6703C12.1234 14.0578 13.9402 16 16 16C18.0598 16 19.8734 14.0582 20.0496 11.6711C20.1383 10.4719 19.7633 9.35352 18.9938 8.52266V8.52266ZM22.875 24.75H9.12501C8.94504 24.7523 8.7668 24.7145 8.60328 24.6393C8.43975 24.5641 8.29505 24.4534 8.1797 24.3152C7.92579 24.0117 7.82345 23.5973 7.89923 23.1781C8.22892 21.3492 9.25782 19.8129 10.875 18.7344C12.3117 17.777 14.1317 17.25 16 17.25C17.8684 17.25 19.6883 17.7773 21.125 18.7344C22.7422 19.8125 23.7711 21.3488 24.1008 23.1777C24.1766 23.5969 24.0742 24.0113 23.8203 24.3148C23.705 24.4531 23.5603 24.5639 23.3968 24.6391C23.2333 24.7144 23.055 24.7523 22.875 24.75V24.75Z" fill="#FCFFFD"/>
<rect x="21.4" y="8.4" width="3.2" height="7.2" stroke="#FCFFFD" stroke-width="0.8"/>
<rect x="22.6" y="6" width="0.8" height="2" fill="#FCFFFD"/>
<rect x="22.6" y="16" width="0.8" height="2" fill="#FCFFFD"/>
</svg>
