<svg width="77" height="93" viewBox="0 0 77 93" fill="none" xmlns="http://www.w3.org/2000/svg">
<g opacity="0.3">
<path opacity="0.3" d="M53.6984 18.9311C51.5964 18.9291 49.5812 18.0932 48.0949 16.6069C46.6086 15.1206 45.7727 13.1053 45.7707 11.0034V0H10.346C7.60205 0 4.97052 1.09003 3.03027 3.03027C1.09003 4.97052 0 7.60205 0 10.346V72.7141C0.00407471 75.4553 1.09589 78.0829 3.0357 80.0198C4.9755 81.9568 7.60471 83.0447 10.346 83.0447H52.8718C55.6137 83.0447 58.2435 81.9562 60.1834 80.0185C62.1233 78.0807 63.2147 75.4521 63.2177 72.7102V18.9311H53.6984Z" fill="#005FAD"/>
</g>
<path d="M63.2178 18.931H53.6984C51.5964 18.929 49.5812 18.0931 48.0949 16.6068C46.6086 15.1205 45.7727 13.1053 45.7707 11.0033V-9.15527e-05L63.2178 18.931Z" fill="#005FAD"/>
<path d="M70.7187 65.5898H22.6451C19.235 65.5898 16.4706 68.3543 16.4706 71.7644V86.0972C16.4706 89.5073 19.235 92.2718 22.6451 92.2718H70.7187C74.1288 92.2718 76.8932 89.5073 76.8932 86.0972V71.7644C76.8932 68.3543 74.1288 65.5898 70.7187 65.5898Z" fill="#005FAD"/>
<path d="M30.3959 82.0334V84.8285H27.5008V82.0334H30.3959Z" fill="white"/>
<path d="M34.6481 80.7762V84.8285H31.8492V73.2676H36.3782C37.7546 73.2676 38.8016 73.6085 39.5193 74.2902C39.8836 74.6476 40.1682 75.0779 40.3544 75.553C40.5406 76.0281 40.6241 76.5372 40.5996 77.0469C40.6117 77.7193 40.4445 78.3828 40.1152 78.9692C39.7813 79.5431 39.2832 80.0038 38.685 80.2918C37.9657 80.6349 37.1748 80.8009 36.3782 80.7762H34.6481ZM37.7546 77.0469C37.7546 76.0216 37.1933 75.509 36.0706 75.509H34.6481V78.5194H36.0706C37.1933 78.5296 37.7546 78.0388 37.7546 77.0469Z" fill="white"/>
<path d="M52.2412 84.8285H49.4461L44.7633 77.7312V84.8285H41.9683V73.2676H44.7633L49.4423 80.4302V73.2676H52.2374L52.2412 84.8285Z" fill="white"/>
<path d="M63.1639 74.2019C64.0968 74.9 64.7236 75.9318 64.9132 77.0815H61.9528C61.7586 76.6697 61.4469 76.3246 61.057 76.0896C60.6165 75.8284 60.1119 75.6953 59.5999 75.7051C59.2021 75.6887 58.8056 75.7597 58.4382 75.9131C58.0709 76.0666 57.7416 76.2987 57.4738 76.5932C56.9121 77.2683 56.6264 78.1308 56.6741 79.0077C56.6741 80.1073 56.9547 80.9518 57.516 81.5413C57.8315 81.8476 58.2076 82.0845 58.6201 82.2368C59.0326 82.3891 59.4725 82.4534 59.9113 82.4256C60.5385 82.4365 61.1523 82.2435 61.6606 81.8758C62.1783 81.4883 62.5518 80.9389 62.7217 80.3149H59.1923V78.3041H65.0631V81.1223C64.8357 81.8099 64.4795 82.4479 64.0135 83.0023C63.5102 83.5991 62.8832 84.0792 62.1758 84.4094C61.3738 84.7797 60.4984 84.9637 59.6152 84.9477C58.5421 84.9749 57.481 84.7175 56.5395 84.2018C55.678 83.7188 54.9764 82.9945 54.5211 82.118C54.0337 81.1741 53.7893 80.1236 53.8098 79.0615C53.7867 77.993 54.0312 76.9357 54.5211 75.9858C54.9758 75.1114 55.6742 74.3876 56.5318 73.902C57.4596 73.391 58.5063 73.1349 59.5653 73.16C60.8473 73.0971 62.1137 73.4638 63.1639 74.2019Z" fill="white"/>
<path d="M21.0302 25.6515H15.7438V30.9379H21.0302V25.6515Z" fill="#005FAD"/>
<path d="M26.3205 30.9379H21.0341V36.2243H26.3205V30.9379Z" fill="#005FAD"/>
<path d="M31.6069 25.6515H26.3205V30.9379H31.6069V25.6515Z" fill="#005FAD"/>
<path d="M36.8933 30.9379H31.6069V36.2243H36.8933V30.9379Z" fill="#005FAD"/>
<path d="M42.1874 25.6515H36.901V30.9379H42.1874V25.6515Z" fill="#005FAD"/>
<path d="M47.4738 30.9379H42.1874V36.2243H47.4738V30.9379Z" fill="#005FAD"/>
<path d="M21.0302 36.2166H15.7438V41.5031H21.0302V36.2166Z" fill="#005FAD"/>
<path d="M26.3205 41.5031H21.0341V46.7895H26.3205V41.5031Z" fill="#005FAD"/>
<path d="M31.6069 36.2166H26.3205V41.5031H31.6069V36.2166Z" fill="#005FAD"/>
<path d="M36.8933 41.5031H31.6069V46.7895H36.8933V41.5031Z" fill="#005FAD"/>
<path d="M42.1874 36.2166H36.901V41.5031H42.1874V36.2166Z" fill="#005FAD"/>
<path d="M47.4738 41.5031H42.1874V46.7895H47.4738V41.5031Z" fill="#005FAD"/>
<path d="M21.0302 46.8318H15.7438V52.1182H21.0302V46.8318Z" fill="#005FAD"/>
<path d="M26.3205 52.1182H21.0341V57.4046H26.3205V52.1182Z" fill="#005FAD"/>
<path d="M31.6069 46.8318H26.3205V52.1182H31.6069V46.8318Z" fill="#005FAD"/>
<path d="M36.8933 52.1182H31.6069V57.4046H36.8933V52.1182Z" fill="#005FAD"/>
<path d="M42.1874 46.8318H36.901V52.1182H42.1874V46.8318Z" fill="#005FAD"/>
<path d="M47.4738 52.1182H42.1874V57.4046H47.4738V52.1182Z" fill="#005FAD"/>
</svg>
