<svg width="49" height="50" viewBox="0 0 49 50" fill="none" xmlns="http://www.w3.org/2000/svg">
  <path d="M18.4419 12.8998L18.4341 12.8985C18.2842 12.8732 18.1505 12.7895 18.0622 12.6657C17.974 12.5419 17.9384 12.3882 17.9633 12.2382L17.9634 12.2379C18.6951 7.9374 20.8523 4.00809 24.0877 1.08211L24.0915 1.07869L24.0916 1.07879C24.1939 0.995817 24.3216 0.950532 24.4533 0.950532C24.585 0.950532 24.7127 0.995817 24.815 1.07879L24.8189 1.082L24.8189 1.08211C28.0534 4.00684 30.2104 7.9343 30.9432 12.2331L30.9433 12.2336C30.9557 12.3088 30.9532 12.3857 30.9359 12.46C30.9185 12.5342 30.8868 12.6043 30.8423 12.6663C30.7979 12.7283 30.7417 12.7809 30.677 12.8212C30.6122 12.8614 30.5402 12.8885 30.465 12.9009C30.3897 12.9133 30.3128 12.9108 30.2385 12.8935C30.1643 12.8762 30.0942 12.8444 30.0322 12.8C29.9702 12.7556 29.9176 12.6994 29.8774 12.6346C29.8372 12.57 29.8101 12.4982 29.7977 12.4232C29.1117 8.5748 27.2432 5.03681 24.4532 2.30096C21.6579 5.03506 19.7842 8.57352 19.0944 12.4239L18.4419 12.8998ZM18.4419 12.8998H18.4499M18.4419 12.8998H18.4499M18.4499 12.8998H18.5266H18.4499Z" fill="#636972" stroke="#636972" stroke-width="0.19"/>
  <path d="M18.4499 37.1967C18.3248 37.2178 18.2132 37.2877 18.1396 37.391C18.0659 37.4943 18.0362 37.6226 18.057 37.7477C18.7862 42.0254 20.9327 45.9337 24.1514 48.8442C24.2364 48.9145 24.343 48.9535 24.4533 48.9543M18.4499 37.1967L29.9057 37.5896C29.9267 37.4625 29.9972 37.349 30.1019 37.274C30.2066 37.1989 30.3368 37.1686 30.4639 37.1895C30.5909 37.2105 30.7045 37.2811 30.7795 37.3858C30.8545 37.4904 30.8849 37.6206 30.8639 37.7477C30.1347 42.0254 27.9882 45.9337 24.7695 48.8442C24.6808 48.9177 24.5685 48.9568 24.4533 48.9543M18.4499 37.1967C18.575 37.1759 18.7033 37.2056 18.8066 37.2792C18.9099 37.3529 18.9798 37.4645 19.0009 37.5896L18.4499 37.1967ZM24.4533 48.9543L24.4512 49.0493C24.4514 49.0493 24.4517 49.0493 24.4519 49.0493C24.4521 49.0493 24.4523 49.0493 24.4525 49.0493L24.4533 48.9543ZM29.8121 37.5734C29.1222 41.4236 27.2485 44.9619 24.4533 47.6958C21.658 44.9618 19.7844 41.4235 19.0945 37.5733L29.8121 37.5734Z" fill="#636972" stroke="#636972" stroke-width="0.19"/>
  <path d="M37.1336 31.4988L37.1336 31.4989L37.1374 31.4985L37.214 31.4889L37.214 31.489L37.2182 31.4883C41.517 30.7555 45.4444 28.5984 48.3692 25.3639L48.3693 25.364L48.3725 25.36C48.4554 25.2577 48.5007 25.13 48.5007 24.9983C48.5007 24.8666 48.4554 24.7389 48.3725 24.6366L48.3726 24.6366L48.3692 24.6328C45.4444 21.3983 41.517 19.2412 37.2182 18.5084L37.2182 18.5084L37.2178 18.5084C37.0679 18.4834 36.9141 18.519 36.7904 18.6072C36.6666 18.6955 36.5829 18.8292 36.5576 18.9791L36.5576 18.9791L36.5575 18.9794C36.5326 19.1293 36.5682 19.283 36.6564 19.4068C36.7446 19.5305 36.8781 19.6141 37.0278 19.6395C40.878 20.3294 44.4164 22.2031 47.1504 24.9983C44.4166 27.7909 40.8797 29.6626 37.0315 30.3517C36.8811 30.3657 36.7421 30.4382 36.6446 30.5538C36.5462 30.6706 36.4981 30.8217 36.5111 30.9738C36.524 31.126 36.5969 31.2668 36.7136 31.3653C36.8304 31.4637 36.9814 31.5118 37.1336 31.4988Z" fill="#636972" stroke="#636972" stroke-width="0.19"/>
  <path d="M11.6875 31.4978L11.6954 31.4992H11.7035H11.7198L11.7721 31.5036C11.8474 31.51 11.9233 31.5015 11.9954 31.4786C12.0675 31.4557 12.1343 31.4188 12.1921 31.3701C12.2499 31.3213 12.2976 31.2616 12.3323 31.1945C12.3671 31.1273 12.3882 31.054 12.3947 30.9786C12.4011 30.9033 12.3926 30.8274 12.3696 30.7553C12.3467 30.6833 12.3098 30.6164 12.2611 30.5586C12.2123 30.5008 12.1527 30.4532 12.0855 30.4184C12.0197 30.3844 11.948 30.3633 11.8742 30.3565C8.02545 29.6661 4.48855 27.7927 1.75543 24.9984C4.49129 22.2085 8.0293 20.3399 11.8777 19.6539C12.0294 19.6287 12.1649 19.5444 12.2544 19.4194C12.3442 19.2943 12.3805 19.1386 12.3554 18.9867C12.3303 18.8347 12.2459 18.699 12.1208 18.6093C11.9956 18.5196 11.84 18.4833 11.688 18.5083L11.6875 18.5084C7.38877 19.2412 3.46131 21.3982 0.536573 24.6328L0.536472 24.6327L0.533262 24.6366C0.450285 24.7389 0.405 24.8666 0.405 24.9983C0.405 25.13 0.450285 25.2577 0.533262 25.36L0.533159 25.3601L0.536523 25.3638C3.45984 28.6019 7.38746 30.7625 11.6875 31.4978Z" fill="#636972" stroke="#636972" stroke-width="0.19"/>
  <path d="M34.9928 10.902V10.9016H34.9353H34.9246L34.9247 10.9011C34.8491 10.8925 34.7759 10.8691 34.7095 10.832C34.643 10.795 34.5846 10.7451 34.5375 10.6852C34.4905 10.6254 34.4559 10.5568 34.4356 10.4835C34.4154 10.4104 34.4099 10.3339 34.4194 10.2587C34.6962 7.83002 33.6166 5.12152 33.141 4.08684C29.8243 5.21366 28.713 6.53459 28.6675 6.58869C28.6664 6.59 28.6659 6.59057 28.666 6.59038L28.6631 6.59469L28.663 6.5946C28.5704 6.71834 28.4324 6.80021 28.2795 6.82222C28.1265 6.84423 27.971 6.80457 27.8473 6.71195C27.7236 6.61934 27.6417 6.48137 27.6197 6.32839C27.5977 6.17542 27.6373 6.01996 27.7299 5.89623L27.7313 5.89444L27.7313 5.89446C27.7957 5.81244 29.115 4.13388 33.2491 2.83926L34.9928 10.902ZM34.9928 10.902L35.0007 10.9013M34.9928 10.902L35.0007 10.9013M35.0007 10.9013C35.1327 10.8903 35.2569 10.834 35.3521 10.7419C35.4473 10.6498 35.5077 10.5277 35.5232 10.3961L35.4288 10.385M35.0007 10.9013L33.9266 3.11483M33.9266 3.11483L33.9268 3.1153C33.9691 3.19482 34.4701 4.14768 34.9096 5.51259C35.3487 6.87623 35.7291 8.65918 35.5232 10.3962L35.4288 10.385M33.9266 3.11483C33.8633 2.99731 33.761 2.90551 33.6374 2.85521C33.5138 2.80493 33.3765 2.79928 33.2492 2.83924L33.9266 3.11483ZM35.4288 10.385C35.8361 6.94972 33.9244 3.31319 33.8429 3.15987L35.286 10.6736C35.3655 10.5968 35.4159 10.4948 35.4288 10.385Z" fill="#636972" stroke="#636972" stroke-width="0.19"/>
  <path d="M13.9126 10.9017L13.9126 10.9016C13.7716 10.9027 13.6351 10.8517 13.5292 10.7585C13.4233 10.6654 13.3554 10.5365 13.3385 10.3964L13.3385 10.3962C13.1326 8.65918 13.513 6.87623 13.9521 5.51259C14.3916 4.14768 14.8926 3.19482 14.9348 3.1153L14.9351 3.11483C14.9983 2.99731 15.1006 2.90551 15.2242 2.85521C15.3478 2.80493 15.4851 2.79928 15.6124 2.83922M13.9126 10.9017L15.5841 2.9299M13.9126 10.9017L13.9167 10.9015L14.0125 10.8967L14.0125 10.8969L14.0185 10.8962C14.0936 10.8877 14.1662 10.8644 14.2323 10.8277C14.2983 10.791 14.3565 10.7417 14.4034 10.6825L14.3315 10.6255L14.4034 10.6825C14.4504 10.6233 14.4851 10.5554 14.5058 10.4827C14.5264 10.41 14.5325 10.334 14.5237 10.259L14.5237 10.2587C14.2282 7.80722 15.307 5.10751 15.7825 4.08669M13.9126 10.9017L14.4294 10.27M15.6124 2.83922C15.6125 2.83923 15.6125 2.83925 15.6125 2.83926L15.5841 2.9299M15.6124 2.83922C15.6124 2.83921 15.6124 2.8392 15.6123 2.83919L15.5841 2.9299M15.6124 2.83922C17.6907 3.48629 19.0601 4.22936 19.9207 4.82142C20.3509 5.11743 20.6537 5.3755 20.8541 5.56462C20.9543 5.65919 21.0288 5.73637 21.0806 5.79223C21.1065 5.82014 21.1267 5.84263 21.1413 5.85896L21.1586 5.87827C21.162 5.88198 21.1635 5.88358 21.1639 5.88395C21.164 5.88405 21.164 5.88406 21.1639 5.884L21.1693 5.88907L21.1741 5.89532C21.2201 5.95524 21.2538 6.02363 21.2734 6.09658C21.2929 6.16953 21.2979 6.24561 21.288 6.32049C21.2782 6.39537 21.2537 6.46757 21.2159 6.53298C21.1782 6.59838 21.1279 6.65571 21.068 6.70169C21.008 6.74766 20.9397 6.78138 20.8667 6.80093C20.7937 6.82048 20.7177 6.82546 20.6428 6.8156C20.5679 6.80574 20.4957 6.78123 20.4303 6.74347C20.3649 6.7057 20.3076 6.65543 20.2616 6.59551L20.242 6.56993V6.56812M15.5841 2.9299C19.4782 4.14231 20.8624 5.68968 21.0727 5.92475C21.0859 5.93957 21.0945 5.94917 21.0988 5.95315C21.1371 6.00317 21.1653 6.06026 21.1816 6.12116C21.1979 6.18206 21.2021 6.24558 21.1939 6.30809C21.1856 6.3706 21.1652 6.43088 21.1336 6.48548C21.1021 6.54008 21.0601 6.58794 21.0101 6.62632C20.9601 6.6647 20.903 6.69285 20.8421 6.70917C20.7812 6.72548 20.7177 6.72965 20.6552 6.72141C20.5927 6.71318 20.5324 6.69272 20.4778 6.6612C20.4232 6.62967 20.3753 6.5877 20.337 6.53768C20.337 6.51372 19.1919 5.12906 15.7326 3.96959M20.242 6.56812C20.2445 6.5712 20.2467 6.57394 20.2486 6.57635C20.2525 6.58134 20.2544 6.584 20.2549 6.58474C20.255 6.5849 20.255 6.58488 20.2549 6.58468C20.2546 6.58425 20.2538 6.58297 20.2527 6.58108C20.252 6.57979 20.2503 6.57654 20.2485 6.57201L20.2484 6.57179C20.2474 6.56926 20.242 6.55581 20.242 6.53768V6.56812ZM20.242 6.56812C20.2344 6.55886 20.2239 6.5466 20.2103 6.53146C20.1743 6.4913 20.118 6.43267 20.039 6.35867C19.8812 6.21074 19.6337 6.00217 19.2782 5.75774C18.5783 5.27657 17.4597 4.65644 15.7825 4.08669M15.7825 4.08669C15.7949 4.06009 15.8069 4.03463 15.8184 4.01035L15.7326 3.96959M15.7825 4.08669C15.756 4.07767 15.7293 4.06866 15.7024 4.05966L15.7326 3.96959M15.7326 3.96959C15.2774 4.92783 14.1228 7.7259 14.4294 10.27M14.4294 10.27C14.4367 10.3327 14.4316 10.3961 14.4144 10.4568C14.3972 10.5174 14.3681 10.5741 14.329 10.6235C14.2898 10.6729 14.2413 10.7141 14.1862 10.7447C14.131 10.7753 14.0704 10.7947 14.0078 10.8019L14.4294 10.27Z" fill="#636972" stroke="#636972" stroke-width="0.19"/>
  <path d="M33.2689 47.1765L33.2761 47.1788L33.2835 47.1799C33.3386 47.1883 33.3947 47.1886 33.4499 47.1808C33.5482 47.1771 33.6439 47.1482 33.7279 47.0968C33.8135 47.0444 33.8839 46.9705 33.9321 46.8824L33.9326 46.8814C33.9748 46.8019 34.4758 45.8491 34.9153 44.4841C35.3544 43.1205 35.7348 41.3376 35.5289 39.6005L35.5289 39.6004C35.5107 39.4483 35.4327 39.3097 35.3123 39.2151C35.1918 39.1204 35.0387 39.0775 34.8866 39.0958C34.7346 39.114 34.596 39.1919 34.5013 39.3124C34.4067 39.4328 34.3638 39.5859 34.382 39.738L34.382 39.7381C34.6777 42.1915 33.6196 44.8936 33.1247 45.9105C31.4466 45.3407 30.3276 44.7215 29.6275 44.2408C29.272 43.9966 29.0245 43.7882 28.8668 43.6401C28.7878 43.566 28.7316 43.5073 28.6957 43.4669C28.6819 43.4514 28.6713 43.4389 28.6638 43.4296V43.4268L28.6441 43.4012C28.5982 43.3413 28.5408 43.291 28.4754 43.2533L28.4279 43.3355L28.4754 43.2533C28.41 43.2155 28.3378 43.191 28.263 43.1811C28.1881 43.1713 28.112 43.1763 28.039 43.1958C27.9661 43.2154 27.8977 43.2491 27.8378 43.295C27.7779 43.341 27.7276 43.3984 27.6898 43.4638C27.6521 43.5292 27.6275 43.6014 27.6177 43.6762C27.6078 43.7511 27.6128 43.8272 27.6324 43.9002C27.6519 43.9731 27.6856 44.0415 27.7316 44.1014L27.7364 44.1077L27.7418 44.1127C27.7418 44.1127 27.7432 44.1142 27.7471 44.1185L27.7644 44.1378C27.779 44.1541 27.7992 44.1766 27.825 44.2045C27.8768 44.2604 27.9511 44.3376 28.0511 44.4323C28.2511 44.6217 28.5531 44.8803 28.9818 45.1775C29.8393 45.772 31.2026 46.5198 33.2689 47.1765Z" fill="#636972" stroke="#636972" stroke-width="0.19"/>
  <path d="M13.4575 39.6116C13.0502 43.0469 14.9619 46.6835 15.0434 46.8368C15.0847 46.9124 15.1457 46.9755 15.2199 47.0193C15.2942 47.0632 15.3788 47.0862 15.465 47.0859L13.4575 39.6116ZM13.4575 39.6116C13.465 39.5487 13.4849 39.4879 13.516 39.4327C13.547 39.3774 13.5886 39.3288 13.6385 39.2897C13.6883 39.2505 13.7453 39.2216 13.8064 39.2045C13.8674 39.1874 13.9312 39.1825 13.9941 39.19C14.057 39.1976 14.1178 39.2174 14.1731 39.2485C14.2283 39.2795 14.2769 39.3212 14.316 39.371C14.3552 39.4208 14.3842 39.4779 14.4013 39.5389C14.4184 39.5999 14.4233 39.6637 14.4157 39.7266C14.1091 42.2756 15.2638 45.0545 15.7189 46.0271L13.4575 39.6116ZM15.1716 47.1011C15.2597 47.1532 15.3602 47.1807 15.4625 47.1809C15.5275 47.1842 15.5926 47.1764 15.655 47.1578L15.655 47.1578L15.6563 47.1574C19.7904 45.8628 21.1097 44.1842 21.1742 44.1022L21.1742 44.1022L21.1754 44.1007C21.268 43.9776 21.308 43.8228 21.2865 43.6702C21.265 43.5177 21.1838 43.38 21.0608 43.2873C20.9377 43.1946 20.7829 43.1546 20.6304 43.1761C20.4778 43.1976 20.3401 43.2788 20.2474 43.4018L20.2473 43.4017L20.2442 43.4063C20.2444 43.4061 20.2439 43.4067 20.2428 43.408C20.1973 43.4621 19.086 44.783 15.7693 45.9098C15.2936 44.8763 14.2145 42.1944 14.51 39.738L14.51 39.738C14.5191 39.6626 14.5132 39.5863 14.4927 39.5133C14.4723 39.4402 14.4376 39.372 14.3907 39.3123C14.3439 39.2527 14.2857 39.2028 14.2196 39.1657C14.1535 39.1285 14.0807 39.1047 14.0054 39.0957C13.9301 39.0867 13.8538 39.0925 13.7807 39.113C13.7077 39.1335 13.6394 39.1681 13.5798 39.215C13.5201 39.2619 13.4703 39.32 13.4331 39.3861C13.396 39.4522 13.3722 39.525 13.3632 39.6003L13.3631 39.6005C13.1572 41.3375 13.5376 43.1204 13.9767 44.4841C14.4162 45.849 14.9172 46.8019 14.9595 46.8814L14.9595 46.8814L14.96 46.8824C15.0096 46.973 15.0827 47.0486 15.1716 47.1011Z" fill="#636972" stroke="#636972" stroke-width="0.19"/>
  <path d="M39.0556 36.1125L39.0556 36.1125L39.0583 36.1128C39.3928 36.1433 39.7288 36.1546 40.0646 36.1467C41.6337 36.1465 43.167 35.7503 44.3232 35.3442C45.4613 34.9445 46.2429 34.5321 46.3403 34.4711C46.4563 34.4077 46.5469 34.3061 46.5967 34.1836C46.647 34.06 46.6527 33.9227 46.6127 33.7954C45.3181 29.6612 43.6395 28.342 43.5575 28.2775L43.5575 28.2775L43.5545 28.2753C43.428 28.1836 43.2703 28.146 43.116 28.1706C42.9617 28.1953 42.8236 28.2802 42.7319 28.4067C42.6403 28.5332 42.6026 28.6909 42.6272 28.8452C42.6517 28.9982 42.7355 29.1354 42.8603 29.2271L42.8633 29.2295L42.875 29.2394C42.8852 29.248 42.9002 29.2611 42.9198 29.279C42.9591 29.3147 43.0167 29.3697 43.0896 29.4466C43.2353 29.6005 43.4423 29.8423 43.686 30.1935C44.1659 30.885 44.7884 32.0013 45.3652 33.7063C44.3317 34.182 41.6497 35.2611 39.1932 34.9656L39.1932 34.9656C39.0411 34.9473 38.888 34.9903 38.7676 35.0849C38.6471 35.1795 38.5692 35.3181 38.551 35.4702C38.5327 35.6223 38.5756 35.7754 38.6703 35.8959C38.7649 36.0163 38.9035 36.0942 39.0556 36.1125Z" fill="#636972" stroke="#636972" stroke-width="0.19"/>
  <path d="M45.4816 16.2593C44.5234 15.8041 41.7253 14.6495 39.1811 14.9561L38.6493 14.5345L38.5549 14.5452C38.5549 14.5453 38.5549 14.5454 38.555 14.5454C38.5635 14.6204 38.5868 14.693 38.6235 14.759C38.6601 14.825 38.7095 14.8832 38.7687 14.9301C38.8279 14.9771 38.8958 15.0119 38.9685 15.0325C39.0411 15.0531 39.1172 15.0592 39.1922 15.0505L39.1925 15.0504C41.644 14.755 44.3437 15.8337 45.3645 16.3092M45.4816 16.2593L45.3915 16.2291C45.3825 16.256 45.3735 16.2827 45.3645 16.3092M45.4816 16.2593L45.4408 16.3451C45.4165 16.3336 45.3911 16.3216 45.3645 16.3092M45.4816 16.2593C44.3221 19.7186 42.9422 20.8637 42.9135 20.8637C42.8126 20.9406 42.7463 21.0545 42.7293 21.1802C42.7122 21.306 42.7457 21.4334 42.8225 21.5344C42.8671 21.5939 42.925 21.6422 42.9915 21.6755C43.058 21.7088 43.1314 21.7261 43.2058 21.7261L43.2034 21.8211C43.1151 21.8207 43.028 21.8 42.949 21.7605C42.8694 21.7207 42.8001 21.6629 42.7467 21.5917C42.6548 21.4706 42.6147 21.3181 42.6351 21.1674C42.6556 21.0168 42.735 20.8803 42.8559 20.7881L42.8814 20.7687H42.884C42.8934 20.7611 42.9058 20.7506 42.9214 20.7368C42.9617 20.7008 43.0205 20.6446 43.0946 20.5657C43.2427 20.4079 43.4511 20.1605 43.6952 19.8049C44.1758 19.1051 44.7948 17.9864 45.3645 16.3092M39.0662 14.0026C42.5015 13.5954 46.138 15.5071 46.2913 15.5885C46.3894 15.6413 46.466 15.7267 46.508 15.8299C46.5499 15.933 46.5546 16.0476 46.5213 16.1539L39.0662 14.0026Z" fill="#636972" stroke="#636972" stroke-width="0.19"/>
  <path d="M2.29488 33.8145C2.2549 33.9418 2.26055 34.0791 2.31084 34.2028C2.36114 34.3264 2.45294 34.4287 2.57046 34.4919L2.57046 34.4919L2.57186 34.4927C2.57385 34.4937 2.57644 34.495 2.5796 34.4967C2.79696 34.6097 5.75429 36.1467 8.84408 36.1467L8.84545 36.1467L2.38552 33.8429M2.29488 33.8145L2.38552 33.8429M2.29488 33.8145C2.29488 33.8145 2.29487 33.8145 2.29486 33.8145L2.38552 33.8429M2.29488 33.8145C2.94198 31.7481 3.68507 30.3847 4.27713 29.5272C4.57314 29.0984 4.83121 28.7964 5.02031 28.5964C5.11487 28.4964 5.19204 28.4221 5.24789 28.3703C5.27579 28.3444 5.29828 28.3243 5.3146 28.3097L5.33391 28.2923C5.33818 28.2884 5.33965 28.287 5.33966 28.287M2.38552 33.8429C3.59758 29.9724 5.1444 28.5893 5.38017 28.3785C5.39511 28.3651 5.40478 28.3565 5.40878 28.3522C5.4588 28.3138 5.51589 28.2857 5.57679 28.2693C5.63769 28.253 5.70121 28.2489 5.76372 28.2571C5.82623 28.2653 5.8865 28.2858 5.9411 28.3173C5.99571 28.3488 6.04356 28.3908 6.08194 28.4408C6.12032 28.4909 6.14848 28.5479 6.16479 28.6088C6.18111 28.6697 6.18527 28.7333 6.17704 28.7958C6.16881 28.8583 6.14835 28.9186 6.11682 28.9732C6.0853 29.0278 6.04333 29.0756 5.99331 29.114C5.96456 29.114 4.55594 30.2639 3.42522 33.7184M5.33966 28.287L5.33933 28.2874C5.33954 28.2871 5.33967 28.287 5.33966 28.287ZM5.33966 28.287L5.3447 28.2816L5.35095 28.2768C5.41087 28.2309 5.47925 28.1971 5.5522 28.1776C5.62515 28.158 5.70124 28.1531 5.77612 28.1629C5.851 28.1728 5.9232 28.1973 5.98861 28.235C6.05401 28.2728 6.11134 28.3231 6.15731 28.383C6.20329 28.4429 6.23701 28.5113 6.25656 28.5843C6.2761 28.6572 6.28109 28.7333 6.27123 28.8082C6.26137 28.8831 6.23686 28.9553 6.19909 29.0207C6.16133 29.0861 6.11106 29.1434 6.05114 29.1894L6.02555 29.209H6.02243M6.02243 29.209C6.02511 29.2069 6.02753 29.205 6.02969 29.2034C6.0348 29.1995 6.03744 29.1977 6.03805 29.1973C6.03852 29.197 6.0369 29.1981 6.0339 29.1996C6.03245 29.2003 6.02911 29.202 6.0245 29.2036L6.02442 29.2036C6.02152 29.2047 6.00952 29.209 5.99331 29.209H6.02243ZM6.02243 29.209C6.01283 29.2166 5.9999 29.2274 5.98378 29.2415C5.94271 29.2776 5.88296 29.334 5.80778 29.4131C5.65752 29.5712 5.4465 29.819 5.20066 30.1748C4.71655 30.8753 4.09739 31.9941 3.54129 33.6697M3.54129 33.6697C3.51568 33.6572 3.49114 33.6451 3.4677 33.6334L3.42522 33.7184M3.54129 33.6697C3.53268 33.6956 3.52408 33.7217 3.5155 33.7479L3.42522 33.7184M3.54129 33.6697C4.55779 34.1645 7.26045 35.223 9.71429 34.9272L9.71434 34.9272C9.86643 34.909 10.0195 34.9519 10.14 35.0465C10.2604 35.1412 10.3384 35.2798 10.3566 35.4319C10.3749 35.584 10.3319 35.7371 10.2373 35.8575C10.1428 35.9778 10.0043 36.0557 9.85245 36.0741C9.85229 36.0741 9.85213 36.0741 9.85197 36.0741L9.84065 35.9798L3.42522 33.7184" fill="#636972" stroke="#636972" stroke-width="0.19"/>
  <path d="M5.35007 21.7L5.35009 21.7C5.26807 21.6356 3.58949 20.3163 2.29486 16.1821C2.25491 16.0548 2.26056 15.9175 2.31084 15.7939C2.36114 15.6703 2.45294 15.568 2.57046 15.5047L2.57093 15.5045L2.57093 15.5045C2.65036 15.4623 3.60324 14.9601 4.96818 14.52C6.33184 14.0802 8.11485 13.6998 9.85196 13.9082L9.85197 13.9082C10.0041 13.9264 10.1427 14.0043 10.2373 14.1248M5.35007 21.7L10.2373 14.1248M5.35007 21.7L5.35177 21.7013M5.35007 21.7L5.35177 21.7013M10.2373 14.1248C10.3319 14.2452 10.3749 14.3983 10.3566 14.5504C10.3384 14.7025 10.2604 14.8411 10.14 14.9358C10.0195 15.0304 9.86643 15.0733 9.71434 15.0551M10.2373 14.1248L9.71434 15.0551M5.35177 21.7013C5.45262 21.777 5.57557 21.8173 5.70163 21.8161M5.35177 21.7013L9.71434 15.0551M9.71434 15.0551L9.71401 15.055C7.28571 14.7549 4.57727 15.8338 3.54247 16.3095C4.66929 19.6262 5.99022 20.7375 6.04432 20.783C6.04563 20.7841 6.04619 20.7846 6.046 20.7845L6.05166 20.7882L6.05151 20.7884C6.17155 20.8815 6.24983 21.0183 6.2692 21.169C6.28857 21.3196 6.24745 21.4718 6.15485 21.5922L6.15483 21.5922C6.10134 21.6617 6.03266 21.718 5.95404 21.7568C5.87552 21.7956 5.78918 21.8159 5.70163 21.8161M5.70163 21.8161C5.70151 21.8161 5.70139 21.8161 5.70127 21.8161L5.70104 21.7211L5.70199 21.8161C5.70187 21.8161 5.70175 21.8161 5.70163 21.8161Z" fill="#636972" stroke="#636972" stroke-width="0.19"/>
  <path d="M24.4532 30.7326L24.4533 30.7326C25.9737 30.7314 27.4315 30.1268 28.5066 29.0517C29.5816 27.9766 30.1862 26.5189 30.1875 24.9985V24.9984C30.1875 23.8643 29.8512 22.7556 29.2211 21.8126C28.591 20.8696 27.6954 20.1346 26.6476 19.7006C25.5998 19.2666 24.4469 19.1531 23.3345 19.3743C22.2222 19.5956 21.2004 20.1417 20.3985 20.9437C19.5965 21.7456 19.0504 22.7674 18.8291 23.8797C18.6079 24.992 18.7214 26.145 19.1555 27.1928C19.5895 28.2406 20.3244 29.1362 21.2674 29.7663C22.2104 30.3963 23.3191 30.7326 24.4532 30.7326ZM21.9054 21.1853C22.6595 20.6813 23.5462 20.4124 24.4532 20.4124C25.6691 20.4136 26.8349 20.8972 27.6946 21.757C28.5544 22.6168 29.038 23.7825 29.0392 24.9984C29.0392 25.9054 28.7703 26.7921 28.2664 27.5462C27.7624 28.3004 27.0462 28.8882 26.2082 29.2353C25.3702 29.5824 24.4481 29.6732 23.5585 29.4963C22.6689 29.3193 21.8518 28.8826 21.2104 28.2412C20.5691 27.5998 20.1323 26.7827 19.9553 25.8931C19.7784 25.0035 19.8692 24.0814 20.2163 23.2434C20.5634 22.4054 21.1512 21.6892 21.9054 21.1853Z" fill="#636972" stroke="#636972" stroke-width="0.19"/>
  <path d="M24.1942 19.8C24.2253 19.9233 24.2062 20.0539 24.1411 20.1631C24.0759 20.2722 23.9701 20.351 23.8468 20.3822C23.7236 20.4133 23.593 20.3942 23.4838 20.3291C23.3746 20.2639 23.2958 20.1581 23.2647 20.0348C22.7221 17.8202 21.5876 15.7948 19.9827 14.1752M24.1942 19.8L24.2864 19.7774M24.1942 19.8C23.6084 17.4182 22.3862 15.2404 20.6583 13.4996L9.42487 9.44257C9.4249 9.44257 9.42494 9.44256 9.42497 9.44256M24.1942 19.8L24.2863 19.7768C24.2863 19.777 24.2864 19.7772 24.2864 19.7774M24.2864 19.7774C24.3235 19.9249 24.3006 20.0811 24.2226 20.2117C24.1446 20.3425 24.0178 20.437 23.8701 20.4743C23.7224 20.5116 23.5659 20.4887 23.4351 20.4106C23.3043 20.3326 23.2099 20.2058 23.1726 20.0581L23.1724 20.0574C22.634 17.8598 21.5083 15.8499 19.9158 14.2426M24.2864 19.7774C23.6965 17.3788 22.4657 15.1857 20.7257 13.4327L20.7255 13.4325C17.8347 10.5369 13.8206 9.09075 9.42497 9.44256M19.9158 14.2426C19.916 14.2428 19.9162 14.243 19.9164 14.2432L19.9827 14.1752M19.9158 14.2426C19.9156 14.2424 19.9154 14.2422 19.9152 14.242L19.9827 14.1752M19.9158 14.2426C18.6036 12.9622 17.0354 11.974 15.3141 11.3429C13.619 10.7213 11.8133 10.46 10.0121 10.575M19.9827 14.1752C18.6608 12.8852 17.0809 11.8895 15.3468 11.2537C13.6127 10.6178 11.7636 10.3562 9.92116 10.4859M9.92116 10.4859L10.016 10.4906C10.0146 10.5188 10.0133 10.5469 10.0121 10.575M9.92116 10.4859C9.60014 16.9541 13.3996 22.2867 19.4605 23.8103M9.92116 10.4859L9.92783 10.5807C9.95591 10.5787 9.984 10.5768 10.0121 10.575M10.0121 10.575C9.73032 16.9606 13.4933 22.2096 19.478 23.7168M19.4605 23.8103L19.4718 23.716C19.4739 23.7162 19.476 23.7165 19.478 23.7168M19.4605 23.8103C19.5875 23.8255 19.7033 23.8906 19.7824 23.9913C19.8615 24.0919 19.8973 24.2198 19.8821 24.3469C19.8668 24.474 19.8017 24.5898 19.7011 24.6689C19.6017 24.747 19.4757 24.7829 19.3502 24.7691L19.3675 24.8418C19.357 24.8443 19.3465 24.8463 19.336 24.8478C19.3076 24.8519 19.2789 24.8525 19.2505 24.8496M19.4605 23.8103L19.4836 23.7182C19.4818 23.7177 19.4799 23.7172 19.478 23.7168M19.478 23.7168C19.6277 23.7364 19.7638 23.8138 19.8571 23.9326C19.9517 24.053 19.9947 24.2061 19.9764 24.3582C19.9582 24.5103 19.8802 24.6489 19.7598 24.7436C19.6393 24.8382 19.4862 24.8811 19.3342 24.8629L19.2505 24.8528V24.8496M9.42497 9.44256C9.28751 9.45331 9.15852 9.51316 9.06155 9.61117C8.96457 9.70921 8.90611 9.83889 8.89687 9.97649L8.99166 9.98285L8.89693 9.97574C8.35709 17.1719 12.4997 23.1622 19.2026 24.8415L19.2037 24.8418C19.2191 24.8455 19.2348 24.8481 19.2505 24.8496M9.42497 9.44256L19.2505 24.8496" fill="#636972" stroke="#636972" stroke-width="0.19"/>
  <path d="M35.2998 29.4686C33.6805 27.8623 31.6551 26.7263 29.4402 26.1818M35.2998 29.4686L35.2318 29.535C35.232 29.5351 35.2322 29.5353 35.2324 29.5355M35.2998 29.4686C36.5895 30.7906 37.5846 32.3706 38.2196 34.1048C38.8547 35.839 39.1153 37.688 38.9843 39.5302C32.497 39.8512 27.1692 36.0517 25.6455 29.9909M35.2998 29.4686L35.2329 29.5361C35.2328 29.5359 35.2326 29.5357 35.2324 29.5355M29.4402 26.1818L29.6702 25.2523L29.6929 25.1601C29.5452 25.1237 29.3891 25.1474 29.2589 25.2259C29.1286 25.3045 29.0349 25.4316 28.9982 25.5792L28.9982 25.5794C28.9618 25.727 28.9854 25.8832 29.064 26.0134C29.1426 26.1437 29.2697 26.2374 29.4173 26.274L29.4175 26.2741C31.6155 26.8143 33.6254 27.9416 35.2324 29.5355M29.4402 26.1818C29.317 26.1513 29.2109 26.073 29.1454 25.9643C29.0798 25.8556 29.06 25.7254 29.0904 25.6021L29.4402 26.1818ZM35.2324 29.5355C36.5124 30.8477 37.5001 32.4161 38.1304 34.1375C38.7512 35.8326 39.0115 37.6383 38.8952 39.4392C32.4887 39.7212 27.2431 35.9558 25.7377 29.9679M25.0375 29.5491C24.9643 29.5678 24.8955 29.6008 24.8351 29.6462L24.8921 29.7221L24.8351 29.6462C24.7746 29.6915 24.7238 29.7484 24.6854 29.8135C24.647 29.8785 24.6218 29.9505 24.6113 30.0254C24.6008 30.1002 24.6051 30.1764 24.6241 30.2495L24.716 30.2256L24.6239 30.2487C26.2066 36.5649 31.5981 40.6026 38.2321 40.6026C38.6411 40.6026 39.0558 40.5881 39.4757 40.5496L25.061 29.6411M25.0375 29.5491L25.061 29.6411M25.0375 29.5491C25.0374 29.5491 25.0374 29.5491 25.0374 29.5491L25.061 29.6411M25.0375 29.5491C25.111 29.5302 25.1875 29.5261 25.2626 29.537C25.3377 29.5478 25.4099 29.5735 25.475 29.6125C25.5402 29.6515 25.5969 29.703 25.642 29.764C25.6871 29.825 25.7196 29.8943 25.7377 29.9679M25.061 29.6411C25.1224 29.6253 25.1862 29.6219 25.2489 29.631C25.3116 29.64 25.3719 29.6615 25.4263 29.694C25.4806 29.7265 25.528 29.7695 25.5656 29.8205C25.6033 29.8714 25.6304 29.9293 25.6455 29.9909M25.7377 29.9679C25.7377 29.9679 25.7377 29.9678 25.7377 29.9677L25.6455 29.9909M25.7377 29.9679C25.7378 29.968 25.7378 29.9681 25.7378 29.9682L25.6455 29.9909M35.9754 28.793C38.8501 31.6678 40.2396 35.6397 39.9138 40.0141C39.9048 40.1288 39.8549 40.2365 39.7731 40.3174C39.6912 40.3984 39.583 40.4472 39.4682 40.4549L35.9754 28.793Z" fill="#636972" stroke="#636972" stroke-width="0.19"/>
  <path d="M28.9844 24.4135L28.9844 24.4135C28.9655 24.3399 28.9613 24.2634 28.9722 24.1883C28.9831 24.1131 29.0088 24.0409 29.0478 23.9758C29.0867 23.9107 29.1382 23.8539 29.1993 23.8088C29.2604 23.7637 29.3298 23.7311 29.4035 23.713L29.4036 23.713C31.5998 23.1771 33.6084 22.0529 35.2135 20.4612C36.4934 19.1487 37.4813 17.5804 38.1124 15.8592C38.7339 14.1641 38.9956 12.3586 38.8811 10.5575C32.4935 10.2756 27.2385 14.0411 25.738 20.0289L25.7379 20.0294C25.7192 20.1026 25.6862 20.1714 25.6408 20.2318C25.5954 20.2922 25.5386 20.3431 25.4735 20.3815C25.4084 20.4199 25.3364 20.4451 25.2616 20.4556C25.1868 20.4661 25.1106 20.4618 25.0375 20.4428M28.9844 24.4135L24.7164 19.7711L24.6242 19.7481C24.6242 19.7481 24.6242 19.7481 24.6242 19.7482C24.5876 19.895 24.6105 20.0504 24.6879 20.1805C24.7653 20.3106 24.8909 20.4049 25.0375 20.4428M28.9844 24.4135C29.0169 24.5398 29.0915 24.6513 29.1959 24.7296C29.2998 24.8075 29.4271 24.8479 29.557 24.8442M28.9844 24.4135L29.557 24.8442M25.0375 20.4428L25.0613 20.3508L25.0376 20.4428C25.0375 20.4428 25.0375 20.4428 25.0375 20.4428ZM29.557 24.8442C29.5565 24.8442 29.5559 24.8442 29.5554 24.8442L29.5555 24.7492L29.5585 24.8441L29.557 24.8442ZM40.0088 9.97028L39.9141 9.97785L40.0088 9.97046C40.0088 9.9704 40.0088 9.97034 40.0088 9.97028Z" fill="#636972" stroke="#636972" stroke-width="0.19"/>
  <path d="M8.89694 40.0213L8.89693 40.0211C8.3571 32.825 12.4997 26.8346 19.2027 25.1649L19.2257 25.2571M8.89694 40.0213L19.6397 25.2285C19.5746 25.1895 19.5024 25.1638 19.4272 25.1529C19.3521 25.1421 19.2756 25.1462 19.202 25.1651L19.2257 25.2571M8.89694 40.0213C8.90749 40.1579 8.96653 40.2862 9.06339 40.3831C9.15984 40.4795 9.28746 40.5385 9.42338 40.5494M8.89694 40.0213L9.42338 40.5494M19.2257 25.2571C19.287 25.2413 19.3509 25.2379 19.4136 25.247C19.4763 25.256 19.5366 25.2775 19.5909 25.31M19.2257 25.2571C12.5707 26.9148 8.45504 32.8607 8.99166 40.014C9.00047 40.128 9.04973 40.2351 9.13057 40.3159C9.2114 40.3967 9.31847 40.446 9.43245 40.4548L19.5909 25.31M19.5909 25.31C19.6453 25.3425 19.6927 25.3855 19.7303 25.4365C19.7679 25.4874 19.7951 25.5453 19.8102 25.6068L19.5909 25.31ZM9.42338 40.5494C9.84979 40.5977 10.2706 40.5977 10.6805 40.5977H10.6822C12.5403 40.6283 14.3857 40.2874 16.1103 39.5949C17.835 38.9023 19.404 37.8721 20.7251 36.5648L20.7257 36.5642C22.4619 34.816 23.6923 32.6303 24.2863 30.2391C24.2863 30.2391 24.2863 30.2392 24.2863 30.2392L9.42338 40.5494Z" fill="#636972" stroke="#636972" stroke-width="0.19"/>
</svg>
