<svg width="31" height="32" viewBox="0 0 31 32" fill="none" xmlns="http://www.w3.org/2000/svg">
<path d="M15.5 32C24.0604 32 31 24.8366 31 16C31 7.16344 24.0604 0 15.5 0C6.93959 0 0 7.16344 0 16C0 24.8366 6.93959 32 15.5 32Z" fill="#384182"/>
<path fill-rule="evenodd" clip-rule="evenodd" d="M9.20312 27L12.7081 10.211L14.6746 22.811L9.20312 27ZM12.7759 10.115L18.1011 22.824L14.7657 22.764L12.7759 10.114V10.115ZM12.8553 10.019L19.8303 11.042L18.2144 22.824L12.8553 10.019ZM18.3384 22.643L19.9107 11.15L20.9395 12.498L18.3384 22.643ZM19.808 10.933L13.0016 9.934L19.1299 7.852L19.808 10.933ZM12.9687 9.826L17.1401 6.841L19.1299 7.744L12.9687 9.826ZM12.866 9.79L13.67 8.201L17.0723 6.793L12.866 9.79ZM13.67 8.13L14.0537 6.89L16.8572 6.793L13.67 8.129V8.13ZM14.0314 6.793L14.9352 5.794L16.8805 6.697L14.0314 6.793ZM14.9924 5.734L16.3486 5.048L18.1021 7.166L14.9924 5.734ZM16.5414 5.132L18.5651 6.047L18.2028 7.178L16.5414 5.132ZM18.2706 7.214L18.6436 6.059L19.096 7.648L18.2706 7.214ZM16.3942 5H17.8754L18.6087 5.842C18.6155 5.85013 18.6195 5.86038 18.62 5.8711C18.6205 5.88183 18.6175 5.89242 18.6114 5.90117C18.6054 5.90993 18.5967 5.91634 18.5867 5.91939C18.5768 5.92244 18.5661 5.92195 18.5564 5.918L16.3942 5ZM18.7347 5.963L21.7475 6.831C21.7627 6.83478 21.7762 6.84375 21.7859 6.85644C21.7956 6.86914 21.8009 6.88484 21.8009 6.901C21.8009 6.91716 21.7956 6.93286 21.7859 6.94556C21.7762 6.95825 21.7627 6.96722 21.7475 6.971L19.1871 7.696L18.7347 5.963Z" fill="white"/>
</svg>
