<svg width="43" height="44" viewBox="0 0 43 44" fill="none" xmlns="http://www.w3.org/2000/svg">
<path d="M21.6122 14.5C20.1288 14.5 18.6788 14.9399 17.4454 15.764C16.212 16.5881 15.2508 17.7594 14.6831 19.1299C14.1154 20.5003 13.9669 22.0083 14.2563 23.4632C14.5457 24.918 15.26 26.2544 16.3089 27.3033C17.3578 28.3522 18.6942 29.0665 20.149 29.3559C21.6039 29.6453 23.1119 29.4968 24.4823 28.9291C25.8528 28.3614 27.0241 27.4001 27.8482 26.1668C28.6723 24.9334 29.1122 23.4834 29.1122 22C29.1063 20.0127 28.3142 18.1085 26.9089 16.7033C25.5037 15.298 23.5995 14.5059 21.6122 14.5ZM37.8047 22C37.8008 22.7008 37.7494 23.4005 37.6509 24.0944L42.2156 27.6681C42.4144 27.8323 42.5484 28.0618 42.5936 28.3156C42.6387 28.5695 42.5922 28.8311 42.4622 29.0537L38.1441 36.5088C38.0128 36.7294 37.8079 36.8968 37.5654 36.9813C37.323 37.0658 37.0585 37.0622 36.8184 36.9709L31.4513 34.8147C30.3336 35.6753 29.1106 36.3895 27.8119 36.94L27.0094 42.6381C26.9645 42.8934 26.8323 43.1251 26.6355 43.2937C26.4387 43.4623 26.1894 43.5573 25.9303 43.5625H17.2941C17.0397 43.5575 16.7945 43.4665 16.5985 43.3042C16.4025 43.142 16.2673 42.9181 16.215 42.6691L15.4125 36.9709C14.1102 36.4268 12.8863 35.7115 11.7731 34.8438L6.40594 37C6.16603 37.0913 5.90159 37.0951 5.65914 37.0108C5.41668 36.9264 5.21173 36.7593 5.08032 36.5387L0.762194 29.0847C0.632217 28.862 0.585652 28.6004 0.63082 28.3466C0.675989 28.0927 0.809947 27.8632 1.00876 27.6991L5.57344 24.1253C5.47608 23.421 5.42472 22.711 5.41969 22C5.42359 21.2992 5.47496 20.5995 5.57344 19.9056L1.00876 16.3319C0.809947 16.1677 0.675989 15.9382 0.63082 15.6844C0.585652 15.4305 0.632217 15.1689 0.762194 14.9462L5.08032 7.49125C5.21159 7.27056 5.41648 7.10322 5.65894 7.01869C5.90141 6.93415 6.16592 6.93782 6.40594 7.02906L11.7731 9.18531C12.8907 8.3247 14.1138 7.61047 15.4125 7.06L16.215 1.36188C16.2599 1.10664 16.3921 0.874923 16.5889 0.706323C16.7857 0.537722 17.035 0.442702 17.2941 0.4375H25.9303C26.1847 0.442451 26.4299 0.533492 26.6259 0.695759C26.8219 0.858027 26.9571 1.08194 27.0094 1.33094L27.8119 7.02906C29.1158 7.57278 30.3413 8.28817 31.4559 9.15625L36.8184 7C37.0584 6.90868 37.3228 6.90486 37.5653 6.98922C37.8077 7.07359 38.0127 7.24072 38.1441 7.46125L42.4622 14.9163C42.5922 15.1389 42.6387 15.4005 42.5936 15.6544C42.5484 15.9082 42.4144 16.1377 42.2156 16.3019L37.6509 19.8756C37.7483 20.5797 37.7996 21.2893 37.8047 22Z" fill="#006837"/>
</svg>
