<svg width="32" height="32" viewBox="0 0 32 32" fill="none" xmlns="http://www.w3.org/2000/svg">
<rect width="32" height="32" rx="16" fill="#80B496"/>
<path d="M16.2622 13.3462C15.715 13.2921 15.1646 13.4085 14.6861 13.6794C14.2077 13.9503 13.8247 14.3625 13.5896 14.8595C13.3545 15.3564 13.2787 15.9139 13.3726 16.4556C13.4666 16.9974 13.7257 17.4968 14.1145 17.8855C14.5032 18.2743 15.0026 18.5334 15.5444 18.6274C16.0861 18.7213 16.6436 18.6455 17.1405 18.4104C17.6375 18.1753 18.0497 17.7923 18.3206 17.3139C18.5915 16.8354 18.7079 16.285 18.6538 15.7378C18.5922 15.1245 18.3205 14.5513 17.8846 14.1154C17.4487 13.6795 16.8755 13.4078 16.2622 13.3462V13.3462ZM22.683 15.9999C22.6813 16.2898 22.66 16.5792 22.6193 16.8662L24.503 18.3437C24.585 18.4117 24.6403 18.5065 24.659 18.6114C24.6777 18.7163 24.6586 18.8244 24.6051 18.9166L22.823 21.9999C22.7689 22.0912 22.6843 22.1604 22.5841 22.1954C22.484 22.2304 22.3747 22.2289 22.2755 22.1912L20.4047 21.4378C20.3015 21.3968 20.1898 21.3819 20.0794 21.3946C19.9691 21.4074 19.8637 21.4473 19.7726 21.5108C19.4871 21.7074 19.187 21.882 18.8751 22.0333C18.777 22.0809 18.6922 22.152 18.6281 22.2402C18.564 22.3284 18.5226 22.4311 18.5076 22.5391L18.2272 24.5345C18.2088 24.6399 18.1543 24.7356 18.0731 24.8053C17.992 24.875 17.8891 24.9143 17.7822 24.9166H14.218C14.1128 24.9148 14.0114 24.8772 13.9304 24.81C13.8494 24.7428 13.7938 24.6501 13.7726 24.547L13.4926 22.5545C13.4769 22.4453 13.4344 22.3417 13.369 22.2529C13.3036 22.164 13.2172 22.0927 13.1176 22.0453C12.806 21.8949 12.507 21.7198 12.2234 21.5216C12.1326 21.4584 12.0275 21.4188 11.9176 21.4064C11.8077 21.3939 11.6964 21.4091 11.5938 21.4503L9.72342 22.2033C9.6243 22.241 9.51503 22.2426 9.41488 22.2076C9.31472 22.1727 9.2301 22.1036 9.17592 22.0124L7.39383 18.9291C7.34026 18.837 7.32111 18.7288 7.3398 18.6239C7.3585 18.519 7.41382 18.4241 7.49592 18.3562L9.088 17.1062C9.17522 17.0369 9.24378 16.947 9.28743 16.8446C9.33109 16.7421 9.34847 16.6304 9.338 16.5195C9.323 16.3458 9.31383 16.1724 9.31383 15.9987C9.31383 15.8249 9.32258 15.6541 9.338 15.4841C9.34733 15.3739 9.32909 15.2631 9.28494 15.1617C9.24079 15.0603 9.17211 14.9715 9.08508 14.9033L7.49383 13.6533C7.41307 13.585 7.35891 13.4904 7.34086 13.3862C7.3228 13.282 7.342 13.1747 7.39508 13.0833L9.17717 9.99992C9.23129 9.90866 9.31588 9.83944 9.41604 9.80446C9.5162 9.76947 9.6255 9.77096 9.72467 9.80867L11.5955 10.562C11.6987 10.6031 11.8104 10.6179 11.9207 10.6052C12.031 10.5925 12.1365 10.5526 12.2276 10.4891C12.5131 10.2925 12.8131 10.1178 13.1251 9.96659C13.2232 9.91892 13.308 9.84784 13.3721 9.75962C13.4362 9.6714 13.4776 9.56876 13.4926 9.46075L13.773 7.46534C13.7914 7.35995 13.8459 7.26424 13.927 7.19455C14.0082 7.12486 14.111 7.08552 14.218 7.08325H17.7822C17.8874 7.08507 17.9888 7.12267 18.0698 7.18985C18.1507 7.25703 18.2064 7.34979 18.2276 7.45284L18.5076 9.44534C18.5233 9.55453 18.5658 9.65815 18.6312 9.74698C18.6966 9.8358 18.783 9.90709 18.8826 9.9545C19.1942 10.1049 19.4932 10.28 19.7768 10.4783C19.8675 10.5414 19.9726 10.581 20.0825 10.5935C20.1924 10.6059 20.3037 10.5908 20.4063 10.5495L22.2768 9.79659C22.3759 9.75884 22.4851 9.75728 22.5853 9.79219C22.6854 9.8271 22.7701 9.89624 22.8243 9.98742L24.6063 13.0708C24.6599 13.1629 24.6791 13.271 24.6604 13.3759C24.6417 13.4808 24.5863 13.5757 24.5043 13.6437L22.9122 14.8937C22.8246 14.9627 22.7556 15.0525 22.7116 15.155C22.6676 15.2574 22.6499 15.3693 22.6601 15.4803C22.6738 15.6528 22.683 15.8262 22.683 15.9999Z" stroke="#003E2F" stroke-width="1.39583" stroke-linecap="round" stroke-linejoin="round"/>
</svg>
