<svg width="72" height="82" viewBox="0 0 72 82" fill="none" xmlns="http://www.w3.org/2000/svg">
<path d="M16.6679 50.9984H12.0739C10.2619 50.9984 8.67591 52.2164 8.20891 53.9674L1.67191 78.4824C1.33291 79.7524 2.28991 80.9984 3.60391 80.9984H68.3979C69.7119 80.9984 70.6689 79.7524 70.3299 78.4834L63.7929 53.9684C63.3259 52.2164 61.7399 50.9984 59.9279 50.9984H55.4379" fill="#9F9F9F"/>
<path d="M68.3979 81.9984H3.60393C2.66493 81.9984 1.79693 81.5714 1.22393 80.8264C0.651925 80.0814 0.462926 79.1334 0.704926 78.2254L7.24293 53.7104C7.82593 51.5254 9.81193 49.9984 12.0739 49.9984H16.6679V51.9984H12.0739C10.7179 51.9984 9.52493 52.9144 9.17593 54.2254L2.63792 78.7404C2.55792 79.0434 2.61993 79.3594 2.81193 79.6074C3.00193 79.8564 3.29093 79.9984 3.60393 79.9984H68.3979C68.7109 79.9984 68.9999 79.8554 69.1899 79.6074C69.3809 79.3584 69.4439 79.0434 69.3639 78.7404L62.8269 54.2254C62.4769 52.9144 61.2849 51.9984 59.9269 51.9984H55.4379V49.9984H59.9269C62.1889 49.9984 64.1759 51.5244 64.7579 53.7094L71.2949 78.2244C71.5369 79.1324 71.3489 80.0804 70.7749 80.8254C70.2039 81.5714 69.3379 81.9984 68.3979 81.9984Z" fill="#1F212B"/>
<path d="M58.4199 61.1034L40.6689 4.14337C40.2539 2.81137 39.1739 1.56037 37.8199 1.22237C36.6259 0.92337 35.3749 0.92337 34.1809 1.22237C32.8269 1.56037 31.7459 2.81137 31.3309 4.14337L13.5799 61.1034C13.1799 62.4084 13.4599 63.8304 14.3519 64.8634C16.8519 67.7564 23.1499 72.9984 36.0009 72.9984C48.8519 72.9984 55.1499 67.7564 57.6489 64.8634C58.5409 63.8304 58.8199 62.4084 58.4199 61.1034Z" fill="#9F9F9F"/>
<path d="M36.0009 73.9984C22.8779 73.9984 16.3309 68.6844 13.5969 65.5164C12.4819 64.2244 12.1179 62.4654 12.6259 60.8094L30.3779 3.84637C30.9339 2.06437 32.3309 0.654375 33.9399 0.252375C35.2899 -0.0836248 36.7149 -0.0846249 38.0629 0.252375C39.6719 0.655375 41.0709 2.06538 41.6259 3.84738L59.3779 60.8114C59.8849 62.4674 59.5219 64.2274 58.4059 65.5174C55.6709 68.6844 49.1239 73.9984 36.0009 73.9984ZM36.0009 1.99938C35.4709 1.99938 34.9399 2.06338 34.4249 2.19238C33.5079 2.42138 32.6289 3.34638 32.2879 4.44138L14.5369 61.4014C14.2329 62.3904 14.4469 63.4424 15.1099 64.2104C17.6219 67.1184 23.6749 71.9984 36.0009 71.9984C48.3269 71.9984 54.3799 67.1184 56.8919 64.2094C57.5549 63.4424 57.7689 62.3914 57.4649 61.3974L39.7149 4.44038C39.3739 3.34538 38.4959 2.42038 37.5789 2.19138C37.0619 2.06438 36.5309 1.99938 36.0009 1.99938Z" fill="#1F212B"/>
<path d="M47.8509 27.1884C44.7209 28.2584 40.8209 28.9984 36.0009 28.9984C31.1809 28.9984 27.2809 28.2584 24.1509 27.1884L28.4709 13.3284C30.6909 13.7484 33.1909 13.9984 36.0009 13.9984C38.8109 13.9984 41.3109 13.7484 43.5309 13.3284L47.8509 27.1884Z" fill="white"/>
<path d="M42.8379 14.4664L46.6019 26.5414C43.4219 27.5084 39.8619 27.9984 36.0009 27.9984C32.1399 27.9984 28.5799 27.5084 25.3999 26.5414L29.1639 14.4664C31.3229 14.8194 33.6179 14.9984 36.0009 14.9984C38.3839 14.9984 40.6789 14.8194 42.8379 14.4664ZM43.5309 13.3284C41.3109 13.7484 38.8109 13.9984 36.0009 13.9984C33.1909 13.9984 30.6909 13.7484 28.4709 13.3284L24.1509 27.1884C27.2809 28.2584 31.1809 28.9984 36.0009 28.9984C40.8209 28.9984 44.7209 28.2584 47.8509 27.1884L43.5309 13.3284Z" fill="#1F212B"/>
<path d="M56.2909 54.2684C53.1609 57.1884 46.9609 60.9984 36.0009 60.9984C25.0409 60.9984 18.8409 57.1884 15.7109 54.2684L19.5109 42.0684C23.1009 44.1684 28.4009 45.9984 36.0009 45.9984C43.6009 45.9984 48.9009 44.1684 52.4909 42.0684L56.2909 54.2684Z" fill="white"/>
<path d="M51.9009 43.5364L55.1459 53.9544C51.8799 56.8064 45.9909 59.9984 36.0009 59.9984C26.0109 59.9984 20.1219 56.8064 16.8559 53.9544L20.1009 43.5364C24.5129 45.8344 29.8549 46.9984 36.0009 46.9984C42.1469 46.9984 47.4889 45.8344 51.9009 43.5364ZM52.4909 42.0684C48.9009 44.1684 43.6009 45.9984 36.0009 45.9984C28.4009 45.9984 23.1009 44.1684 19.5109 42.0684L15.7109 54.2684C18.8409 57.1884 25.0409 60.9984 36.0009 60.9984C46.9609 60.9984 53.1609 57.1884 56.2909 54.2684L52.4909 42.0684Z" fill="#1F212B"/>
<path d="M48.6339 41.9644C48.4209 41.9644 48.2239 41.8274 48.1559 41.6134L43.1829 25.6554C43.1009 25.3914 43.2479 25.1114 43.5119 25.0294C43.7769 24.9504 44.0559 25.0954 44.1379 25.3584L49.1109 41.3164C49.1929 41.5804 49.0459 41.8604 48.7819 41.9424C48.7339 41.9574 48.6829 41.9644 48.6339 41.9644Z" fill="#1F212B"/>
<path d="M42.7199 22.9884C42.5069 22.9884 42.3089 22.8514 42.2419 22.6364L41.3169 19.6664C41.2349 19.4034 41.3819 19.1224 41.6459 19.0404C41.9109 18.9614 42.1909 19.1064 42.2719 19.3694L43.1969 22.3394C43.2789 22.6024 43.1319 22.8834 42.8679 22.9654C42.8199 22.9814 42.7689 22.9884 42.7199 22.9884Z" fill="#1F212B"/>
<path d="M40.8589 17.0134C40.6459 17.0134 40.4489 16.8764 40.3809 16.6624L36.9109 5.52737C36.8289 5.26337 36.9759 4.98337 37.2399 4.90137C37.5039 4.82137 37.7839 4.96737 37.8659 5.23037L41.3359 16.3654C41.4179 16.6294 41.2709 16.9094 41.0069 16.9914C40.9589 17.0064 40.9079 17.0134 40.8589 17.0134Z" fill="#1F212B"/>
<path d="M65.144 77.9984H45.563C45.287 77.9984 45.063 77.7744 45.063 77.4984C45.063 77.2224 45.287 76.9984 45.563 76.9984H65.144C65.3 76.9984 65.445 76.9274 65.54 76.8034C65.636 76.6794 65.668 76.5214 65.627 76.3694L63.221 67.6594C63.148 67.3934 63.304 67.1174 63.571 67.0444C63.835 66.9714 64.113 67.1274 64.186 67.3934L66.593 76.1084C66.715 76.5664 66.619 77.0414 66.333 77.4134C66.047 77.7854 65.613 77.9984 65.144 77.9984Z" fill="#1F212B"/>
<path d="M62.996 65.0624C62.774 65.0624 62.572 64.9154 62.513 64.6914L61.697 61.6284C61.626 61.3614 61.785 61.0874 62.051 61.0164C62.322 60.9444 62.592 61.1044 62.663 61.3704L63.479 64.4334C63.55 64.7004 63.391 64.9744 63.125 65.0454C63.082 65.0564 63.038 65.0624 62.996 65.0624Z" fill="#1F212B"/>
<path d="M61.639 59.9744C61.417 59.9744 61.215 59.8274 61.156 59.6034L60.762 58.1274C60.691 57.8604 60.85 57.5864 61.116 57.5154C61.386 57.4414 61.657 57.6034 61.728 57.8694L62.122 59.3454C62.193 59.6124 62.034 59.8864 61.768 59.9574C61.725 59.9684 61.681 59.9744 61.639 59.9744Z" fill="#1F212B"/>
<path d="M10.5011 77.9984H6.53205C6.25605 77.9984 6.03205 77.7744 6.03205 77.4984C6.03205 77.2224 6.25605 76.9984 6.53205 76.9984H10.5011C10.7771 76.9984 11.0011 77.2224 11.0011 77.4984C11.0011 77.7744 10.7771 77.9984 10.5011 77.9984Z" fill="#1F212B"/>
<path d="M25.532 77.9984H13.532C13.256 77.9984 13.032 77.7744 13.032 77.4984C13.032 77.2224 13.256 76.9984 13.532 76.9984H25.532C25.808 76.9984 26.032 77.2224 26.032 77.4984C26.032 77.7744 25.808 77.9984 25.532 77.9984Z" fill="#1F212B"/>
</svg>
