<svg width="3" height="14" viewBox="0 0 3 14" fill="none" xmlns="http://www.w3.org/2000/svg">
<path d="M2.8 1.36111C2.8 0.609408 2.17319 0 1.4 0C0.626818 0 0 0.609408 0 1.36111C0 2.11283 0.626818 2.72222 1.4 2.72222C2.17319 2.72222 2.8 2.11283 2.8 1.36111ZM2.8 7C2.8 6.24829 2.17319 5.63889 1.4 5.63889C0.626818 5.63889 0 6.24829 0 7C0 7.75172 0.626818 8.36111 1.4 8.36111C2.17319 8.36111 2.8 7.75172 2.8 7ZM2.8 12.6389C2.8 11.8872 2.17319 11.2778 1.4 11.2778C0.626818 11.2778 0 11.8872 0 12.6389C0 13.3906 0.626818 14 1.4 14C2.17319 14 2.8 13.3906 2.8 12.6389Z" fill="#828282"/>
</svg>
