<svg width="93" height="93" viewBox="0 0 93 93" fill="none" xmlns="http://www.w3.org/2000/svg">
<path d="M35.2306 23.5613L35.2455 23.5638L35.4057 23.5638L35.4066 23.383V23.5638H35.4062C35.6645 23.5649 35.9148 23.4744 36.1128 23.3085C36.3107 23.1425 36.4435 22.9119 36.4875 22.6574C37.8006 15.3287 41.367 8.59367 46.6876 3.38962C51.9981 8.59715 55.5547 15.3315 56.8604 22.6567C56.8841 22.7994 56.9357 22.9362 57.0121 23.0591C57.0887 23.1823 57.1889 23.2893 57.3068 23.3738C57.4248 23.4584 57.5582 23.5189 57.6996 23.5518C57.8409 23.5848 57.9873 23.5896 58.1305 23.566C58.2737 23.5423 58.4109 23.4907 58.5341 23.4141C58.6574 23.3375 58.7643 23.2373 58.8489 23.1194C58.9334 23.0014 58.9939 22.868 59.0269 22.7266C59.0598 22.5853 59.0646 22.4389 59.041 22.2957L59.0408 22.2947C57.646 14.1123 53.5402 6.63667 47.3835 1.06962L47.3837 1.06942L47.3762 1.06331C47.1815 0.905371 46.9384 0.819174 46.6877 0.819174C46.437 0.819174 46.1939 0.905371 45.9992 1.06331L45.9991 1.06311L45.9919 1.06962C39.8334 6.63904 35.7274 14.1182 34.3346 22.3039L34.3345 22.3046C34.287 22.59 34.3547 22.8826 34.5227 23.1182C34.6907 23.3538 34.9452 23.5131 35.2306 23.5613Z" fill="#8CC63F" stroke="#8CC63F" stroke-width="0.361652"/>
<path d="M45.9919 92.1157L45.9918 92.1158L45.9978 92.1208C46.1912 92.281 46.4339 92.3698 46.685 92.3721C46.9474 92.3775 47.203 92.2883 47.405 92.1208L47.4052 92.1209L47.4109 92.1157C53.5676 86.5486 57.6734 79.073 59.0682 70.8906L59.0684 70.8896C59.1161 70.6004 59.047 70.3041 58.8762 70.0659C58.7055 69.8277 58.4471 69.667 58.1579 69.6193C57.8687 69.5716 57.5724 69.6407 57.3342 69.8115C57.0963 69.982 56.9358 70.2398 56.8878 70.5285C55.5746 77.8571 52.0082 84.5919 46.6877 89.7958C41.3671 84.5918 37.8007 77.8569 36.4876 70.5282C36.4392 70.2433 36.28 69.9891 36.0446 69.8213C35.809 69.6533 35.5164 69.5856 35.231 69.633L35.2306 69.6331C34.9452 69.6813 34.6907 69.8406 34.5227 70.0762C34.3547 70.3118 34.287 70.6044 34.3345 70.8898L34.3345 70.8898L34.3346 70.8906C35.7294 79.073 39.8352 86.5486 45.9919 92.1157Z" fill="#8CC63F" stroke="#8CC63F" stroke-width="0.361652"/>
<path d="M70.824 58.9659L70.824 58.9661L70.8311 58.9652L70.9771 58.9469L70.9771 58.9471L70.985 58.9458C79.1674 57.551 86.6431 53.4451 92.2101 47.2884L92.2103 47.2886L92.2164 47.2811C92.3743 47.0864 92.4606 46.8433 92.4606 46.5926C92.4606 46.3419 92.3743 46.0988 92.2164 45.9042L92.2166 45.904L92.2101 45.8968C86.6431 39.7401 79.1674 35.6343 70.985 34.2395L70.985 34.2395L70.9843 34.2394C70.6988 34.1919 70.4062 34.2596 70.1707 34.4276C69.9351 34.5956 69.7757 34.8501 69.7275 35.1355L69.7275 35.1355L69.7275 35.1359C69.68 35.4213 69.7477 35.7139 69.9157 35.9495C70.0835 36.1849 70.3377 36.3441 70.6226 36.3925C77.9513 37.7056 84.6862 41.272 89.8902 46.5926C84.6867 51.9081 77.9545 55.4707 70.6297 56.7824C70.3433 56.809 70.0788 56.9471 69.8933 57.1671C69.7059 57.3894 69.6144 57.6769 69.639 57.9666C69.6637 58.2563 69.8023 58.5243 70.0246 58.7117C70.2468 58.8991 70.5344 58.9905 70.824 58.9659Z" fill="#8CC63F" stroke="#8CC63F" stroke-width="0.361652"/>
<path d="M22.3889 58.964L22.404 58.9666H22.4193H22.4503L22.5499 58.975C22.6934 58.9872 22.8378 58.971 22.975 58.9274C23.1121 58.8838 23.2394 58.8136 23.3494 58.7208C23.4594 58.628 23.5501 58.5144 23.6163 58.3866C23.6824 58.2587 23.7227 58.1191 23.7349 57.9757C23.7471 57.8323 23.7309 57.6879 23.6873 57.5507L23.515 57.6055L23.6873 57.5507C23.6437 57.4135 23.5735 57.2863 23.4807 57.1763C23.3879 57.0662 23.2743 56.9755 23.1465 56.9094C23.0212 56.8446 22.8847 56.8046 22.7443 56.7915C15.4185 55.4774 8.68618 51.9116 3.48386 46.5928C8.6914 41.2823 15.4258 37.7256 22.751 36.4199C23.0397 36.3719 23.2976 36.2114 23.4681 35.9735C23.6388 35.7353 23.7079 35.439 23.6602 35.1498C23.6125 34.8606 23.4519 34.6022 23.2136 34.4315C22.9754 34.2607 22.6791 34.1916 22.3899 34.2393L22.389 34.2395C14.2066 35.6343 6.7309 39.7401 1.16385 45.8968L1.16366 45.8966L1.15755 45.9041C0.99961 46.0988 0.913412 46.3419 0.913412 46.5926C0.913412 46.8433 0.99961 47.0864 1.15755 47.2811L1.15735 47.2812L1.16376 47.2883C6.72809 53.4518 14.2041 57.5642 22.3889 58.964Z" fill="#8CC63F" stroke="#8CC63F" stroke-width="0.361652"/>
<path d="M66.7566 19.7605H66.7491H66.6396H66.6295L66.6194 19.7594C66.4754 19.7431 66.3362 19.6985 66.2097 19.628C66.0832 19.5574 65.9719 19.4625 65.8825 19.3486C65.793 19.2347 65.727 19.1042 65.6884 18.9646C65.65 18.8254 65.6395 18.6799 65.6576 18.5366C66.1844 13.9139 64.1295 8.75841 63.2242 6.78896C56.911 8.93379 54.7958 11.4481 54.7091 11.5511C54.7071 11.5536 54.7061 11.5546 54.7064 11.5543L54.7009 11.5625L54.7007 11.5623C54.5244 11.7978 54.2618 11.9537 53.9706 11.9956C53.6794 12.0375 53.3835 11.962 53.148 11.7857C52.9125 11.6094 52.7566 11.3468 52.7148 11.0556C52.6729 10.7644 52.7484 10.4685 52.9246 10.233L52.9272 10.2296L52.9272 10.2296C53.0499 10.0735 55.561 6.8785 63.43 4.41427L66.7566 19.7605ZM66.7566 19.7605L66.7641 19.7599M66.7566 19.7605L66.7641 19.7599M66.7641 19.7599C67.0153 19.7389 67.2516 19.6317 67.4329 19.4564C67.614 19.2812 67.7291 19.0488 67.7585 18.7984L66.7641 19.7599ZM64.7195 4.93881L64.72 4.9397C64.8004 5.09106 65.754 6.90477 66.5906 9.50278C67.4264 12.0983 68.1505 15.492 67.7586 18.7982L64.7195 4.93881ZM64.7195 4.93881C64.5991 4.71511 64.4044 4.54037 64.1691 4.44464C63.9338 4.34892 63.6725 4.33817 63.4301 4.41423L64.7195 4.93881Z" fill="#8CC63F" stroke="#8CC63F" stroke-width="0.361652"/>
<path d="M26.6245 19.7605L26.6245 19.7607L26.6322 19.7603L26.8146 19.7512L26.8146 19.7515L26.8261 19.7502C26.969 19.7339 27.1072 19.6896 27.2329 19.6198C27.3587 19.55 27.4694 19.456 27.5587 19.3433C27.648 19.2307 27.7143 19.1014 27.7536 18.9631C27.7929 18.8248 27.8045 18.68 27.7877 18.5372L27.7877 18.5366C27.2253 13.8705 29.2786 8.73174 30.1837 6.78868C33.3761 7.87315 35.5053 9.05353 36.8375 9.9694C37.5142 10.4347 37.9853 10.8317 38.2857 11.1132C38.436 11.2541 38.5431 11.3657 38.6117 11.4421C38.6376 11.471 38.6575 11.4943 38.672 11.5119V11.5154L38.7093 11.5641C38.7969 11.6781 38.906 11.7738 39.0305 11.8457C39.155 11.9176 39.2924 11.9642 39.4349 11.983C39.5774 12.0017 39.7223 11.9923 39.8611 11.9551C40 11.9178 40.1302 11.8537 40.2442 11.7662C40.3583 11.6786 40.454 11.5695 40.5258 11.445C40.5977 11.3205 40.6444 11.1831 40.6631 11.0406C40.6819 10.898 40.6724 10.7532 40.6352 10.6144C40.598 10.4755 40.5338 10.3453 40.4463 10.2313L40.4372 10.2194L40.4268 10.2097C40.4275 10.2103 40.425 10.2079 40.4168 10.1988L40.3838 10.1621C40.3559 10.131 40.3176 10.0882 40.2683 10.0351C40.1696 9.92873 40.0279 9.78182 39.8372 9.60182C39.4557 9.24184 38.8794 8.75062 38.0604 8.18718C36.4224 7.06023 33.8158 5.64584 29.8599 4.41419C29.6176 4.33818 29.3563 4.34894 29.1211 4.44464C28.8857 4.54037 28.6911 4.71511 28.5707 4.93881L28.5702 4.93971C28.4898 5.09106 27.5362 6.90477 26.6996 9.50278C25.8638 12.0984 25.1397 15.4921 25.5317 18.7984L25.5317 18.7988C25.5639 19.0654 25.6931 19.3107 25.8947 19.4881C26.0962 19.6655 26.356 19.7624 26.6245 19.7605Z" fill="#8CC63F" stroke="#8CC63F" stroke-width="0.361652"/>
<path d="M63.4676 88.8074L63.4812 88.8117L63.4953 88.8138C63.6003 88.8297 63.707 88.8303 63.8121 88.8154C63.9992 88.8084 64.1814 88.7534 64.3412 88.6556C64.5042 88.5559 64.6382 88.4152 64.7298 88.2475L64.7309 88.2456C64.8113 88.0943 65.7649 86.2806 66.6014 83.6826C67.4373 81.087 68.1613 77.6932 67.7694 74.3869L67.7694 74.3867C67.7346 74.0972 67.5863 73.8333 67.357 73.6532C67.1278 73.4731 66.8364 73.3914 66.5469 73.4261C66.2574 73.4609 65.9935 73.6092 65.8134 73.8384L65.9556 73.9502L65.8134 73.8384C65.6333 74.0677 65.5516 74.3591 65.5863 74.6486L65.5863 74.6487C66.1492 79.3186 64.1351 84.462 63.1931 86.3976C59.999 85.3129 57.869 84.1343 56.5364 83.2193C55.8597 82.7546 55.3887 82.3579 55.0884 82.076C54.9382 81.935 54.8312 81.8232 54.7628 81.7463C54.7364 81.7168 54.7164 81.693 54.702 81.6752V81.67L54.6647 81.6213C54.5772 81.5072 54.468 81.4115 54.3435 81.3397L54.2655 81.4749L54.3435 81.3397C54.219 81.2678 54.0816 81.2211 53.9391 81.2024C53.7966 81.1836 53.6517 81.1931 53.5129 81.2303C53.374 81.2675 53.2438 81.3317 53.1298 81.4192C53.0157 81.5067 52.92 81.6158 52.8482 81.7403C52.7763 81.8648 52.7296 82.0022 52.7109 82.1448C52.6921 82.2873 52.7016 82.4321 52.7388 82.571C52.776 82.7098 52.8402 82.84 52.9277 82.9541L52.9368 82.966L52.9471 82.9755C52.9471 82.9756 52.9498 82.9784 52.9572 82.9865L52.9902 83.0232C53.018 83.0543 53.0563 83.0971 53.1056 83.1502C53.2041 83.2566 53.3456 83.4036 53.5359 83.5839C53.9165 83.9444 54.4913 84.4367 55.3074 85.0024C56.9395 86.1338 59.5346 87.5574 63.4676 88.8074Z" fill="#8CC63F" stroke="#8CC63F" stroke-width="0.361652"/>
<path d="M28.6171 88.2455L28.617 88.2455L28.6181 88.2475C28.7125 88.4199 28.8516 88.5637 29.0209 88.6638C29.1886 88.7629 29.3798 88.8153 29.5746 88.8157C29.6983 88.8219 29.8222 88.8071 29.9409 88.7717L29.9409 88.7718L29.9434 88.771C37.8125 86.3068 40.3237 83.1117 40.4463 82.9556L40.4463 82.9556L40.4486 82.9526C40.625 82.7184 40.7011 82.4237 40.6602 82.1334C40.6193 81.843 40.4647 81.5808 40.2305 81.4044C39.9963 81.228 39.7016 81.1519 39.4112 81.1928C39.1209 81.2337 38.8587 81.3882 38.6823 81.6225L38.682 81.6223L38.6763 81.6309C38.6765 81.6306 38.6756 81.6317 38.6735 81.6341C38.5869 81.7371 36.4716 84.2514 30.1584 86.3963C29.253 84.429 27.1991 79.3242 27.7616 74.6485L27.7616 74.6485C27.7788 74.5052 27.7676 74.3598 27.7286 74.2208C27.6897 74.0818 27.6237 73.9518 27.5345 73.8383C27.4453 73.7248 27.3346 73.63 27.2088 73.5592C27.0829 73.4885 26.9444 73.4432 26.8011 73.426C26.6577 73.4088 26.5124 73.42 26.3734 73.459C26.2344 73.4979 26.1044 73.5639 25.9909 73.6531C25.8774 73.7423 25.7825 73.853 25.7118 73.9788C25.641 74.1046 25.5958 74.2432 25.5786 74.3865L25.5785 74.3868C25.1866 77.6931 25.9107 81.0868 26.7465 83.6824C27.5831 86.2804 28.5366 88.0942 28.6171 88.2455Z" fill="#8CC63F" stroke="#8CC63F" stroke-width="0.361652"/>
<path d="M74.4824 67.7477L74.4824 67.7476C74.1929 67.7129 73.929 67.5646 73.7489 67.3353C73.5688 67.1061 73.4871 66.8146 73.5218 66.5251C73.5566 66.2357 73.7049 65.9718 73.9341 65.7917C74.1634 65.6116 74.4548 65.5299 74.7443 65.5646L74.7444 65.5646C79.4202 66.1271 84.5252 64.0731 86.4923 63.1677C85.3945 59.9223 84.2095 57.7975 83.2961 56.4812C82.8322 55.8128 82.4382 55.3525 82.1608 55.0596C82.022 54.9131 81.9124 54.8085 81.8377 54.7405C81.8004 54.7065 81.7717 54.6816 81.7523 54.6652L81.73 54.6464L81.7244 54.6417C81.4867 54.4673 81.3273 54.2061 81.2808 53.9148C81.2339 53.6212 81.3055 53.3209 81.48 53.0801C81.6545 52.8393 81.9175 52.6777 82.2111 52.6308C82.5047 52.5839 82.805 52.6556 83.0458 52.8301L83.0515 52.8342L83.0514 52.8343C83.2075 52.957 86.4025 55.4681 88.8668 63.3371L74.4824 67.7477ZM74.4824 67.7477L74.4875 67.7482M74.4824 67.7477L74.4875 67.7482M74.4875 67.7482C75.1242 67.8063 75.7637 67.8279 76.403 67.8128M74.4875 67.7482L76.403 67.8128M76.403 67.8128C79.3897 67.8124 82.3081 67.0582 84.5089 66.2853C86.6751 65.5245 88.1629 64.7395 88.3483 64.6233C88.5691 64.5026 88.7415 64.3094 88.8364 64.0762C88.9321 63.8409 88.9429 63.5796 88.8668 63.3372L76.403 67.8128Z" fill="#8CC63F" stroke="#8CC63F" stroke-width="0.361652"/>
<path d="M81.7694 38.5417C81.7872 38.5273 81.811 38.5073 81.8405 38.481C81.9173 38.4125 82.0292 38.3055 82.1702 38.1553C82.4521 37.855 82.8488 37.384 83.3135 36.7073C84.2282 35.3751 85.4064 33.2459 86.4909 30.0534C84.5478 29.1483 79.4091 27.095 74.7429 27.6574L74.7423 27.6574C74.5995 27.6742 74.4548 27.6626 74.3164 27.6233C74.1781 27.584 74.0489 27.5177 73.9362 27.4284C73.8235 27.3391 73.7295 27.2284 73.6597 27.1026C73.59 26.977 73.5457 26.8389 73.5293 26.6962C73.4955 26.4095 73.5765 26.1211 73.7545 25.8939C73.9327 25.6666 74.1935 25.5191 74.4801 25.4836L74.4811 25.4834L74.4811 25.4834C77.7874 25.0915 81.1812 25.8156 83.7768 26.6514C86.3748 27.488 88.1885 28.4416 88.3398 28.522L88.3407 28.5224C88.5644 28.6429 88.7392 28.8375 88.8349 29.0729C88.9306 29.3082 88.9414 29.5695 88.8653 29.8118C88.8653 29.8119 88.8653 29.8119 88.8653 29.8119L88.6927 29.7578C86.3857 37.125 83.4414 39.7577 82.9926 40.159C82.9642 40.1844 82.9458 40.2009 82.9382 40.209L81.7694 38.5417ZM81.7694 38.5417H81.7645L81.7159 38.5787C81.4857 38.7542 81.3346 39.0139 81.2957 39.3007C81.2568 39.5872 81.333 39.8774 81.5076 40.1078C81.6094 40.2435 81.7414 40.3537 81.8931 40.4295C82.0435 40.5047 82.2092 40.5442 82.3773 40.5449L81.7694 38.5417Z" fill="#8CC63F" stroke="#8CC63F" stroke-width="0.361652"/>
<path d="M16.979 67.8127L16.9764 67.8127C11.0952 67.8127 5.46611 64.8871 5.0524 64.6721C5.04637 64.6689 5.04145 64.6664 5.03766 64.6644L5.03499 64.663L5.035 64.663C4.81131 64.5426 4.63656 64.3479 4.54083 64.1126C4.4451 63.8773 4.43436 63.6159 4.51046 63.3735M16.979 67.8127L18.8733 67.4951C18.2442 67.577 17.6108 67.6227 16.9764 67.6319C11.1409 67.6319 5.54466 64.7241 5.13507 64.5112C5.12923 64.5082 5.12445 64.5057 5.12073 64.5038C4.93405 64.4033 4.78822 64.2409 4.70833 64.0445C4.62844 63.8481 4.61948 63.63 4.68298 63.4277C6.99006 56.0605 9.93432 53.4278 10.3831 53.0265C10.4115 53.001 10.4299 52.9846 10.4376 52.9764C10.5328 52.9034 10.6414 52.8498 10.7574 52.8187C10.8733 52.7877 10.9942 52.7798 11.1132 52.7954C11.2321 52.8111 11.3469 52.85 11.4508 52.91C11.5547 52.97 11.6458 53.0499 11.7189 53.1451M16.979 67.8127C17.6201 67.8034 18.26 67.7573 18.8958 67.6745M16.979 67.8127L18.8958 67.6745M4.51046 63.3735L4.68298 63.4277L4.51042 63.3736C4.51043 63.3736 4.51045 63.3736 4.51046 63.3735ZM4.51046 63.3735C5.74215 59.4404 7.15659 56.8452 8.28354 55.2129C8.84698 54.3968 9.33818 53.822 9.69813 53.4413C9.87811 53.2509 10.025 53.1094 10.1313 53.0109C10.1844 52.9616 10.2272 52.9233 10.2583 52.8955L10.295 52.8625C10.3032 52.8551 10.306 52.8523 10.306 52.8524L10.3156 52.8421L10.3275 52.833C10.4415 52.7455 10.5717 52.6813 10.7106 52.6441C10.8494 52.6069 10.9942 52.5974 11.1368 52.6161C11.2793 52.6349 11.4167 52.6816 11.5412 52.7534C11.6657 52.8253 11.7748 52.921 11.8623 53.0351L11.7189 53.1451M11.7189 53.1451L11.8623 53.0351C11.9499 53.1491 12.014 53.2793 12.0512 53.4182L11.8766 53.4649L12.0512 53.4182C12.0884 53.557 12.0979 53.7018 12.0792 53.8444C12.0604 53.9869 12.0137 54.1243 11.9419 54.2488C11.87 54.3733 11.7743 54.4824 11.6602 54.5699L11.6115 54.6073H11.6056C11.5873 54.6218 11.5627 54.6423 11.532 54.6692C11.4538 54.7379 11.3401 54.8452 11.197 54.9958C10.911 55.2967 10.5093 55.7685 10.0414 56.4456C9.11995 57.7789 7.94141 59.9086 6.88291 63.0979C8.81775 64.0397 13.9621 66.0546 18.6328 65.4916L18.6329 65.4916C18.9224 65.4569 19.2138 65.5386 19.4431 65.7187C19.6724 65.8988 19.8207 66.1627 19.8554 66.4521C19.8901 66.7416 19.8085 67.0331 19.6283 67.2623C19.4484 67.4913 19.1849 67.6396 18.8958 67.6745M11.7189 53.1451L18.8958 67.6745M11.5502 54.4265C11.4954 54.4265 8.81424 56.6152 6.66197 63.1906L11.5502 54.4265Z" fill="#8CC63F" stroke="#8CC63F" stroke-width="0.361652"/>
<path d="M10.9949 40.5355C11.1616 40.535 11.326 40.4964 11.4754 40.4226C11.6251 40.3487 11.7558 40.2415 11.8576 40.1093L11.8577 40.1092C12.0339 39.8801 12.1122 39.5904 12.0753 39.3036C12.0384 39.0169 11.8894 38.7564 11.661 38.5793L11.6612 38.5789L11.6505 38.5718C11.6508 38.572 11.6498 38.5711 11.6473 38.569C11.5443 38.4824 9.02998 36.3671 6.88515 30.054C8.85484 29.1486 14.0102 27.095 18.6323 27.6661L18.6329 27.6662C18.9224 27.701 19.2138 27.6193 19.4431 27.4391C19.6724 27.259 19.8207 26.9952 19.8554 26.7057C19.8901 26.4162 19.8085 26.1248 19.6283 25.8955L19.4861 26.0072L19.6283 25.8955C19.4482 25.6662 19.1844 25.5179 18.8949 25.4832L18.8949 25.4832C15.5884 25.0866 12.1945 25.8107 9.5989 26.6477C7.00082 27.4855 5.18709 28.4414 5.0359 28.5217L5.0359 28.5217L5.035 28.5222C4.81131 28.6426 4.63656 28.8372 4.54083 29.0726C4.44512 29.3079 4.43436 29.5692 4.51042 29.8115C6.97466 37.6806 10.1697 40.1918 10.3258 40.3145L10.3258 40.3145L10.329 40.3169C10.521 40.4609 10.755 40.5377 10.9949 40.5355ZM10.9949 40.5355C10.9947 40.5355 10.9945 40.5355 10.9943 40.5355L10.9939 40.3547L10.9957 40.5355C10.9954 40.5355 10.9952 40.5355 10.9949 40.5355Z" fill="#8CC63F" stroke="#8CC63F" stroke-width="0.361652"/>
<path d="M46.6876 57.5075H46.6877C49.5817 57.5051 52.3565 56.3543 54.4028 54.308C56.4492 52.2616 57.5999 49.4869 57.6024 46.5929V46.5927C57.6024 44.434 56.9622 42.3237 55.7629 40.5288C54.5636 38.7339 52.8589 37.3349 50.8645 36.5088C48.8701 35.6827 46.6755 35.4665 44.5582 35.8877C42.4409 36.3088 40.4961 37.3483 38.9697 38.8748C37.4432 40.4013 36.4037 42.3461 35.9825 44.4634C35.5614 46.5806 35.7775 48.7752 36.6036 50.7696C37.4297 52.7641 38.8287 54.4687 40.6236 55.668C42.4186 56.8674 44.5288 57.5075 46.6876 57.5075ZM41.8379 39.3347C43.2734 38.3755 44.961 37.8636 46.6874 37.8635C49.0018 37.8659 51.2208 38.7864 52.8574 40.4229C54.4939 42.0595 55.4144 44.2785 55.4168 46.5929C55.4167 48.3193 54.9048 50.0069 53.9456 51.4424C52.9865 52.8779 51.6231 53.9967 50.0281 54.6574C48.433 55.3181 46.6779 55.491 44.9846 55.1542C43.2913 54.8174 41.7359 53.986 40.5151 52.7652C39.2943 51.5444 38.4629 49.989 38.1261 48.2957C37.7893 46.6024 37.9622 44.8473 38.6229 43.2522C39.2836 41.6572 40.4024 40.2939 41.8379 39.3347Z" fill="#8CC63F" stroke="#8CC63F" stroke-width="0.361652"/>
<path d="M36.7846 46.3095C36.7547 46.3066 36.7249 46.3016 36.6956 46.2946L36.6935 46.2941C23.9351 43.0976 16.05 31.6958 17.0772 17.9987C17.095 17.7371 17.2062 17.4905 17.3906 17.3041C17.5752 17.1175 17.8207 17.0036 18.0824 16.9832M36.7846 46.3095L18.0826 16.9831C18.0825 16.9831 18.0824 16.9831 18.0824 16.9832M36.7846 46.3095V46.3156L36.9439 46.3347C37.2334 46.3694 37.5248 46.2877 37.754 46.1076C37.9833 45.9275 38.1316 45.6636 38.1664 45.3741C38.2011 45.0847 38.1194 44.7932 37.9393 44.564C37.7616 44.3379 37.5026 44.1905 37.2177 44.1531C25.8262 41.2844 18.6636 31.2932 19.1999 19.1387C22.6283 18.9197 26.0654 19.4172 29.2919 20.6003C32.5683 21.8016 35.5533 23.6826 38.0509 26.1197C41.0822 29.179 43.2248 33.0048 44.2497 37.1878L44.2501 37.1891C44.3211 37.4702 44.5008 37.7116 44.7498 37.8602C44.9988 38.0087 45.2966 38.0523 45.5777 37.9813C45.8588 37.9103 46.1002 37.7305 46.2488 37.4816C46.3972 37.2329 46.4408 36.9356 46.3702 36.6548M36.7846 46.3095L46.3702 36.6548M18.0824 16.9832C26.4492 16.3135 34.0898 19.0661 39.5922 24.5777L39.5926 24.5781C42.9047 27.9149 45.2474 32.0893 46.3702 36.6548M18.0824 16.9832L46.3702 36.6548" fill="#8CC63F" stroke="#8CC63F" stroke-width="0.361652"/>
<path d="M48.8051 55.7712L48.9505 55.6638C49.0362 55.7798 49.0982 55.9117 49.1326 56.0519C51.998 67.4494 61.9827 74.6166 74.1771 74.0799C74.3984 70.652 73.9029 67.215 72.7213 63.9883C71.5215 60.7119 69.6415 57.7266 67.2051 55.2288C64.1462 52.195 60.3206 50.0493 56.1369 49.0209L56.1365 49.0208C55.8554 48.9511 55.6136 48.7727 55.464 48.5247C55.3145 48.2768 55.2694 47.9797 55.3387 47.6985L55.3388 47.6983C55.4085 47.4173 55.587 47.1754 55.8349 47.0258C56.0828 46.8763 56.3798 46.8312 56.6609 46.9005C61.2314 48.0226 65.4097 50.369 68.7469 53.6874L68.7472 53.6877C74.2597 59.2002 76.9198 66.8136 76.2961 75.1875L76.2961 75.1881C76.2757 75.4498 76.1618 75.6955 75.9752 75.8801C75.7891 76.0641 75.5432 76.1753 75.2822 76.1934C75.2814 76.1934 75.2806 76.1935 75.2798 76.1935L75.2677 76.0131C74.4743 76.0861 73.69 76.1134 72.9148 76.1134C60.366 76.1134 50.1792 68.4802 47.1879 56.5424L48.8051 55.7712ZM48.8051 55.7712L48.9505 55.6638C48.8647 55.5476 48.7566 55.4495 48.6326 55.3753C48.5086 55.3011 48.3712 55.2523 48.2282 55.2316C48.0852 55.2109 47.9396 55.2187 47.7997 55.2546M48.8051 55.7712L47.0127 56.5871C46.9767 56.4481 46.9685 56.3034 46.9885 56.1612C47.0085 56.0188 47.0564 55.8817 47.1295 55.7579C47.2026 55.634 47.2995 55.5258 47.4145 55.4394C47.5295 55.3531 47.6604 55.2903 47.7997 55.2546M47.7997 55.2546L47.8446 55.4298M47.7997 55.2546C47.7997 55.2546 47.7996 55.2546 47.7996 55.2547L47.8446 55.4298M47.8446 55.4298C47.7283 55.4596 47.619 55.512 47.5231 55.584L47.8446 55.4298Z" fill="#8CC63F" stroke="#8CC63F" stroke-width="0.361652"/>
<path d="M55.3125 45.4793L55.3126 45.4795C55.3745 45.7199 55.5165 45.9321 55.7151 46.0811C55.913 46.2294 56.1553 46.3063 56.4024 46.2992C56.4748 46.299 56.547 46.2917 56.618 46.2773L56.6181 46.2774L56.6251 46.2757C61.1915 45.155 65.3665 42.812 68.702 39.498L68.7022 39.4978C74.2139 34.0044 76.9665 26.3638 76.2969 17.988C76.2764 17.7263 76.1625 17.4807 75.9759 17.2961C75.7895 17.1117 75.5429 17.0005 75.2813 16.9827C61.5935 15.9555 50.1822 23.8313 47.0132 36.5993C46.9436 36.8789 46.9872 37.1747 47.1345 37.4223C47.2818 37.6699 47.5211 37.8493 47.8001 37.9215C47.9392 37.9576 48.0841 37.9658 48.2265 37.9458L48.2013 37.7668L48.2265 37.9458C48.3689 37.9258 48.506 37.8779 48.6298 37.8048L48.5379 37.6491L48.6298 37.8048C48.7537 37.7317 48.8619 37.6349 48.9483 37.5199C49.0346 37.4049 49.0975 37.2739 49.1331 37.1346L49.1333 37.1337C51.9895 25.7363 61.9919 18.5689 74.1503 19.1054C74.3682 22.5337 73.8702 25.9704 72.6872 29.1968C71.4859 32.473 69.6055 35.4582 67.1693 37.9565C64.114 40.9862 60.2908 43.1261 56.1106 44.1461L56.1103 44.1461C55.97 44.1806 55.8379 44.2425 55.7217 44.3284C55.6054 44.4142 55.5074 44.5223 55.4332 44.6463C55.359 44.7703 55.3102 44.9077 55.2894 45.0507C55.2687 45.1937 55.2766 45.3394 55.3125 45.4793Z" fill="#8CC63F" stroke="#8CC63F" stroke-width="0.361652"/>
<path d="M17.0773 75.1879L17.0773 75.1875C16.0498 61.4903 23.9346 50.0882 36.6931 46.9098C36.8328 46.874 36.9783 46.8662 37.121 46.8869C37.264 46.9076 37.4015 46.9564 37.5255 47.0306L17.0773 75.1879ZM17.0773 75.1879C17.0974 75.4478 17.2098 75.6921 17.3941 75.8764C17.5777 76.06 17.8206 76.1722 18.0793 76.193M17.0773 75.1879L18.0793 76.193M44.2498 56.0341L44.2501 56.0329C44.2852 55.8937 44.3474 55.7628 44.4332 55.6477L44.5782 55.7557L44.4332 55.6476C44.5189 55.5325 44.6265 55.4354 44.7498 55.3618C44.8731 55.2883 45.0097 55.2397 45.1517 55.2189C45.2938 55.1981 45.4385 55.2055 45.5777 55.2407C45.7169 55.2758 45.8478 55.3381 45.963 55.4238C46.0781 55.5096 46.1752 55.6171 46.2488 55.7404C46.3224 55.8637 46.3709 56.0003 46.3917 56.1423C46.4125 56.2844 46.4051 56.4291 46.3699 56.5683L44.2498 56.0341ZM44.2498 56.0341C43.225 60.2146 41.0822 64.0376 38.0508 67.0933C35.5563 69.5346 32.5717 71.4184 29.2946 72.62C26.0673 73.8034 22.6288 74.2985 19.1999 74.0744C18.6632 61.8888 25.8305 51.895 37.2281 49.0298L44.2498 56.0341ZM18.0793 76.193C18.8909 76.285 19.6919 76.285 20.4721 76.285H20.4754L18.0793 76.193Z" fill="#8CC63F" stroke="#8CC63F" stroke-width="0.361652"/>
</svg>
