<svg width="50" height="49" viewBox="0 0 50 49" fill="none" xmlns="http://www.w3.org/2000/svg">
<mask id="path-1-outside-1_5_20" maskUnits="userSpaceOnUse" x="0" y="-0.454468" width="50" height="50" fill="black">
<rect fill="white" y="-0.454468" width="50" height="50"/>
<path d="M19.0265 12.3048H18.9499C18.8248 12.2837 18.7132 12.2138 18.6395 12.1105C18.5659 12.0072 18.5362 11.879 18.557 11.7538C19.2852 7.47435 21.4318 3.56425 24.6514 0.65257C24.7368 0.583324 24.8433 0.545532 24.9533 0.545532C25.0632 0.545532 25.1698 0.583324 25.2551 0.65257C28.4738 3.56301 30.6203 7.47128 31.3495 11.749C31.3599 11.8119 31.3578 11.8763 31.3433 11.9384C31.3288 12.0005 31.3023 12.0591 31.2651 12.111C31.228 12.1628 31.181 12.2068 31.1268 12.2405C31.0726 12.2741 31.0124 12.2968 30.9495 12.3072C30.8865 12.3176 30.8222 12.3155 30.7601 12.301C30.698 12.2865 30.6394 12.2599 30.5875 12.2228C30.5357 12.1856 30.4917 12.1386 30.458 12.0845C30.4243 12.0303 30.4017 11.97 30.3913 11.9071C29.6965 8.0086 27.7942 4.42696 24.9533 1.66831C22.107 4.425 20.1996 8.00685 19.5009 11.9071C19.4816 12.0188 19.4234 12.12 19.3365 12.1928C19.2497 12.2656 19.1399 12.3053 19.0265 12.3048Z"/>
<path d="M24.9533 48.4543C24.843 48.4535 24.7363 48.4145 24.6514 48.3442C21.4327 45.4337 19.2862 41.5254 18.557 37.2477C18.5362 37.1226 18.5659 36.9943 18.6395 36.891C18.7132 36.7877 18.8248 36.7178 18.9499 36.6967C19.075 36.6759 19.2033 36.7056 19.3066 36.7792C19.4099 36.8529 19.4797 36.9645 19.5009 37.0896C20.1996 40.9899 22.107 44.5717 24.9533 47.3284C27.7995 44.5717 29.7069 40.9899 30.4057 37.0896C30.4266 36.9625 30.4972 36.849 30.6019 36.774C30.7066 36.6989 30.8368 36.6686 30.9638 36.6895C31.0909 36.7105 31.2045 36.7811 31.2795 36.8858C31.3545 36.9904 31.3849 37.1206 31.3639 37.2477C30.6347 41.5254 28.4882 45.4337 25.2695 48.3442C25.1808 48.4177 25.0685 48.4568 24.9533 48.4543Z"/>
<path d="M37.6256 30.9042C37.4985 30.915 37.3724 30.8749 37.2749 30.7927C37.1774 30.7104 37.1166 30.5929 37.1058 30.4658C37.095 30.3387 37.1351 30.2126 37.2173 30.1151C37.2995 30.0176 37.4171 29.9568 37.5442 29.946C41.4439 29.2485 45.0256 27.3428 47.783 24.4983C45.0263 21.6521 41.4444 19.7447 37.5442 19.0459C37.4191 19.0248 37.3075 18.955 37.2338 18.8517C37.1602 18.7484 37.1305 18.6201 37.1513 18.495C37.1724 18.3699 37.2423 18.2583 37.3456 18.1846C37.4488 18.111 37.5771 18.0813 37.7023 18.1021C41.98 18.8313 45.8883 20.9778 48.7987 24.1965C48.868 24.2819 48.9058 24.3884 48.9058 24.4983C48.9058 24.6083 48.868 24.7148 48.7987 24.8002C45.8883 28.0189 41.98 30.1654 37.7023 30.8946L37.6256 30.9042Z"/>
<path d="M12.2801 30.9042H12.2035C7.92449 30.1724 4.01606 28.0224 1.10704 24.8002C1.03779 24.7148 1 24.6083 1 24.4983C1 24.3884 1.03779 24.2819 1.10704 24.1965C4.01748 20.9778 7.92575 18.8313 12.2035 18.1021C12.3306 18.0811 12.4608 18.1115 12.5654 18.1865C12.6701 18.2615 12.7407 18.3751 12.7617 18.5021C12.7826 18.6292 12.7523 18.7594 12.6772 18.8641C12.6022 18.9688 12.4887 19.0393 12.3616 19.0603C8.46307 19.7551 4.88142 21.6574 2.12278 24.4983C4.87947 27.3446 8.46131 29.252 12.3616 29.9507C12.4245 29.9561 12.4858 29.9738 12.5418 30.0028C12.5979 30.0318 12.6477 30.0716 12.6885 30.1199C12.7292 30.1681 12.76 30.224 12.7791 30.2841C12.7982 30.3443 12.8053 30.4077 12.8 30.4706C12.7946 30.5335 12.777 30.5948 12.7479 30.6508C12.7189 30.7069 12.6791 30.7567 12.6309 30.7975C12.5826 30.8382 12.5268 30.869 12.4666 30.8881C12.4064 30.9072 12.3431 30.9143 12.2801 30.909V30.9042Z"/>
<path d="M35.4928 10.3067H35.4353C35.3722 10.2996 35.3112 10.28 35.2557 10.2491C35.2002 10.2181 35.1515 10.1765 35.1122 10.1266C35.073 10.0766 35.0441 10.0194 35.0272 9.9582C35.0103 9.897 35.0057 9.83304 35.0137 9.77005C35.3012 7.24987 34.1465 4.44222 33.6913 3.4696C30.2177 4.63387 29.0965 6.02332 29.087 6.03769C29.0094 6.14126 28.894 6.20979 28.7659 6.22821C28.6379 6.24663 28.5078 6.21343 28.4042 6.13591C28.3006 6.0584 28.2321 5.94292 28.2137 5.81488C28.1953 5.68684 28.2285 5.55673 28.306 5.45317C28.3587 5.38609 29.6619 3.71875 33.7776 2.42991C33.8838 2.39655 33.9984 2.40126 34.1016 2.44323C34.2048 2.4852 34.2901 2.56181 34.3429 2.65989C34.4244 2.81321 36.3361 6.44974 35.9288 9.88504C35.9159 9.99483 35.8655 10.0968 35.786 10.1736C35.7066 10.2505 35.603 10.2975 35.4928 10.3067Z"/>
<path d="M14.4121 10.3067C14.2943 10.3075 14.1804 10.265 14.0921 10.1872C14.0037 10.1095 13.9471 10.0019 13.9329 9.88504C13.5257 6.44974 15.4374 2.81321 15.5188 2.65989C15.5716 2.56181 15.657 2.4852 15.7601 2.44323C15.8633 2.40126 15.9779 2.39655 16.0842 2.42991C20.2238 3.71875 21.527 5.38609 21.5989 5.45317C21.6373 5.50319 21.6654 5.56028 21.6817 5.62118C21.698 5.68208 21.7022 5.7456 21.694 5.80811C21.6857 5.87062 21.6653 5.93089 21.6338 5.98549C21.6022 6.04009 21.5603 6.08795 21.5102 6.12633C21.4602 6.16471 21.4031 6.19287 21.3422 6.20918C21.2813 6.2255 21.2178 6.22966 21.1553 6.22143C21.0928 6.2132 21.0325 6.19274 20.9779 6.16121C20.9233 6.12969 20.8755 6.08772 20.8371 6.03769C20.8371 6.01374 19.692 4.62908 16.2327 3.4696C15.7775 4.42785 14.6229 7.22592 14.9295 9.77005C14.9368 9.83267 14.9318 9.89613 14.9145 9.95678C14.8973 10.0174 14.8683 10.0741 14.8291 10.1235C14.7899 10.1729 14.7414 10.2141 14.6863 10.2447C14.6311 10.2753 14.5705 10.2947 14.5079 10.3019L14.4121 10.3067Z"/>
<path d="M33.9414 46.586C33.8937 46.5932 33.8453 46.5932 33.7976 46.586C29.682 45.278 28.3788 43.6107 28.3069 43.5436C28.2685 43.4936 28.2404 43.4365 28.2241 43.3756C28.2077 43.3147 28.2036 43.2512 28.2118 43.1886C28.22 43.1261 28.2405 43.0659 28.272 43.0113C28.3036 42.9567 28.3455 42.9088 28.3955 42.8704C28.4456 42.832 28.5027 42.8039 28.5636 42.7876C28.6245 42.7713 28.688 42.7671 28.7505 42.7753C28.813 42.7835 28.8733 42.804 28.9279 42.8355C28.9825 42.8671 29.0303 42.909 29.0687 42.9591C29.0687 42.9878 30.2138 44.3677 33.6731 45.5271C34.1522 44.5689 35.2829 41.7708 34.9763 39.2267C34.961 39.0996 34.9969 38.9717 35.076 38.8711C35.155 38.7704 35.2708 38.7053 35.3979 38.6901C35.525 38.6748 35.6529 38.7107 35.7535 38.7898C35.8542 38.8688 35.9193 38.9846 35.9345 39.1117C36.3418 42.547 34.4301 46.1835 34.3486 46.3369C34.3085 46.4104 34.2497 46.4721 34.1782 46.5158C34.1068 46.5595 34.0251 46.5837 33.9414 46.586Z"/>
<path d="M15.9651 46.5859C15.8789 46.5862 15.7942 46.5632 15.72 46.5193C15.6458 46.4755 15.5848 46.4124 15.5434 46.3368C15.462 46.1835 13.5503 42.5469 13.9576 39.1116C13.9651 39.0487 13.985 38.9879 14.016 38.9327C14.0471 38.8774 14.0887 38.8288 14.1385 38.7897C14.1884 38.7505 14.2454 38.7216 14.3064 38.7045C14.3675 38.6874 14.4313 38.6825 14.4942 38.69C14.5571 38.6976 14.6179 38.7174 14.6731 38.7485C14.7284 38.7795 14.777 38.8212 14.8161 38.871C14.8553 38.9208 14.8842 38.9779 14.9013 39.0389C14.9184 39.0999 14.9234 39.1637 14.9158 39.2266C14.6092 41.7756 15.7638 44.5545 16.219 45.5271C19.6926 44.3628 20.8138 42.9734 20.8234 42.959C20.9009 42.8561 21.0161 42.7881 21.1437 42.7702C21.2713 42.7522 21.4008 42.7856 21.5037 42.8632C21.6066 42.9407 21.6746 43.0559 21.6925 43.1835C21.7105 43.3111 21.6771 43.4406 21.5995 43.5435C21.5468 43.6106 20.2436 45.2779 16.128 46.5668C16.0752 46.5825 16.0201 46.589 15.9651 46.5859Z"/>
<path d="M40.5635 35.5517C40.231 35.5596 39.8982 35.5484 39.5669 35.5182C39.4399 35.5029 39.3241 35.4378 39.245 35.3372C39.1659 35.2365 39.1301 35.1086 39.1453 34.9815C39.1606 34.8545 39.2257 34.7387 39.3263 34.6596C39.4269 34.5805 39.5549 34.5447 39.6819 34.5599C42.2309 34.8666 45.0098 33.7119 45.9824 33.2567C44.8085 29.74 43.4287 28.6619 43.4191 28.6523C43.313 28.5755 43.2418 28.4596 43.2211 28.3302C43.2004 28.2008 43.232 28.0685 43.3089 27.9624C43.3858 27.8563 43.5016 27.7851 43.631 27.7644C43.7604 27.7438 43.8927 27.7753 43.9988 27.8522C44.0659 27.9049 45.7332 29.2081 47.0221 33.3238C47.0554 33.4301 47.0507 33.5446 47.0088 33.6478C46.9668 33.751 46.8902 33.8363 46.7921 33.8891C46.6532 33.9802 43.673 35.5517 40.5635 35.5517Z"/>
<path d="M43.7058 21.2261C43.6314 21.2261 43.558 21.2088 43.4915 21.1755C43.425 21.1422 43.3671 21.0939 43.3225 21.0344C43.2457 20.9334 43.2122 20.806 43.2292 20.6802C43.2463 20.5545 43.3126 20.4406 43.4135 20.3637C43.4422 20.3637 44.8221 19.2186 45.9816 15.7593C45.0233 15.3041 42.2253 14.1495 39.6811 14.4561C39.6185 14.4634 39.5551 14.4583 39.4944 14.4411C39.4338 14.4239 39.3771 14.3948 39.3277 14.3557C39.2783 14.3165 39.2371 14.268 39.2065 14.2129C39.1759 14.1577 39.1565 14.0971 39.1493 14.0345C39.1344 13.9087 39.1699 13.7822 39.248 13.6826C39.3261 13.5829 39.4405 13.5182 39.5662 13.5026C43.0015 13.0954 46.638 15.0071 46.7913 15.0885C46.8894 15.1413 46.966 15.2267 47.008 15.3299C47.0499 15.433 47.0546 15.5476 47.0213 15.6539C45.7324 19.7695 44.0651 21.0728 43.998 21.1446C43.912 21.2027 43.8094 21.2313 43.7058 21.2261Z"/>
<path d="M9.34396 35.5517C6.23446 35.5517 3.25433 33.9801 3.11538 33.9083C3.01731 33.8555 2.94069 33.7701 2.89872 33.667C2.85675 33.5638 2.85204 33.4492 2.8854 33.3429C4.17424 29.2273 5.84158 27.9241 5.90866 27.8522C5.95868 27.8138 6.01577 27.7857 6.07667 27.7693C6.13757 27.753 6.20109 27.7489 6.2636 27.7571C6.32611 27.7653 6.38639 27.7858 6.44099 27.8173C6.49559 27.8488 6.54345 27.8908 6.58183 27.9408C6.62021 27.9908 6.64836 28.0479 6.66468 28.1088C6.68099 28.1697 6.68516 28.2333 6.67692 28.2958C6.66869 28.3583 6.64823 28.4185 6.61671 28.4731C6.58518 28.5277 6.54321 28.5756 6.49319 28.614C6.46444 28.614 5.05582 29.7639 3.9251 33.2183C4.88334 33.6975 7.68141 34.8282 10.2255 34.5216C10.3526 34.5063 10.4805 34.5422 10.5812 34.6212C10.6818 34.7003 10.7469 34.8161 10.7622 34.9432C10.7774 35.0703 10.7416 35.1982 10.6625 35.2988C10.5834 35.3994 10.4676 35.4645 10.3405 35.4798C10.01 35.5229 9.67726 35.5468 9.34396 35.5517Z"/>
<path d="M6.20092 21.2211C6.09562 21.2222 5.9929 21.1885 5.90866 21.1253C5.84158 21.0726 4.17424 19.7694 2.8854 15.6537C2.85204 15.5475 2.85675 15.4329 2.89872 15.3297C2.94069 15.2265 3.01731 15.1412 3.11538 15.0884C3.2687 15.0069 6.90523 13.0904 10.3405 13.5025C10.4676 13.5177 10.5834 13.5828 10.6625 13.6835C10.7416 13.7841 10.7774 13.912 10.7622 14.0391C10.7469 14.1662 10.6818 14.282 10.5812 14.3611C10.4805 14.4401 10.3526 14.476 10.2255 14.4607C7.70537 14.1493 4.89771 15.304 3.9251 15.7592C5.08936 19.2328 6.47882 20.3539 6.49319 20.3635C6.59337 20.4412 6.65869 20.5554 6.67486 20.6811C6.69102 20.8068 6.65671 20.9338 6.57943 21.0343C6.5348 21.0923 6.47748 21.1392 6.41186 21.1716C6.34625 21.204 6.27409 21.221 6.20092 21.2211Z"/>
<path d="M24.9532 30.1377C23.8379 30.1377 22.7476 29.8069 21.8202 29.1873C20.8928 28.5676 20.17 27.6869 19.7432 26.6565C19.3164 25.626 19.2047 24.4922 19.4223 23.3982C19.6399 22.3043 20.177 21.2995 20.9656 20.5108C21.7543 19.7222 22.7591 19.1851 23.853 18.9675C24.9469 18.7499 26.0808 18.8616 27.1112 19.2884C28.1417 19.7152 29.0224 20.438 29.6421 21.3654C30.2617 22.2928 30.5925 23.3831 30.5925 24.4984C30.5912 25.9936 29.9966 27.4273 28.9393 28.4846C27.8821 29.5419 26.4484 30.1364 24.9532 30.1377ZM24.9532 19.8174C24.0274 19.8174 23.1223 20.0919 22.3526 20.6063C21.5828 21.1206 20.9828 21.8517 20.6285 22.7071C20.2742 23.5624 20.1815 24.5036 20.3621 25.4116C20.5427 26.3197 20.9886 27.1537 21.6432 27.8084C22.2979 28.463 23.1319 28.9089 24.04 29.0895C24.948 29.2701 25.8892 29.1774 26.7445 28.8231C27.5999 28.4688 28.331 27.8688 28.8453 27.099C29.3597 26.3292 29.6342 25.4242 29.6342 24.4984C29.6329 23.2573 29.1394 22.0674 28.2618 21.1898C27.3842 20.3122 26.1943 19.8187 24.9532 19.8174Z"/>
<path d="M19.8455 24.2493C19.8061 24.2587 19.7651 24.2587 19.7257 24.2493C13.0707 22.582 8.95507 16.6361 9.49168 9.48283C9.49939 9.368 9.54818 9.25978 9.62911 9.17796C9.71005 9.09614 9.81774 9.04619 9.93248 9.03724C14.3021 8.68748 18.2884 10.1248 21.1583 12.9996C22.8862 14.7404 24.1084 16.9182 24.6942 19.3C24.7253 19.4233 24.7062 19.5539 24.6411 19.663C24.5759 19.7722 24.4701 19.851 24.3468 19.8822C24.2236 19.9133 24.093 19.8942 23.9838 19.829C23.8747 19.7639 23.7958 19.658 23.7647 19.5348C23.2221 17.3202 22.0877 15.2947 20.4827 13.6751C19.1608 12.3851 17.5809 11.3895 15.8468 10.7537C14.1127 10.1178 12.2636 9.85616 10.4212 9.9859C10.1002 16.454 13.8996 21.7867 19.9605 23.3103C20.0876 23.3255 20.2034 23.3906 20.2824 23.4913C20.3615 23.5919 20.3974 23.7198 20.3821 23.8469C20.3669 23.974 20.3018 24.0898 20.2011 24.1688C20.1005 24.2479 19.9726 24.2838 19.8455 24.2685V24.2493Z"/>
<path d="M38.7321 40.0076C32.1394 40.0076 26.7876 35.9973 25.2161 29.7256C25.2002 29.6646 25.1966 29.601 25.2054 29.5386C25.2141 29.4761 25.2351 29.4161 25.2672 29.3617C25.2992 29.3074 25.3417 29.26 25.3921 29.2221C25.4425 29.1843 25.4999 29.1567 25.561 29.1411C25.6224 29.1253 25.6863 29.1219 25.749 29.131C25.8116 29.1401 25.8719 29.1615 25.9263 29.194C25.9806 29.2265 26.028 29.2695 26.0656 29.3205C26.1033 29.3714 26.1305 29.4293 26.1456 29.4909C27.6692 35.5517 32.997 39.3512 39.4843 39.0302C39.6153 37.188 39.3547 35.339 38.7196 33.6048C38.0846 31.8706 37.0895 30.2906 35.7999 28.9686C34.1805 27.3623 32.1551 26.2263 29.9402 25.6818C29.817 25.6513 29.711 25.573 29.6454 25.4643C29.5798 25.3556 29.56 25.2254 29.5904 25.1021C29.621 24.9789 29.6993 24.8729 29.8079 24.8073C29.9166 24.7417 30.0469 24.722 30.1702 24.7523C32.5546 25.3378 34.7344 26.5619 36.4754 28.2931C39.3501 31.1678 40.7396 35.1397 40.4138 39.5141C40.4048 39.6288 40.3549 39.7365 40.2731 39.8174C40.1913 39.8984 40.083 39.9472 39.9682 39.9549C39.5514 39.9932 39.1393 40.0076 38.7321 40.0076Z"/>
<path d="M30.0556 24.2492C29.9468 24.2526 29.84 24.2189 29.753 24.1536C29.6659 24.0883 29.6036 23.9952 29.5765 23.8898C29.5607 23.8285 29.5573 23.7646 29.5663 23.7019C29.5754 23.6392 29.5968 23.5789 29.6294 23.5246C29.6619 23.4702 29.7049 23.4229 29.7558 23.3852C29.8068 23.3476 29.8647 23.3204 29.9262 23.3053C32.1394 22.7653 34.1636 21.6323 35.7811 20.0281C37.0706 18.7059 38.0659 17.1259 38.7017 15.3919C39.3375 13.6578 39.5995 11.809 39.4703 9.96657C33.0022 9.64555 27.6648 13.445 26.146 19.5059C26.1303 19.567 26.1028 19.6244 26.0649 19.6748C26.0271 19.7252 25.9796 19.7677 25.9253 19.7997C25.871 19.8318 25.8109 19.8528 25.7485 19.8615C25.686 19.8703 25.6225 19.8667 25.5614 19.8508C25.4391 19.8192 25.3342 19.7405 25.2696 19.632C25.205 19.5234 25.1859 19.3937 25.2165 19.2711C26.8694 12.6113 32.8201 8.50045 39.9686 9.03707C40.0834 9.04478 40.1917 9.09356 40.2735 9.1745C40.3553 9.25544 40.4052 9.36312 40.4142 9.47786C40.7639 13.8522 39.3266 17.8385 36.4519 20.7037C34.7118 22.4326 32.5337 23.6549 30.1514 24.2396C30.1199 24.246 30.0878 24.2492 30.0556 24.2492Z"/>
<path d="M11.183 40.0027C10.7709 40.0027 10.3541 40.0027 9.93248 39.9548C9.8185 39.946 9.71143 39.8967 9.63059 39.8159C9.54976 39.7351 9.50049 39.628 9.49168 39.514C8.95507 32.3607 13.0707 26.4148 19.7257 24.7571C19.7871 24.7413 19.8509 24.7379 19.9136 24.7469C19.9763 24.756 20.0366 24.7775 20.091 24.81C20.1453 24.8425 20.1927 24.8855 20.2303 24.9364C20.268 24.9874 20.2951 25.0453 20.3102 25.1068C20.3406 25.2301 20.3209 25.3604 20.2553 25.4691C20.1897 25.5778 20.0837 25.656 19.9605 25.6866C13.8996 27.2102 10.1002 32.5428 10.4212 39.0253C12.2639 39.1578 14.1137 38.8975 15.8482 38.2615C17.5828 37.6255 19.1624 36.6283 20.4827 35.3361C22.0877 33.7184 23.2222 31.6945 23.7647 29.4812C23.7801 29.4202 23.8074 29.3628 23.845 29.3123C23.8826 29.2618 23.9298 29.2192 23.9838 29.187C24.0379 29.1547 24.0978 29.1334 24.1601 29.1243C24.2223 29.1152 24.2858 29.1184 24.3468 29.1338C24.4079 29.1493 24.4653 29.1765 24.5158 29.2141C24.5662 29.2517 24.6088 29.2989 24.6411 29.353C24.6733 29.407 24.6946 29.4669 24.7037 29.5292C24.7129 29.5915 24.7096 29.6549 24.6942 29.716C24.1043 32.0906 22.8824 34.2612 21.1583 35.9973C19.8462 37.2957 18.2879 38.3189 16.5749 39.0067C14.8619 39.6946 13.0287 40.0332 11.183 40.0027Z"/>
</mask>
<path d="M19.0265 12.3048H18.9499C18.8248 12.2837 18.7132 12.2138 18.6395 12.1105C18.5659 12.0072 18.5362 11.879 18.557 11.7538C19.2852 7.47435 21.4318 3.56425 24.6514 0.65257C24.7368 0.583324 24.8433 0.545532 24.9533 0.545532C25.0632 0.545532 25.1698 0.583324 25.2551 0.65257C28.4738 3.56301 30.6203 7.47128 31.3495 11.749C31.3599 11.8119 31.3578 11.8763 31.3433 11.9384C31.3288 12.0005 31.3023 12.0591 31.2651 12.111C31.228 12.1628 31.181 12.2068 31.1268 12.2405C31.0726 12.2741 31.0124 12.2968 30.9495 12.3072C30.8865 12.3176 30.8222 12.3155 30.7601 12.301C30.698 12.2865 30.6394 12.2599 30.5875 12.2228C30.5357 12.1856 30.4917 12.1386 30.458 12.0845C30.4243 12.0303 30.4017 11.97 30.3913 11.9071C29.6965 8.0086 27.7942 4.42696 24.9533 1.66831C22.107 4.425 20.1996 8.00685 19.5009 11.9071C19.4816 12.0188 19.4234 12.12 19.3365 12.1928C19.2497 12.2656 19.1399 12.3053 19.0265 12.3048Z" fill="#8CC63F"/>
<path d="M24.9533 48.4543C24.843 48.4535 24.7363 48.4145 24.6514 48.3442C21.4327 45.4337 19.2862 41.5254 18.557 37.2477C18.5362 37.1226 18.5659 36.9943 18.6395 36.891C18.7132 36.7877 18.8248 36.7178 18.9499 36.6967C19.075 36.6759 19.2033 36.7056 19.3066 36.7792C19.4099 36.8529 19.4797 36.9645 19.5009 37.0896C20.1996 40.9899 22.107 44.5717 24.9533 47.3284C27.7995 44.5717 29.7069 40.9899 30.4057 37.0896C30.4266 36.9625 30.4972 36.849 30.6019 36.774C30.7066 36.6989 30.8368 36.6686 30.9638 36.6895C31.0909 36.7105 31.2045 36.7811 31.2795 36.8858C31.3545 36.9904 31.3849 37.1206 31.3639 37.2477C30.6347 41.5254 28.4882 45.4337 25.2695 48.3442C25.1808 48.4177 25.0685 48.4568 24.9533 48.4543Z" fill="#8CC63F"/>
<path d="M37.6256 30.9042C37.4985 30.915 37.3724 30.8749 37.2749 30.7927C37.1774 30.7104 37.1166 30.5929 37.1058 30.4658C37.095 30.3387 37.1351 30.2126 37.2173 30.1151C37.2995 30.0176 37.4171 29.9568 37.5442 29.946C41.4439 29.2485 45.0256 27.3428 47.783 24.4983C45.0263 21.6521 41.4444 19.7447 37.5442 19.0459C37.4191 19.0248 37.3075 18.955 37.2338 18.8517C37.1602 18.7484 37.1305 18.6201 37.1513 18.495C37.1724 18.3699 37.2423 18.2583 37.3456 18.1846C37.4488 18.111 37.5771 18.0813 37.7023 18.1021C41.98 18.8313 45.8883 20.9778 48.7987 24.1965C48.868 24.2819 48.9058 24.3884 48.9058 24.4983C48.9058 24.6083 48.868 24.7148 48.7987 24.8002C45.8883 28.0189 41.98 30.1654 37.7023 30.8946L37.6256 30.9042Z" fill="#8CC63F"/>
<path d="M12.2801 30.9042H12.2035C7.92449 30.1724 4.01606 28.0224 1.10704 24.8002C1.03779 24.7148 1 24.6083 1 24.4983C1 24.3884 1.03779 24.2819 1.10704 24.1965C4.01748 20.9778 7.92575 18.8313 12.2035 18.1021C12.3306 18.0811 12.4608 18.1115 12.5654 18.1865C12.6701 18.2615 12.7407 18.3751 12.7617 18.5021C12.7826 18.6292 12.7523 18.7594 12.6772 18.8641C12.6022 18.9688 12.4887 19.0393 12.3616 19.0603C8.46307 19.7551 4.88142 21.6574 2.12278 24.4983C4.87947 27.3446 8.46131 29.252 12.3616 29.9507C12.4245 29.9561 12.4858 29.9738 12.5418 30.0028C12.5979 30.0318 12.6477 30.0716 12.6885 30.1199C12.7292 30.1681 12.76 30.224 12.7791 30.2841C12.7982 30.3443 12.8053 30.4077 12.8 30.4706C12.7946 30.5335 12.777 30.5948 12.7479 30.6508C12.7189 30.7069 12.6791 30.7567 12.6309 30.7975C12.5826 30.8382 12.5268 30.869 12.4666 30.8881C12.4064 30.9072 12.3431 30.9143 12.2801 30.909V30.9042Z" fill="#8CC63F"/>
<path d="M35.4928 10.3067H35.4353C35.3722 10.2996 35.3112 10.28 35.2557 10.2491C35.2002 10.2181 35.1515 10.1765 35.1122 10.1266C35.073 10.0766 35.0441 10.0194 35.0272 9.9582C35.0103 9.897 35.0057 9.83304 35.0137 9.77005C35.3012 7.24987 34.1465 4.44222 33.6913 3.4696C30.2177 4.63387 29.0965 6.02332 29.087 6.03769C29.0094 6.14126 28.894 6.20979 28.7659 6.22821C28.6379 6.24663 28.5078 6.21343 28.4042 6.13591C28.3006 6.0584 28.2321 5.94292 28.2137 5.81488C28.1953 5.68684 28.2285 5.55673 28.306 5.45317C28.3587 5.38609 29.6619 3.71875 33.7776 2.42991C33.8838 2.39655 33.9984 2.40126 34.1016 2.44323C34.2048 2.4852 34.2901 2.56181 34.3429 2.65989C34.4244 2.81321 36.3361 6.44974 35.9288 9.88504C35.9159 9.99483 35.8655 10.0968 35.786 10.1736C35.7066 10.2505 35.603 10.2975 35.4928 10.3067Z" fill="#8CC63F"/>
<path d="M14.4121 10.3067C14.2943 10.3075 14.1804 10.265 14.0921 10.1872C14.0037 10.1095 13.9471 10.0019 13.9329 9.88504C13.5257 6.44974 15.4374 2.81321 15.5188 2.65989C15.5716 2.56181 15.657 2.4852 15.7601 2.44323C15.8633 2.40126 15.9779 2.39655 16.0842 2.42991C20.2238 3.71875 21.527 5.38609 21.5989 5.45317C21.6373 5.50319 21.6654 5.56028 21.6817 5.62118C21.698 5.68208 21.7022 5.7456 21.694 5.80811C21.6857 5.87062 21.6653 5.93089 21.6338 5.98549C21.6022 6.04009 21.5603 6.08795 21.5102 6.12633C21.4602 6.16471 21.4031 6.19287 21.3422 6.20918C21.2813 6.2255 21.2178 6.22966 21.1553 6.22143C21.0928 6.2132 21.0325 6.19274 20.9779 6.16121C20.9233 6.12969 20.8755 6.08772 20.8371 6.03769C20.8371 6.01374 19.692 4.62908 16.2327 3.4696C15.7775 4.42785 14.6229 7.22592 14.9295 9.77005C14.9368 9.83267 14.9318 9.89613 14.9145 9.95678C14.8973 10.0174 14.8683 10.0741 14.8291 10.1235C14.7899 10.1729 14.7414 10.2141 14.6863 10.2447C14.6311 10.2753 14.5705 10.2947 14.5079 10.3019L14.4121 10.3067Z" fill="#8CC63F"/>
<path d="M33.9414 46.586C33.8937 46.5932 33.8453 46.5932 33.7976 46.586C29.682 45.278 28.3788 43.6107 28.3069 43.5436C28.2685 43.4936 28.2404 43.4365 28.2241 43.3756C28.2077 43.3147 28.2036 43.2512 28.2118 43.1886C28.22 43.1261 28.2405 43.0659 28.272 43.0113C28.3036 42.9567 28.3455 42.9088 28.3955 42.8704C28.4456 42.832 28.5027 42.8039 28.5636 42.7876C28.6245 42.7713 28.688 42.7671 28.7505 42.7753C28.813 42.7835 28.8733 42.804 28.9279 42.8355C28.9825 42.8671 29.0303 42.909 29.0687 42.9591C29.0687 42.9878 30.2138 44.3677 33.6731 45.5271C34.1522 44.5689 35.2829 41.7708 34.9763 39.2267C34.961 39.0996 34.9969 38.9717 35.076 38.8711C35.155 38.7704 35.2708 38.7053 35.3979 38.6901C35.525 38.6748 35.6529 38.7107 35.7535 38.7898C35.8542 38.8688 35.9193 38.9846 35.9345 39.1117C36.3418 42.547 34.4301 46.1835 34.3486 46.3369C34.3085 46.4104 34.2497 46.4721 34.1782 46.5158C34.1068 46.5595 34.0251 46.5837 33.9414 46.586Z" fill="#8CC63F"/>
<path d="M15.9651 46.5859C15.8789 46.5862 15.7942 46.5632 15.72 46.5193C15.6458 46.4755 15.5848 46.4124 15.5434 46.3368C15.462 46.1835 13.5503 42.5469 13.9576 39.1116C13.9651 39.0487 13.985 38.9879 14.016 38.9327C14.0471 38.8774 14.0887 38.8288 14.1385 38.7897C14.1884 38.7505 14.2454 38.7216 14.3064 38.7045C14.3675 38.6874 14.4313 38.6825 14.4942 38.69C14.5571 38.6976 14.6179 38.7174 14.6731 38.7485C14.7284 38.7795 14.777 38.8212 14.8161 38.871C14.8553 38.9208 14.8842 38.9779 14.9013 39.0389C14.9184 39.0999 14.9234 39.1637 14.9158 39.2266C14.6092 41.7756 15.7638 44.5545 16.219 45.5271C19.6926 44.3628 20.8138 42.9734 20.8234 42.959C20.9009 42.8561 21.0161 42.7881 21.1437 42.7702C21.2713 42.7522 21.4008 42.7856 21.5037 42.8632C21.6066 42.9407 21.6746 43.0559 21.6925 43.1835C21.7105 43.3111 21.6771 43.4406 21.5995 43.5435C21.5468 43.6106 20.2436 45.2779 16.128 46.5668C16.0752 46.5825 16.0201 46.589 15.9651 46.5859Z" fill="#8CC63F"/>
<path d="M40.5635 35.5517C40.231 35.5596 39.8982 35.5484 39.5669 35.5182C39.4399 35.5029 39.3241 35.4378 39.245 35.3372C39.1659 35.2365 39.1301 35.1086 39.1453 34.9815C39.1606 34.8545 39.2257 34.7387 39.3263 34.6596C39.4269 34.5805 39.5549 34.5447 39.6819 34.5599C42.2309 34.8666 45.0098 33.7119 45.9824 33.2567C44.8085 29.74 43.4287 28.6619 43.4191 28.6523C43.313 28.5755 43.2418 28.4596 43.2211 28.3302C43.2004 28.2008 43.232 28.0685 43.3089 27.9624C43.3858 27.8563 43.5016 27.7851 43.631 27.7644C43.7604 27.7438 43.8927 27.7753 43.9988 27.8522C44.0659 27.9049 45.7332 29.2081 47.0221 33.3238C47.0554 33.4301 47.0507 33.5446 47.0088 33.6478C46.9668 33.751 46.8902 33.8363 46.7921 33.8891C46.6532 33.9802 43.673 35.5517 40.5635 35.5517Z" fill="#8CC63F"/>
<path d="M43.7058 21.2261C43.6314 21.2261 43.558 21.2088 43.4915 21.1755C43.425 21.1422 43.3671 21.0939 43.3225 21.0344C43.2457 20.9334 43.2122 20.806 43.2292 20.6802C43.2463 20.5545 43.3126 20.4406 43.4135 20.3637C43.4422 20.3637 44.8221 19.2186 45.9816 15.7593C45.0233 15.3041 42.2253 14.1495 39.6811 14.4561C39.6185 14.4634 39.5551 14.4583 39.4944 14.4411C39.4338 14.4239 39.3771 14.3948 39.3277 14.3557C39.2783 14.3165 39.2371 14.268 39.2065 14.2129C39.1759 14.1577 39.1565 14.0971 39.1493 14.0345C39.1344 13.9087 39.1699 13.7822 39.248 13.6826C39.3261 13.5829 39.4405 13.5182 39.5662 13.5026C43.0015 13.0954 46.638 15.0071 46.7913 15.0885C46.8894 15.1413 46.966 15.2267 47.008 15.3299C47.0499 15.433 47.0546 15.5476 47.0213 15.6539C45.7324 19.7695 44.0651 21.0728 43.998 21.1446C43.912 21.2027 43.8094 21.2313 43.7058 21.2261Z" fill="#8CC63F"/>
<path d="M9.34396 35.5517C6.23446 35.5517 3.25433 33.9801 3.11538 33.9083C3.01731 33.8555 2.94069 33.7701 2.89872 33.667C2.85675 33.5638 2.85204 33.4492 2.8854 33.3429C4.17424 29.2273 5.84158 27.9241 5.90866 27.8522C5.95868 27.8138 6.01577 27.7857 6.07667 27.7693C6.13757 27.753 6.20109 27.7489 6.2636 27.7571C6.32611 27.7653 6.38639 27.7858 6.44099 27.8173C6.49559 27.8488 6.54345 27.8908 6.58183 27.9408C6.62021 27.9908 6.64836 28.0479 6.66468 28.1088C6.68099 28.1697 6.68516 28.2333 6.67692 28.2958C6.66869 28.3583 6.64823 28.4185 6.61671 28.4731C6.58518 28.5277 6.54321 28.5756 6.49319 28.614C6.46444 28.614 5.05582 29.7639 3.9251 33.2183C4.88334 33.6975 7.68141 34.8282 10.2255 34.5216C10.3526 34.5063 10.4805 34.5422 10.5812 34.6212C10.6818 34.7003 10.7469 34.8161 10.7622 34.9432C10.7774 35.0703 10.7416 35.1982 10.6625 35.2988C10.5834 35.3994 10.4676 35.4645 10.3405 35.4798C10.01 35.5229 9.67726 35.5468 9.34396 35.5517Z" fill="#8CC63F"/>
<path d="M6.20092 21.2211C6.09562 21.2222 5.9929 21.1885 5.90866 21.1253C5.84158 21.0726 4.17424 19.7694 2.8854 15.6537C2.85204 15.5475 2.85675 15.4329 2.89872 15.3297C2.94069 15.2265 3.01731 15.1412 3.11538 15.0884C3.2687 15.0069 6.90523 13.0904 10.3405 13.5025C10.4676 13.5177 10.5834 13.5828 10.6625 13.6835C10.7416 13.7841 10.7774 13.912 10.7622 14.0391C10.7469 14.1662 10.6818 14.282 10.5812 14.3611C10.4805 14.4401 10.3526 14.476 10.2255 14.4607C7.70537 14.1493 4.89771 15.304 3.9251 15.7592C5.08936 19.2328 6.47882 20.3539 6.49319 20.3635C6.59337 20.4412 6.65869 20.5554 6.67486 20.6811C6.69102 20.8068 6.65671 20.9338 6.57943 21.0343C6.5348 21.0923 6.47748 21.1392 6.41186 21.1716C6.34625 21.204 6.27409 21.221 6.20092 21.2211Z" fill="#8CC63F"/>
<path d="M24.9532 30.1377C23.8379 30.1377 22.7476 29.8069 21.8202 29.1873C20.8928 28.5676 20.17 27.6869 19.7432 26.6565C19.3164 25.626 19.2047 24.4922 19.4223 23.3982C19.6399 22.3043 20.177 21.2995 20.9656 20.5108C21.7543 19.7222 22.7591 19.1851 23.853 18.9675C24.9469 18.7499 26.0808 18.8616 27.1112 19.2884C28.1417 19.7152 29.0224 20.438 29.6421 21.3654C30.2617 22.2928 30.5925 23.3831 30.5925 24.4984C30.5912 25.9936 29.9966 27.4273 28.9393 28.4846C27.8821 29.5419 26.4484 30.1364 24.9532 30.1377ZM24.9532 19.8174C24.0274 19.8174 23.1223 20.0919 22.3526 20.6063C21.5828 21.1206 20.9828 21.8517 20.6285 22.7071C20.2742 23.5624 20.1815 24.5036 20.3621 25.4116C20.5427 26.3197 20.9886 27.1537 21.6432 27.8084C22.2979 28.463 23.1319 28.9089 24.04 29.0895C24.948 29.2701 25.8892 29.1774 26.7445 28.8231C27.5999 28.4688 28.331 27.8688 28.8453 27.099C29.3597 26.3292 29.6342 25.4242 29.6342 24.4984C29.6329 23.2573 29.1394 22.0674 28.2618 21.1898C27.3842 20.3122 26.1943 19.8187 24.9532 19.8174Z" fill="#8CC63F"/>
<path d="M19.8455 24.2493C19.8061 24.2587 19.7651 24.2587 19.7257 24.2493C13.0707 22.582 8.95507 16.6361 9.49168 9.48283C9.49939 9.368 9.54818 9.25978 9.62911 9.17796C9.71005 9.09614 9.81774 9.04619 9.93248 9.03724C14.3021 8.68748 18.2884 10.1248 21.1583 12.9996C22.8862 14.7404 24.1084 16.9182 24.6942 19.3C24.7253 19.4233 24.7062 19.5539 24.6411 19.663C24.5759 19.7722 24.4701 19.851 24.3468 19.8822C24.2236 19.9133 24.093 19.8942 23.9838 19.829C23.8747 19.7639 23.7958 19.658 23.7647 19.5348C23.2221 17.3202 22.0877 15.2947 20.4827 13.6751C19.1608 12.3851 17.5809 11.3895 15.8468 10.7537C14.1127 10.1178 12.2636 9.85616 10.4212 9.9859C10.1002 16.454 13.8996 21.7867 19.9605 23.3103C20.0876 23.3255 20.2034 23.3906 20.2824 23.4913C20.3615 23.5919 20.3974 23.7198 20.3821 23.8469C20.3669 23.974 20.3018 24.0898 20.2011 24.1688C20.1005 24.2479 19.9726 24.2838 19.8455 24.2685V24.2493Z" fill="#8CC63F"/>
<path d="M38.7321 40.0076C32.1394 40.0076 26.7876 35.9973 25.2161 29.7256C25.2002 29.6646 25.1966 29.601 25.2054 29.5386C25.2141 29.4761 25.2351 29.4161 25.2672 29.3617C25.2992 29.3074 25.3417 29.26 25.3921 29.2221C25.4425 29.1843 25.4999 29.1567 25.561 29.1411C25.6224 29.1253 25.6863 29.1219 25.749 29.131C25.8116 29.1401 25.8719 29.1615 25.9263 29.194C25.9806 29.2265 26.028 29.2695 26.0656 29.3205C26.1033 29.3714 26.1305 29.4293 26.1456 29.4909C27.6692 35.5517 32.997 39.3512 39.4843 39.0302C39.6153 37.188 39.3547 35.339 38.7196 33.6048C38.0846 31.8706 37.0895 30.2906 35.7999 28.9686C34.1805 27.3623 32.1551 26.2263 29.9402 25.6818C29.817 25.6513 29.711 25.573 29.6454 25.4643C29.5798 25.3556 29.56 25.2254 29.5904 25.1021C29.621 24.9789 29.6993 24.8729 29.8079 24.8073C29.9166 24.7417 30.0469 24.722 30.1702 24.7523C32.5546 25.3378 34.7344 26.5619 36.4754 28.2931C39.3501 31.1678 40.7396 35.1397 40.4138 39.5141C40.4048 39.6288 40.3549 39.7365 40.2731 39.8174C40.1913 39.8984 40.083 39.9472 39.9682 39.9549C39.5514 39.9932 39.1393 40.0076 38.7321 40.0076Z" fill="#8CC63F"/>
<path d="M30.0556 24.2492C29.9468 24.2526 29.84 24.2189 29.753 24.1536C29.6659 24.0883 29.6036 23.9952 29.5765 23.8898C29.5607 23.8285 29.5573 23.7646 29.5663 23.7019C29.5754 23.6392 29.5968 23.5789 29.6294 23.5246C29.6619 23.4702 29.7049 23.4229 29.7558 23.3852C29.8068 23.3476 29.8647 23.3204 29.9262 23.3053C32.1394 22.7653 34.1636 21.6323 35.7811 20.0281C37.0706 18.7059 38.0659 17.1259 38.7017 15.3919C39.3375 13.6578 39.5995 11.809 39.4703 9.96657C33.0022 9.64555 27.6648 13.445 26.146 19.5059C26.1303 19.567 26.1028 19.6244 26.0649 19.6748C26.0271 19.7252 25.9796 19.7677 25.9253 19.7997C25.871 19.8318 25.8109 19.8528 25.7485 19.8615C25.686 19.8703 25.6225 19.8667 25.5614 19.8508C25.4391 19.8192 25.3342 19.7405 25.2696 19.632C25.205 19.5234 25.1859 19.3937 25.2165 19.2711C26.8694 12.6113 32.8201 8.50045 39.9686 9.03707C40.0834 9.04478 40.1917 9.09356 40.2735 9.1745C40.3553 9.25544 40.4052 9.36312 40.4142 9.47786C40.7639 13.8522 39.3266 17.8385 36.4519 20.7037C34.7118 22.4326 32.5337 23.6549 30.1514 24.2396C30.1199 24.246 30.0878 24.2492 30.0556 24.2492Z" fill="#8CC63F"/>
<path d="M11.183 40.0027C10.7709 40.0027 10.3541 40.0027 9.93248 39.9548C9.8185 39.946 9.71143 39.8967 9.63059 39.8159C9.54976 39.7351 9.50049 39.628 9.49168 39.514C8.95507 32.3607 13.0707 26.4148 19.7257 24.7571C19.7871 24.7413 19.8509 24.7379 19.9136 24.7469C19.9763 24.756 20.0366 24.7775 20.091 24.81C20.1453 24.8425 20.1927 24.8855 20.2303 24.9364C20.268 24.9874 20.2951 25.0453 20.3102 25.1068C20.3406 25.2301 20.3209 25.3604 20.2553 25.4691C20.1897 25.5778 20.0837 25.656 19.9605 25.6866C13.8996 27.2102 10.1002 32.5428 10.4212 39.0253C12.2639 39.1578 14.1137 38.8975 15.8482 38.2615C17.5828 37.6255 19.1624 36.6283 20.4827 35.3361C22.0877 33.7184 23.2222 31.6945 23.7647 29.4812C23.7801 29.4202 23.8074 29.3628 23.845 29.3123C23.8826 29.2618 23.9298 29.2192 23.9838 29.187C24.0379 29.1547 24.0978 29.1334 24.1601 29.1243C24.2223 29.1152 24.2858 29.1184 24.3468 29.1338C24.4079 29.1493 24.4653 29.1765 24.5158 29.2141C24.5662 29.2517 24.6088 29.2989 24.6411 29.353C24.6733 29.407 24.6946 29.4669 24.7037 29.5292C24.7129 29.5915 24.7096 29.6549 24.6942 29.716C24.1043 32.0906 22.8824 34.2612 21.1583 35.9973C19.8462 37.2957 18.2879 38.3189 16.5749 39.0067C14.8619 39.6946 13.0287 40.0332 11.183 40.0027Z" fill="#8CC63F"/>
<path d="M19.0265 12.3048H18.9499C18.8248 12.2837 18.7132 12.2138 18.6395 12.1105C18.5659 12.0072 18.5362 11.879 18.557 11.7538C19.2852 7.47435 21.4318 3.56425 24.6514 0.65257C24.7368 0.583324 24.8433 0.545532 24.9533 0.545532C25.0632 0.545532 25.1698 0.583324 25.2551 0.65257C28.4738 3.56301 30.6203 7.47128 31.3495 11.749C31.3599 11.8119 31.3578 11.8763 31.3433 11.9384C31.3288 12.0005 31.3023 12.0591 31.2651 12.111C31.228 12.1628 31.181 12.2068 31.1268 12.2405C31.0726 12.2741 31.0124 12.2968 30.9495 12.3072C30.8865 12.3176 30.8222 12.3155 30.7601 12.301C30.698 12.2865 30.6394 12.2599 30.5875 12.2228C30.5357 12.1856 30.4917 12.1386 30.458 12.0845C30.4243 12.0303 30.4017 11.97 30.3913 11.9071C29.6965 8.0086 27.7942 4.42696 24.9533 1.66831C22.107 4.425 20.1996 8.00685 19.5009 11.9071C19.4816 12.0188 19.4234 12.12 19.3365 12.1928C19.2497 12.2656 19.1399 12.3053 19.0265 12.3048Z" stroke="#8CC63F" stroke-width="0.379999" mask="url(#path-1-outside-1_5_20)"/>
<path d="M24.9533 48.4543C24.843 48.4535 24.7363 48.4145 24.6514 48.3442C21.4327 45.4337 19.2862 41.5254 18.557 37.2477C18.5362 37.1226 18.5659 36.9943 18.6395 36.891C18.7132 36.7877 18.8248 36.7178 18.9499 36.6967C19.075 36.6759 19.2033 36.7056 19.3066 36.7792C19.4099 36.8529 19.4797 36.9645 19.5009 37.0896C20.1996 40.9899 22.107 44.5717 24.9533 47.3284C27.7995 44.5717 29.7069 40.9899 30.4057 37.0896C30.4266 36.9625 30.4972 36.849 30.6019 36.774C30.7066 36.6989 30.8368 36.6686 30.9638 36.6895C31.0909 36.7105 31.2045 36.7811 31.2795 36.8858C31.3545 36.9904 31.3849 37.1206 31.3639 37.2477C30.6347 41.5254 28.4882 45.4337 25.2695 48.3442C25.1808 48.4177 25.0685 48.4568 24.9533 48.4543Z" stroke="#8CC63F" stroke-width="0.379999" mask="url(#path-1-outside-1_5_20)"/>
<path d="M37.6256 30.9042C37.4985 30.915 37.3724 30.8749 37.2749 30.7927C37.1774 30.7104 37.1166 30.5929 37.1058 30.4658C37.095 30.3387 37.1351 30.2126 37.2173 30.1151C37.2995 30.0176 37.4171 29.9568 37.5442 29.946C41.4439 29.2485 45.0256 27.3428 47.783 24.4983C45.0263 21.6521 41.4444 19.7447 37.5442 19.0459C37.4191 19.0248 37.3075 18.955 37.2338 18.8517C37.1602 18.7484 37.1305 18.6201 37.1513 18.495C37.1724 18.3699 37.2423 18.2583 37.3456 18.1846C37.4488 18.111 37.5771 18.0813 37.7023 18.1021C41.98 18.8313 45.8883 20.9778 48.7987 24.1965C48.868 24.2819 48.9058 24.3884 48.9058 24.4983C48.9058 24.6083 48.868 24.7148 48.7987 24.8002C45.8883 28.0189 41.98 30.1654 37.7023 30.8946L37.6256 30.9042Z" stroke="#8CC63F" stroke-width="0.379999" mask="url(#path-1-outside-1_5_20)"/>
<path d="M12.2801 30.9042H12.2035C7.92449 30.1724 4.01606 28.0224 1.10704 24.8002C1.03779 24.7148 1 24.6083 1 24.4983C1 24.3884 1.03779 24.2819 1.10704 24.1965C4.01748 20.9778 7.92575 18.8313 12.2035 18.1021C12.3306 18.0811 12.4608 18.1115 12.5654 18.1865C12.6701 18.2615 12.7407 18.3751 12.7617 18.5021C12.7826 18.6292 12.7523 18.7594 12.6772 18.8641C12.6022 18.9688 12.4887 19.0393 12.3616 19.0603C8.46307 19.7551 4.88142 21.6574 2.12278 24.4983C4.87947 27.3446 8.46131 29.252 12.3616 29.9507C12.4245 29.9561 12.4858 29.9738 12.5418 30.0028C12.5979 30.0318 12.6477 30.0716 12.6885 30.1199C12.7292 30.1681 12.76 30.224 12.7791 30.2841C12.7982 30.3443 12.8053 30.4077 12.8 30.4706C12.7946 30.5335 12.777 30.5948 12.7479 30.6508C12.7189 30.7069 12.6791 30.7567 12.6309 30.7975C12.5826 30.8382 12.5268 30.869 12.4666 30.8881C12.4064 30.9072 12.3431 30.9143 12.2801 30.909V30.9042Z" stroke="#8CC63F" stroke-width="0.379999" mask="url(#path-1-outside-1_5_20)"/>
<path d="M35.4928 10.3067H35.4353C35.3722 10.2996 35.3112 10.28 35.2557 10.2491C35.2002 10.2181 35.1515 10.1765 35.1122 10.1266C35.073 10.0766 35.0441 10.0194 35.0272 9.9582C35.0103 9.897 35.0057 9.83304 35.0137 9.77005C35.3012 7.24987 34.1465 4.44222 33.6913 3.4696C30.2177 4.63387 29.0965 6.02332 29.087 6.03769C29.0094 6.14126 28.894 6.20979 28.7659 6.22821C28.6379 6.24663 28.5078 6.21343 28.4042 6.13591C28.3006 6.0584 28.2321 5.94292 28.2137 5.81488C28.1953 5.68684 28.2285 5.55673 28.306 5.45317C28.3587 5.38609 29.6619 3.71875 33.7776 2.42991C33.8838 2.39655 33.9984 2.40126 34.1016 2.44323C34.2048 2.4852 34.2901 2.56181 34.3429 2.65989C34.4244 2.81321 36.3361 6.44974 35.9288 9.88504C35.9159 9.99483 35.8655 10.0968 35.786 10.1736C35.7066 10.2505 35.603 10.2975 35.4928 10.3067Z" stroke="#8CC63F" stroke-width="0.379999" mask="url(#path-1-outside-1_5_20)"/>
<path d="M14.4121 10.3067C14.2943 10.3075 14.1804 10.265 14.0921 10.1872C14.0037 10.1095 13.9471 10.0019 13.9329 9.88504C13.5257 6.44974 15.4374 2.81321 15.5188 2.65989C15.5716 2.56181 15.657 2.4852 15.7601 2.44323C15.8633 2.40126 15.9779 2.39655 16.0842 2.42991C20.2238 3.71875 21.527 5.38609 21.5989 5.45317C21.6373 5.50319 21.6654 5.56028 21.6817 5.62118C21.698 5.68208 21.7022 5.7456 21.694 5.80811C21.6857 5.87062 21.6653 5.93089 21.6338 5.98549C21.6022 6.04009 21.5603 6.08795 21.5102 6.12633C21.4602 6.16471 21.4031 6.19287 21.3422 6.20918C21.2813 6.2255 21.2178 6.22966 21.1553 6.22143C21.0928 6.2132 21.0325 6.19274 20.9779 6.16121C20.9233 6.12969 20.8755 6.08772 20.8371 6.03769C20.8371 6.01374 19.692 4.62908 16.2327 3.4696C15.7775 4.42785 14.6229 7.22592 14.9295 9.77005C14.9368 9.83267 14.9318 9.89613 14.9145 9.95678C14.8973 10.0174 14.8683 10.0741 14.8291 10.1235C14.7899 10.1729 14.7414 10.2141 14.6863 10.2447C14.6311 10.2753 14.5705 10.2947 14.5079 10.3019L14.4121 10.3067Z" stroke="#8CC63F" stroke-width="0.379999" mask="url(#path-1-outside-1_5_20)"/>
<path d="M33.9414 46.586C33.8937 46.5932 33.8453 46.5932 33.7976 46.586C29.682 45.278 28.3788 43.6107 28.3069 43.5436C28.2685 43.4936 28.2404 43.4365 28.2241 43.3756C28.2077 43.3147 28.2036 43.2512 28.2118 43.1886C28.22 43.1261 28.2405 43.0659 28.272 43.0113C28.3036 42.9567 28.3455 42.9088 28.3955 42.8704C28.4456 42.832 28.5027 42.8039 28.5636 42.7876C28.6245 42.7713 28.688 42.7671 28.7505 42.7753C28.813 42.7835 28.8733 42.804 28.9279 42.8355C28.9825 42.8671 29.0303 42.909 29.0687 42.9591C29.0687 42.9878 30.2138 44.3677 33.6731 45.5271C34.1522 44.5689 35.2829 41.7708 34.9763 39.2267C34.961 39.0996 34.9969 38.9717 35.076 38.8711C35.155 38.7704 35.2708 38.7053 35.3979 38.6901C35.525 38.6748 35.6529 38.7107 35.7535 38.7898C35.8542 38.8688 35.9193 38.9846 35.9345 39.1117C36.3418 42.547 34.4301 46.1835 34.3486 46.3369C34.3085 46.4104 34.2497 46.4721 34.1782 46.5158C34.1068 46.5595 34.0251 46.5837 33.9414 46.586Z" stroke="#8CC63F" stroke-width="0.379999" mask="url(#path-1-outside-1_5_20)"/>
<path d="M15.9651 46.5859C15.8789 46.5862 15.7942 46.5632 15.72 46.5193C15.6458 46.4755 15.5848 46.4124 15.5434 46.3368C15.462 46.1835 13.5503 42.5469 13.9576 39.1116C13.9651 39.0487 13.985 38.9879 14.016 38.9327C14.0471 38.8774 14.0887 38.8288 14.1385 38.7897C14.1884 38.7505 14.2454 38.7216 14.3064 38.7045C14.3675 38.6874 14.4313 38.6825 14.4942 38.69C14.5571 38.6976 14.6179 38.7174 14.6731 38.7485C14.7284 38.7795 14.777 38.8212 14.8161 38.871C14.8553 38.9208 14.8842 38.9779 14.9013 39.0389C14.9184 39.0999 14.9234 39.1637 14.9158 39.2266C14.6092 41.7756 15.7638 44.5545 16.219 45.5271C19.6926 44.3628 20.8138 42.9734 20.8234 42.959C20.9009 42.8561 21.0161 42.7881 21.1437 42.7702C21.2713 42.7522 21.4008 42.7856 21.5037 42.8632C21.6066 42.9407 21.6746 43.0559 21.6925 43.1835C21.7105 43.3111 21.6771 43.4406 21.5995 43.5435C21.5468 43.6106 20.2436 45.2779 16.128 46.5668C16.0752 46.5825 16.0201 46.589 15.9651 46.5859Z" stroke="#8CC63F" stroke-width="0.379999" mask="url(#path-1-outside-1_5_20)"/>
<path d="M40.5635 35.5517C40.231 35.5596 39.8982 35.5484 39.5669 35.5182C39.4399 35.5029 39.3241 35.4378 39.245 35.3372C39.1659 35.2365 39.1301 35.1086 39.1453 34.9815C39.1606 34.8545 39.2257 34.7387 39.3263 34.6596C39.4269 34.5805 39.5549 34.5447 39.6819 34.5599C42.2309 34.8666 45.0098 33.7119 45.9824 33.2567C44.8085 29.74 43.4287 28.6619 43.4191 28.6523C43.313 28.5755 43.2418 28.4596 43.2211 28.3302C43.2004 28.2008 43.232 28.0685 43.3089 27.9624C43.3858 27.8563 43.5016 27.7851 43.631 27.7644C43.7604 27.7438 43.8927 27.7753 43.9988 27.8522C44.0659 27.9049 45.7332 29.2081 47.0221 33.3238C47.0554 33.4301 47.0507 33.5446 47.0088 33.6478C46.9668 33.751 46.8902 33.8363 46.7921 33.8891C46.6532 33.9802 43.673 35.5517 40.5635 35.5517Z" stroke="#8CC63F" stroke-width="0.379999" mask="url(#path-1-outside-1_5_20)"/>
<path d="M43.7058 21.2261C43.6314 21.2261 43.558 21.2088 43.4915 21.1755C43.425 21.1422 43.3671 21.0939 43.3225 21.0344C43.2457 20.9334 43.2122 20.806 43.2292 20.6802C43.2463 20.5545 43.3126 20.4406 43.4135 20.3637C43.4422 20.3637 44.8221 19.2186 45.9816 15.7593C45.0233 15.3041 42.2253 14.1495 39.6811 14.4561C39.6185 14.4634 39.5551 14.4583 39.4944 14.4411C39.4338 14.4239 39.3771 14.3948 39.3277 14.3557C39.2783 14.3165 39.2371 14.268 39.2065 14.2129C39.1759 14.1577 39.1565 14.0971 39.1493 14.0345C39.1344 13.9087 39.1699 13.7822 39.248 13.6826C39.3261 13.5829 39.4405 13.5182 39.5662 13.5026C43.0015 13.0954 46.638 15.0071 46.7913 15.0885C46.8894 15.1413 46.966 15.2267 47.008 15.3299C47.0499 15.433 47.0546 15.5476 47.0213 15.6539C45.7324 19.7695 44.0651 21.0728 43.998 21.1446C43.912 21.2027 43.8094 21.2313 43.7058 21.2261Z" stroke="#8CC63F" stroke-width="0.379999" mask="url(#path-1-outside-1_5_20)"/>
<path d="M9.34396 35.5517C6.23446 35.5517 3.25433 33.9801 3.11538 33.9083C3.01731 33.8555 2.94069 33.7701 2.89872 33.667C2.85675 33.5638 2.85204 33.4492 2.8854 33.3429C4.17424 29.2273 5.84158 27.9241 5.90866 27.8522C5.95868 27.8138 6.01577 27.7857 6.07667 27.7693C6.13757 27.753 6.20109 27.7489 6.2636 27.7571C6.32611 27.7653 6.38639 27.7858 6.44099 27.8173C6.49559 27.8488 6.54345 27.8908 6.58183 27.9408C6.62021 27.9908 6.64836 28.0479 6.66468 28.1088C6.68099 28.1697 6.68516 28.2333 6.67692 28.2958C6.66869 28.3583 6.64823 28.4185 6.61671 28.4731C6.58518 28.5277 6.54321 28.5756 6.49319 28.614C6.46444 28.614 5.05582 29.7639 3.9251 33.2183C4.88334 33.6975 7.68141 34.8282 10.2255 34.5216C10.3526 34.5063 10.4805 34.5422 10.5812 34.6212C10.6818 34.7003 10.7469 34.8161 10.7622 34.9432C10.7774 35.0703 10.7416 35.1982 10.6625 35.2988C10.5834 35.3994 10.4676 35.4645 10.3405 35.4798C10.01 35.5229 9.67726 35.5468 9.34396 35.5517Z" stroke="#8CC63F" stroke-width="0.379999" mask="url(#path-1-outside-1_5_20)"/>
<path d="M6.20092 21.2211C6.09562 21.2222 5.9929 21.1885 5.90866 21.1253C5.84158 21.0726 4.17424 19.7694 2.8854 15.6537C2.85204 15.5475 2.85675 15.4329 2.89872 15.3297C2.94069 15.2265 3.01731 15.1412 3.11538 15.0884C3.2687 15.0069 6.90523 13.0904 10.3405 13.5025C10.4676 13.5177 10.5834 13.5828 10.6625 13.6835C10.7416 13.7841 10.7774 13.912 10.7622 14.0391C10.7469 14.1662 10.6818 14.282 10.5812 14.3611C10.4805 14.4401 10.3526 14.476 10.2255 14.4607C7.70537 14.1493 4.89771 15.304 3.9251 15.7592C5.08936 19.2328 6.47882 20.3539 6.49319 20.3635C6.59337 20.4412 6.65869 20.5554 6.67486 20.6811C6.69102 20.8068 6.65671 20.9338 6.57943 21.0343C6.5348 21.0923 6.47748 21.1392 6.41186 21.1716C6.34625 21.204 6.27409 21.221 6.20092 21.2211Z" stroke="#8CC63F" stroke-width="0.379999" mask="url(#path-1-outside-1_5_20)"/>
<path d="M24.9532 30.1377C23.8379 30.1377 22.7476 29.8069 21.8202 29.1873C20.8928 28.5676 20.17 27.6869 19.7432 26.6565C19.3164 25.626 19.2047 24.4922 19.4223 23.3982C19.6399 22.3043 20.177 21.2995 20.9656 20.5108C21.7543 19.7222 22.7591 19.1851 23.853 18.9675C24.9469 18.7499 26.0808 18.8616 27.1112 19.2884C28.1417 19.7152 29.0224 20.438 29.6421 21.3654C30.2617 22.2928 30.5925 23.3831 30.5925 24.4984C30.5912 25.9936 29.9966 27.4273 28.9393 28.4846C27.8821 29.5419 26.4484 30.1364 24.9532 30.1377ZM24.9532 19.8174C24.0274 19.8174 23.1223 20.0919 22.3526 20.6063C21.5828 21.1206 20.9828 21.8517 20.6285 22.7071C20.2742 23.5624 20.1815 24.5036 20.3621 25.4116C20.5427 26.3197 20.9886 27.1537 21.6432 27.8084C22.2979 28.463 23.1319 28.9089 24.04 29.0895C24.948 29.2701 25.8892 29.1774 26.7445 28.8231C27.5999 28.4688 28.331 27.8688 28.8453 27.099C29.3597 26.3292 29.6342 25.4242 29.6342 24.4984C29.6329 23.2573 29.1394 22.0674 28.2618 21.1898C27.3842 20.3122 26.1943 19.8187 24.9532 19.8174Z" stroke="#8CC63F" stroke-width="0.379999" mask="url(#path-1-outside-1_5_20)"/>
<path d="M19.8455 24.2493C19.8061 24.2587 19.7651 24.2587 19.7257 24.2493C13.0707 22.582 8.95507 16.6361 9.49168 9.48283C9.49939 9.368 9.54818 9.25978 9.62911 9.17796C9.71005 9.09614 9.81774 9.04619 9.93248 9.03724C14.3021 8.68748 18.2884 10.1248 21.1583 12.9996C22.8862 14.7404 24.1084 16.9182 24.6942 19.3C24.7253 19.4233 24.7062 19.5539 24.6411 19.663C24.5759 19.7722 24.4701 19.851 24.3468 19.8822C24.2236 19.9133 24.093 19.8942 23.9838 19.829C23.8747 19.7639 23.7958 19.658 23.7647 19.5348C23.2221 17.3202 22.0877 15.2947 20.4827 13.6751C19.1608 12.3851 17.5809 11.3895 15.8468 10.7537C14.1127 10.1178 12.2636 9.85616 10.4212 9.9859C10.1002 16.454 13.8996 21.7867 19.9605 23.3103C20.0876 23.3255 20.2034 23.3906 20.2824 23.4913C20.3615 23.5919 20.3974 23.7198 20.3821 23.8469C20.3669 23.974 20.3018 24.0898 20.2011 24.1688C20.1005 24.2479 19.9726 24.2838 19.8455 24.2685V24.2493Z" stroke="#8CC63F" stroke-width="0.379999" mask="url(#path-1-outside-1_5_20)"/>
<path d="M38.7321 40.0076C32.1394 40.0076 26.7876 35.9973 25.2161 29.7256C25.2002 29.6646 25.1966 29.601 25.2054 29.5386C25.2141 29.4761 25.2351 29.4161 25.2672 29.3617C25.2992 29.3074 25.3417 29.26 25.3921 29.2221C25.4425 29.1843 25.4999 29.1567 25.561 29.1411C25.6224 29.1253 25.6863 29.1219 25.749 29.131C25.8116 29.1401 25.8719 29.1615 25.9263 29.194C25.9806 29.2265 26.028 29.2695 26.0656 29.3205C26.1033 29.3714 26.1305 29.4293 26.1456 29.4909C27.6692 35.5517 32.997 39.3512 39.4843 39.0302C39.6153 37.188 39.3547 35.339 38.7196 33.6048C38.0846 31.8706 37.0895 30.2906 35.7999 28.9686C34.1805 27.3623 32.1551 26.2263 29.9402 25.6818C29.817 25.6513 29.711 25.573 29.6454 25.4643C29.5798 25.3556 29.56 25.2254 29.5904 25.1021C29.621 24.9789 29.6993 24.8729 29.8079 24.8073C29.9166 24.7417 30.0469 24.722 30.1702 24.7523C32.5546 25.3378 34.7344 26.5619 36.4754 28.2931C39.3501 31.1678 40.7396 35.1397 40.4138 39.5141C40.4048 39.6288 40.3549 39.7365 40.2731 39.8174C40.1913 39.8984 40.083 39.9472 39.9682 39.9549C39.5514 39.9932 39.1393 40.0076 38.7321 40.0076Z" stroke="#8CC63F" stroke-width="0.379999" mask="url(#path-1-outside-1_5_20)"/>
<path d="M30.0556 24.2492C29.9468 24.2526 29.84 24.2189 29.753 24.1536C29.6659 24.0883 29.6036 23.9952 29.5765 23.8898C29.5607 23.8285 29.5573 23.7646 29.5663 23.7019C29.5754 23.6392 29.5968 23.5789 29.6294 23.5246C29.6619 23.4702 29.7049 23.4229 29.7558 23.3852C29.8068 23.3476 29.8647 23.3204 29.9262 23.3053C32.1394 22.7653 34.1636 21.6323 35.7811 20.0281C37.0706 18.7059 38.0659 17.1259 38.7017 15.3919C39.3375 13.6578 39.5995 11.809 39.4703 9.96657C33.0022 9.64555 27.6648 13.445 26.146 19.5059C26.1303 19.567 26.1028 19.6244 26.0649 19.6748C26.0271 19.7252 25.9796 19.7677 25.9253 19.7997C25.871 19.8318 25.8109 19.8528 25.7485 19.8615C25.686 19.8703 25.6225 19.8667 25.5614 19.8508C25.4391 19.8192 25.3342 19.7405 25.2696 19.632C25.205 19.5234 25.1859 19.3937 25.2165 19.2711C26.8694 12.6113 32.8201 8.50045 39.9686 9.03707C40.0834 9.04478 40.1917 9.09356 40.2735 9.1745C40.3553 9.25544 40.4052 9.36312 40.4142 9.47786C40.7639 13.8522 39.3266 17.8385 36.4519 20.7037C34.7118 22.4326 32.5337 23.6549 30.1514 24.2396C30.1199 24.246 30.0878 24.2492 30.0556 24.2492Z" stroke="#8CC63F" stroke-width="0.379999" mask="url(#path-1-outside-1_5_20)"/>
<path d="M11.183 40.0027C10.7709 40.0027 10.3541 40.0027 9.93248 39.9548C9.8185 39.946 9.71143 39.8967 9.63059 39.8159C9.54976 39.7351 9.50049 39.628 9.49168 39.514C8.95507 32.3607 13.0707 26.4148 19.7257 24.7571C19.7871 24.7413 19.8509 24.7379 19.9136 24.7469C19.9763 24.756 20.0366 24.7775 20.091 24.81C20.1453 24.8425 20.1927 24.8855 20.2303 24.9364C20.268 24.9874 20.2951 25.0453 20.3102 25.1068C20.3406 25.2301 20.3209 25.3604 20.2553 25.4691C20.1897 25.5778 20.0837 25.656 19.9605 25.6866C13.8996 27.2102 10.1002 32.5428 10.4212 39.0253C12.2639 39.1578 14.1137 38.8975 15.8482 38.2615C17.5828 37.6255 19.1624 36.6283 20.4827 35.3361C22.0877 33.7184 23.2222 31.6945 23.7647 29.4812C23.7801 29.4202 23.8074 29.3628 23.845 29.3123C23.8826 29.2618 23.9298 29.2192 23.9838 29.187C24.0379 29.1547 24.0978 29.1334 24.1601 29.1243C24.2223 29.1152 24.2858 29.1184 24.3468 29.1338C24.4079 29.1493 24.4653 29.1765 24.5158 29.2141C24.5662 29.2517 24.6088 29.2989 24.6411 29.353C24.6733 29.407 24.6946 29.4669 24.7037 29.5292C24.7129 29.5915 24.7096 29.6549 24.6942 29.716C24.1043 32.0906 22.8824 34.2612 21.1583 35.9973C19.8462 37.2957 18.2879 38.3189 16.5749 39.0067C14.8619 39.6946 13.0287 40.0332 11.183 40.0027Z" stroke="#8CC63F" stroke-width="0.379999" mask="url(#path-1-outside-1_5_20)"/>
</svg>
